<mxfile host="65bd71144e">
    <diagram id="5nm17qQqph_zus_AWZ4L" name="Page-1">
        <mxGraphModel dx="967" dy="778" grid="1" gridSize="10" guides="1" tooltips="1" connect="1" arrows="1" fold="1" page="1" pageScale="1" pageWidth="850" pageHeight="1100" math="0" shadow="0">
            <root>
                <mxCell id="0"/>
                <mxCell id="1" parent="0"/>
                <mxCell id="2" value="&lt;font style=&quot;font-size: 26px;&quot;&gt;Random Word Generator, with Js (API)&lt;/font&gt;" style="text;strokeColor=none;align=center;fillColor=none;html=1;verticalAlign=middle;whiteSpace=wrap;rounded=0;" vertex="1" parent="1">
                    <mxGeometry x="165" y="30" width="520" height="30" as="geometry"/>
                </mxCell>
                <mxCell id="3" value="" style="shape=image;imageAspect=0;aspect=fixed;verticalLabelPosition=bottom;verticalAlign=top;image=data:image/png,/9j/2wBDAAYEBQYFBAYGBQYHBwYIChAKCgkJChQODwwQFxQYGBcUFhYaHSUfGhsjHBYWICwgIyYnKSopGR8tMC0oMCUoKSj/2wBDAQcHBwoIChMKChMoGhYaKCgoKCgoKCgoKCgoKCgoKCgoKCgoKCgoKCgoKCgoKCgoKCgoKCgoKCgoKCgoKCgoKCj/wAARCAU1B9ADASIAAhEBAxEB/8QAHAAAAwADAQEBAAAAAAAAAAAAAAECAwQFBgcI/8QAVhAAAgIBAwMCBAQDBQQGBQQTAAECEQMEITEFEkFRYQYTInEHMoGRFKGxCCNCUmIVcsHRFiQzkqKyFyVDgsImNDZEU2Oj0uE1RWSEs/DxJzdzg1R0w//EABoBAQEBAQEBAQAAAAAAAAAAAAABAgMEBQb/xAAsEQEBAAIBAwMDAwUBAQEAAAAAAQIRAxIhMQQTQQUyURQiYSMzQlJxFYFD/9oADAMBAAIRAxEAPwDjeRphQjg/eG2HAv1GFF7AxBQBYAAQBYC8gUheQEA7HexPgAGAgAqxLYQwh2CEHADD7CAB2DAQUXtwAgfAQWO/UQNgHsg+7EADCxBYDsX9ACwGmw4EADsVgDAAQgv0AYMQX+4APwIAhh4FyHgA8gAAACGAMGAgDYAGwCgFYIAAAAAAACtgQgCAfgQAAMAAEMQAABYAAAIAGAgAAAIAsAQAACABi8gAAAMBD8CsLCHsIAsKAACoEACZAwAQDABWUABwgAPOwCsP6hDJ5GKyFMBX6AUNvYBAyAdCACoAACAAAYC2GJAEAMAAAXuAV7lAIbEAMGMQB4ABAAMGAAAgCABDAAEmNsADgLCwAABgJ8jQgCBgDABMYmAQAAFAAWAAwAQDEAMBiAABhwDEwhiAQDe4gAIBiCwoC9g+wBCAAQQxPkGCABMbEmUAAAAwEIIbEuA8AABYUIBgAFQB43E2AAABuACK5EAhDAIQAAAAB4AAAAgEAFAHgGACAYmEMQCAYmA2AkAxBAAAFFjFYAOx2SAWVQyQBtSASALKuwskCNbZEwsgfgi7WmNMhMd0NNSrsqzHY7I1KyJjshMdkalZLCyEykw1taY0yEFkalZLKTMVlJ7BZWRMZjTHe5GtrTKsxpjTBtaHZNgFWgsmx2F2qwTJsYXarAm9xpkXagv1JTGmUMZI2wKsCbCwqgsVisiD9QXoKwsrJ8CGLyUOwsQPciBgFgFCYP2AT4KhgIfHJAB9hBdFAMTBED3Bg7EUML3ED3Ad7chYC9gGF+gg8ADYMLEwGAkBEPkQAUOwF4AgAACgGJhuAWAAAAALcAsL2EMAABAFjQgsIYgAADyAAHkAAAsAAA8gFiAdisLABiEhgNiCxIBgLyAAAAECGxIAAYmgAAAAALAAEAAwEMACAAAAAAsBcgF+geQgCxDCkPwILCAYl6hYBwFBYAAA/QPsAAIEAWwAQDEMVhAIfIUDRDYC8gA0JhYQMNg4EAwFQwaANidjYCBjsQAFCBhAxisAAABFAKxiANxAAAwAAANhDAAEMAEHkb4CF4AAAA+4MLCCgAQUw8CsAgHsIAAQxFQfcAAAAAAAEABYAAQAFiYAHgENgJsBDAPIvIAEDBAAAACAbEIZUCCgABeRiYfYHgCGAC8AFAwgBgIB+AFuBUMTAAExhYMAEAAAAIIAGIABiGACAYQgATKGhN7gASgAAAE9wAAQAAQAAgGAA9gEMQAMBAAwEgAdjskdhdqTAlMdhdqsCbGRdqspGNDTDUq0x2RY0yNSrsaZFjsNbWikzGmOyNSsqY7MdjTIu12OyLHYa2tDsix2RdrTKsxjTDUrImOzHfuOyNbZEOzGmVYFphZHcOwu12AgsKoBBYNqsE9yQYXaxWKxkXakIV7DAP6ggE9ysmxAAAFgAAFhsABYmDAIB2IEAwBMABBe4gAdgIZQAICB8AIAAAAIAAAo8AABBYAIAGIAGILAoYCAgAALAPAAgAGAPgCgAFuAAIKAIYCAKYMBUEMVj8gArAGPwACAQDATAAsLAAAAAIGAWDABIaEAwEMAAAAAEwAbAQAAIAAADkQQwFYAAAAADEDAEDAAAEFgEIfArDngBgKwsACxWPkAbsBWADQmG6AAsQxBDCxAAxAAAHkLCwg/UBAA0IBANsBAAwYlwAAHIWJFQ6AXkAoEMQQxDEAAFiAAsGAAAAAAFi8hDQAxWDZsTGJgo3AYmEMQeAsABAAAIYmEAABQAAAAmAAHkBcDCEAxMAABMAAEDAYgAAAAAPAvIB9ggYB5EAwAQAAAVAAAAmAAwAAoAAQAVBYMAAAAAEAAEAAJgAAMBAHAghgIbKEMQAAAACsBiYQAxIGEAAAAAgCGIYgAAYAAB4AAABAAxWFhDAQA2djRIWF2oPIrALtQWILC7VY7IsdkWVaGmRY0w1KtMdkWOyNSrTGRY0xpqVaZSZjsd0RqVkTHZjTGmRZWSxoxpjsNbZAIT3KsiyqsdkWNMNbZE/UaZjspMLtaY7ITCyKu9x2Qh3uFXY0yExphVDZNgBQJiALtQIQBDAQIBi8hYeoQ2JAAUMBDYQIPIhgABz5AAC9xAA2AAAAAAAAIAAAAGwYfqAQAAAAAACGAAAAAAAMQDBgIBiBggGAg8AAACAAACgAKAIAEMAALBgIYvuADQbCAAYAAAAAAAAUAAwABDFQBDFwAAAxAA2IYmAAAAACAAoYgABDAIA4AAFe4B5GBIDEEPwAgAADkAEAAACGHIAAAAeQALAAEAQMQwASYeBgAvAADAAAQQAAgG+QYXuAC8DBi8AHLAAKABAEOxBYAAAAAIAAAAAAAABDsVAEAMYgGLyCAADwIYQCHYIGhYMKEAAAFQgGJgAWAAAAACALAIOBDEwAAQMAAAABDoQDEH3DgAAACAQwAQDFZQAABBYgAAABAADEUAAAAAAEAgCgeQAMAEAAEAUAAAAIqAYgAAAAABAEFgIYCAACAABgAgAIABAAhgIB0JgFgAAAQAIAAAYAFgAAMBX6ggp2MQgKsLEwTBtYEgGtrHZF7jsLtQ0yQsjW12NMhDsjW12UmYx2NNSsiY09jHY0RqVkTGmY7KTC7WmNPchPYLIu2ULIsdka2tOgTslMaYa2sdkMaC7VZVox2UmRVWNMiwsKyWFkpgmDbKAhhQAcCAYCsYAAmAQAAIABAAAgAAAPIAAAAAAAAAAhgACGELyACAoBDALEA2Ahi5AACw5FuAwEMAAAAAAAAA4AADcAsAAACABJjQAg/oAFADDgCBAFAUAUCDYAAQwAAAIA5AAAQwABMAAAAAAAAACwAAExgACGACBg/YW4QwAQDEOxMADwCABeyGJgA2IGABYALYAAEAQCAAGACAYCGAgYCCGAWJgAAFgAuQv1AIBiAAAOQYAKwAoGFhyLgBhYhgDEAAABYBCGAmAAAAAgvcd7AIAAAAAAYgABiYByEHIqCgewQAAADAGCAPAAJgNiACoAAAEwYAwEMBBDF9hiQUAAAAUMQBYh0JhAAAABygBgIAAqAAYAAvIxBAMACkIbFwEAADKAAAA3EAMIAAOQAQxBAAcgACAAGIAKhiAAAQeQCAAEAwAAEACDJiaBgFAAAQAAgGxIBgJiGIBiAAgAGABYAIBi8gC2AYCsAGAgBswQgsB2NE2MLsx2TYWF2uwTJAG12MgaZGpV2CZNhYWVaY0ybANbZE9hpmOxpk01KyWxpkAmRrbJY7Isa5DW2RPcaZjsaZF2yJjRjsaYa2sae5FjRFlWMix2GtrsdmOyrsi7bDEwANBAJD8gAeADkAAQwgABAOwEFAOwBCAB2IAAYgQDAQAAWAAAxAAMAAILsAoAAYgpAABsAB5BAFgABYcgAMAASHyHIMADwIf8AQBAABADAABDEMoBLYYiABDEyhiGIAAKAAoPAA0AIAAIBMfAAIbBCe7ABiGAgAAAAEuQGAB4AA8hYALyAAEAAGwCCwAAENAwATAfgBBYAACGxbADEhiCAADyAMAAAAAAA8bCsYQeQYWIB+ghiABAMBAAWAvIxDABNjskIYWIKKAAAAQAgAABisIYgAAABIBiYxAAAAAgYWAAAAECYCQwAQIKAAYAEAAIBiGIAAACAACwoAQFQAFhsAAAAIAAAAYgAFyAAAgAJsMAABWAAVAAAAAIAGDF9w2CCwBhYCAGwYAACKAEAAAMAYQAKxgIAAAAACAQwAQADAAEBUNiYAQCAGABYCAIGIaAqEAxMAAACEAMAAACwAQAwgAAAKAAAQAFgFgAADCw5ABAMQDEAeAGCYgvYBgIAGOybGDZpjslMYXarCyUxhVWNENjTC7XY0yLGmRra7CybHYa2tMdmOylwRqVdjshMEwsrJY09jHZVka2tPYaZjspMjUrJYWQmMLtdjT9CLHZGpW4AgI6gAAACwDyAAgAAGIAgAAAAAAGIAAAAPAAAAAAIdgACQwCw8CYwg8AAAFgFgAMQ7EwGgAADYQMEAAPkQDEPwIABAAQAtw/UEAAAAMBAAAnuMAEAcj8FCGOMW/sZFisJaxBRsxweDNHTP0DNyaPax9jZ0FpfYv8AhX6BOtzOxh2HUWla3aG9L5aCe45Tg/QlwfJ1npfREy0vsD3HLcWKjpS0vsY56evAXrjQYeDangoxywtBephAtwfoS0FIAAKBWMAEADAQMLABAOgCFYAwsBAPwIAoAAAABMADyABCGHgTAAAAAQDAQ/sAghiAYCYAIBiAAAGDABDEABYAAQCGBQCAAAQwoIABIKAQ/A6YqAQeB0FewEh9imn6CpgAh0JgAAgsIEACYUAwYBAgYAAWMQAAhiCBAA2ACAAABDKDgQcgwALAABAFAEAADCkCAAgAAYACEAQOgAAAAaEUMQAEAhsQD8CQMAAB0IAewgAIACwYAIAKBAAAAAwAQAAQAAAAhgEIBgAgYCCGIYAIAEEMQxADAAKAGAMBeAH4EwgAAAQDE0AAAghiAAAAAAYhiCAPAAgAAABDEAQADAAEMPuAAAgGK/QYAL7jEDYDC9xDAaAQBdnY0SMKqwslDsLtaAgYXa7HZFhZF2uyr9zGNBqVksaZjHZGtsiYJkIdhrbImOyEx2RZV2NMiwTDW3RYWAGHpAAIBgAAACGAIAAIAAAAAAAABAMAEAxAAAAAAxMBgAhiAYCAIBiAAGgEAxD5BALkdiABiYAAAABAAAFAAAQIAAADkAAYh8lwjbBSUbZmhisyYsSdbG9g0970VzyzauPBxsbePS7cHQw6bZbG3j09+A8+XI52PS+xnjpfY6mPTeqM8NMHHLlciOmXoWtN7HZjpvYtab/SHO8zifw3sP8Ahq8fyO5/D7cEywpLdDZ7riPTexingR2cmNJbGrkxXYanI5U8S9DBkw1ydOWPwYJ4g6TkcyWHYxywbcHTeImWP2Dc5HJlg24NfJgo7jwr0MUtOmtkG5yODLHRjcaZ2Mum52NLLhoOsz20wouUKZHDDey4AACgQwsIQIbE2AbA/YNhWA7ABADALEAxAAQCGIAAGAAwAQD+4eBfcYCBAxBD8gAWACB8AAAHgAABAgGL7gwCBADYcgAUNIuMGDbHRSi2bEMLZmhgKza0442WsL9DeWH2LWH22Iz1NBYkNYdzfWBvwUsD9Cp1ND5PsNYNjpxwexljprW6InW5H8PsS9M14O6tL7B/CewT3HB+RvuQ8FeDvS0nsYpaX2G163EeF+hDxs7MtLvwjDPTbcDa9TkuJNHRlpjDPA14LtrqadCZnljaMbiDe0ANoQUCAAAAAIAAQDAQwAGMXkA+whsChAABAAeACkMBIIAQxAAAHgAYvIDAQAAQvIDABMBhXoAgHQ+0qJYFdgdoE8ANxYdoEgOhUEJgOhAIBiKAQ0gAAAQAAAEAAAAAAAAAggAAAAEMIBBYAAAAAIYggBgIqGAh2FIAAIAAAEAAwANg+wBCYDEAAAAAhgAgAAgEMGACGIIAAAAQxAHABygooLAVj4AYhWMAdWFioewBbEhgA2JMTDgG1NgJMZDYsaYgtBdqQCsPAXahpkWNMLtaYyBkalWNMx2O9wu2RMdkWOw1taY7MaY7I1K6wIAOb2gAD7gAbAAAAeNwAAAAAAAIAEMAFYwAAFYAMQAAIAXANgAeAsAAYhgAgABiAYQCYDAVDAAExiAA4AGFbANAIAAAAIAH4EgAAAAsAQcgOKs28MN+DDhjudHTY90yueWWmbTYW3wdPT4BaXFwdTBi9tw8nJmjBh9Ub2LT78GfT4L8HQxYONiPFnyNXHptt0Z4aZeEb2PDsZ4YduA895HPjp9uCvkbcHRWEHhDHuOXLFXgxZMTe1HXeD2McsHsFnI4WTA/Q18mD2O/PT+xr5NOnexWpyvPz078GGenrwd6enRilpvQOk5XAlgoh4jt5NLfizBPSv02K6Tlch4yflr0OlPTv0MTwtMjrjyNDJgUlwaGo0/sdx42a+bEmg7Y5vNZsVWzSyQpnoNTh24OZqMW7D1YZbc58i8mTJGmYw6gBAgGxMGHgAEAMAEMACgEAA9gAAgAAAKENrYKAQDfAgEA/AggYhgAuRiAAdhQAACAAAAsAANhDSsqCi1EIo2cOO62CWpx4rNrFh9jLhw8bG9hwcUiOWWemtDAZoYqXBuwwe1maOnvwHK8jQ+V6IpYjoLT8C/h/Ic7yNOOLbgyRwo2FgadlRxtBm8jCsJkjjSZnjD2KULDPuMcIJ+C/lL0M0IUzMoWiJ1tCWNeUYpYl6HTlhbXBjen8UFnI5UsPtsYpYPY7D074oiWnDc5HEnp16Gvk0/sd+Wn80YZ6f2Dc5HnMunrwauXDR6LLpvY0c2nK645uFPHRhaOpmxVsaWSFFdZWsBUlTJAAEHgKaYCQwAAAIA5CxAA/sICgDwJDAQDEEMQxBQFgAQqAACUAwQ0rAQ0myowMsMdhGHtKUDajhMqwE2lrS7PYOz2OhHTv0LWm9ENs9TmfLfoPsaOp/CtrgP4avGw2nU5nZL0F2M6UsHsYpYnxQTqaLRNG28TF8op1tXtDsNuOKyo4fYbWZNGWNkuFHT+Ta4Ilg24G125riyaN2eF7mCeOvBdrtgAtxoiihAMQAAAwooEABAAhgIGAAAAAQgYDCEAAAAwBgAMAoIQDoKKF4AKCgEA6CghCKoGgEANCAGAAEAAIAAYgATGDASAEFBAAAAAAgDwIYBC3GAMBAwAoQ17hQUEIB0x9oEvcB9o+0CBpldou1gLkB9oUAgBoAGKwsAGmMnYdkUwsTYJg2qx2QMNbUNMiwTBtksLJsAu1plWY7CyNdTu0L7m7LAl4MTxbnJ9CZNcDJLG0Q0wpAABQAAEAAC4CgBDAAAQQwYAAeBIAAABAAAAAAIPAcIABgAAAAEFjAVgDGIAGIGFgMGKwAAsAAA8AAQIAAAAA+wAAAEIqO4i8atlG1ghbOvo8Zz9NA7WkgqRHm5Mm/pcR1tPiujT0uPg7OmhxsHz+XNnwYjew4icGM38OMjxZ5FjxbGaOLYzQgZowQcLk1liQfJ9jcUPA+z2G2OpovAS8Gxv9gOGxTqcyeA154DsSxmGWILMnGnp3fBjenvwdl4RPAvQq9bjPT7cGKWm9juPB7EzwewanI8/k0q9DTzaWvB6TJgrwaebBQdceR5zJgrg1s2Lbg7+fBs9jnZ8VWHqw5HA1GPZnJ1OKrPRanHVnJ1UOfUPdx5OBnhVmpJUzpamO7NDIuQ9eNYgB8gGwDAAEAyfIDEUVGLYRCXsUo+hnhhb5M0MD8Bm5NRY2xrE/Q6MdO2+DLHTP0DNzcyOFvwP5D8o6y0r9ClpvYM+44/yHQvk+x2v4b2Jem9gnW43yCXifodh6cxTwUF63KeNohxOhkxP0NeWN+ga6mq0FGaUfYjtC7Y2thGRx9iWgu0iG0JhdgAEA7AQyoC4qyUjNijZEtZMeM3tPjutjHggzqabDsmHLPLS8GHjY38OHakitPh24OjgweoeXPka+PT7GxDTbcbnRw6ZVujajgpcB5MuVxv4d+g/4fbg7fyE/APTewc7yuJ/DexL0zXg7f8AD+wnp/YM+64y07rcP4d+h1/4evAvkA9xyfktGXFidnSWn9jJDTu+CHuNKGC/Bb01+DoxweiMkdOE9xyf4bYmWk24O0tP6jeCvAJyPPz0vsa+XTex6LJg9jTzYQ648jzubBszQz4edj0WfBzsc3UYqt0Hpw5Hm9Th52OZnx1Z6PU49nscnU4+Wg9WGTi5I0YGtzezRNSaNO0rGAAiqEMFEtQsibQBmjj9iliBtr0FM2ViGsXJU21adjUWbSwlfJ9gbafaxdpu/Ja8bC+V7A6mm4sXazceP2D5aG020+1hTNz5V8CeB+ENrtpMdmy8L9DHLE0DbCBTixdoLTSMkI2wgtzZxY9xWbSxYrNvFh9i8OK6Ojp8Gxm1i5NXHpzPDS34N/FgRs48BHLLNzo6ZehljpfY6kNOZlp7G2LyOOtN7Ey0/sdx6elsjDkwvwNse44eTBRq5MO9UdzJhvwYHp34KvW4zwbi+RvujsPTNeBPTP0KdbkrB7FrT0dH+Hd8GSOB+hFmbnLT7cBPTbcHWjgsbwbbkbmbgZNM6tI0sun9j0+XB7Gjn0/JdtzJ5vLi7fBrzhR29Rg3Zzs2Nq9jUrpK0GgMs4mIqkAAUAAAAIBsBAwAIGAhgAhjUWEIDIoGSOJvwNptgUSlBmzHA/Qyx07Js20vlsPlm8sFeBPFQ2m2k4E9rNuUDFKJdptgrcdGX5bZSwsJ1MSjtwNwNiGJmVYNibOpo/LB4zoLTsT079Bs253Y0S4HRlgaXuYZ4WmNq0nEVGzKHsY5QKMIVsU4k0UIYAFLyAMAgEhgAgoAAAAAgEUkUogQ0FbGVQ9gcQjFRSRXaHaE2lJFdpcYmWONsbTbB2+w+w2ViK+TsTZtqdg1A2flUHyn6DZtr/L2F8s21jMixew2baDxkODOotPtwTLTV4GzbmPGyHA6UtO/CMMsLSLsaLiSbU8bXgxOJRisBtCAAsAKpp7hYg8EDsZI7XkLtQWTYWDa7CyU9gI1t9AnpvJhlp2lwegWnb8GOem2to5Os5nnp6c18mE9HPTLfY1cul9iO2PK87kxuJjqjr5tPzsaOXFTDvMttYBtVyINAAAKTABhAIYgAAGAhgIAAAAAEwAYAADEAAAMACAKHQUAgK7WNQfoDaGBk+Wx/JZdIxMDL8lh8qXoQ3GIGZflP0J+W/QG0AU4MXb7AIfkKYUAgAChD5EHkIEZ8K3MMTZwR3QZyuo6OjW6O3pI8HJ0a3R29ItyPHy11tHG2tjtaaBy9DHhUdnTLYj5vLW7gib2KJrYEbuMjx5VmxxMsUY4mWLDlT8j2EhrcMgKDgZRLiY5RMwnGwNavYFEyygJR3LsT2IXy/Y2Ix2KoJtoZMWxpZsXJ2ZxtGpmhyHTHJws+L2ObqcWzO9qMfJzNVAPTx5POarHVo42qjsz0Wtj+5wtYluV9HiycDVLc5uVbnV1i5OXmD34VrsBsQdQIbEAwSdglbM0MdhLSx42zaxYd+DLhxXRv4MIcss2tj05uYtNwbeLCtjdxYLDhlyNGGm42M8dL7bnTxafjY2oaX2RXDLlcdaX2B6f2O6tLtwD03sHP3nAlp3zRieD2PQvStcIwZNK1vTCzmcCeGjXnjR3M2ndPY0c2DbdEdJybcnJiTNbLh9jrTwO3sYnp35QdJyOJkxNeDE4ep2smm2exrT0290VqcjnOGxDxWtkdL+H/Yf8P6IjpM3Hlia8GNxo6+TT+xrZMHsGpk54jPPG0Y2itypsQwQXa4KzbwRNaC3N7Tx4sMZVu6WF1tsdjTY9kaOlhsjr6WG62I83Jk29Ni4s6umxKlsaulh+508EdkHg5MmbFjNmGMWKJuY4Ijy5ZMKxUP5Src2uxD7CudyaixITxJ+DccBOKIm2m8K9A+QbnYUoexU20Vg9i4YDdWOmXGH2B1NaODjYr5JtKPA+2iHU1flUuCZYzccTHOIWVoZMZpZonUyo0M6I641y9TBb0cvUx2Z2NRujlara0Hp465GphszkauCpnZ1HmzlanhlezDJxNRFJs0ci3OnnjZrPFbNR6Mcml2FwxN+Ddjgutjaw6bhUGupo49O3WxsY9K/Q6mHS+xsrTpVsGbm438NS4E8L9DtPT34Iel9gx7jjvC64KWH2Oo9L7C/h6ZdM+40I4PYzQ01+DdhhrwZ44/UJ7jmfwloiWlrwdnsXpuY5472B7jiT0yMTw7nblgvwR/C78fyGj3HIWLjYyLC/Q6i0vsXHT+w0vuOT/DWuDFk0u3B31pttyZab2Is5HmMmm34MTwbno8uk9qNael9i7a63Hhhp7m3hx7o2f4enwZMeLczUuTLp8R0cOOvBg08dzo4IcGXLLJeHFxtsbmPDaHhx2b2HETbz5ZsMNP8AqZ44DahjVcGaOPYbcbm0fkbGHJgTOt8vbcxyxDbPW4k9MY5abfg7bw78C+Qn4LtetxP4X2F/DeqO38hegPAU63D/AIZeglp/Y7bwL0Jen9iLORyo6f2Ken9jqrB7DeDbgNTkcPJg24NHUYfY9FnwLc5mpxU3sHbDN5zVYFbOVqcXOx6XU49mcjWY6vYsenHJ5/NCm9jWmqOlqIVZoZV7m46MADYjSkMQwF5BgAAAAADoEjNCFhERgZ4YrMuLCb2HT34M2o1MeBvwbWPTex0MOm42NzHpvYm2bk5kNK/CMi0p2Iab2LenDnc3Dnp68GvkxbcHeyafbg1Z6axGbm4U8Vvgj5LO29J7EPS+xqMdTlRw7cGSODfg6kdN7Fx09UQ6nPx6f2M8NN7HRhg9jPHA64Jasycr+Gu6Qnpd7o7K04PB+5Gpm4U9NSdI18mn9jvTw+1GvkwbcDbUyeeyYafBrTxex3c+D2NHLj34LtZXJlAxSjRv5IUa04mpWmsxGSSIZpUgAAHIAACAYJAJJmSMRxjZmhAIiMDJHGbGPF+pnji9jOxpPExfLZv/ACW+Bx0zY253Jz/lFRxex0f4V1wXHTOgxcmhHF7GaGJbG0tO14MkcLFTqayxbB8v0N6GC/BmhpuNiJ1OX8m+EUsD9DrrTUuCv4b2GzqciGD2MsMF+DqLTexcdM/QbJk58NP7FvS2ro6kdNsZFp36GdtdThT0vsa2TS+x6WWmNbLpudi7WZPL5tNV0jTy4a8Hpc+n5pHN1GGnwala24c4GKUaOhnxUzUyRNSq12BUlRJQAwC6KDyAMQNrtMQkANmuSmQNkV92x6Z1wOWk+nizsQ05Twc7HDbxTlecyaVejNPNp64R6fLp+djRzab2G3fDmeW1Gn52OZqcHseq1GCueDlavDtwR7uPk28vmx0azVHZ1OHnY5uaFNh7McttcGNoRWwAAFAAHIAIYtwhiAEAAAALyMAAA8AAAAIywx2EY1FtmSONs2sWnvwb2HR3WxdMZZyOZDTtvgzw0rfMTs4tFt7mzj0fsVxy5nCjo3tsZFo3fB6CGj/0mVaPjYOd53nY6N+hS0b9D0f8FtwJ6SuUGPfed/hWvBL03qehlpK8GGen8UNLOZw/4ZehL0qr3OvLAQsPsg17rkvS14MctN7HcWFMfyE0Rfdef/hXfBD09eDvSwGCeB+ganK4ssHsY3hfFHYlgfoYnge7aDU5HIljaIcaOpPD7GvPCGpm00tzawLgj5W5sYYtSQTKupo1sjt6NHH0i2O3oktiV4uWu1okdbT+Dl6RUkdXAR87kroYeUbkDTw+DbhwiPLkzwZkTMMWZEHNkXIEopIIaZSFQ6Kh0NAkUiontDtMg6AhIdFUD4AxyRrZlZtSMGULHNzx2Zy9VHZnZzrk5eqjsw74V57XxPO63yem6hH6WzzGv2bK+lwVwtY02zl5eToax7s52TkPo4MTEwfIg7wwSti8mWEQlVjx2zdw4r4Rjwxujo4MXAcssmTT4uNjoYcXsTghwb+nx8B5c81YMPGx0MGD9hYMJ08OLgPJnyMeLAtjbhhqtjNixexsQxh5ss2qsHmhvB7G/HH6D+WGOtznp9uDFPB7HX+URPFfgEzcDPpk/Bo5tJ6I9LkwX4NbJp/YNzkeXyaR+hglpq8HqJ6a9qNbJpPYOs5Xmp6dvwYZaa3wellpPYxS0ap7bk26Tlec/hl6Cen9jvS0fqiZaR14G3ScrgT023Bq5tNtwejnpaXBq5cHOwdceR5fNp6vY0cuKj0+fT87HM1Gnp8F29GObhSjQkbubD6ms4bldOpWJbnS0sNzTwQ4OrpYbIOeVdDSQ4OxpYbHP0sODs6bHwR4+TJuaeJ0sETV08TexRDw51sY0bEHsYYIyxDz1sQdlUYYWmZo2RlXaHZuWl6DoIhRRVFdpSjQEqN0Uo7lJFKIRFA0ZHEloDEzHNmWSMGUNRrZpGjmlzZtZnyc/UTI6YtTUS5OTqpcm7qcjVnK1OS73D0YNHUvk5uo3TNzUT9zQyStlevCtWULfgI4dzOo2zZxYuNiusyYMWDjY3sGn42M+DDstjpabTbcFZvJpqYdLxsbENI34Oth0nsbcNIvQPPlzOB/BNvgP4F+h6WOl9i1pFfAc7zPMLp78oH0/wBEeo/g/Yr+D9isXmeUeg/0j/gq8HqHol6EvRL0B7zzP8Hb4KjoG/8ACekWiS8GWOj9gXmeZXT/AGoP9n+x6paNegfwa9Btn3q8t/s/2F/AV4PVS0i9CXo1vsTazmry38F7EZNG/Q9RLS14MM9L7E26TmeWyaRpbo1MunrlHq8ul9jQz6X1Q2648rzc8FPgj5R2cunrwa0sNeCbdOtq4oU9jo6eNVsYIY6NzAqe5is5ZbbuCBvYo7Wa+BcG5jW5HmyrLCJnjH0MUDNEOVqu3b3IlEypD7So1+wOxGZoO3YIw/LD5ZmoEtim2H5aGsXsZ1H1MsYbA21Fh9glh+k31BUTOG3AJk5GbGtzl6vF5R3s8OTmamCph2wyee1MKvazj6uGzO/q4cnI1UVuix7cK87qlycvMtztayNHI1C3Nx6JWpKrJHLkk21AAxchQAxAA4qxGSKCLxxNvBj4MWGB09Ni42M2pavT4N1sdLT6fjYelw0lsdPT4fYy55ZaRhwLbY3MWn8UbODTvbY3cWD2I82XI0o6fbgb0+3B1o4B/I24DjeRw56f2ML02/B6B6dehEtMr4Ltn3Hn3pd+CJaXzR6D+FXoRLSr0Ls9xwf4Ya069DtfwtCWm9iHW5UMHsbEMHsdGOmXoZVgpcEX3HN+RXgieE63yaMU8O3BFmbjzxGtlxHYy4tjTzY/Yjpjm4ufEc7UYudju5se1nOzw2ZqOsycLNjo0ssdzr6mCOdmialblaM0YpI2MiMLNx02xiKYiqTAGCAC4rcSMuNbgXCJuYcTdbGPBjtnU02KzFrNpYcG3BsQ07b3Rt4MNo3MeC/BNsZZOdDTb8GeGl9jpY8G+6NiGm9ibccsnIWlVVQ/4WnwdtaXcf8ACv0LtzubhPTP0EtP7Heek9hLSew2z1OTi09mzj0u3B0sWk34N3FpNt0TaXNxo6XbgtaS3wd2OlXoZFpV6Bn3HBjpPYyR0jb4O6tN7FrTV4InuOHHRvytjKtI/Q7UdMqK/h/YHuOBk0rS4NPLp2rPTZcFeDQ1ODZ7BvHN5jPg5s5eqwV4PTanDXg5OqxXZXoxy28xqcdWczNGmeg1eLdujjamO5uNyudJGNmecdyO020x0OjIoFrGBgUSlA2Fi9iliGxrKPoNQNpYgeLYmxq9g+w2XChdvohsfpdYNhPD4N/5YPGed8eZOVkw+xqZsPNHbnj9jVzYduA7Y5vNavAmuDi6rFzser1WPnY4Wux03sHu4c3l9XjW+xyNRDdqj0Wqhd0cXVRK+nx5OVkVMxmxmW72Ncr0ygLExhQAAFD8AAAAmhh5CECGACYDF5ABrcVGXDDufqEVhx20dDT6e62HpMF0dnSaZbbGnDk5NMem0i22Ohh0uy2NzS6bjY6un0nForwcnM5uHR3wjbx6L1R18OlS8G3j01eA8eXO48NEq4MsdEvQ7UdMvQyLTByvM4X8Iv8AKTLSex6B6b2Mc9N7ET3XnMmkXoauXSeaPSZcGz2NTLg34DePK81k09GCeDfg9Dk0t+DBLR78FdZzOF8poawNnY/g36Fx0jXgaa95xVpXLwD0b32PQY9LS4Mq0ifgJ77y0tG/QxS0leD1ktEvQwT0K32I3jzvJZdLfg08uk24PW5tFs9jm59K1dB3w5tvNS09PgyY8NNbHTnp9+CY4dyOlz2nTQpo7OkStGlhx7nT00KolcOTLbq6XhHTwbnO0y2S9DpYSPBm3cTNqHCNTEbUA82TPEyIxRMkWGKyRMi4MaKvYMrsLMbl5J7ijKpFKRgTopSsI2FIpMwplKQGYTIUgcgFIwZWZJTNfJILGvmZztRW5v5N7NHOiu2Dj62KaaPL9RxbvY9bqo2jh67Fd7B7uHLTxmuxtWzk5YNNnqdbp93scfUaerD6XHm47XqSbOXDTZgoPTKcUbOGHGxixxtm7gjwGMsmfTQ9Do4IWjXwQ2Wxv6eG4ebPJs4IXR09Pj4NbTQ3So6unjXgjx8mbYwY0qo3sUODBhVeDbxh5MsmfHEzxRgjKjMpIONrMki0jDGZamEZFEOwIyRki0Ea8sZiliN2hdpDbnywX4MUtN7HUcL4F8rYL1OTLTeKMU9MvQ7TxexjliVhqZuLLTquDG9Ol4OzLCYZYiOkzcXLpl6GhqNOl4PQ5MXJo6jENuuGbzGpw0uDm6jCqPTajDzSOTqcXsWPZhm83nw2+DUlgp8Hcz4d3sassO5p6Jk0cWLc6ujxmLHho6ekxVRWM8m7o8XB18GPZGrpMfB1cGPjYjw8mTNggbuOBjwwNuEA8mVEYmWMbKjEyKJHPaVEyxiCiZIxKmxCJkURxiZYxDO2HtK7TN2jUAm2JRRSRl7UNRRBicSHEztETRBrTRq5nsbmTY0c4bjQ1D2OZqJUdDUvZnK1T2YdMXN1c6tnI1GU3tZI4mpn9RZHoxRlyWa75JlO2EXbLp3xrPijZv6fHdGvpo+x1dLjsNXLTY0uC62OxpcFIwaTFdbHY02OvAefPM8ODg3MeDbgy4cS2NyGL2DzZZtOOBehkWD2N1Y/YtY9w53JpfJvwP5C9DfWMr5Q2z1Oe9OvKF/Dr0Oi8QfK9Rs6nO/h1fBawJeDe+UivlobTqaPyUHyfY3+xegdiGzbnvCiXgOi8aJeIm1mTmSwexgyYPRHXli9jBPHtwG5k4uXBtwaGfCrao7+XHsaGoxbMjrjk89nw7s0cuLdndz41uc/Nj32I9GOTmdlMzYY7pFygZMUKl5MtWtnAqSNqGxgxqkZokca2IMyxlsYI2ZFwaYrOpbD7mYLdbD7gjJ3bg5UzE5kd/qBnUxqRrqZUZbhG5CRngaMJ0Z4ZAljbXBEzGsmwOdlRhzx9Dm6iN2dHK7NLOtmHXFwtZCrOHq48no9ZG0cTVw3ZY9fHXm9bHk42pPQ63G9/Q4Wrjubj1Y1z5PckqS3INusAACAAACqaTM+NGKBtYY2zNRtaeFtbHX0mLZGjpYbo7Omhx6mK55Vt6bHZ1tNiTNTTQ4OtpoXRHl5Mmxp8Xrwb2PFsiMENjdxx4I8mWSY4/Yt4tuDMkgfIcrWu8VkPGbL5JYTbVeNEvHubLJaLtWtLEkJY/YztDUSbGGOIyLEZoxKaQXbWeNcGCeNG7JIw5ERZXOzQ5OfnhszrZlyc7ULkjrjXKzR5Odnitzq6hHM1Kp7Fjtjk5OpjyczOua4OrquGcvOzcdZWjkW5gZny2YZHSOsrGyWWyGV0gBCGgKijYxR3MMDbwR3RKjd00Lo6+lxbcGhpI20drSQ2RisWtnBi4Zv4sNk6bH7HU0+DizLzZ56YcOn80bWPT0beLCZ44lQebLNpxwL0K+SbigDgGOppvCmhR06vhG8oWXHGE6mpDAr4NiGIzxxl9hDqYY4l6GSONWZEjJGPqVnbEsfsZI4jLGPqZYxCbYI4qKeL9TZUfYbigm3Ny4tmc/Pj9jtZo3Zz9RAN4157WY+dji6qHNHpdXDk4WsjTYerDJ53WY+djianF9TPSaqHJx9TC2zceiVxcmOiFjt8G/PHuKOLfgu25WrDF7GaGC/BuY8F+DYhp65J1G2hHB7FrBvwdGOD2G8WxNptzXjrwQ8Z0ZYbZLwDbNyc542Q8bOi8NeCZYb4RU6n6V7B9hlUdh9pxfJ21pYzVzw2Z0ZI1M8eQ3jXE1cNmcHXwuz02phdnF1uG00Hs4stPJ6tVZxNWt2eo1une7OHq9M2uDWn1OLOOBnW5qtUzp6jBJXsaOTFJFe3HKMIFdjQqfoHTZAwoAAAAAAAABDABAAAVHd0b2lx21samFW0djQ47fBY58mWo39FhqrXJ3dHgutjT0WG6PQ6LBsnRp8vn5GbSaeq2OrgwcC02LZbHRw4vYj5ueacWDg2YYfYy48e5sQgHnuTXjiMiwmwolqJGOpqPF7GOeJehvuPsRKINuXkwp3sa09OvQ684GB49+C7WZOTLTexjel9jsPEJ4V6Brrcb+E9ilpPY66wjWFDZ7jlx0tcoyLTe2501h2LWEHW5T0vsYcul24o7jwmHJiCzkeb1GmpcHK1Wmq9j1mowrezk6rDzsZenj5HlcuCnwYPlbnb1ODd7GpLFQeuZ7amPHub2CNVaMcIbpG3hjXIYyyben2N/EaWLajbxyI82TexPg2cbNPGzagw4ZNiDMsTDBmWJXOsqKFAurDLG0TRn7RdhTbDRSMigHYESmUpA4g4gDkJyE0HaBLdmORm7SJRC7ak1yamaLOlOBr5MfsG8a42fHyc3UYbvY9Blw7GnlwB6cM3k9XpbvY42p01Xse3z6a07RyNbo9nSD28fK8TqdPTexoZMNHqdVpqvY5mbT1exXuxzcmEaZuYI78CeGmbGCPBEyy22tPE6GCPGxq4I8HS00PNB5s8m5po0lZ0sO1GngjSRuQdIjx51tY3RmjM01MHkoOFb6y7clrKc35wvn+5GdOtHKZo5LORjzp1Rs4s1+QljpxmZ8crRoY8l+TaxOwzY3IPwZFGzDjNmCIxS7BOBmSH2+oTbXcCZQNhx2Ikgu2tKFGGeNPc25IwyDUrQyQ5NLPA6eZGlmjyR1xrkajEcnU41bO7qFdo5eojyWV6ePJxM2M1pY7OnnivBrOBdvTMmvjxU+DoabFwY8UPqOlpse6dF2znm3NJj2Opgx8GvpcdUjp4IeweLPJeKBswgGPGZ4xDz2pjEtRMkYlxiRlEYlxj6lKJSiVBFGRIVFIm0OhiABjJHZQETWxZMiDVymjnN/KaWdbEbjl6lUn6nH1eyfk7WpXJyNUtmHbFwNXs2cXVXZ3tZHk4eqW7NR3jnydSZkw7v2MM/zGxp1wadI6Wljx6nX0kODl6bwdfScoyZV2NLBbHX00PpRy9L4OxpVsg8udb+CPBtwiYMNUjcxh5sqahRSiNDoMkkOh0NUELtK7RjAns2DtLExsTQUUJgTQqKGRWNowZYmy2jBkCxpZVyaOeJ0Mhp5luR1xcrUQ5OflgdfNDyaWXGR2xrmPHuwhHdG1LGQobhvaoLYyxVBGBljEjNoSK4KUSu3YrLGyXzZlcSHFl0jHZLZkohxAju3GpA48gou9y6Ta4SZmjKzBGO5mgvUhtniyrIii0ERI18sWzakjDkVoNSuXqYbHG1uPk9BnhdnK1cNmWPRx15nWY7TODrcVNnqdXj5RxdbiuzUr2YV5rNDdmBo6epxUaE40bld4xAN8iNKAQDQVkgbmCJqYzdwLdGazXT0i4TOxpo8HK0lfqdjTeKMVxyrqaWPB19NHg5OmfB19O9jLx8ldHBSRsxlSNLG6Rk79iPNW33k95rfMJeX3CabXfsS5o1HmJeX3CabfduHdZrLJvuWpja6Z0i0YYyLUioyXRLkR3e5DkQW2Y5NC7iJPYisOXyc7UM38rtGjqA6YubqHycrUuzq51uc/UY01ZqOsrjanyzl5+WdvUYtjl6jFu9jcdJXLyPkwPc3MmLdmF4jcdsa12QzPLG0Y5QZXWVjGh0AaZMfJu6dWacDe038yVmuto48Hb0keDj6Pejt6Rbqlsc65ZOtpY3R1tPFUjm6RcHXwUqI8XJWzjhsZEqFj4LRHnqaH2lAAKJaSRKaspNeoFIpEJ2WmEUkXFWKL3Ki0E2yRRkiqMaZSkEZUxSJTBvYqMWXjc0dRw7NzI9maOoZGsXL1a5OHrFudzVPZnF1SK9OFcXUxtuzlaiHJ2dStzm5o8mo9ErmvHbMmLCZljuW6NnDjJa6SseLA6W1GeOnNrFj4M8cJnZa0lhH8heTofKE8Ww2za57wr0McsB05YuaMU4Jcl2za5rwkfJ9UdBwRDh6F2m36BoUjI0Y5GXzGKbNXK9jamauVE01K0dRwczURuzqZ1yc/ULYO+FcXV400ziavFyeg1UXTOTqINmo93HnpwM+Pfg0p4LfB3MmC2zF/Dtvgunrx5dOE9JfgiWkdflPRLTexX8Ja4DrOd5aelfoYJ6eSPV5NH6o082i2DrjzbealBrwQ0dnNpWr2NDLg7WR2mcrVAck1yINhiGACBDCPIRt6aO53dBCkjj6ONtHodFHZGnl5snZ6fj3iqPQ6THwcjp8eNjv6OK2D4/Nlt0NPDg38UTUwcG7i9SPDlWxjiZkkY4cGRMOVUkUiR2RDJkFkt+pREiGi5MhsglxQdqGnuUUSoItQ9gRaAFAtQCKMiCMbgYckOTaZimgsc3Pj2OZqsfJ288bTObqVyR1wycHUQ3ZoZYHX1MeTn5kHrxyaairM0FuS9ti4NEatbMODNCWxqqWxkjPj0IxY6GKXCNvHI5mKfubmKflFjjlG/BmxDc08UtjaxM05VswRmSMON7meKDFPtDtMqiPtKyxdodpmoKAwOIu0zSiLtAwOI6pGXtFQGOgcTJQNAYHDYxSxm3VicSLK588V+DXyYLs60oWYp4tg3MnDzafY5uq0+zVHpMuKznanDuw9GGbyGr0m72ONqNPTex7HVYbu0cfVabd7B7uPkeYy4KZGPHT2Ovn09Gs8LTug79exgjudLTx4NbT491sdHBj4I4cmTPiVGZcBGGxTjsR5MrtEpGGeSi5p9pqzvdFZOeem7ZheoMGV3ZqtysaV18Wo35N7BnTZ53Hka5N7TZd6Gk09LgybI6GCfBw9LkuvB1NPLdEc7HWxSNuD2OdilwbmOVkc620MxKRTYYORimypS2MM5BYmcjDKVDyTNbJkI3IMkrNTM9i55Ea2TJYbka2fhnOzq7o38js1csG0HfG6crLHcxdluzoTw2yVhLHWZtbHDfg39NHgmGL0NrDCisZZN3TUkdXT0zl4F5OjglQefJ0MaRmSNbHM2IyQcqtcFIlMpBlQ7RI0BaCybDyQWCZFjKiwJGQMUtwADXyI1cy9DcmauVbMNxy9StmcjVRO1qFZydUiOuLgayPJwtYuT0OtXJ5/XGsXoxcjJ+ZmfT7Ua2baRk0szbpi7WmeyR2NI90cHSz3R2dJPgyZPQaR7o7GlfBwtJLdHZ0stkHlzdfAzcxs5+CXBu42HmybCKTMXcPuIyyoNjE5UJzQ2aZu4O4wd6D5iBpnTHZr96H3obNM7Yu4w96H3oLpl7hdxi7yXMgySlsYckuRSkYpMNSJmzVy7meRr5OSNxq5V6Gpkjybs0a84h0jTlH2I7N7o25RJ7LYa2xxjsZIw9S4wLjHcM2pUSu0yRjRSiE2wdpDibXb7CcPYqbavb7EvGbahYvljabafZXgXYbbx+wnD2GzbX7C4oyOA1EbBFFIFGmUBLRiyR9TNRM1YWNDLG0c7VY7TOvkiaOeFh2xrzurx7Ojj6nHd7HpdVj2e2xx9Tip3RY9fHk83qsPOxys+Omej1WO7ORqcfNm5XpxyceSINnNCjXa3Nx0hDiJ8DiUrNjN7TmjjN7TmKxXV0vg62m9TkaV7nV0z3MuGVdbTP3OrgfFHH073R0sMqRh5c3RjOkKWU1++jFky1wHHTZln9zDLUe5p5MtGtPUerGjTpPUbciWo8HKeccM9l0O1jzX5NnHNPe9ziYsvub+HINJp04y2Ks1oSsyp2GVSkY5yHJmCbY0RXzERLNXkwZJNGtlm0yabjanmVGrlnaMUsjZjlK0NNTsx5pcmlmlsbOa6NDKnuakala+Zpo0M0O5ukb7jbF8o3Ozcrjy07b2Mb0rXg7v8PYpab2Lt1xrz8tP7GDJp/RHo5aW/BhyaRVuht2mTzksDXgxPC0+D0OTSexrZNLT4G29uTHFubmnjTM38PXCMuPFTWwYtbeiXB3NJscbTxapeTraV0Zrnk7mkfHDOrhlsqOJpZ1R08OTb3MvJnHSU+CvmUaSyUiZ5qI4ab3zV6i+ccyWcxvU+LC6db5yGs2xyP4lVyNahryNGnZjm9zJHNZxI6nfkyR1XvuDTuRyoyRmcbHqt+TZx6hPhhmx01ItTo0YZrMscgTTaUgcjX7xOYTSssjTzyMmSZqZZ8hqRp6p8nI1XmmdLUTOVqJcld8HO1C3ZoZVZv6h3sac1yadpWCEbZtYYbmKCN3DEza3KzYofsZ1AWJKjLaMM2pUBNclOWxDkE2TRgyK17mWUjDOXJYywySTZD2ZU+TE2/BofoVoxyRnaJlEafN21JxNbJFnQlAxSx2NLK5WXHszSzYtuDuTw34MGXBfgum5m81nw3do0cmkt8HqMmlTfBjekXoWR2nLp5Z6C/ALpx6paNVuilol6FanqK8rHp1LgtaCvB6laJLwD0a9CNfqK8pk6da4NDU9PabdWe3no/Y09Ro7vYjph6ivAanSVzE4+r0tbnv9bobT23PPa3S9rdoPocPPt43Phq9jSkqZ6HWaer2ONqMdNkfQwy21QG1Qg6Bl41bIMmLlbArp6OKtHoNEqo4WiXB39Eqo08PNXoNCtlsdvSvZHD0L2O1pXsiV8jldbA9jdxcHPwM38TDx5NqBkRijwjIiOSwBCYDbIkwbJbAGSwYuQHQ0JIYDTLjZKLRRUfcyIhFoIGY5FvgxyIrBl4Zz9Qtjo5OGaOdchvFx9THk5mdcnZ1Ebt0cvUxI9GFc2boISHmTsxpUHeM/cNZN+TXcq8kyyb8kNOhjybm7hybHFxZd+Tdw5fcsc88XbxT4NzFI4+DJdHRwzK8+UdLGzaxs0MUuDdxPYrlW1HgqiIMyIrBUFFBQE0FDoGBLRLRTZDkRUsAbJbAoa3IKTIK7SZRLTB7hWnlgaGohaOpkWxp5Yh0xriajFzsc/Np072O9mx2aebF7B3xzec1Gl32Rpz0rs9DmxbmnlxFejHNzcOGvBu4caQ4463ozQIzlls4w2JnHbcyrZGLIyOTBNbGnl2bNrI+aNaavcqxo5eWa9W/Ju5cVmP5TXgSjAoexsaeL7kXHC2bWDA7TobG7o1sjqYPBpaeFNbHQwx9iOdbmJ7I2scjTxmxBhzsbcZFdxr9wOfuRNMrn6mDJkJnkryambL7hZFZcvuaeTOYs2bk1J5bfJHWYtiWW/Jj7rMHfZcXuRrS3uTKGxkjui+2yjUlj9iXjN14xfKvwXa7aagZscTP8oqOMrNyPEjaxOqMMYmaCoMVtQkbEJGpAzQYYrbjMuMzVjIyKQZbSkh2YIyLUiJplE+SUwbCqsLMbkHcDTIpD7jD3ApA0z2Jsx9w+4GhPg1svDM0ma2V7bBY0dT5OVqqOrn3Ry9TwyOuLh63e/B57Xrdnodczz2v2RY9GMcTUvkjTzpj1b3ZqYp1M6ukd7S5N0drST3R5vSZPc7WknujNa8vS6Odo7Wklxuec0c+Dt6SV+TLzZx3MEjdxyOZglwbsJbB5co2+4UshgczHPJ7hnTYeQl5fc1JZNuTFLNXkjWm/80Xzkc56jfcl6j3G1mLprKP5xy1qFXI/nr1Jteh1FkK+Yc2Ob3Miy2U6W93h3Gsp2Wpe4Z0zXZLF4BbgTJW9zDJGxJEONhWpKJicDdcLIcA1tpvH7C+WbfZQuwG2v8v1H2mZxoVBdpSHQwCFQdpSKQEKI+wyJDSIjC4EOJtdpLiBquBKjubEomOSAx16A/sU0JoKkmRdCrcDXyRNXNCzoSjZhyQ2K1K4uox7M5Oqw2nsekzYtuDnajCmmV6MM3ldThaZydVp27dHrdRpr8HN1Gk52NR6sc3kNRp2zRyYmvB6zPpkr2OXqNOrexqV3mThODHGDOhLDT4HDD7F21a1ceOVm9gxvYz4dPfg38Om4tErnlkxaeDTR0tPyhYtO74N3FgrwZrhlWbDsdDFJ0jUxYjbhGjNcMmSU9jWy5NnuXmdRNHUSoRzY82b0ZqTzURqMnJp5J15NyJW28/ozJjzbqznRyPkz4pWXpZ26+nnwdTTO0jj6VXJHa0cLozVdDEnSNiK2JwwNmMCMWsEotmKWN0b/wAqxfL9gztzJ4/Y1MuHezsyxGvkw+xVlcSeJpk/Lb8HWlg3exKwew031OU8N+DBk01viju/w/sRLT34LCZPOS0rT2Ww4aU78tJfguGj9htqZ6cSOldbIr+EkeghpF6bl/wi9CN+4809I/QiWk9j1L0i9DFPR87FanK8ll0vOxqZdN7Hq8+jXa9jnajTV4Dtjybedlp6I+TTOtlw14NaeOuUGttbHE3MDpmHtaZlxhm109PPg6GPJstzk4JbL1NyGSjLhnHQeXbk18mbfZmGWTk1cuX3EcdM+TPya89RXL3NTNmqzTyZ93ubmKWuotT7oyLUHD+fb5M2PNvyOkldhZylqDmxyFfNGldWGoa8m1h1fG5wPnIyYs9eSaHqcep2W5uY89+TzOn1N1udHBn43Mp0u4sgSmaWLLe9mT5hGdMk5mpnnSZUpmrqJ2itSNXUZLbOfnktzYzz2NDNIO2Ma+aV2aszNklyzXlKitrg9zaxM04Pc2ISp+pmrG9jlsV3GvjkXfJlKuUqMbk/YUmQ3QQ3L0JsSfqUlbKJ7bD5XqjMkk/QOENj7/2kuJmoTR0fLYHElx9jO0KgNdwTMcsZtNCcQrReG/AlhXobrgNQBtqLCvQpYPY2lAtQKbanyEJ4PY3ewfYQ2508HsaufT2uDsvGa+XHsyNzJ5nV6dU9jzvUtLy6Pb6rDs9jg9QwXF7Eevh5NV8/1+Cm9jz2sxVJnteqYKb2PMa/HVsPtcHJt53KqkQZ9TGma4e6UGXDyYuTNh5BfDq6Jbpvk7uj3qzhaM7mkfBXg5ne0UtkdnSy2OBpJ1TOvpp3RHzOWO3glwb+GRydPM6OGVh4so6GNmWLNXHI2IsOVZRMEDQEsll9ou0IhgX2h2gSNFdoKJQLkpAkUlsA4lCRQQmRJGQTRBryRq5om9KJhyQDUrj58fJzNRie53s2M0M2K/Adsa4GXE74ME8Z2cmHfg156cjtMnFyJrg1pNnayYH6Gjl0rsmnXHONOMmmbmnm2QtO091sbWHEImVbenlwdLBI5+KNVsb2FmnnydLDI38LOZhkkb2KZXHKOhjZlRq452kZ4yDmy2FkdxMpgW5ESmYpTIcgMrkS5GJzRLyegGaybMDy0L5oXTYsfcavzQ+Z7kNNvvH3Gn833LjlIumeTNfIrK7xSYWNXJE1ssOdjemjBkhZXSVzMkLNWeG/B1p4zFLFvwG5k5Twh8o6bw+xLwhepy5QaMOSDOrPD7GOWH1InU5Lxsh4b8HW+T7EvB7FXbkPBfgI6enwdb5G/BcdP7E2dTmwwbcGxjwbcG/DTmZYKInU1MeKvBtY4UjNHFtwWse4S1EUZYv0H2MHsGQ2Y5TCUjXyTqxtZBkyGlqMo8szQz5OSNzFObJuzXeRmPLN7mK2w6yNyMzYx7mni8M3MO/3IlbWOOxswhZixLg3McQxULGvQPlL0NmMdi1jKxtqPEgWM2+zcXZRU2wLHQ1Az9tMEhtERjRaVDoaQ2hxRkRCMkQKRaJSLSG0NcBYUFASxNlMhkUWHcJisppakPuMNjTYGRs18zMjZgzMhGnnZzNU9mdHUPZnK1T2YdcXH172Z53Xvk7munuzz+ufJrF6cY42sexoxlUja1b3ZopvvOkdHU0s90drSZODzunk00djRzdJiq9No8m69Tu6SeyPMaOfDO9op7GHHkj0GmnsbsJ7HJ089lubcclEeXKNuWTbkw5MmxhlkMGTIRmRlnl9zXnmryYMuT1NXLl25DcxbU8/uQ8/uc7Jn9zC87rkjpMHXWYuOf3OPHUb82Z4Z78ka6XYhmvybEM3ucfHk9zZx5N0GLi6+PJwZ4TObhycG3jkNsWN6LsyI18T2NmJXOmkHaZIpFqJWWu4CcDZ7ROINtWUDG4m1JUYpILGvJbGN7GaSMMiNRLFYmyWw0yWVGRgUtyu4GmwmUnZrqVFqexNppmsTZjU9h96CaD3MbRTZNlA0S0h2L7lCont2LYqbW5RDVETSoyuJLgBp5I3Zp5MaOpKFmGWL1DpMnEz4Uc3U4+T0eXBZo59Nd7FdsOR5TU4nZz82C3wesy6JtvY159Pd/lNR3nLHk3pLfBlx6Neh6NdO8OJlx9O8dprbXuxwsWk8Ub2DSNpOjtYun8bG5j0Xb4M1zy5Y4+PSUro2Y6Z+h2I6T2KemrwRyvJtylgrlB8r2OlLF7GOeOiMdTlZ4tJ7HK1Npnd1MKvY4+tgl9xGo4upe7NPI7NzULdmpJWzpGKmO9G9p1uvJq44WzoabG7Ray6WjhuqO/osey2OTosatHodFjpJnOlbmDEbUcdF4Ma7TYUNiOdrV+WJ4zb7CXEqbaksexgniOg4mOcCG3OlhD5So3XjEoFXbUWEPk77I3VAr5d+AbaSw+xUcG/BuKBkjjIba0MCf3MiwL0NqMFZkjAqbaP8OruiJ4FXB1PlkTxg6nC1GnW+xytTg52PS6jHycrV4+dg64ZvM6jDuzQzY6O7q4eTk548h6ccnOmqJjyXle5ijyVvbaxSqjYjM04vcypkc8meeSzVzT3orJNGrlnsakcMmDNN20aWXLu0Zs0uTSyS3OsjlatZX+hmx5Pc57k0zNhlvyLExrq48jMvdtyaOOToz92xl0ZXkBZafJrN7iv0Gk26WHO00dTTZ9+Tz2OTujpaWTMZRvGvRafLauzbjNtHI0sjfxNtbnPS2Ms5+hq5pN7mdx8+DBlS4Ksc/O7bNLLbs38yV+5qzjYdI580YJJs38kF4MMsf7FVrwTTM0bLhiMqxoijEZa23CEaVF1a8mdJWJ3+hO74NjtsXYBrqLvgItpo2fluiZY9+CptjU/UHP0KcDHJUNG36KSCgA6PmFQmigAjtF2l0OgMfaHaZAoCUh0VQ0gJSHRQAS0YckTOzHNEqudqIWmcTXY9mehzrY4+tjyZduO93jOr4tmeR6hD6We46rH6ZHjepR3kH2fTZPLauO7NJnQ1q3dHOfIfVxvYGbC90YTLhe5Vvh19HyjtaZ0kcPSOmjr4ZUkHi5XWw5Ka8I6WlzKkcHHkNzBmpqnsR4eTHb1Gly2jq6fIea0mbjc7Oly2R4eTF2sUrNvGzm4J2jfwvYrz1tRL7bJxozxQYY1AO0zUFFRh7A7DN2ioDH2h2mWhUBi7QSMtCoCaGh0NIBUFFUAENGKceTYaIkiK0MsLNTJiOrkgYJYw1K5M8W/Bhng24OvLD7GGWH2DcycbJp/Y1cmm9jvSw+xgyYPYmm5m4L09PZFRx9p1Z6f0RrzwP0DXVtqxaRlhOnsKWJrhEqErCWtzDkN/DI5uGDXqb2FPYrnXQxSNqMtjSxmzF2g51lcjHKQMiYQnIhyBohhdCUjBPLRU+DWytoLIbzk/O9zWyMxfM9w1pvfOH873Of8xh833Bp0FmsyRy2c2OQzQybg06cJmRStGjjybm1CVkTTK1sY5R3MipicQrA4kuCNhxJcSbNsDgS4Gw0S0NrtrSgjG8aNpxJ7fUbGs8QfJNrtGooG2qsKLjhXobCiXGINsCwov5aRsRgV2oG2r2B2my4kNA2wNGOexsSVGDJtZFjWyOjSzS3NrM6OfmlQbka+aXJpZW2jZyOzWmg6RrSVijHdGbs3KUUGtjHE3cC4NeEdzcwRbIlbmGJu4o8Wa+FUjcx7IOVZYxLojuE8lBhbRLRDzL1F81eo2ul1YqBSsAgYIV7i7q/QKypFIw/M8GSMuAmmaJkijFFmWLCKoGgTBgQzG+DJIwyYUmyWKT/YxykUXYWY7BSBplb2MGVmSzHkWwI0dQcvUp0zsZoWuDQzYrDrjXm9ZibbOJrMDtnrtRp+69jl6nS3exqdnoxyeL1WmdvbY0v4V3weuz6O72NKWip8G5k6OPg0zvg6ulwtUZI6Vp8G5gxOO7QtG1o8XpwdrRwaSOfpo1R1sFUZcs63cTaRnUuDWjJUPvI4WNhy2ME5MTnsY5SsiSMWV+5z9Tlo3snDOfnjYbxaWbM/0Nd6jerL1EWrOfJS7iadY6OPNvybWLLfPJycc6SXk2MeQjTsYsr/AEN3FkVI4uLKbeLLRGbHcw5ONzewzs4uny2dHT5N0HLKOtikbmN2c7DI3sT2K45RtQM0UYcbM8eCudOiWiyJMqMUjBMzTZhmwsYchrzM05GvORG4xzZhnL3KnIwTfoR0i+4cZGv3D7wrZUx99Gq5i7yJptrIWpmkpsyKZU02lILMMZWikypplspIxxe5kRUVVg0NDYRLQmimSBLjZEoGURRryxexgngT8G/22Hy7Ku3Llpb8C/g7/wAJ2I4l6FrCi7OtxI6LfeJkjokvFHajgXoWsCCdbkQ0i9DNHS+x01h9ivlhOtzPkJeCJ4UdSWMwZIEJk5OTF7GrkhSOrlhS9jQzR5I3K5WpjszjatLd0d3Urk4ms8h2xcDUx+pmrW5v6pfUalbnWJTxR3OppIcGjgjujqaYlrLp6KG6PQaJcHE0q3R3dHwrMbZydXAtjZSVGvhexnUlQcqHElxL7kFoIwuIOBlFQVh7PYl4/Y2aTE0BgWMfbRmoSW4GNR3LUSq3KjSAIxotIQ0EXZE+B2TJ7BGtnWzOVqo7M6mZ7HN1L2ZXTFxNZHZnF1db7Hb1r2ZwdZLZ0I9ODl53vzRjg7fItRLcx45b+xp1bkTIuEYYPYzxexlMmPI2a2W2januYZxNYuGUc7NFs1ZwOhkjvuYJQtnWVxsaEoF400bXy0CgrFpjiePxZmSvYMcF6GxDF9zO3TTB2DjA21h24MkcHsNs9LXx4+Njf00OFVDx6e3wbmDBXCM2t4xsaaP3N/FFpbmPT4dkbkceyOa1ja2NXMtzfeMwZcbfgEcnPF7s1Jto6eXE9zTy4XeyK6StTuXnZiVeS3hkvBePE/Ia2lRLWN+hsYsLfg2Y4PRbkTbRhibfBlWL1N6OnflGVaeyJcnN+VuWsPDaOitN7FrT+wZ6nN+T7EywnVeD0RjnhpDR1OTPFRr5YV4Oplx8mlljyVdvvaYWYVIruNPnMljsx9wdwFjsx9wdxdjIMxd3uHeNjNYWYu9D7xsZbCzGpD7gKZEuBtkSexKrWznI1vDOrnexyda+TLrg8z1WqZ4zqXMj2fVfyyPG9T5YfX9M8vrt2zmy5OlruWcyfIj6+HgjLie6MF7mTHKmirl4dbSPdHUxTpbHF0s90dHHPYjx5t+MzLDL2tbmgsnoxrKyPPlHodFqN0eg0Wa0vU8Vo87Uj0XT89pepXi5cXq9LO6Onp5bo4Ojy7Lc7GmldB4846uNmzE08L2NuDDjWVDoSKKhUKihAFCoLFYDFQWFgFBQWDYAArABiYABLRDgZQoG2u8ZLxmz2h2kXbTeL2IeD2N5xE4A25k9P7GDJp16HYeP2McsXsF6nEnpt+DH/Dex2pYV6GN4dwvU50MFeDPDHRtrEVHGvQbTbDCBmijIoFqARi7ROJsdgnAg1ZRMUlRuSiYMkQrUmjXyRs3JxMM4hpzM0aNObaZ1M8FRzs8asNxhc6RPeYpN2JOymm1GRljPg04OjNBsDoYZ78m9ilwcvC6o38LIljcjIswxZfcRF2SxdyE3ZAmSyhUBIUXQmgJGkFDQDijIkSnRSkgLQyLHYDIZVkyYGGZrZXsbE3SNTNINRq52c7NLk3c8uTnZZexHWMGRmIySJSDZKNmRR3HGJmhH2CIhC5G5hjVEQgjZxwrcjNrNDYzRlS5MSE3QZZpZDFLJ6sxym0jUy5eQabMsy9RR1Cvk5mTNXkwPU0+Q1p34516mT569Tg49WvUyx1XuDpdn5qJeRepy1q/dDWo35CdLprJ7mXHk9zlxze5nx5QljrY52ZoM5+LJ7m1GexWbG0pA2Yoy9Cr25IgkzFNoqTMMnyFiZshv1CbMfcVV2NMxplJlGaA5JEwMtWistacLNbJhu6Oi4WRLHYWVxsuA1Multbo9BLBaMU9MVuZvL5dFadI1Mmh9j1s9JbNeei9EV0nI8t/B14KjpmvB6KWi9if4P2C+45GLA+aNnHBo3/4WvA/4d+gZue2qrSK3NqOnfoV8j2GnO5NN2S0zfen24J/h/YmiZNFxfoYMuG/udT5HsEsDa4I1MnnNTp/Y5uXBT4PWZ9N7HL1Omq9tg645PPSg0whLtaN7Pia8GlOO/uR0lbGOfBt4shz8TdV5NrGQdXTZDq6efBw8F2qOrprpWRzyjs4JnQwy4OTp/B0MLK4ZR0sctjPGRp43sZoy8FcrGw57GOUiHIiTCaKcjBORc2a+R7lWIyTNec/ceRmCbI6RM57mGcv0LkrMM0RuE37iciJJktsKyOXkXczHYJhWaMvUyKRrKW5lgwlbMJbmWMjVizLBlZ02omRPYwQdmVSDNZEx2Y+4lzCaZWxWYu8TmNrpl7gTMPcHcNmmymZIs1oyMsGXaWNmKMsUYIszwY2xWWMTLGGxMFwZol2xUqCFKCoy+CZMqNecTWyrZmzkNbKGo0s65Ofn8m/nZzc8g64udqnsziazzR2dU+fQ5Gpjdkd8XGzq2a3ZbOjkxW3sRHB7HSUsYcMN0dHTRdox4cFG7hx0So3tKtl6nZ00qORgVUdDBOjDNjr48m3uZFlNCGS0ZFOw52NxZb8lLL7ml3AptBNN5ZR/NXqaPeylIJpufNXqP5hp2xqVBdNzvF3o1FOvInkCabfzNw+YafzBd7C6dCOSy4zs50crXkzQyBLG6mRNmJZNiZTsrOkZpc7nN1MjbzzObqZh0xjl66WzPP6yXKOzrZ7s4Oslyyx6cHM1E/qJxPdGPPLcjFNWtzVdI6eJ2Zos0sU3RsRmiFZZvYxTE8noROXksccmHJyYJvcyZJcmrklvsdI42sjnRKyXKjVnNl4bbV8lsSZOpp1e50cWPb1Odo7ujs6aNo5W6dYIYbo2MenvwZ8WM3MeG/BnatXFp16G7h01eNzPjx7cG1ix+xnaVOLD7GeOKvBnxw9jMoquBti1pSxWYJ4tzoygjFKA2SuZkweas1smmT+x15wRjljLtqVxZaX2HDS1R1XiGsNsbXqaWLTJcm1DTr0NnHhNmGJURm5NKOnLWnOgsS8FxwoM3Jz1p/YfyF6HRWEfylQTqcueGvBrZcfsdjJiNLPDZhZXG1EEkzmZ1VnZ1S2Zx9VtZXWV9uQxpD7SvCVAVQqoBCbGzHJgNyJeSjDOZgnkoi6bfzCozOespkjk9yppvxmZFI0oZPczxkUZ+4mctiUxSZKNfOzk6x7M6ed8nI1stmZdsPLznVX9LPH9Se7PWdVlSZ5DqT5YfX9NHnNdu2cufJ0ta92cyfJY+rh4QyovchgnTKZV0NPM3oTVI5WKdbmzHIR5sm/8xXyP5m5pLI2y02w8+Tp6bNTR6DpuXdbnldOpdytHoumwdpl082b1uhnwd3SS2R5/p8GkjvaNOkR4OR2NO9jcxvY0cHBuY3sHnrYTHZCYNlRTYu4xykY3MDP3i7kazmLvA2u4dmsph8wK2HIlyMLyC7wM/cNSNfuLUgjNY0zHFloCikShoIdBQ0ACoKKACWiXEyEsKxOBLgZhUQYuwfYZaGogY1ApQMqiOgMXaJxM1CaA1pxMGSJtyRr5ERY1Jx3NfJsbWXZGnmlyG41c8qOXqHuzd1Mzm5pWxHSMMlYqE5FRdlBFWzYxxYscDax4+KRUPFF2rN7EmkjHix+xtwhsjKWhKkDdFNGGbIkNzol5dzBkkzBPIGtN+OVFxyI5ay+5mjlfqQ06KkqBy3NFZq8h89g03HJEvIl5NSWV+pjll9wab3zlY45LOesnuXDKXRp0YysyJmljyWbUJDTNZSJFkTIMGV7GlmkbeVbGhn2uw3GnnnuaOSW5s55e5pZZWR1iG9yomJPcyRZWtM0EZ4LgwY2bEGRKzY47mxH0MOPYzx4IwdkSZbMUuAMOaVLY5+fJRuZ7o5WrnTaDUa2fO/LNLJqNzHqstWc/Ln5NyL4b38Z2vkuOv25/mcSeX3Ijm35NdB1PSYtZfk3cWpvyeawZeDpabI3W5m46HexZrZt4slujjYZN1Rv6eXBnSV2ME9tzdxSOXgZvY3sRixuxkX3bGvGRTmE0qTMUp8kzmzHJhdHOXqY2xSkY2/NlXTNFmSPg14s2MZUrYxozpGPEjPFblYtCiNQ9jJCJljEMWtf5fsJ4vY3FAfYvQqbaDw+xDwex0vlolwKvU5j069Bfw69DpPGL5fsDqcyWnIem9jqfL9iXiB1OctPuV/D7G+sZaxeoNud/D+wpaf2OmsQfKCdTk/wxL0+/B13hMc8O3BGpk4mfBd2jmarB7HpcuLbg0M+D2I3jk8nqdK3dI5+TSu+D1mfTcmlk0u/Adsc3noaZ3wbeLTvbY6H8LvwZ8en9ERvrauDBXjc6Gnx00ZMWDzRt4sPFjTnchghwb+GPqY8WOuEbWONDTnaywLIQ7DCmzHKZM5o1smT3BpkyZDBOZjnk2MMsnuVqRc22jHTbF32ZItOgqHB+hMsbS4NlIHC0RdtCWMxTx7nSliMM8VDSyudKO5FUzcyYzBONBqVjRcWY6oqJFZ4sywka8WZUwzW1Fl91cmvF7FdzoJpm79iJTMfcS5A0yORLbMTlyLu8WRdM6kNT3Nb5gKYNN2M9zNCRz45DNjy+5UsdKEkzZgzm48ps48noVzsdGEjNGRoQyGeGT3KxY2rJlLYxLITKZWdJySo1c09jLkmaGbJYakYdRPk5ueV+TazSs08ltldsWnli5I08mJvk6nZYnhsNy6cOWB2Jad+Edv8AhrLjpd+CpcnGhglfsbMMdeDp/wAL7UJ6Zqtgz1NKEWjYxJqjZjpt+DMtPS2Gk6mKD2Mil+5kWH2F8oaTYTGkXDFuZViIm2FL1LijKsRSxMG2LcTs2Plslw9gba7JZncCflg2xEybMzgRKIGOzJDJuYZqgTCt2MxOfuYIyByIhZpWcvVSqzdzSObq3syumMcnWzuzhayfP8jr62W7OFrHuaj0YxzdRLf2IxzV2yNRL6jEp0aajpY515M8Z7bM5UMhs48mxCt1S3BbowKbZalRY45QTia2WBucrcicbNyuWUc+UG9jNgxuzMse5nw4ra8FtZmPds6THVHX00NjS08NkdXBE4ZV2jawwuqN3HB7GDFHZUbmFbnO0rNCHBtY4mOCSqzNCXpwNsssdirMal7h3DbOlMxyq9ym0Y5MGie5DSG3uIbXRJFJewkXHYbNMkImeKMUaM0dhtmskUZYoxRMseLLtmqUR9qHEbY2ywZEqNDVR2Z0MjNDUvkrUcXWbNnB1sqTO5r3szzevybM1HbF+gUh0Ze0O0rwsVEtGVoxyRFYpbGDI6Rmma2ZkqxrZZ0aeTIZdRLk52bJvRI3I2Fl3M2PIcxZKZsYpmksdPHOzahI5uKRt4pBluKQSexEWE3sQjXzvZnH1r2Z1c8tjja6WzI78c7vN9VltJHkuoulI9R1eW2x5PqMrUvQPr+nef1jts5s2b+re7OdN7lj6WKWxWJsRpnKs+ORtYoylwYNLicmjt6PSXToPNnkw4dO3Vo3sOke2x0dNo+PpOtpdBdbGdvLnnI5Gl0TclaPRdP0na06NvTaBKtjrabS1Ww28nJyDRYaS2OvpoVRjw4a8G7jhQeXK7Z8WyNiLo1o7GRSDlWx3ieQw95Ln6hGSU/cxufuYZTMbye5V02XNCcvQ11PcuLsGmZS9RuREdxtMiHe40SluWkUNFJkooIyRZkTMKLiQZkNEJlJlF2Fk2FgXYWQ2S5EFticjFKdGOWX3GxsdwdyNN568iWffkhpvJlpmnDLZnjOyjYRRijItMChPgLE2EY5mtlNibNXMyNRqZ5HP1E+aNrUS5OXqph0xjV1GS7NGck7Mmee5rydsOsiXu6MuJOyErZnxRKlbOFWb+GHBqaePB08EeAxWTFj4NiMNuCsUNjOoEY21Jx2NfJE6M8ZhliCyuZOGxrTxuzryxexjeC/BV6nI+WyoxdnRen9io6f2GjqaCxsfy6R0o4KXAPT+w0dTkyTXgxuLs68tLfgx/wu/A0vW5qgzJHG7OitMvQuOnrwNJ1NXDA3McS44K8GeGKiJ1JjHYmcdjZUBShsRNufkic/UQ3aOxkx7GlqMd2RvGuBqY1Zzc+x2tXDc42rjVh3x7tVTpmSOTc08k6ZKy+4dtOtjnZsY5bHIxZqfsbmHLfkjNxdXFK2bEHao52OfubuJ2RzsZ0hSgZIKzN8u0Vjbk6iD3o4+tg92enzYb8HM1Wlu9iyLMnjdXF7nI1Pcm6PYazQ3dI5Ofp78xOmK2x5iU22Vji20dafTW5flMuHpzVbHTcTy1dNjls0dPBGSpI2NPoaSpM38Wjfoc7V8MGGzo4B4tJutjcxaenwYsOpkwG7iurZjw4XRsxg0kTTNpp0DkPtJaZNG0yfqYnLcyNXsRKO4Vjm74JRfbuUohSgjaxoxQjRnxorNrZxo2IIwYzYgVzrNBbmZIxwRlSDFNIqgQyoKJaKBlRjoRYBUUDRdDoDGoIaRaQ0giVEaii0h+CCO32InBGciQGlkgjVyYrOjNbGtOIalcvJh3NbJgTOtkgYZ4w3K5TwK+NzJDTo3fl2zLHERrqakcPsZYYmlubSxFxxhOpgjCi1EzqBXZsVnbB2smao2ez2JlAaNtHIma84Ss6MsZjeIaNuZKLZilBnUlhsh4PYq9Tmwg2zbxYmbMNOr4NiOH2ItyascZSxm4sQ1j9gz1NP5ZjnjR0PlmOeMiyuTlxbvY080KOxlhszQzwDcrmTVck3uZ8ypmtJ7kdIyRZkjIwRZkiyK2IvYq9jGnsPuDIbqyWwcuSGyLpTZHcJshsKpyBSMTkS5hWyplxnRpfNouORBNOhDIzZhlOXCfvubGOZWbHVx5ONzYhkOXjmbMMnqVzsdD5gnPY1Vk25B5NuSs6VmmaOaZeSds1skitSMc3Zj7bZb3LhGytFDHfJnhg9jNhx2bePEGbWlHT77LYyR0/sdCOIyLEgxcnN/hw/h/Y6fyg+UVOpzo6cpYDofLD5YNue8JLwnReMn5YNtKOF+hkjiNtY/Yah7A21ViKWM2lAOz2Iba3yyXiNvsH2A20HiIeL2Og4X4Ilj9gbc9wMOSO50JwNbJENSufkj6mJ8m3kia8o0yNRKe2xTexD4C/pDWmHM9mc3V/lZ0M3k5mrd2G8XG1j3Zw9Y+Ttax/ms4WtezNR3jk6mX1M1pToyah1J+TUySo6KzRy0zZxZTlrJvybGPJQsK62PJ7meMrOZjyGxjykYsdCEk/JV3yasJmxGW242z0s0YI2cOPg1sb32N7A/wB/QlpMW3gjtwdDAqr1NPEbuJ8HOrpu4TbxNGljexs45UjFStyMi0zWUyu+ibZ02e5h3mt8wPme4TTZ77E5GDvXqL5g2umdysV7mH5lC+YDTZTKi9zVWQaye4TTdjIyxmaEcllrJ7hLi6EZmRZDnxyb8maGSys2N9TQSkasZ7DlPYrOl5ZqjQ1EvczZcmxo557cliyOV1CfJ5fqM92eh6jLZ7nmOovk3i6Sdn6bSChgaeBjkjFMyzMM2RWDIamZmzlZp5pcmK3Ghqnszk5nuzp6qVxZzZq5EjrGKLdmzhbMcIG1ihsb2lZ8Vm5hNfHE2sUaDnWxAcuAgLJwQaeofJxNc9mdjUvZnD6hL6WR6OKd3murS5PK9QfJ6Tqsrs8t1GXIfY4I4Wrbt0aE3ubuqfJozNR7p4S9zNgwuTRGONs6+h091sVzzrPoNLunR6PQ6TZUjBoNNxsem6fpdk2iV4eXk0NFodla5OzptHSWxn0mn24OpgwL0M18/PkauHSpVsbmLT1WxtY8NUbEcaRHnuTXhhoyrGZ1AvsKxtr9odpsdguwrLWkrMU09zccCJQA0JpkdrN54kwWFFXbUjBmeMNzPHFXgyRxjabYowK7PYzxxldnsQavaUomw4B2AYO0KozOPsS4gYyojaBAUmVZjspMiKsVisC7A2RKQ2zFNkVjyTo1MuavJkzzOZqJu2kGpGTJqa8ijqrfJzpuTY4WXSu1h1G/Jv4c1o4WFu0dHBJ7DTNjqwnZmjI08T4NmAZZ0xNkxYNgRNmpmfJszNXLwRqOdqHycrVPk7GeJzNTBOw6YuNmb5MHczdzQVms8YdoUHubeG2YMeK2b2nxfsVmtnTxOngjwauDHVG/hiRyraxLYzxiY8aNiKDCHAiWM2Eh9oRqPET8r1Ru9odhRpfJV8DWH2Nzs9h9gRrLEh/KRs9gdgGo8JLw+xvOAvlgaSwlLCbfYHYUayxItY0bCgNRAwqBMoGzQnEg0MmM0dRj5OvkiaeohsZrUrz2sx7PY8/ro8nrNXj2Z5vqUKsj08dea1L7WavzWjPr7Un6HMyZKYezGdm/jzbm7p81UcKGa3ubmHNwNLcXo9PlWx0dPO6PPaXLujs6Sd0TThnjp28G9G7GNrg0NLukdPDujUeXJEsVo18unvxudLt2JljsrHU4GbRp+DTy6BPwennhT8GKWnT8FXqeWl05eUhQ6clyj0/8In4H/CpeBtrqcHFoa/wm1j0iS4OvHTlrB7BOpy46Vehmhpq8HQjh9i1ioh1NKOFLhFfLNz5YnjCbabx2Y5Q/c3ZQMcoEalaUo78EdptygQ4Ea21uwOw2OwOygbY4xM2OIRiZYoM2qgqM8EY4oyxRWazQ4MiMcTIgxVpgTYWUVYWY3IXegMlisx96H3oDJY7MSkh2BlAx9wKQRmTBMxdxSkBkJkxd2wmwIkYZmVsxSCxhkjHKJlfBLQaQobmWMAijIkQ2SiUojWxS5CEoj7UMLCBolxKsTKMUoEuJlkTQVicRdi9DNQ1G2NjHHGvQzRghxVGRBE9qDtLADG47GHJE2Ga+WQGpmiv0Ofnib2WdGjnyLcjrHPzx52NHItzezzs0snPqSuuKYmWPoYt09i4sjbPH3G0Ye+hrKRNLfsS0wWSyrTKMTMcmbLhZhnDbYG2vN1ua88tGXMmkzSytoLFyy77sI5t1uaU5vyTHJfA0rt4cl8m5iluji6fI9tzpYZ2gWOhCWxnhOuWacJWZoyDnY2u8JZNjApUJy9Ss6VOW5ju+SW9xXZYaVFWbOGNtGGCNzTx4NM1tYMZuQhsY8ETbxoOdpRgZFBFpDoMbQoIbgvBQWUY3ATiZLQbEGPsBYzKAGNQQ+xF0AEdoKJdDQVHag7SxAS4kSgjLQmQaeSBrZYG/lRq5URqOfljSNTIqN7PwaObkrpGvN78kp7CyMhMN6TmexzNW9n6HRzPY5Wslsw3i4+s8nD1zqzt6p7M4WtezNR3jh6l/UzRyyNzVPdnPzSOsVHduZcc2arluXCVGk06WPJRsQye5zITM+OZnSadTHl9zZhkdHMxz3NrHO6MU06WKe6Ohp50kcrC1a3N/CzNXTrYndM3sMrRy8EtqOhhlsjnSx0cXG5nizUxS2M8GZYsZ7DuMaYWRNMncHd6mPuJc6Bpm7vQXcYfmoXevXcGmZyDuMSkmx2FZO4fduYkx36g0yqRkjM1u4pSXqVLG5GZlhO0aMZmaMwxY3oz2Kc9tmakZjlMrOl5Zs080y5yNbM9ixZHN17Ts831Bcs9Fq97OBro34OmLT9NJg+CUwbNvnaTJmvkexlmzBkZmtRrZpUjQzz5NnPKrObnnuYbxjBnlZq1bMuSV2Y1yI667Lxo2sUTBjNrGqRpjJmgjYgjFjRmjsGGVEZXsNMxZpbEWNLVS2ZwNfNbnZ1ktmec6lOkyPVwzu891Ke7PMdQkt/U73UJ3Jnm9dLd7h9jhjkahts1Zcmzne7NdK2aj1/DZ0ePukj0vTsC2pHH6biTkrPVdOxbIteXly06nTdNxR6TR4NlsaHT8NRR3dLj4oxXyuXPbb0+JJcG/ihRhww9jbgtiPHlWSKMqRiiZYsMrQyUyioKHWwikVEOInAy0NIDCoFRh7GXtKUQjGoexSgZEikijGoD7TJQUBi7LF2GahNEGBxIkqM8kYpkVhlyQ9ipMxthVWMx2UmEUHgVgAWY8nBbIkBpZot2aWXHdnTyQsxPDZY1tyngKhhpnTWD2Kjp/Y0ztpY8W62NzDj42M0NPT4NjHiohsscTYigjAyKI0gQmVRMgMWRmpllRsZWzRzvkmmo180zRyq7NnKzBJ7jTcrTlhsl6f2N1R9jLGNrgNdTnQwU+DYx4+02ewT2CbOGxt4Z8Gl3GTHkQSurhmbUHaOZhyb7m9jmRitpFoxRZkTKiqBIAsIqgoVjsqCgCwsB0FBYWUFBQWABQUAWAUAxMgiaNXMtmbcuDXyrYlajj6yPJ5rqipM9TrFyeZ6otpGXfi8vG9SdSkcPNLc7fVPzM8/qJUw+lhOxLIZ8OanzZz5ZKHjzb8lb09Hpc6tbnf0OW63PHaXNxud/p2fdbkcOSPZaKeyOvhdpHnNDltI7mmnaRXhzjp490ZFExYHaNmJXBj+WL5a9DYSH2kGt8r2D5XsbXYHaFavy16B8tGy4icQbYO0O0zUKijE4kyj7GahNDStaUTHOGxtSiY5RIu2q4kOJsuJDiRdsHYHaZuwO2gu2HtopIvtKUQmyitzLFEqJaQRcWWmQuCuAybZEpUhSkYZyC6VPIYZZTFknRqZcpV03VmRUcq9TkvP2+S4am+QunYWTYr5hzY6hGRZl6g03Xl9yfne5pTzJeTHLOE06ccvuXHKcmOdepnx5k/INOmp+4ORqQyF/MRE0yykQ2Q5EORV0tsRHcFhdM0S0YYstMiMtjTox3uOwaZLFZj7g7gml9wOTMdjvYppbAhy2By9wMmw0Ye8pTBpmGY1MtMIoL2FZMmApy2ZpZ50mZ8sjnamTp0w1I19TmqzmZ9RzuXqpOzlahy3GnXFsSzJk2n5NBd3qbGJStWyadG1SE6RUYtoJYmTRtgnPYwvIzYlhZCwb8F0vUnFJujcxq6ZGPC7WxuYcL22GmbkUYX4CWK9qN3HhMqwbcDTPU4mXT87Ghn07t7Hp56dNcGnm03sITJ5XNgatVsacoOMj02o0vNI5Wp09XSK1MmngnUkdTTzOV2OMjd0st0ZrpO8dfHIzRkauF7IzRZlmsykJy9DG5E9xU0yXvZUeTCmzLi3NRK2sKOhp48GnhXsdHBE05ZNvDHg2oLYwYkbEQ5VQWBEpUEEpmKWSvIpyNXLkoLpneWvsJZ9znZM9eTH/EV5C6dmOX3MsciZyMWoujcx5LQLG8naCzDGToyJhlYCsVgVYE2FkVQmyWyZMCMjNXK+TPkZqZZEbkaudmhm5ZuZ2aGZh0xa82R3bCyOjG5B0LNLY5Wrnyb2oltycnVStssdMI52qlycPXOkzr6uez3OFrp3ZuO8jkal/UzQzPk3NS/c0cp0xXXZgfO5UWSws2mmeEjNCW5qRZkjKjNNOhjnubWPLT5OVDI0zPDLxZmw07WHKrOlgyWtjz2HLwdHBm3VGLF07+DJVG/hn6HE02Szp6eW2zOdSx1sUt0bUX5RoYHaN3G9kYYrK5bCc/3E2YpS9wwqeT1MM8lomc9jWy5fCZVZZZ0io5b87nNyZKfJMc9PkaXbtQyv1MsZ2zl4s11ubWOdrkg3O7YmWQwuZEphGV5XYvnM1JZfcj5r9Sjowzbrc2seS/JxYZd/NG7hy8bhK6kZehTnsauPJaLcgxYtys18j2ZbkYcjtbmkaWp3TOPq4Wzs5lsznaiN+DUrT9DJg2QmDZt84pM1sstmZZs1c8tjNajS1MuTmZ57m7qZcnOybmXXGMMmEXYOLHFB0Z8Rt4zUg6NjGzUc628fJlTNaMivmURjTO5GvmnsJ5DW1GSkw1jGnrcnO55rqeVJM7Gty7Pc8x1LMm3vsR7+DFx9fk3Z57WSTbOtrsnNHC1Ut2H1eONLK9yMauSHke5WBXJGo9Hw7fTIcHq+mw3Wx5zpkarzseo6Yt16h8/nr0eigdvTRpI5OhXB2dOuDL5PJW7iRniYsexlRHBaLTITCwjKmPuMN7jsDOmUmYExqRU02ExpmFSKUijMi0zApFqQTTKikYlItSAyWDJUh2EMllCYGORr5GZ5s1sr2IsYZyMUpBORhlPf2I0y9xSZrqRlg7RRmTHZKCToITZLkY5zoxPJXkRdNgcYmGGQ2Mbs0ljJCBkjjHBGeESxhjjjMkYGRIdFEKI6KoKAhoxSRsURKIGnlRpZoNnUnE154rZFcjJjfoY/lNs60sXsQsPsF6mhDD7bmVYfY3Vi9i/lEOpzpYvYwZMZ1pYzXy4vQjUrkygxwVG1kxGNQoNMmJm9ilsjSgjbxbIM1uY5GZSNWDMqmkGWfuDuNd5EL5iGxsqQ+41lkLjPfkDPYWY07Gii+4fcY7BsIydwdxh7g7gM9jswKZSl7gZbCyEx2A5cGvl4M0ma+Z7MixztX5PMdXe0j02rezPLdXf0sy9HF5eM6m7nJnn9VLk7nU3vI87q5bsR9TCdmnklyTHJvyYsk92iIy3NN2Otpcz2tne0GbdM8rp501ud3RZOENOOUe16ZmtI9LopWkeM6VPg9boJbIjwcs7u7gZtQNHTvg3YFeas0S0Y0yrIixGNzJeT3CsrEY++w7ii9hE2F0A2IXcFgJkNFktBWOSIaMzVktEGKgoyNAohdsdBRkcQ7SJtCRSQ6GDYAAfARimzBkZnma2UrUaeeRz8+SrNzUeTmaltWVqMOTNu7MS1TT3ZrajJRo5crt7l01HdhrF4ZlWsXqeUlre1tdwv8AaNcsmmtPXfxaflEvUX5PLQ6itvq2NvFrlLyNJY78NQmbOLNujg49Sn5NvT57fI0mnosOW0ZlOzlYMuyNyEiJptd4nIwuYnIiaZ1IadmupFRkF02osqzFFlWE0ydwdxFhYRbkLuJFe4F9wnMxtkTlSKumSWWjG8xr5MlI1pZq8hZi6Sze5cctnJjnXqbGPLfkFxdOOSzNGRo45mxCQYsbPcTKWxKYMJphyM086tM3JqzXnFhqORqMd2c/NgbbO7kx2+DBLDfgbbjhR0z7jbw6d+h0o6b2NjHgpLYbXqc/HgfoZf4f2OlHD7FLD7Bm5OS9N7AtL5o6/wAn2GsITqcyGm9jZx6ejejiXoZoYduAlyauPD7GZYTbjirwZFAJ1OdLD7Gvlwex2JYzDPEn4CdTz+fTbPY5Wr0+z2PU5sPsc3VYOdg3K8fqcDsjAu2SOzq8FXscucO2exmvRhW9iexkTNbHL6UZO73MtaZXInu3MTnuS5lTTYi7ZtYeTRxs3dO90ajOTo6dWdHAuDQ0x08C2NOGTaxIzIx41sZUHKgxTMrMMwNbLI5+onRu6hnJ1k+WG5Gtmz7mtLU0zW1OanyaM8/1cmpGnoNPnt8nX02RNI8lpM263PQ6GdpEpY7cN0ZomvhdpGxEjnVCYeAYCvcLExADZMpAyGyVpjmzVyyM+VmpllW5GpGtmZoZpb0bWeXJz88w64xhyyNeU6Fmy0auTKHWQ9Rk59Tl6mezNjPkq9zm6nJs9yx1xxaWrnzucTVy3Z0NZktM4+pnbZuO0jRz8s1MnJs5Xya8ludI1pha3FRkaJo0aSikFDSCaUm0ZIyMRSIabeKR0NPPfk5WJm/glwYyNO5pZWlvudbTS4OHpZcHY074ONSx2NO+Dfx8HP0p0IbxRhyyOWyMOSXkzyNfJwww1c02jTzZKXubGezn53Xk1IlrHly87mF5jFmnvuac8zT5o6TFzuWna0+b9jo4cl8cHmcOop8nTwamlyZyxdMbt2nNUY55NjSWpVchLMrMaVmlP3MbybmGWS0Q57mtM2tqMzc089zlwk7o3dO22vUlix1cU9jOpmnifBnv3IWMrmRNkp+4TexqM6a+byaWZWbmR/uamR7lix96TBsVikzb5yJs1Mz5NibNbL5JVjn6hWzUlA6GSJheMjpK03EntNtwMUoEa2xxRmi6IqiXKkVPLP30S8q9TVnlrya88/uGpi3J5qNPUZ9uTWy6hKzn6rV0nuHXDj2nqGopNWea1ua7dm3rdTd7nC1mbmmR9Hh49NPWZU26ZyM8rZtajJfJo5HZY+hhNMT3M2lj9SMLe5saX8xqN3w9D01bI9R0uO6PM9OVpHrelx2Vh8z1Feh0K4OxgRy9FHg6+BbIy+Vm2sZlRhgZkRyMYJANIAEyJzoirug7/c1J5qMEtR7hel01k9xrJ7nKjqC1n9ymnU+YVHIctah+pkhqL8hNOpGZljOznQyp+TPCY2mm6pFJmvGWxaYZ0z2DZjTHYEzZqZ3sbE2aeolySrGrlnuYHMMstzC5FjcjPCW5tY3saONm3jYSxsRJmwTJyPYlRrZpGpPLuZdTKkzmZsna3uI6Y47dHFltm9hndHn8Gffk6ulyWkbZyxdrE7RtQ4NDTy2N3GyxyrKiiUUVkAAWFJioqxAQ1ZjlAzMVEGs4B2exnaFRFYlAO0yksKxuJgyQNmRjkiDRyYzXePc6MkYnAy1GpGJsQRSgUolKE6FKdCk6Rr5pgVLNRHzzQz568mtLU78lNO1HPvybGPJZwMOp35Ojp81+QWOvCVoyWamKd0zYT2DKmyJSryKcqNXLkrkDNPKYnmXqaGbUJcs1/wCJ35C6diOW+DNCdnHxZ7ZvYZ2DToRkZEzWxszoIbNfMzPLg1sz2BHN1j2Z5TrE6Uj0uulszyXW50mZerhnd5Hqk95HmtZPdnc6nk5PN6rJbLH1MPDXnIlSIlISZvS2tzDJ2jt6Cd0efxOmqOzoJcEcsnruky+pHrtBLZI8X0uVSR7DprtIy8XLHoNMzoYzn6bg38fBXkrLZMp0DZrZp1YQ55eTH801MmWjD84aXTpxy2zNGdnMxZLM6y15Bpu96JczU+b7jUwabXeNSs1lLcyRYGdMCYlAAqGMCaCh0OgJoTW5dCaIiRDYUAhegxARNbGvlXJtPcxZI2FjlamOzOTqk6Z3s+O0zlarFu9itx53WXZy88qtnd1WLdnG1mOkzUacPV5XexzsmqcdrOhrY7Nnn9c3Fv2OuM2zctOhj1u/Jv6fW+rPIrUNT5N3Tahtq2W4JM3tdPrLrc6mk1DclueR0eV0tzuaDJclZyymnWd3rtLltLc6GLJaOFpJ7Lc6eGfg5ljf7wUrNbv9xqZE02lIyRZqwlsZYOwabcGZL2MEHsZohlQxDCATGSyiW6RhyS2Ms+DUzvZhY18+SrRoZctPkyanJzucvUZ6bQdJG4s++7NrT5rfJ55anc3dJqLaDVxenwZLo38TtHF0eS0jrYZWRxyjaXAzEmWt0GA1ZEomQGiK15Qsx/KNvtVi7UFa6xoyRgqMiSGkBKiUoopIapBE9pUYWUjJEqFGCRmjHYlFphlUYj7QTKCJ7SJxMxMuCjTyws5+ox7M62RGjqI8hqV57WYtmcPVQpnptbHn0PP65VZHowrShOvJTyGBySfJE578mXo0zObJWTc155K8mNZdwadTDO6Olpnujh4Mm6Z19JLg05ZR29M+Dp4DmaR7KjqYPBXnybmPhFkQ4LDnQzFPgymOf5So0dStmzh6+6dHez8M4mvWzDeLzeru2aDbs6upirfoaE4bm40z6F3Jbnp+nJ0jzmhjTR6jp6pIzkt8Ovh4RsIw4lsjMiOdUgYITYQmyWMTCpkzHIuRjkRYw5TSzN0beQ0tQ6I6Ro6iVWcvVZK4N7VS5s4usyJNh2xjBnzUzUnlsxZ8qs1J5tmV3kZ82WvscvVZuR6jOq5OXqc+7pmpHSRj1WXk5uadvcvNl9zVnK2zcjpGObMbVlSdiNNxNCrcoKDWk0FFhQNIoaRdAVNKgjc0+zRqQNvB4MZJp1tI+Ds6V8HD0r4OxpZcHKsadvTPg6GN7HL00lsdHDLZHNyyjZfHBr5FRsRaox5oiOTlahc0czUPZnZ1EDlanHszeNSxyNS6Zzs2SmdLVR9jl6iLTZ3xefPsmGanuzewahtKmciTovHmryXLHaY5PQQz+5kWc5WDLaVs2Yyb3sx0uvVturLvuy4z3NJW2bGK21TJYsb2LeSs6GnjdGjp420dbTQrc5WukZ8apGRuvZDjtRMmQNOhTltuRZE5qixNMeWW+5qZZ1Zlyy25NDNk35NxqR+hrEwEzT5bHMwTM8jFJEVglAn5fJsdoKJF205Y9jBOB0ZwNfLHayNSufPZGrlnRt6jZM5WryVYdcZtiz5qvc5+bVqNmDXarttWcPUat77h68OPbp59b7nN1Oqb4ZoZdTzbNLNqedyvVhxaZ9VqedzkarM22LPqLvc0MmSw9WGOhknb3MEnbCUrEV6MYRtaVbo1jc0a3Qay8PR9Mj+XY9f0uFJHl+mRvtPYdNhUYlfJ9RXc0ceDq4UaOjjSOliiZfLzZYLYypExRaQcgJsZMiCMk+1Gjmz0uTJqJ1ZxtbqO29yN4xefVc7mtLU77M5eq1e/JrR1dvd0XTpp3o6j3Mi1HucXHn22ZsRyWhpNOitRvyZ8Wo+5yIzdqzbwyLpK7WHNwbuLJfk4+CWxv4ZbEZrp45maMvQ08bNiDDFbCY2zGmNvYInJLZmjqJbG1kZo53yRY080tzBe5kyvcw+SukbGJm3jexp4zbxBmtlcEZXsVHgx5nsRmOdqnycXWTpnX1b5ODrJ7sj0YQ8Gb6jt6Gd1ueYw5Pr5O70+dtG4vJi9NppbI6GNnL0kvpR0sTNPJWyh2QnsOwyqxWS2S5BV2KyO4nuJs0y9wu4xOQnIi6ZbFZi7g7gaZbJbMfcLvC6W2RJkuZDkQ0cmQ2Fkt2yNGMlDYRjycGhqZUmb2Tg52q4YWORrM1Wc3Jqa8mfqTaTo85qM77tmbxdNdndw6q5Hb0OfuPFaXM+7dnpOm5bSLYxp6vTT8G6nscrSTpI6EZ7GWKeWexztVlqzZzzpM43UMvanuFka2q1O73NRam3yc/V6h9zNbHnblyajVj1GlzXR2dLL3PMdOn3NHo9HwhWa6mIzxMGHgzoyyJcGrnezNmb2NPUPZkqxyOoSpM8Z1ufKs9b1OVJniOtz+prwR7eCd3kuqTe/hnns8t2drqsuaOBme73Nx9CMUmEXvuTuVG7s2VsY3udbp74ORjR1NC/qXqZrlXrOlyqSPZdMbaieJ6W7lE9r0rhGa8vK9JpeEdCHCOfpPB0YcB4sim6Rz9TLk6GRbM5ms2TBHPz5KbNZ56YtTOrOVqNR22ajenZhqkvO5mjqb8nl1rX3Vfk6ejzd3JNNdOnbx5LM8ZGjhdm3j3oMVswdmeBgxmxjRGWWBkJii6AVDGkMImhjACQopoTQENCKaJYEsVjZJA3uTJDQMK1skTR1OJNHUkrRq5o7FWV53WYdnscDXQo9ZrY0meZ6lH8wjrHltatmeb6jumem10X9R5zqEbbO+DGbz2RuMzZ0mXdGvqI1Jj012d3F6fQztcnoeny2R5fp74PS6H/CefN6ON6LSZNlfJ0sOTZHDwSpI6GHKcK66dNZLLjP1NGOQyxmQ03oSNnEzn45m5ha2Iljeh7GZGDGZoljnWRFEoYZMljsTZUY5vY0NU6Vm9k4ZztWw1HJ1mSrs4erzbujqa6WzPPa6TTe5Y74wnn+rY3tDmuSOD8z6joaDJuhY6Tu9roJ8HZwS2POdOnsju6ad0YcM46EGWjDFmRMOLJYdxHdsRKaBplciXM1cmZIwS1STI1I6PeHecqWtV8i/jl6hrpddT9yu45C1q9SlrV6l2nTXXUkZFI5MNUn5NjHqE/IZuLoqRaZpwyp+TNGYZsbKkUpGBSLTKmmZMGzGmOwzpMzTzm3N7GpqHyFjka2u1nnOoOrPQ657M8z1KaVslenjjlzmk3ZhnkRjy5N3uamTLXJNPVI2JZCFl35NKeYxrK75NSFdvTZPqW53NFP8p5TS5rdHoOn5LS3KxnHqdHK0jr4GqOFoZWkdrTPYPJnHQhwizHjexkTDlSZM+CmzHMqNTULZnF1q2Z2dRwcbWvkrccTUrc0ZRuR0dQrZpSjuajTY0cfqR6bQrZHndGvrR6TQ/lRmrXUxrYyoxw4KRHNkpeom1YgYQmyWNksKmXJjmZGzHIjUa+Tyc/UM383k5urZHTFytZKkzga7Jyjs66XJ5zXT5EenCOfny7vc0c2eldseryNWcrUZjenWRl1GotbbnNzZm7JzZfc1Zzs3I3IqcrMbZLYrs1puGFiArcMYv1GRsIdCDwEHkATFYS1cWbOJ7qjUTMuOdEsR1dPP9zraTJsrOBhnTR0tNlfqcsozXpNNk4R0sOTY8/psvB08GXjc51izbs45WOT2NPFktGwpWZcrGHOtjmapHVzbo52pWxqMuHqVuzlalVZ2tRGrs5GqW7O+NcM45WZ0a6yVIyap7s0HLc7ybee3Ts6fLstzpYZ9yo8/psm9HY0cro55R0xrpQRt4I7rY18Ks39PH2OWVd8Y3dNDhnTxKkjT08aqjbTSWxydWXu2InIxynsYZz2Bpkc687GKeQxSye5gyZdjUi6PPk22ZoZ8nmys2V77mhny7M6SD9NiYCkw+Uhk0UxEAkUlsCK8AY5LY18q5NmRq53szNajl63hnnOo5KTO/rpbM8t1XJVkevhm3n+o6h29zi59Q1e5udQnbkcPU5KbNR9PDBWXUP1NLLnb5MWXI23Rrym/UPRjiyTyWYZO9xN2BXWQ7bYISRSQdJDSN7RL6kaUUb+hX1x+4hn4er6TH8h7Hp8fpX2PJdKq4+p7HQbpFr43qPLuaRbI6OJGhpVsjoYjNfNyZkUJDDmDHk4Mhhy8EI5uslUWeZ6pncUz0etezPJdYbqVEdsI4Wq1TT52MGLVOUuTS1s2ps18WX6kdZOzVvd6nSZnKjqYbaRxOlNS7Wej0+NNGKHGDbNvBB0i8WFbbG5iwqlsNsZUYItG7iVGPHjo2cca8BhsYuDYiYMaM8SMsqG2QmOT2CMWRmnm4ZtTNfKuSNRoZUYq3NnItzF27htWKPBt49ka+NGxArNZk9jFmezLT2MOd7ESOZrXyee10uTu657M831CXJHq441sOT+8PQdMnweWhP6z0HSp21ubjXJHr9FK0jp4nscfQy2R1sLK8OUbSYWQnsOwhtkuQmyG9yKpyIchWBA7ASAKLFY2JtAFkg2iJToKpibMbyL1IeVENMrEYvmh8ywumUZjUrLQROTg5+p4Z0MnDNDUcMLHnOqR5PKaxVNnsuoR2keR6nGpM3i6fDX02SpHo+mZODymGdSO/0zJwasZex0eTZbnQjl25PPYM/akbsNTa5MM6b+fL9LPP8AVM3Ks3s+o+lnnuqZ9mIuMc7VZfqe5GmblK7NPLluXJtaF3NUdNdlem6VDZM9PpI1R5/pS2R6PSLZGKxk6GJbGYxY+DIRhOTg0dQ9mbmTg0dS/pJWsXC6pLZnh+tS+pntOqPaR4frD+qRHv8ATx4/qjtv2OHl3bO11PeUjjTVs6R9CYsaRaX7AluZVEu0uK8a2OhoV9SNHGje0e01fBHHKPT9L/NHwe26XwjxPS+Y/c9t0t7RM15eV6XScI6WLg5ukeyOlj4DxZDJwcvW8M6uTg5Wu4YSPP6+SSZ5rqOam6O91KXJ5HqWTdmsXSKx5/r3O90/NaR47Hl+tbnf6Zle25qxd9nstLK4o6OJJ0cLQ5dludnTTujmzY34Qs2YQox4FsbMVQYppUAwCEMAAKCgsdgJksslgSyGUyJMCZMmwbJsjWlWDFYmAPgwZXsXOWxp58tBZGjrXaZ57qEbs7eqnzZxtY7umWOkeb12PnY871DFfcj1mritzg61Km/J1xplNvI6nDu9iMGJqaOrqcStmLFj3O+3DXduaKNUd7RbKJyNPGkdPTzqjjm78cdnFOqNiGWmc3Hk4M0clHCvRI6kM1+TPDLZxlnoy4s/uSr0u7hyWdHTy9zhabJbR19LNEYyjrYn5M8GauGWxswZXCsqKITHZWQ2S2DZDYCyPk5urexu5JbM52rlsGo42u4Z5vXy5O/1CWx5nXyq9yx3xc+U6nR0NBkqaOPKf1G9oZ/WvY1lOzeL2vTcn0rc9BpJ8HlOlz+lHo9HPZHJz5I7EJbGTuNXHIyp772HDTJKRgyZBzlsamfJSCyMWpz1as5Gr1vZe5euzdqbs8t1HWNXT3LJt1kdSfVKfIo9S7uJHj82t+puwx62+Gb9s649rHqF+S49R92eUxap1szPHUNrncnQvVHrMXUl/mN7T9Q4+pHhP4pwvczafqTUlbpEuFTcr6RptYnW50sOoTXJ4DQ9TUmk2eg0Wt7ktzPhnLF6mE0/JljI5enz2kbsJ2uSuNjasqzBGRaYZOTNPUPZmzkZp6h7BZHJ18qTPJdWyU2j03UZ7M8b1jLuw9PHHHzZn3vc1smVXya+ozVN7mtPPtya09MbOTNzuYlm3NHLm9zHHNvZZFrv6XLutz0PTcu69zx+ky20z0PTcv1IlZse36fPg7+llaR5bpuS4rc9Ho5WluZeTkjrY3sZO7Y14PYuyuFi3OzHKQpSMM5pIppj1EtmcfVtbm7qsyrk5OpzJ+Q3I0s73NSXJlz5NzUlPc0rpaJ/Uj0WilsjyukzLuS8nf0WdNLczVsdyMttyu41Y5E0Wsgc9NpMdmvGZk7rILbJYeCSgZjkUyJMixr5Xszmap8nSynL1j5I6YuF1CWzPNa6dWeh6i6s8zr3yWPZhHE1092cfUZDo66XJyM73Z0jtMWCUiGwYHRqQgAdBqQikCQ6I3BQhg0FJ8gAMrNITH4JsM1SKjIxti7gza3MWSjdwZdzkxnRsY8lVuYsTb0OnznTwZ+DzOnzU+TpafUUcsoj0uHNdb7m7iy+p5/Bn2W5v4c9owljqylaNPOriEc1rdkzmmiRi4ubqY8nH1kdmdvUv0ORq0mzthXHOPO6uLt0c+adnZ1OPd+ho5Mas9ONePLHuxaa7R2tFycvDCmdbRJVuZzrpxx2tOrSOjp19SOdpn9KOjge55sq9eMdDE6W5bnSZr96SoxzzbcmHTTPLJRhnkrya2TMa881eSyDYnl9zXy5a8mtkz7mpl1HubkGbPnNDNluzHlzX5NXJkvybkR+uCGVZDZl8lLe4JkSe4KQVmTG2YVMJTJU0qcqRp6iWzMmSdI0tRk2ZG8Y5nUJ0meS6vk5PRdRy1e55DquW5Mj6Hp8duBr8m7OJqJt2dPWStvc5Wfcr62GDUk92Y2ZWvQlo07TFjoaRVDoNyJRSQ6GRrRJHQ0C+pGilub+h2krLGc52es6VVxs9j05ppHjemSrtPXdNf0x3LXxvUR6LSvZHRxHM0jtI6OIy+Zm2EMlDDmDHk3RlIkrRBytXG0zzHVsVqR6/UQ2Zweo4LT2DrhXznqWFqctjlcSPX9V0u+yPNanB2yex1wrWU+XR6RqHGSTZ7DQZ4ySPn2mk4SPR9N1bVbkyjMu3tcEk6o6GGmjgaLU3W52tNkTSOaWN6ETNGJjxO0bEeAwaRaJSKQRSYN7CsUnsQTJmDL5oyyZhm/UK1ZmPzuZJmKT3DUZYGaLNaEjIpA02E9jFn4EpmPPPYEjl657No8z1F8notbJdrPN9Qe7I9XG5kZf3h6DpMrao83f94d7o8uDcdOTw9loZWkdjA9kcPQP6UdnA/pRXz8vLcTHZMRhkmSyySCRFCIpAxsmToAb2MU8iROXJSNDUahLyRqRtTzJeTWnqPc0cmp9zBLPfkNadCWo9yHqPc57yN8Cc2VdOj/EFR1HuceWahR1DvdkXTv48yfDNrHkvY89i1Ktb/zOlp89+QzY6M3szS1Bm+YmuTXyuwzHJ10bTPJ9Wx8nsdVHZnnOp4rvY1G48xjX1eh2dBLtSObKHbM28M6idKmnZWoUfOxnx6r3OFkzOuQxZ3fJnSu9k1NxOL1HMnY3nk0aWrk2mJDTTlK5nU6bH6kcnCrkd7p0KaNsvTdN2UT0Okex5/QKqPQaThHOs10cfBZjx8GQjDHl4NDVPY3svBz9W9mRvF5/qj2Z4jqz+qR7Tqr/ADHiOqveVB9L08eS6lu2cmS33Ot1D8zOa4mo+ljiiMdzIlQkjKlYTLERibmk/MjVj/I29KvqQebOPSdM8HtOlPaJ4nprpo9p0l3GJHj5Y9To3wdPHwcnRvZHUxvZB4clZODla9/SzqZX9Jydf+VgxeX6q/zHjOpyfez2fVFdnkOp425Pbc3g6fDjwl/eHoOmy2RxMeJrItju6CDSWxvJMXoNJNqqO9oMm6s8/pVSOvpp9tbnKlek080bkXaONpc11udLFktEc7GyMiLKQQcAMHyAgAAAl8DFICJMwzZeR0a2WVBZBKZPeYJ5TC81Pkjcxb6mKU9jSWdeqFLUKvBF6WXLk2Zz9Rm2Ys+pVPc5mo1K33K1MS1Gbk5mfLyPPnu9znZ8yW9mo1pi1eRJP1OHq570burz3e5x9Rlts3iWNfL9TIiqZcakNxSOm3PpZsboz4s1cnPnkrzuKGbfkzXXHs7kNR6mdZrXJwoaijYjqdjlY9GLq/P9X+xkxZr4ZxlqLfKNjBmV3ZLG5HpdHm3W53NJkujyeky3TvY72gzWluYZzxelwTtI3ISOVpsipG/jmV5co200De5iUhSmVz0pyMU8nizHOdGvky0F0yZcuz3Obqst2XmzcnK1eoSvcNyNbX5LTPN6+XNHV1WdSTSZxdbK0XF0jl5ZNSNrRT+pGhlf1M2dI/qSOlax8vY9MyUos9Jo5vY8j0ydpI9NopbI4Vc47mKexnUjSws2IsPPYrJLY5usyOnRv5N1sczWLZhY4HVM7Vnjuq6mpPc9P1ZPc8V1fZyOvHO68l1HLz6t92zMml1Lb5OZl3mbmixuUlsz1WTTyy93oNLNvk6eGDaNPpumcu3Y9BptG3FOjz5XT0Yzs5ebG1F+Dnzbiz0+o0b7eNzha3TuNuhjltMonSatwktz03S+ocKzxDbgzf6fqnCS3GWGzHL4r6loNV3Jbnc0+VNI8J0fV9yjues0GXuS3OK5R2oyLUjBjlsjKg5CbtGnqX9LNrI6Ro6p/SwscLqk6Ujw3WMv1SZ7HqsvoZ4PrE/zssevjnZ57VZ/re5qzzbcmHV5P7xmpKfuddO0bM83uQsu9GrKe4lLcuh2tHlprc9H07Lutzx2lyU0ej6Zl4sxlDT3fSc10eq0M9keG6TmppXseu6dk/Luc3n5cXosctimzXwztGRsseWwsk6s1M+RpMzZODSzPZlSObrs7V0cPUapp7M6mvVpnA1MX3F06Slk1Dd0zWnqHfuOUWYZwd8G5C1nxapqa3O/07VbI8vDG+5Ha6faUTNi77PVYdRaW5sRze5yMEqSNzHIzpl08c78mxjlZzsUuDdwu6CNgBDIylsxyLZEg1Gvm4OVrfJ1cz5OTrHyHTB53qR5nX8cHpupPZnmtf5LHu452ec1vOxysvk6us5ZzJq2bj0Y4tZoFEydoqN7b6Udo6KodDa6TQUNoKBpIUU0IJpLRLLYgzYhkstktFZsSTsU0SVzosyRnRhEmNMWt7Flo3MOejkRnRmhkM3FNvQYNTVbnR0+pVbs8xizUzcw6jfk5ZYtbepxahepcs1o4GHVNebM71Nrk59Jtu58q7eTm6rJd0Tl1Frk0suW7N4xyyRllbNaZU8l+TFKe52jz5Y7VGrN7SSp0c1SRsYMm6GXcxmq9Dpsi7UdHDlpc7nA02bbc3o56jdqjhY9eLpzzmvk1CV7mhPU0uTVyah+CSNN/LqF6mtPU87mhk1Brzzm5ilrenqb9jWyZrRqPKY5ZNuTcxRnnk5MMp+5jcyHI1ofsayJS2JcjHKRyfL0JSJ7vcxzmYnMi6bLyV5IeU1nkMc8teQsjLmy7cnO1Wer3DPn2e5ydVqKTdkdsMNtXqOer3PK6/JbbOp1DUXe5wNXNvkafU4MNObq5Xe+5zcibbOhn3uzUkrZX0MI1XBkuJs9voQ0HVh7RUZWhUgsY6CiqEwpLk3NI/qW5qGfTypljOfh6rp019J63pk/pR4jp2TZI9Z0rKmluV8n1OL1+jlaR08LOLoZ7I6+GRl8nOd22ikRHgoORtksrwTIDBnSaOXq4WmdPLLY0s+6I3i8zr9P3J7HmNfpHb2PdanHdnG1emUk7Ql07SvFSwuMuDY003CSOpq9HVujmTxvHM6y7ZuOnf6dqONz02gy2lueJ0U6a+56Xp2XjczYzXq9O9jchwjlaTJaR0sT2MOdZwEmMIBSYETexFRNmPI9gkzFllS5CyMOWVWas50xajLRz82op8kdccdugsqH8+vJyHqtnuQ9VXLK30O4tQvUw5tRscj+LXqYZ6u7VkanG2tXmtHA1+S2zZz6nZ7nJ1WS29w7YY6YFvI73R3sjz8Hckeh6RwjcTk8PXaB7I7WneyOHoOEdrT8Irw5t2JREHsWRzAmihNAS0IpoQEswZZ0jLkdI0NVkpMjUa+qz1ZyNTqd+R67UVe5xs2a5bMSOsmm48zbLg22c/HO3ydLSY3L7BWeEdhZItI3sOnujJPS7cEZ24OZNGrPJT5Oxq9NUXscTVx7L2LG4vHqN6s6ej1G55n5lS9jf0mfdbl0V6uOa1yJzs5eLUfTdmeGW3yRjTNm3izja/Hs7OtKVrk0dUrTKkeZ1GD6nsY1CvWzqZoJ2a08d8GttOfkTJgmpG9LD7Cjp3fBpliXBizxbXBurHTFPFdGW40dNguXB29Jj7as19PiS8HQwUi2sV19EqpHd0ng4OklurO5pJcGaxXSxmQxYnsZG9iMsWVnO1ctmb2WVHK1stmR0wndwOqz2e54rqkvzHrOr5FUrPGdSlfcH1PTYvPa523ZoNG7q5W2abLH1MZ2SluZEQUn5DOcOO7NvS8mombGmdSDyZx6Ppz4PZdIdqJ4vprVo9j0h7IPFyx6zRvg6mL8pyNE9kdXE9iPBl5VlexyNc9mdTM9jka+6ZUjg65XZ5/WYO6T2PQ6qLbZoTwuT4NxuVwFpPq4OnpMHb4NuOl34NqGm7d/Bm1vsnGqWxnxzpoTxsxuLTDLrafNTW+x1tPmTS3POYG09zq6ST2DNd7FktGZOzQwS4NyDIxWQAQBCABgIiRZjnwwRr5ZGlmyUuTYzyOXqslWHXGMebPVmll1NPkwazUVdHHz6xqT3I9OHHt2/wCL9yJ6zbk8+9Z7mOerb2uiadPadbUayluzmZtY2+TRzanbk0M2o35NSHtujl1Sfk0M+pu97NHJqL8mpl1D9TUidDNqM5oTne5EsjbZjcqT3Nxm4M0ZVve4ZM1GpLJRhy5TTPSy5c+/JiWZp8mpOdvkSl+5SY10FnryWtRtyc1ZKXI1lfgxY64urHUe5tYNRvucJZGnsbeDLutzNjrHq9HmutzvaDNVbnj9Dm4tnf0ebdI51bNx6/SZro6mDJaW55jR6iqs62DUbcmXmzxduM9uSZzNTHmtchky7clcek8uSvJpZswZ8nuc7UZqugshavUpJnA12s32exn1ufk85rs0tzeOO1t0z5NXu/qNLU57XJz3mlbMc8tp2dOnSTLa5ZLmbmllujlKT7jo6TlDJ0weq6ZL8p6jQO4o8n0112nqenv6Ueeumfh3MHBspGtp+EbUER5qJLY52sWz2OpOOxz9WipHk+rx2Z4braruPoHV4bM8J1qFuVHbi8nJ4eW5yHd6ViTo4soNZGei6PxE9Gd7PPhN16rpWmutj02n0qUVscrosVKj1WmxLtR48npvZzs2lThwed6tpKUqR7fNiXbxscDqmH6ZCUl2+d63H2Sfg1cWVwlR1urQps4E5VPY9OPeOOXavYdE1TTimz3XS81pbnzHo2R9y3PoPR53CJwzmq7TvHr9PK4o2os5+klsb0fBhypZHsaOq4Zu5Gc/Vv6WFxeZ6zL6WeC602lI911h1Bng+tPaWxcXu452eP1UvrZqtmxqv+0dGs7O8delN+oJ7jolmk6WzglTVM7fTctNbnn8b3OnostSRzyiyPc9Ny/l3PYdMzbRPnvTc917HrOk6mmk2ca58mO49xpstxRsqVnG0We0tzp452uQ8WWOmTJwamZG290YZxs05uPqsVpnIz6a29j0uWHsak8F70NtR52Wlfo6Mb0m56GWm9if4X2LtXChpPNG9p8DVbHQjpvYzwwJeBs2w4YUbeOI4YzPjx+xEVijZu4omPHCqNmCIlpgNkNhA2YpsqTMGSVBZGHPLk5Wsmtzc1OSk9zj6zNSYdsI5XUJXZ5zXvZo7OtyeTga6ezLHu444er5Zz5Lk39U1uaMt2bj1YsVCaLEVtNCaKYiiaAoHZDSKEygoqaQJotoTQZ0xtCoyEtFZ0xNEtGVolorncWJolmSUSWiudiFsUpMTQisaZo5DPDL7mmi0zNh3dHHnryZ453Ry4zMqyOjNxVuzy2a88hic7IlISM2LlMhyJtktm5HO4siZlxyNZGSDJSYulhy1W5nln2qzmwm0glkMdLtI255/cwTzX5NeWTkxymWYjNLKYnksxOQrNaO7L3EuRFhZTSu4V2IEgsj9evIYpZDTlqF6mGWpo8750xbk8pgnkXqak9SvUwT1HuG5g3ZZvc182oSV2aOXU+5pajVre2RvHjbOo1PO5xtZqrvcx6nVPfc5eoz3e4erj4y1WWzl5523RlzZTQyzK9/Hjpjyu+DXfJc5bkB6YRLoolhuVEiWypcESDW0tegmDJb2Bs2y8bpmGxqVMJfDu9Py01bPUdLzU1TPEaTNuj0nTc+6orwc+O30Hp+XZbnc087R5DpWe4xs9LpMtpEfH5cdV18bMqNXFI2osPNTMeTgyGLN+VhGplnVmpkyGTUyo52bK0G5FZWmmaOeKqyp5vBgy5FQbjT1EU7RxNbBRex1dTkpPc42rnbaJj5dddhpvzKj0HT3ujgaSLckz0GhjTR0rlXodFPZHXwSOLpOEdfA9kYc63YvYbJi9hhkGLI9jI3Rr5pma1GKcqNTPkpOi82T3Ofqsuz3JXTHFq6vNV7nG1Op3e5n12bnc4Grz7vcsevjw23Hq2uGYMut53OTk1FXbNTJqrfJdPTjxO8tZf+IS1T9Thw1JljntcjTftunkz2vU082W2Ynl2ME5uxpzuOm5p5XI9N0n/CeU0r3Xg9V0h8GnDknZ63Q8I7On4OJoXsjs6d8EeHNvQ4Mi4MWMyoOShAACEyiWgMGZ0jj66dJs62oezOD1KVRkRvFwOoZt5bnJlltmx1HI7ZzoO5mo7R19Gu6R6PQ4qitjh9MhdHp9HCkjLOVbuDGqM0oJrgeNUimRy25uqxbO0ec6phq2et1Edmee6pDZkdcK8bndTfsVp8/a+dg6l9M2aOPJ9Wx0neOleiw6jZbm5hzW+Tz2HK2+Tq6ZtmdFnZ14TbJyx7kGCLaRsxxto041yMuF70YFgfdsjuT09vgmGm34BtzY6e0rRX8LXg68dPwU9PsNs7cGenp8GKenaO9k03sa89NXgNSuVDE4maCdm49PSFHBvuVLWbSWdvRt0jl6bHutjq6dUiVmuljexcpbGCEqSCeRIykiM86Rxdfl2ZvarLSe55/qOeu7cO/FjuuL1fNbas8n1DInZ2up57ctzy/UMu73D6/DjqObqJW3bNZsvLLcxWV7YbYKRDkT3FZyrNe5s6Z/UjSjIz6eVSDy5vS9Oluj2HR57RR4np8uPU9Z0nLUoozXl5Z2e20L2R1cUtjg6DJsjs4ZbIPnZxmybo52qh3WdB7o18sLLGI4mTBbMS0yb4OxLCvQlYNzWzbnw0q9DI9L7HSx4fYy/KRlZk4s9PV7GvLBu9jvyw7cGtPT78CLtzMeKmb+nhXguGDc2ceOipay4VSRtwMOOJsQRGWRDEhhCAYmAmYcr2ZlZr5pbBY0tTLZnD1uWrOrrJ0mec6llq9yPTxY7cnqGpavc4eo1Fsz9Qzbs4epzOyvo8eHZurUW+Ryz7HKWVlPNaDr0NrNn25NHUZXuE5+jNXK2WJcETyvejDKbfkJ2yDW2Lxju3JlIbREkXae2xTfoauST3NmaME42alYvG12FmVwE40Xae2gVlNEFTp0uLNjFJ7GqZYSozWo7OkyU0dzR5+NzyuDJVHV0uopo5ZR0j1unz1W51NNqeNzyum1PG508Go32ZhnLDb1GDU2uTPLNfk8/h1PubUdRa53I8+XG3M+Tbbk5upnae5c81mplmn7l2z0tLVNuzh62FuR3MzTObqYJ/Y641jLF5+eNpmOSpHRywSNTLGnZ02xMdNaEdzpaPeSNKELkdLRwqSMZV2wju9P2qz1XTfyo8vouUem6dKkjhXTLw9DpVsbuNbGjpZfSjfg9iPJkclsaWpjszek9jR1Uqiysx53qkPokeG6xjqUvQ9x1Sf0s8T1idtm+Py3lOzy2aH946O10dV23ucvKl8y6s6vSV9aPVlezz4eXu+iJVE9fo19CPIdE2SPXaV1BbnjrvkzZ0lHc8/wBU/Kzu55fSzzvVZrslTCYvEdaauR5mTbyHoesytyRwO28h6uPw5cnl1+kN98fufQujfkijwfR4fVE990eNRicuTy6Yfa9ToeEdCBoaRfSjei9jkxSyHO1b2ZvzexzdY/pYaweY6y6jL7Hhes/4rPb9ZezR4jq+6dlxfR4p2eQ1S/vGazRuaqP1s13E7x26WFomjM0Q16lSwkzb08qZq17GSDpkqPRdPz01uen6fqOHe54XS5e1nf6fqqrc45RLH0Pp2qtLc7umzppbngtDq6r6j0Wh1iaW5h5eTjephOy6s5mn1N1udDFlTRdvNcdHLHZHyTZTTLSRWGk9On4D+H9jfUUHYgbaCwL0H8n2N7sQdiKm2osK9DLDGZu1FKNA2mMaKGTKSRASZinKkKc9jVy5fcLIvJkpcmnlze5i1GekcvUapJckdscNs+qzqnucPXai21ewavWWnvycXV6nncPThgWrzXZw9bmtumZtVqduTlZ81s3HqxmmDNK7NeReSVvYxtmnbEvAmhiZWyAdC4CkwaHyKgiQKoKBpFBVFCaKaQ1sKjI0KqDNxY2JouvYGis6YnEhoztEtDbFxYHGyXEzuIu0u2LgwUOmZe0KLtOhCspMfaNIh0FYigpBLgixMuhUE6EouLFQ0gTBdkthQUGulMmKrL7QoHSx0FF0FA6UBRkoKC9DHQ6LofaFmL9D5NevU15dQXFnmsuttu2YXrPc87lOB6SWvXqYp67mjzz1fuQ9VfkNey7WXWN+aNPNqbb3OdLVNrkwT1HuG5xNvLnbvc08ub3MGTO29jWy5fUrtjgvLls1ZSsU52Y22w74xXLEAMOhMllEyDUQzHJlyMcgqWyG7HIxyZUtPuE5ENkOW5dMXJtYMvbI7vT9TweYU6Zv6PUdr5Fjjn3fQul6nta3PW6DUWlufNem6vZb7nq+l638qbI+dz8b3Wny2kb2OZ5/R6hNLc6uHLaW5HzssdOhZizcBCVjlTJWHM1S5OTqE7Z3c0LTOdnw3wixuOPkT3o15J0dOeH0Rhlgb8FVyM+Jz8GhPRty4PR/w/sH8Lb4Ea6nF0ulcXwdjSYqozQ0tG7iwewtZtZdLCqOnhWxq4cbSRu41sRitiPBVkJ0TOfuRNDJKjTzTpPcvLko5+pz8kdMcWLUZqb3OTq86Se5eszpWcLWap29yPVhhtGtz23TOJqsttszanPd7nNzzvzuWPZx4aYNTke5pSm7M+Xfc15RZp6scVQyNO2bEMpqdtFRbQauLfjkdcic7ZrKTLU9w8+cdLSO2eq6Q9onktFLdHp+kTqkV5eWPZaB7I7WnfBwNBO6O5ppcEfPzjoY+DKjDiexmQcTsYJWBQCkUSwNPU/lZ57qv5Weh1PDPPdUX0sy6YPIdQf1s1MCuaNzXr636Gtgj9SNzw6vR9JjtE9NpFsjzfSXtE9NpGqM1zyb0eBsI8BIjmwaj8p5/qbVSO9qXsed6rP6ZEdcHjurv62ceGSpHR6vP65VycVSqe50x8OtdrRy7pHodGrSPOdLXdJUeq0MdjNW+HS00Nkb2OCNbTqkb2JjbhkFhvwWsC9DNjSMqSDDXWJeg/km0kh0gjSlh9jFLB7HRcSZQQNuVPT+xCwHSnBGLt3LtWHFiqjagqIWw3OibNMvfRhy5kkYcuZI5+q1KSe5HTHDY1uoq9zzHU9Xyk9jY6jrUu5XueZ12rtvcj3cPG1tdnVO2ef1mW2za1me29zk5pts1H0MJqMc5GNyFJ2Te5p02qyW9xNkNl0zlV9xnwz3Rq2ZMUqYsccnounZN0j0/Ts263PFaLLUkei0Gf3OdcspuPoPTs1xid/TTTSPEdK1PCs9Pos91uHg5cNO3F2NqzBina5NiL9CvNYhw3EsZsRVlqIZYYQ9UZFAyKJVBGB4zFPEbjRLiF20fl0ZIwNhwGog2iEaMkUNIdBDSAYmAMTBsiUgFN0jS1GTkyZsmxzdXmq9yOmOLU12XZ+p5nqmbk6ev1HO55rqGfub3D38ODk66dtnFzvd0dHVTts5uTdlfSwxYbDu9S+0Oyw6dLG2RKzM4EOIOlgkvYhozuJMoVuVnpYJIxteTPKJDiWVLiwSiYpR2NpxIcC7Z6Gs4kNGy4kuGxdsXBquJDibTgQ4F2xcGvQzI4ktF2x0qhKjZxZqo0xpks2rt6fVNVudPTaxbWzy8MjXk28Ooo53Eeuw6r0ZuQ1KceTyeHVPbc3serpcmbGbHof4hNcmKeY5S1NjeoGmbG3knbdGnmld7kyzWudzXyZL8mo53Fizs1Jq9/czZJ8mCTs1tjpPH+bc6Gm2e5zoypm3p8m5K3jHe0kqo9D06fB5fSTVo72gn+U5VrKdnq9JLZHQxyOPo57KzqYnaRHkzjPKWxoax7G3J7HP1k6srEef6tLaR4rrMvqZ67q2RfUeJ6zP82+51453XO9nIc05nY6U6kmeclkqfJ0+nalJrc9GU7OGN7vo3SMyj2npMGpqK3Pn/TdZSjTO9g1307u2eTKWPTrb0Wo1Vxe55zquqVPfcrUaz6XucDX6h5O5bjHHaeHJ6jNzlLfdmjixNzN3JByZn0ulcpqkemXUcdbrodG09yTaPddKxVFHC6PpO1Lbg9ZocXalsefK7rr4jp6ZbG0nSMOFUjI5e5lzpZXsczWP6Wb2WexytbPZhvCPOdYd2eM6twz1vVp7yPI9Vd2WPpcM7PL6mP1M16NvUL6ma7R1j06YmiGjM0RJFYsYmhWW0SzTnWTHPtfJ0NLqe18nJtpmTHkp8mbNsWvX6LW3W53dJrXtUjwWm1TXk62k1tUrZyuJ5fRNHr1srOxptanW5870uu2W/wCp2NLr2q3szpxy49ve4dUmlubcNQmjxmn6jtydDDr7VWR58uJ6iOVPyZVkXg89j1q9TYhrVfJdudwdpTQd5ylq1XJS1fuXadFdPvQnkS8nMeq9yHqkvIOh05ZFXJgyZkvJzsmsVcmrm1tJ7kamDo5tQl5Rz9Rq0nyczUa+k9zl6nXOnuHfHidHWa1K9zjanWW3uaOp1l3vTOVqdZu7e5dPRjhpvajWV5OTqtZd0zSz6r3s0smZvyakdJGzlz3Zq5J7mFz3E5Wa06RblYWRZRXSKCxARuBiaHQgoBgAIQVYxFA0AAACGJoAoRQgiWKixUVLEULtsuh9o2mmPtF2mSh0NppjoO0yUDQ2dLFQqMrQmhtnTHQVZQFTSO0FEsEhs0mh0VQ/AXSK2Ci6AhpHaFF0Ktymk0FFUKgaKgGxAe5nqPcxPUV5NSUyHJnF6ehufxLrkXz3V2aXcxdwXobstR7kvMancOwvts0sjfkiUrICtwswHI0g7SqDWioPI2DC6SyGWyZBWJmORkkRIGmGRjkzLJGKSLGKxSZDZkkuTFJGo5ZE2VjyOLMbJK413enaupK2eo6frd1TPn+HL2tHa0GsprczY55Tb6h07XKlb/mei0mrTXJ8x0Ou2VM9J0/qNUmzLx8vC97izJ+TZjktHmtJrbrc6mHUp+SPHlhpvyVmvkx2VHMmPvTDGmnPDfgxvCb9Jh2IK0PkIpYEbvYhqKKm2rHCjNDFTM8YItKkETCCRlWyJtImU0iGlynSNXLlryTmzJeTnanU87kdMcNsmo1FeTkavVpJqzDrNZ2p7nD1mtu7ZHr4+Jn1mrbvc4up1HO5h1Or25RzM2psR6scNNjJmt2a052a8s1k96fk3HbFlk7IJ70wsO+KqQqrgE9hOW1EW1SdeRxaMLkKMvq5K4ZurpZbnoem5Kkt9zy2myUdzRZPy77lebObe66dl2jueh0s7SPHdLzbLc9NoslpEfP5MdO5jldGxB2jQwzNzHIPPYzRK8kJlBk+CZA2JlGtqFszhdSh9LPQZlZytbjtMy3i8T1DFuzQgmpHoOoYN3sceWKpehqOsdPpc+2j02kybLc8fpZds16Hf0Oo2W5KzZt6THK0VJ7HPw6hepkyahVyZY0jV5KTPMdWzJKR1NfqlTpnl+p5nJMOuGLz/Up3Js5NtyOhrHcn5NRRXdZ0nZ0k3XW6Vt2nqtFPZHktDLto9BpNRsrM10uD0eHIqNnHkOLj1KS5M8NUvUjjcHdx5FSM6yI4cNWq5MsdYvUrF467MciK+YcdaxepS1a9QnRXW+YJ5DmLV+4/4pVyE6G9KVmKUjVepXqYsmqQWYNqeRJGvl1FLk0s2qXFnO1OtUb3I648dre1OrpPc4mv11N0zT1uuu6ZxNZrG7tjT18fCza3WXds4Os1Nt72RqtVbe5zM2Vt8lkezHDQzZbZqzbHJ2S1Zp1mKQG0JrYLpDIkZGrIaK52JscZbiaJK5V0NPkpo7Oiz1W55yE2jd0+ajFiR7jp2qqtz1HTtZaSb3PnGi1deT0Gh1tNUzDnyce30bS6lNLc6eHKpI8TodfdK9zuaXWJ1uV4OTjselxyRlRycGpTXJu48yDz3FuIdmvHKvUr5i9QzpmAx/MDvQNMgGLvQfMXqVNMnkRi+YvUTyoLpmsTZheVGOWaiGmeU6NfLl/YwZNQlyzQ1GrVMOkwZdRqKT3ONrtVzuY9ZrKT3PP63XOTaD1cXEev1d3ucLV51z5Hq9St9zk589tlfQ48NDNk7nRrt2S5WNch6sYpIBIdoNwmiWiyZBWNollslhGJoloyNEspphkqE1sZWhNDbOmBoTiZWhUXadLA4siUaRsNEuI2zcWpKJEo7m1KJjlE1K53BqtCM7iQ4l2xcWMuMqCg7WGelnhlao2cedryaCLjJpE0nS6cdQ/LZmWo4tnKU2V8wzpLi6jzrwY5ZtuTQ+aRLMXTnY3JZTFLLsajzUTLKXTDaWTc2cGXfZnKWTc2MM9xYsel0WS632PQaHJxueS0OWqPRaHLstzjW9dnrdDl+lWdjTz2PMaLNxudvS5bSMvNni6M5bHN1jbs3LtGtqIXZXHw8r1WDdniur45bn0XqGn7k9jzPUdD3Ntnbjukzm52fP8ALikpWbOlU7R28nTrfBeDQdrX0nouceeYWHoZZEkdrTzlS3MGn0bj4N/Dp2kcMrK747hTk+01JY3J8HTWnbRmxaNvwZ3pbNuRi0jk1sdjp2g+pNo39LoLkrR2tJpKrYzctr4ToNL2rZbHa0+Kq9CcGFLhG3FJIyxarhETlQ5yNbLkSCSIz5NmcfXZtmrNrV5aXJwtdn53I9HHg5fUcl9x5jqMrs7Wuy2mee1krs1H0ePFx86+owOJsZd2Ymjcd9MTRDiZ+0lxNbS4sDiRJGw47kOJdudwa7RJmcSXEu3O4phJo28OZryanb7FRtMVOl2tPqnGtzp6bXcbnmITo28Wdxq2c7idL12HW7rc6GHXN+Tx2HU1wzew6uqM2JcHsMOvfqbOPXtLk8jj1b8G1DVP1Jpi8T1ceobbtGRa9ep5SOr9WX/F+40z7L0716vZkT6h7nmnq9+SJav33Gj2Xocmv9zTza5vzscWesdcmtl1e13uNNzi06Wo1m3JztRrEr3NDNqudzQzZ7b3LI6TBt6jWXe5zM2ocmzHkyN+TBK2bka6TnkbZDkDQqNHSLKQkilENzE0UkEUWiOkxSgG0BGtECGIA8gFCCgGDCghB9x0ANEAAVAAxcg0BIYBCAA4CAAGAgGKgExDEVkmLyUIGiBDYBNAAGgoAAAQDoAEJjoAEIYmio9M0LtNhxE4nF79NZr2F2mw42HaDTAo+w1Ay0FIKxqO5XaVQAKgGIGiEyiQJaJaLJAhoxNGZkNBdMLRjkjO0TKNhNNZoxyibTiRKPojW2Lg1JRMcom44GOUCyuWXG1qaM2GbiOUCewu3P23Y0WscWtzv6LXcbnjcbaaOhpdQ41TMWM3jfQNFr687Hc0uvTS3/c+e6TV8XI7Gm1my3M6ebPg297i1t1ubUNWmuTxeDXOlub2HqHqw8uXBXrYalPyZVnVcnlsev8Afc2Ia/0kHK8NekWVD+ajz613uWtdfkrPtV3llSXISzJHC/jfcmWtXqE9qu1PUr1NXNq0r3ONk11cs0tR1Ajrjw11dRrUk99jkazqC3pnM1Wubvc5Op1nuR6sOBu6vW3bs4uq1vNvY1NXq2+GcvPncvIkeqYabWbVXJ7mtLNfJqSyNsnubNyHS3PmFKexqxkZU7DcjYUylIwxZaZGvDJ3US51yS3RilIJauUhKW5hlKxRluVyyrp6bJdHY0eRKkedwTOppcvG4Z1t6/puoprc9RoNRstzwWjzq0eh6dq+Le5Hm5eN7jTZrS3OhiyWeZ0eqvydbT501yHgzw07EJmRM0sWSzPGQcrGexEqQwymatGnqYWmbz4MWSNphY85rtOmntucTUabfZHsNRhs5eo0y8IR0lebWJxZs4JuPBu5NNvwYvkNeCrtmx6hpBk1Trkw/LaMc4unZmrGHU5XK3ZxdZJyuzq59rOXq3dh1xm3H1EVd0a/b9Rt5uWYVEbenDBkxS7ao3cWo7fJzlsTPN2qrK7zDbsfxteS469ryedlqa8i/i/cNey9TDqHFsyrqO/NHk1q/cuOr3q2NJ7Eesj1H3M0eoL1PILVvlMyLVv13KzfTx65dQXhlfx/ueSjrPcpa1rhhP071T168sw5OoJ8M829Y65MctZ7kWendvNr9vQ5uo1l3uc3Lq+TTzalsO2PDI29VqnvucjUahu9ycuVuzVnuw7zjY8k22YJbmVoXbuVuYsVMO33MvaHaNtdLE1sKtjN27CcQdLA4kOJsuJjlEu2Lg1pIlozuJLhsXbncGJGWEqJ7WNIMdDcw5+3ydbR6uktzgLk2MORrgzYdL2mj1tVud3R9Qqlex4DS6lx8nZ0mr9zLjnxbfQdLrk0nZ08OsutzwWl1jVb/wAzq6fX77sPJnwvZ49UvUzR1C9Ty2LWr1NqGs9w4Xir0Szr1D5/ucFaz3H/ABa9Qz7Vd355Lzr1OJ/Ge4nq/VlPartvUe5L1C9TiPWe5D1nO4WcTtS1KXkwZNUvDONPWb8mtm1y9SN48NdbPrNuTlavW1e5z8+tfhnL1OqbvcPRhwtnW61yvc4mr1W/JOo1HO5y8+Vtvcr14celZs9t7mpKTZMnb8gg9GOK4v1LTIiv2MiQbkNAANUGi54E22DE2AiWUyQJZDLr3JoCXwIrgSAnglovnwNK2DTHVktGWhtDaaa7iY3Bmz2ktF2nS1XAhwNpwsnsLtm4NXsF2Gy4C7S7ZuDX7A7TY7A7Btm4Nemgexm7GS4+xdsXFhbIk7MzjvwY5RLHO4sEhWzJKJDRqOVxCbM+GW5rpGWDJWZHV0k6aPQaHLstzy2CfB1tHmqt9jjlHWPX6PLxR3NLm2R5HSajhfzOzpNRutzDnng9PjyWjM0mjl6bPsjfx5E6I8mWOmHUYe6zlarRd3CPQOPcQ9P3eDUrHh5KXTvq/KWunf6T1P8AB78B/B+xdm3ncehrwZ4aNbWjurSV4LjpfUmzbjY9Gn4N3Do/Y6cNOl4M8MSXgiWtTDpkqo3sWJLxRkhjoybIM2nFJIUpUhSnsa2XKqCSbVlyUc/PnSu2LUZ0r3OPq9Vu6Yd8MNr1up2e5wtZqLvcWr1V/wCI42q1PKLHs48NI1ee29zj6md7mbPmuzRyTts1I9WMa+R3IVFS55CjTvIigaLobQXpYe0lxM9CaG06Ws4kOJtuNkuG5dsXBqdodht/L9hfLLtPba6iVFM2PlgsZNntphJrybEMj5MfyylBoidDZhmaRmjqHfJpqI0miHQ31qXyWtS35OfuNNhOhvvUt+SHqHXJqbi3B0M887fkwTyv1BpsmUQvQxZJtsxS3M7h7EuBWulryjZDibLgT2exdnQ1u0fb7GdwBxGzoYVEaiZe0KG2pihIYwC6KhUVQMCaEUIBAOgC6SIoVBNEOg3DcBAAqCaA6AAEAbAwmgAIAgoAAqBiY2IIVAxiAQqHQnsVNABpBQCGAIAGIYCAKAIBMYmAmAMTKaeyaXklorxYc8o4vcx0KimJhUdoFN7EgDF5HYv5ALwJsbJZAfcX6jfBJVDJKYgqfsS0XQmBDWxLRbEF0hx9RKJkCtwMHYS4GxQdqDNjVeN2J4/U2+yx/L24CdLSWL2MsI1wbPyvYax+iG2emFhm4nQwalqtzSWOqMkYtBi4R2MWr25NmGr25OEpNIyRytBzvE9BDWv1M8NbS5Z5tZn6lx1D9QxeGPTLW7clrWuvzHmVqmUtU/UMXgek/jv9VmOev25PPvVP1JlqX6gnBHcya7bk082te/1HKlqG+WYMmZkbnDG7n1l3uc7PqWzHkm2a8g6zjTlnb5NaXJmlGyHHcsXoYWgSMqgVGBdnQmKMsVQRgZVEbTpJDtoqg7fJEuLHJmOTMkkYplc7GOcqRHcE7MTe5XKxtY8hu6fPT2ORGdMzY81CxI9NptQlW52NJqq8njsGpZ0tPrKXuZauO3vdBrltud/R61NKmj5xpNd7nb0XUe2tyPLycO30PT6m0tzexZrXJ43RdQTS3OzptYn5Dw58Vj0UZ2ZFI5WHUp1ubcMyaK4XFuJ2D3MEcnoX8wM6LJCzVzYb8G25oiTQWOXkwexrTwpHVyJGrlom2o5k8aRqZ9rOhnpHM1M6RLXbHFz9TLk5Opluzf1WTk5GoyVZHr48GtkW5ibSJy5EvJp5dSt6LHpxxbGXIkqNLLNtvcw5M9+TG52ad8cTlJ3uTbvZjW7LjGyusiU3ymV3NsrtpBGIXQUn5GpvwPsGo+pDUHzWP5krGor0BxQNQnkdESyNlqJLiF6WKUpGOVs2HAlx9Qumq4kPGbcokOAakanZyS4ehtuGxDig1prdodv3MzQmuLC6YWiaMzjZPaDTFRLgZ6JoGmBx24MbgbTRPYNs9LVcWHYbDhYLGXbNwa6j6lRizN8vctYxtnoGNtG7p8rVGtHGZYRojNwdfT5+Do4dQ152PP4pOLNvHlarcOV43oceqfqbEdY1yzz8M2xlWf3DneJ31rXWzKWu9zgfP9wWf0YZ9mPQvXejF/He9nn3nfqHz/cp7Luy1vpIxvWe5xnnryT8/cL7Lry1bfkwT1Puc55iJZW1ZGpxNrLqPc0s+bYxzyNo18lsOkwY82RtOjVlbNmUbMbiHWYsHaVGJk7a8DSC6KhrgpLcQUAxtE+SGiapiY2JlUiaKdEsCWSy2hNbAQ0FDaACarcdDoKAVWCQ2AEyXoS47GQTQViaFRka3CgjE4+odm+6MqSH2hNMXZ7B28GWgoJYwOFEyj7Gw0RJF252NaUfYxSj7G3JehhlH0NSsXFqNENGzKNGGaNSuOWLA0CdFSRLK5WM2OdG5gzVRzU6ZljPcliyvR6TVJVbO3pNSttzxWHO01udXS6tqvqOVxa8vc6TUrY6+l1FnidJrNuTtaTV0luYcs8NvXYMiaW5u46Z5vS6xNLc6WHVrgjy5YadiMUylBGjj1K9TMtSvUrlca2floagjX/iED1C9QnTWzSQ7SNJ6lGOeqVchemug8lGKedJHNnq1XJq5tbzuNtTjdTLqUvJz9Rq0luzm6jWuuTl6nW35DtjxN/Wa3n6jjavV7vc09Xredzj6rWOV7lkenHDTb1er35OZm1Dd7mpm1DZglltmpHWRnnk9zE5W+TH3WCdmtO+MWNewkUkR1gB8ANINEkDKrkEgpJbC7TICWwGPt9ClAyKvQaQ2iOwpQLSRVKiGmNQK7C1sH3CaT2UCjxsXaHe4RHaHbtsVY/1CaR2j7ShoGmNx3DtRYmqAxtEOJlasQaYZR9CHGrM7IcSjE0TRka2Ja+wEUSy2IonwAUACEyqEwaS0FFUKgaJiGACEMQQhvgAAVBwDDwVCChiBoCH4AIXgYhhCYwEAACBsqaIBiCaIAGBNAVYimiGABBwMSAgLEx8AUJAG4V6hCoRTEDT2DewnwHhks5PcBPcHLYnu2ATFY2xBSYmD28ibAGxWIAp36isLEAAAAAnvsAMKXIh1sAUh0FWNchB2gkNDQAlsWoglwZEEJQ2GoItRoqgyhQ24KUP0LXA9qCMTh4E4UZGJ8hGNRBrksTBpFArKHQNI3oHZew0gaYmmyHGzZSE0DTVcb8GNw52NxoiUQrTeOyflm24kOO7oitbs3GoepmoO3cppHb7FJFpDCWMYNbF1QNbkZ0wyj5MU42bMkY5LYrNxaU4mCUdzeyQs15wNSud42s+QTMkokdpXPoq4zoz48zT5NWilYsXpdTDqmnydTSa6qtnm4yaM+PK0zGkuL2uk1/H1UdzRdTapNnzvBqnHyzp6bXOuSacsuKV9K03Uk0tzp4eoJr8x810/UH/AJjp4OptLkry5+nfQseuT8maOsXqeHw9TvmRtQ6kn/iI4X09ewWsT8g9Wq5PKR6iv8w31JL/ABFY9ivTT1S9TVy6tVyefn1JU6Zp5up+jI3jwV3dRqlvucrVayO+5x9R1Fu/qOZqtfd7/wAyaenDg06Or1ad0zj6nVpXuaOo1rZzc2ocnyXT1Y8Wm7n1d+TSnnbfJqzyNsSdl06TFsrLaMkJGvEzQ4K6TFtQdmRGGDMiYa0yJ7ju3sY7HYXTKmOzEntuNMhplv0YWY3LkV+gGRsHRF78hYU0vYNhXsHIUMivUsl8BYxNENGRky2DUY2iXt4LaJYEEtItiaCorkVF0Jr1AhoO1lVY6AjtGoF1+5UUBKirLUCkvYtLYM1MYGRQ34KiqZcfsGaUYeiMsYV4COxaDFCiWou/UE9h2E0bQqHewr/YJodvuFV5G36CTtg0VMdeowBomvcVFPcT42BpDVshqjIyXuFjFKNkOPgzSIkg0xdqJrcytENATWwqK8CClwS/Yp0TWxBLEU69SSqQqGxWAvGxL+5QnQEv2AqgC6TW4UMAaAigYEsKGANJHQeQIFQ/IFBCcdgrxQ63H7BLGNktGZohxKmmCUTFJVZstGOS2KxcWtNGCcTccbMUo/qWVzuDTlEhxNuUTHKJqVzuDWaFRmcCe31NbY6Ci6NjFlaZg7SopolOl1tNqXHydjSav3PLwk0bmDM4+TnYdL2Wn1iOlp9bxueM0+paStnQwavZfUY0xcNvY49avUzrWe55TFq00tzPDWeLGnO8T1C1irkX8Ztyed/i36g9X7k0z7Lvy1lcsxT1nucJ6t+pinqvculnE7OTWr1/mambWc/UcnJqtuTUzarbdjTpOJ0c+su9zm6nVunuaWbVPemaOXM2+TWnSYM+p1Tt7nPyZnK9yZybZjaNSNzEnKwQdu5SiVuYiJkitwjEpRI6zFQ0FKiq3I3ok/YYVQ62ChbByrAaICgENAUikSilYFUHqIAigsQrAbYWLwK99gmleBolMLBV36AnsRY7Bo1wFsmwsGjfuJhyK9wpMljbEBDJkq8lkyLBjaE0ymJlEgNkgOyWMTCixAAQmFAFgIQxeQgEMPACAaAIQMAZQfcQwoIQhgEIYgCAAAAEMCiRgATRMAAAABhCAe4MKBDEEAhgUJiHQqCPXPgmx35sltHJ7iZLGS/UBOQWS+eBWFNuxWAgpiAQDYhcBYU7CxfoFoACwFQAOgAAGvsJFIBlJE1uWgikXFb8bEouL/YMqXsPkXC2GEO9x2TYr9QG3+4m+ROhNgOyWw8i9AHY0yfIWEXaGQirAvwHIr2GuNwE1uS0XyJkViaJotpkuOwGOSDt9SqCgpVsKqKoYE0FD+wMGkSRLRlrYhr9gaYJRMUoWbTSIcSmmnKDIeP2Nxx2JeMbTojUeMXy6Nv5fsCxF2nRGr2spRZs/K9hrExtOhhimjPjk0NYn6GSOJ+hGehkxZpLybmLVNeTSWNlqD+wYuDqY9Y75NmOsdbS/mcZJotSaZWLxR21rX/mB61+ZHF75Cc2E9mOvLW3/iMGTWe5zu5siTfuRZxRs5dU3wzTy5m7timn4Mbgw6TBinJswyVmxKBDxhqYtftLjEyfLKjDcL0lCJmhEUY0ZIoGlxSRXoJD9ymlBdEjBpVhaJBsGlXsgsjyCIumS/AWY7KQFrYpGNFeV6AV+hEth929oTYEkSKZMg1EtEspslhUsQxMBNi/UfIBSH5dAMIEVFCRaApLcuPBKRYQ4lpmNDT8hlk7ttyrMVjTDOmZSHe2xi7rHYTTJ3e4WYk9x9wTTJ3X5GnXBispMGmRS5C90SmF2DSm/QX6i7hXyBTYmTe4XsF0UuSWxt+pLfoAmRKq5Kk9iW9gpNkspksBCY79SWwpMTG+BBSYvI2L7gDJKYgECW40HACEPxsACGABSAYBCDkdB4Cig5HGnyCCDwNcACZAeSWrKe7FTCIZDRkaJaKaYnGtjH2meS/cloJprvGY5QNtohwLtLg1XD2JeM23D0J+WXbNwavYHYbXyx/LG09trKJkimmZlj9i44ybToTBtGzjyNGNQp8FKJE6GzDO15M8dRXk0lF2PdP1DPQ6MdQP+I9zn2xuwe23Zai1yjFLUe5r06IaYWYMs8z9TXyTdlOLF2eoXoYJNsxSjZt/L3J+WvI21MGm8fsJQ9UbnYT2F210tVQH2mx2C7V6Da60xKJcVRfaFEa0ih1ZVCATD+gwCgAoYQmhpB9w8hAUnsJDQFIL9RfYdANEvcYmArC/YVi3CKW4rEHkCkOxBzyAwsQANskGD9gE2LljYgEyGtin7CvbgohiG+SXsFBL2GxUUIBsQAxDEAgGIIQUOgAQhgEJAMQCAYqCGJoYFEoYAECFQwASEN+wWEIAAqFQVQxewB5AFwAQCGIIYCYBQAMAgAXkdFUgAAj1bRLRfjkmWxyexLJZX7EvkKl7sTQ2LzuFSH2G+QsBBQwCpaEUDASAYgATX7j5BoKX2AHwDAEUiVwNAqkWnfgxrktOgjIiouiBoIyJ7BbJXkE99winyJrb0FbsT/kAPgTGK9wCxJgxcMBjQlyNchFIYlRS43AaZS3W+xNWNOghvwIpiYEEui2S+dyKmhFeRcBU+QY/IAIKsYwIZLRkoTQVjaJaMjRLQVFC7S6KoCFBD7S0tzIougMagXHH7GSMaMiVlZY1jVcFLEq4M0VaMkYhm1hji29ivkozpFJeoYYHiS8A8a4o2CXuEa7xpeBPGvQzslhWH5aIlBGwxNJga8oexjePk2WqJkqDTVlHclwM75JaCsLiLtMjQUFRRaS8hQ0ih+4woCIAAb3YRINDoGFJ8i+wwooP0BAkNbANFX7koZAcA+AaEAiWU1sS2FIxtlsTCo5EUyWFIPuMGAqAfoOqAcS4kpFoIaX7FcIEMMgArcKCGHImtuQ8lQ7rgaYueArYgdjvYXkNgik3Y79SUF7gZE9w7knyyFx7j8gU3f2DwSFhDf33JsG/QXqmFDEwfBNgKxWN8i5CkxDYqAloQ2twr1CkIoQC/QVblMQEsK8FCa3QCFXuVQgpBWw6HWwEgN7jS42AgdbF0TQCr0BlKwaASDcqtgAmh0Ot90BEKheCkFUmBD3JZkJYENEtGRomqsq6Y2twotoSAigovt3KSIMaiUoljSCEo2iow9ikq+5aCaT22V2IqkNcBEKHsPtKAqJpBRTCvYImthKNFggukOKBosKAx9qJcTI/YlryFY3FCcUZWiWkRWFxE4mWqFQVi7eWTRla3JaKRFCaKYMKigobAIQDoACrCh0AQkNMA8g0a5GJIYNAkomghNCK5F5ATQL3GHkBgCfoFgAfoMVr0CJBD+4goF4GhMCWqJkWyHyUSJofkTAViY2FFQmhP2GxBSBgIAYh+BBAIYAJgxiCAQxUA7EwAIEAA2AgYBZUACCgBgAMIQAIoAbGAQgugAIAAAEA2ACEMLKAQwAXIDEB6u+Pcl7BfqI5PYTe3AmDCwqfUTFYWAMPAcCsChCHYUmABYAAeRXuBXAmO9yXsACG/fgTKoQ4iGRDRS5RIwjImNEIpcAV4HexIBFATdDsAdeBALyA37hdCEEUNexIwLW4yUxpoC4jSJuhp+4FPgQm/QVgPkQX5Jb9yBsl+oXsIKa9wEHiwH5Hz4Eh2AEjYBUvklrcphXoBHkpBQ0gGjJH0JS3LQFRRliiImSIYrJFFJER2LiVmqiURY1IIdoltA3+xDfING2S2Jv9CW2AxP1Ff7sVhTb9yJcjbJk/cKmSIZb5JYVj9QGw52ChBW40uLGAIe18iGEAUMGgFWwq2KolgKh+ASCgBeBiKAOBpX6hSFQQPgQ3uJhUslrkoXuGksl8lfcTCJ8k/YutxMKlr1APuCQUL7DQcDrcBouPJCKSDLJEYluNc+wQ1Qml4K2J4CD7hyw4Y1f6BC+yBKyq22GuAJSF9iqGkESOh0MCV7D+46B8ADJooT2AQnyN3Yb2BL8h4HvYMCAr7lcCYVFeo2vcdA1QNoY69ShUBD5FRkoKAxioyOOwu0CAL7R9oNsdCoy0Lt3BtA6K7PQO37hUUFGTtFQRFUKvYvtCmF2mgRTW4UBLBFCAPuA2IKQmtytuRERLQmXwtyGgqQGBRPCCihUAUFFJbAkQJLwXFBFFACQ0gSGvQrJjE/AfzImgDFYFDAngq7VkNEAWK1sUUL7ha4YmFAmAAIAEyLomiWivAgIYqK88EsKlolmRkFCoRS4EwEFDAA2oK9R0IGi4BjYUAgHQggAABomwtjAJogXuABNGJMAC6AhiQNAAABCb/Qd7k2VNExDZLAT5EVRLBoMTGyQAQ3QihMRQgaIRQqBoqABsGkgMQTQAAYTRAMTAACwKAQ6EE0Bb2NA2AeBMYMCQY2AQgYD/AKFQhDEAAOgBoqsAAJoCGFgAAFA0QAAR6ZMTFYWc3t0G9yXyDYgoYgYl6ADBgxMKdghBZQ2BIwDgL9RBsA7sG0F7CbAoT5FYwAPuIPdgWhkp+g7IikOyEUgaUmNEhz5CLE2TdBuA79A4RI78BDoP0FYnv4ApNhdEptfYbfsBSY72IT3HfqDTIClvuTewrBplvYVpkpgDRt3sIQr9CB3+wWJe4vIVQyfPuPcBgFBuAByHa3wmZY4Mkvywk39iyWpbIwhRuY+narI/owTb9os3MXw71TJXbo83/dZroy/DF5cJ5scitwO5L4Z6rDnSZf8Aulw+FuryVrRZf+6OjJn9Rxf7Rw1RSO7H4T6u/wD6nl/Yyf8ARHq9W9Hk/YdFZvqeL/aOCvYtPg7i+EurqNvR5f2KXwr1Wreln+w6KzfU8X+0cNMtM6kvhzqcU3/C5KXsa0ula2Dd6fIv0HTVnNx3xY1UwszS0eogvqxTX6GJ4prdxf7E1WplL8pciW36A0/K3JaZGjvYi6CyXdhdHfoJvYnzuAXSr9BWJ7PkVg0GSxsX3YC3EuRgk74CihoqMG+E2Z8ejz5PyY5P7IslqWyeWuhpHRx9H12RXDTZWv8AdZnxfDvU5tKOkzX/ALrNdGX4crzcc85RyA9tz1GH4I6xkh3LTSX3LfwN1lrbSv8Ace3k5/q+Gf5R5Nio9dj+BesSlT07X3Zmj+H/AFiW3yo39x7dS+s4J/lHiwPar8PesXXyor3sX/o96xdfLj/3h7dP1vB/tHjPA1we1/8AR51avyw/7xGT8P8Aq8Y7Y4v7Me3T9bwf7R40Lqj2D+AOs1fyo/8AeMOT4H6zBO9M3XoOirPWcN/yjyoj0GX4S6vDd6TL+xran4f6lpknl0mVJ+aJ0Vueo4r4yjjSVol7G5l0WoxfnxTX3Rryg1ymiWWO0yl8MIjI4kkaSLjwVQqCp5D1oKBIArcEH9RpA0aKXsKiktwhx9CrJooM00FoEgCD3CmwSKX3CFVIa4CikESNKykgr0AXgKGlsUlsREJDa34Kr1FWxRLQi2FehBFB6FUJrbcKklqy2yHsyhMW5W7QqClWwUN8DimESk7KSN7Q9M1Osmo6fDKbfoj2XSPw81uo7ZauSwxfjyamNrhy+p4+L7q+f9jfguGCcmlGLf2R9r0H4e9NwRXzu7K/fY7mj+GumaZL5elxWvLVmumPDn9Vwn2zb4Np+ia7Uf8AZ6bI0/PabkfhTqsnS0k/2P0BDSYcaqOOKS9EZFhh/lQ1Hmv1XkviPhWn+Beq5lvi7fuzZh+HnVH+ZQX6n25Y4rhIfZH0Lqfhyv1Lmr4m/wAPOopreH7mOf4fdUT+lQa+59v7EJwXoNJ/6PN+XxFfh71Pyor9S/8A0e9R7fzY7+59rcE/QThXhDS/+jzfl8Qf4f8AU0/ywf6mDN8DdVhxiUvsz7r8tP0F8pXwTSz6lzPz/k+EOrQ/+rSf2NDP0PX4ZOM9LkT/AN0/R/yIeYoxZNJhk98cX+g1HTH6pyTzH5ty9O1OP8+HIl7xZrywyjs4tH6Uy9P0841PDB/eJytb8L9N1affpcdvylTJqO2H1X/bF+fflv0F20fXuofh/ppprTSePfzuec1/4fa/Cm8Mo5Ev0ZnT18f1Dhy+dPBNCrY7Gt6HrtHfz9Nkily+3Y5k8bjyqJZp7MOTHPvjWECmhP8AkR0Ill/YloomgodbhSIE0JIuhpbFEpDSodDIBAOiqCJopLZhQJFNk1zQrKabFTCJ8iRXaxU/QKTYxtOxVsAMQ6dBuAvuFg0xUAB7gJ7ANi38gJqyKBN7BwJsoPO4mNK2bGn0ebUTUcWOUpP0Qk2lsk3WrQq/Y9l0r4E6nrqlLH8qHrI9TofwxhSepzfpFG5h+Xk5PX8PH2tfJOxvZIpYJviL/Y+8aT8PulYacoOb9zr6f4W6ZhilHS49vVF6I8uX1bCfbH560/StXna+VgnL7I34fC3VZpNaXJT9j9D4OmaXAqx4McV7I2Fp8a4ii9MebL6tnfEfnfD8HdWybfwsl90Wvgnq7bS00j9DrDjXEUP5UPEUXU/DF+q8v4j88R+COsOaT00kbT/D7q3b3fLX7n335cbukNwj6Ian4Zv1Tm/h8Cj+H3Vm/wDs1+5vaf8ADjWyjeVqLPt6hH0QOK9B2/DN+pc1+XwXV/h51OGR/JgpRvbc5uq+C+r4OdNJr23P0Z2R9ES8UHzFDU/DWP1Pmnl+an8L9VS/+aZP+6a+boXUMVd+lyK/9J+nHgx/5I/sYsmkwzVSxxf6E1Pw6T6tn8x+Ys3StZiVz0+RL/dMD0moSv5U6+x+oZ9O0841LDBr3RhfRtFTX8Pj/wC6h0x0n1e/OL8vyxzi6lFr9CWmfo/W/CPStRJuWlx2/KVHk+p/hpp82Ry08/lr0onRPh34/qvHl900+NgfQ9d+Guuxy/6vkjOP7HleqfDnUen5JLNp59sf8SWxOivZx+r4uT7cnFZN77mScXF1JUQ0ZehLYhiAngPAxPgJouRMYMGksTKEAhMYMBciCgKFYLkaABUIoVAFCGxMAoQwsIX2BoYmEFCGIAEMAgYhgUIAAIAoAAQUFgwFVB5GIqAAGiBAA2AhDQMqEAAwaCCgDgGnoRWAcnN7A9xDYq3Chi2BgAP2DwJgAUCAKKEDBhQAH3BoGRQxDBgLyNewAggXI3/MOGDAFsNCHQD4GLgYQwQgArwIAAaYCfIgh2LyAAD+wxWNAAxD2AfjYLFboaCn9gvcQeQmjbC2C2QvJFA1v9xPdWdX4f6Nn6xrYYMK2b+qXoiyb7M55zDG5ZeHOjBydRTbO90j4V6n1Nr5Ommot/mkqR9a+G/gjp3TIRnkxrNm/wA01Z6/DhhiilCKS9EjrMcZ/L4nP9X+OKf/AGvj+l/C/Wyp59RiivNbnd0X4Y6GFPUZ8k37bH0cDW9eHzs/qHqM/OTyem+Bej4GnHTKTX+Z2dnB0XQ4YpQ0uFJf6EdKxWTdefLlzy+67YIaLTxf04oL7RRlWGC4ii0/ULDG0/Kh/lQLHH0RdhZET2RrhC7V6Iq0TYUnFegu2PlIbZjnOvDf2JsU4Q/yr9iHgxPnHH9UYcspSVqUol4JvtXc7YlVOXp2ly/nwY3+hq5ugdOyqp6XF/3Tp8jLtZlZ4ry2p+COk5naw9r9mc3P+HHT5p/LyZIv9z3Yxt1nqeXHxlXyvXfhnkim9NqU/RSR5/XfAvVtOm1h+Yv9Ds+6ipPlE7PRh9S58fN2/Nmr6VrNLJrNpssK8uLNGUHHlM/TWbSYcsXHJjjJPw0eY638EdM16lLHjWDI/wDFBf8AAzZHt4vq0vbkj4UJ2eq+J/hDV9GTyOsuC/zR8fc8s7T3MvrcfLjy49WFS9wSbdJWHL9z6H+HHwotZmjrNdjTwp3GL8mscd1jn58eDC55PNdH+Fup9Up6fTT7P8zVI9r0f8MJPtl1HMo+sYH1PBhx4cahjhGMVwkjKjrJJ4j4HL9T5s/t7R5jp/wT0fRxVadZH6z3O1h6Zo8KrHp8UV7RRusRd2vBlyZ598rthjp8Ufywivsi1jiv8K/YsCMEor0Qdq9EPcfAE9q9EOvYYrAVBS9B/YAFS9CZQvgsAMUYPy0V2LyixAS8cX4REtNjl+aKf3RmAG2ln6bpc0XHJgxyXvFM5Gr+Euj6pPv0eNN+Yqj0hLQ7t48mWPivnmv/AAz6flbenzZcXtyjznUvwz1mJt6TLDLH0ezPswmvYlerD1/Ph4yfmvq3QOodMm46rT5IL/NWz/U5Di1dqj9TZ8GLUY3DNjjOL5UlaPln4j/B+m0ullr+n4/lqL+uC4r1Rzykj6npfqnuZTDkmq+UtDrcpqmCVmX2dlXoNKjr9J+H9f1OaWlwTkn5rY9f078NNdl7ZarJDHHyrtmphXm5fWcPF2yyfO1GyowbfDZ9m6b+G2jwO9Tkll/kdjSfBHSNO7Wn7v8Aedmuifl4s/q/FPtlr4NHBN8Qk/0NjDoNRlaUMU5S9Ej9B4vh7puP8mkxJ/7qNrF0vSYt4YMcX7RSL04vPl9Y/GL89romvulpcv8A3WZsPw71LLNRjpsm/rE/Qq02JV9C/Yr5GNcRX7Dpxcr9W5PxH5+/6K9V73H+EyX7Ip/CvVEv/mmT9j9ALHFeEDxxfhDU/DP/AKvL+I/P6+FOqtX/AAuT9hS+FuqRVvSZK+x+gPlR9EP5cP8AKhqfhP8A1OX8R+fY/DnUpOlpcn/dKfwz1Rf/AFTIv0Pv7wwv8qF8qL8IdM/C/wDqcn4j8+S+H+ox50uX/umLJ0nVw/Np8i/90/RDww9ERLTYpcwi/wBB04rPqufzH50nos8F9WKaXujE8M1zFo/RWTpulyKp4YNe8UauXoHT8nOlxP8A91E6Y6T6r+cX58cGnwS0/Sj7tn+Duk5Lf8NFP22OZrfw+6fl3wueN+zsnTHbH6px3zHxqvUl2fTtZ+G06vT6pP8A3onD1vwJ1XBFuGOORL/KydL0Yeu4cv8AJ4xr7Ee7OrrekazRt/xGnyQ+8Tmzg1yjOtPVjnjlNysctxeSnEMcXOaSW7DS8OKWWcYRTcntSPonwj8Czzdmo6lFwhysflm1+HvwzCPbrdXC5/4YvwfS4JKklRudnxfW+vu+jjamg6XpdFFQ0+GEF7I6CilwTuVe3uV8i23yqgX3EnYt0/YrK73oZK49w4/MyhguQtLywrYAbvgTVlJbABKVDa9RvgAJoKooAJrbkVFX+wICe0Tj7FhRBi7ediXjT8Gdolk0u2ln0WPPBxyQTT5tHkeufAWh10ZT06+RmfmK2/Y91QnwNOmHLnx3eN0/PPxF8Na7o2VrPjcsfjJFbM4EotH6Z6hosWt088OeClCappo+IfG3wzl6JqnPGu7Szf0y9PYzY+56L1/u/sz8vJUFFPdnY6F0DV9YyqGnht5k+EZfSz5McJvKuKotvZGVafI1ahJr7H1bpH4cYYQT12Xvl6RPS6T4Q6bg5wKbXHcbmMfO5PqnHjf293wVaXK5V2Sv0o2sHSdZlklDT5G36RP0Hi6JoYNOOlxWuPpRtrSYoflxwVeiL0x5svq1+MXwTB8JdVyulpJr7o3cPwJ1XJG3iUfZs+5LHFeEh/LTLqfhxv1TmvjT43g/DzXS/wC0nCP8zax/hzma+vMv2PrfYg7V6Byv1Dnvy+Xaf8OI0/m5n+iNvH+HOnX5ssn9kfRLSu1/IcWmrRWL63mv+T5+vw60e31zL/8AR3ofWVnvt/CIbyLiP8wz+r5v9nho/h309cubZb/Dzp3aknNP7nuIOclvGmDjJjafquX/AGrwf/o70HmczDL8ONE5bZclemx9CUL/ADFKCXA2s9XzT/Kvmef8N8L/AOyztfdGo/w2d/8Ab/yPq/YPt9SNT13PP8nxvV/hzqo38jLGXszkan4H6thbrB3r/Sz712L0D5cfKGo64/Uuaebt+c9T8N9T08e7JpMtL/ScvNpsuKVZMcov3VH6elp8clTiv2Ofreh6LVJrLp8cr9YkuMejD6tl/li/NTVcoTXsfbeq/h3oNUpPBeCXjt4Pn3xH8E9R6R3ZIwefAv8AFBcfdGbj+H0OH6hxcvbeq8gwS8FzTTaapm30jSvVazHjXlmfD2ZZSTb0PwV8KZetZ+/J9GCNW/U+ydH+HNB03FFYMEe5L8zW5o/Cmnx6HRQx4opKvB6aGRNG8bK/M+s9Tny5eewjjUdkkWogmOzbwk4h2jGgJcdie2mX3bjsCEh0UFASwobBoBUJoqgoCSX3XsZBqqAx70JJ3ZloAJ8CasqgqgJ7RNbFpA1sBj7U9mjW1OhwZ4OOSEZJ+qNsTZFleB+JvgDQ9RhKeCPyc1bOPB8f+Jfh/V9D1Tx6mDcH+WaWzP01kaUdzyHx50rH1PpeTG4pyW8X6MWz5fR9H63PjymOV3H55oDPrNPPTajJiyKpRdGDwc36SWWbiQGIKTJKYgmiYh8h4CJAdCATAAAQAMoQAAQgbCgYCBjABAMAEJlMSCVKAYMqDkQ0JgAB4CggEOgoBAOhAIGMAhAAUEAAhtAIAoKAQUVQmgEAxFHoPAihVZzesheRgFSMGtwaKEFoAYCYcDrcOWQKh8g0HgqlyHAUwIEMGgoBMB16hQALhjD7hAuBoH9gAY/vwCGwFYD4EAADD9ADyAxUEF7gAMAQAADCwAAGIYAO+aEMA8eBcDDyBkwY3kyxglbk6PsPwP06Gg00HFfW95M+VdESevxWrdn2no0e3DjrbZF8R8f6ryWSYPU4c6pWbEZ3wzlwdeTNiye4mb4HS6Fg36M1vmuuSllaL1xOlmTHdGNZG0UntuWZSmjbJ7mWqCo+GVEqX3KsfYhdoCDYrtDt9QIaJlH2MlIO1E0ba0sXct27JjhvaTT+2xtdi5TBwvgaXaYqlSYN0+R9v3HW4E27H3UU4iSTVACd8Dt2CjXkbaCJl7OiZNDbsxyje9mbVkamv0uPWYJYssVKElTTPifxx0CXR9c3jT+RPeL9PY+6v0PH/iPoY6noc5yS7sbtM571dvoeh57xcknxXy34S6S+p9ShGafyoO5H3PpWKGmwwx40oxSqkfP/AMOdHGGmlOt5M+iYVSR06vhfqPLeTk6fiOpCakZEzSi64M8Z7G5k+ZYzASpFdyNbQwFdgUFje6AAEgYxAFhYAAWMkYAACAYeBAQMT+4rHQ2AmRVAyWqmJyfibTLU9G1WJr80Gjr0jDq4d+CcXw0Yy7xrC9OUr8u58fbnlBcp0fTvw/8AgjFqMENb1ONp7xxv09WcXovw/wDxXxdqIZI3hw5W3fnc+z6KMcWOMYpJJVQwsj7fr/WZTGceF8+WXS6PBpsahgxwhFeIqjYpCUr4KOj4VHAhgEHAqGAUkAwAQqKEAUJ3YwAQDsAJGkNbDAkKYwAindDooLAihSgvQsNiDT1GjxZ4OOWEZRfKaPLde+BOn6zBklpoLBnq048X9j2rQpbRJp0w5c+O7xun5r6x07P03Vz0+og4zi/3N74S0EdTrVPIvpj/ADPpv4ldChrenvVYoL52Le/LXk8l8H4FDEmlvZzt0+3PV+5wb+X0rosIwwqPCR1VscfQSqKOrCadWMa+Jl5Zk1RWyXBCnHwPlHTbClxsFb7sK3GqKDagb2qthOVbUTFybflegRa9kVuRvfox7+WA90Cd+4lyC2umANbgG787C3sCr3Cyd1zY9r9wGCYeR3RQAAAFCaGFkENbiorkH+yIrHK+Tj/EHTsXU+n5cGaNqS29jsyMM13IzW8b03cfn7SfD+fL1ueiaa7J037H2H4e6bh6fghjxRSpfuaGXS4tP8R5ZpJTyRTPQYV2pMxvb2+p9TlyyR08aVIyVuaMczSMuLLZ0mTwWNqiWSpopSTLtNJab4Eo15LsexRLha5FCCjwWluXS5CMfavI+1F0h16FGLtrgKMlCaSAmhU/BMM+OeRwT+peGqMtEGJQle4+x+pdhTKIVFMUkkvq4E4Wk0QUluNoiCkn9X7oyVYUJBS9BoYRHaRkwwnFqUU0/UzCbQHyz4/+BYajv1vS4KGarnjS2keP+G9C8GWMpxayXW/g+/ZYqao8J8S9IhpdXHVYoVGUvqr1Oed3H0eD1eXT7eTrdIdYY+yOxiltZyulr/q8fsdTHsjGLyZ+WxGdIpTsw2NOje3NnUx9xhu9xl6qaZYVW5VoxLgLbNdSaZrQGNbFWOo0qxOSsTHFXyOo0O5PgaYKhpeaGzRWKzIl7CteUXYiwZdxvxYnsTYnyDLb9SHsydRpLkk6BybWwpVQmydS6S5tE/MsbdcmNp2YuVaki5u47nP1uJZMbTXJvv8AKYMsfpHknZ8I/Enpf8Jr1nhGoT2bPFUfbfxF6d/E9KytRucVaPijVOn4LPD9J9P5fc49X4QxFVYUV9BJLLEEQwZTFQQvBLRVCoBAOg/QIkBgwEHkYmAmAxFQhjEACGIACgAIVBQwAkB0MBCofkbAkBiKyQFCClQihBCQeBgE0SHQADRAMQAHIB4ABDAJp6KthUU/YRh60UKinxsIBCHe4eAqRjCgJodDGBIqKACaEU1sIBAMQALgYFAMB0QJcgNIK2AYMEUr5CJrYdWPyIBAMGtwqQ+xVfqKgEhhQUAAHka+wCH4H2g16BE+BoaQUFJDGl9x1+wE3uA2vIMDrfC0FPq2FNeT7Xo4Rhjglwj4t8Lf/jXF5dn2rSO8cVXgt8Pz31W/1J/x0FLbbceN7kxSXkuBzr5TPF2i48rbciK22HDeW7AzpsabJuir4pFQ7bY1yTkdEubcdgMik/UtSfqa6ardhb8Walpps93vYnJr7GslJtgnLh2N1NNmM/Vr9h92xrqTT4LU4vlsuzTMne5N0yJ06p0NS25obNH3b3FD7m/BjXOzZSkq3ZNmj7pegfU34Gqa2tsp7IoW91Y69hcMLCE9jG+TJJEMlahN+xwfjSKl8P6q/wDId9rY4HxtJR+HNa34gzGfh14fvn/Xmvw+d6BvxZ7fHwjwP4f5Gumqt3Js9/hi/lrfcsvdv1X9ys64RlXBij4LTOkeVlTLTMUS17FRkGiFZRUOx3uIZQwfIWFjYAdha9gtF2FQ3ELQ7RAu33DtGACpWFDYmAmgACKBcgw4IBE5VcWUglwxfA8V0/Swwdb1skl3Tn3M9LieyOFBpfEGrjxtF/yO5iVRVcHHF35bu92eMqMkZ0a9lRfodJXHTYU9y1JM1k2Uma6qmme0FowWVGVIdRpmv0EQpFWa2mlUBDmlyL5ib5Q2aZAJv3CxsOg+4k7e72HYAAWlywTT9BsAAMbCAAGwAAibBYPgwTz9uox4uyT7033LhV6mcb2uml1PCtRpc2KS2lFo+WfC949ZnwSVSxzcaf3PreVP02PmuTBDS/HGtxQtLIo5d/V8nHPy9PBl2uL12lXbGJvxlRqQjcVRswfhiOVZU6M0ZPgwLkyRe25qMs3c35FFVK7f2IRae5dppT/0xr9RdtN0xppDb3NbQ/srDe+Ai9xuST5GxMk35dFR8qtifmK9lZMskoveqLs0Id3zZc9r/kZFs2YVmUOWKeRyaaaXsTZpsUFPfZGFSal9Um36CnN8KTTLs0zW2tkOne9UYfnOL34MizRaTY2aZO0XaCmntYWhtAooaFYADJlwNkkWIZFKrMnkloivF/EOb5HxLpHW04P+p34PuSZ5T4+yPB1zpM1/ico/0PUaBueCEn6HL5ejL7JW3FbIyR2VERdFJ715NuLLGSKizGudjJj2T9QjIUuSFwijSLTux3TMfdQnMqaZu5XQ00YHJdyak7Bunb2KaZ7QnTXJi7l4YvqVuti7NHlwY5tS7V3LhmaK233ZruTrZOx/UnyTZpna2F2+pDm15sl5WXZpmrbcEq4MPfJ8bIayPyhs0y8AY+/7FKSa2Js0rYVgqaE0TYmc1ELsJK2FVwRU1Ry+v4PnaDMv9NnVb9TBq4KeGafDRLFl1Xn+juUsMJXtR2I8HG6Jtilj/wAknH+Z2lwYxb5PK9qBKyb3Gmbc1lJmNlRYFb3sykyH4HZRfgpMhBwwMiBSSe72MTyJLkxTmpPkbXTZ+YlflEPLX5Wka0nJbrgxuV7qNsi6bEtRMn50pPcnGpy2l9MS1BJ3FjR2PunyKWSS8Mpt1u0Y+5IWEq/nS/QpZt9zG3H7CuL9iaGfvjLgTMN+i/UrHN8SJYLasTQ1JNbAxo2nwY58DvkibtUgOP1vDHPpckJK1TR+e+t6Z6XqefE9qkz9G6pXjlsfCvj/AAfK69N1XcrEfW+mZ6z6XmWiS2SyvvFQhgyomhFITYEgABCfItihWAgYC8AAhgEIACgEAw5KFQDEEANAACAAAAAAgAAAA+4CdgADF9gFQDEVAhDQUAqGAXsAgAAhMNx8gDRAAAehTBiF5MPVoBuIOAALANgAEAgGwsQLkBtgxWAAxUFjQCpBvwg8iAGH3GHgoPsUICBjEADGnsTYwh36ByCH72AgbB8B/UBoSSBj5AVbCYwsBFJepJS4AqvQVAMISCkCGRR9gGBQg/oMAPQ/A+KM+rxclfafYdPFbNcHyb4AS/2k3sfW8TVJIuXiPzf1O/1mxZkx3SrgwRe/mzLBtqjm+c2bpFR8GNbujIrQGTu9SG7ezoUnS38EKVz2bX6cmpBU3NbfzIx5W99vSjY7G0nwLtXbTSNdOk2mO/5lsUpSXD2Jtp7cItO0AlNqVtA5fVw19xNKhN2lvwA55JLhEPI3vwEm6tP+YNNx22M1VKUu21wUnJ+pjhGXFmR932ZdIpuQvqXkm36ildcgZFNp7Myxm5Um9znzyOLSXnyVCeRJ0t/UztdOhwx3bNfDmcl9VWZ00zTKvBD5KRMuRSE2eb+P5dvwxrW+ew9Kzyf4mzcPhPWyTqoGM/Dtwf3MXmfwy26THJLlydfufRsb2R85/C2Sn0PC/c+jQ/KjXyvqLvOsqssxp+haZqPOtFJmOJksoqPqWtzEmrLToqLsO5LyR3KxyjF71T9Sgk74ZKbXkhycXTaoW7ezCrU0pPmx98ZR5r7GOcO76rprkSi7dN/cDIp/TV2HzH2Ld39iWnF2+H5Du2flEGWE7XoXGdrk1YZIuVO0ZI/TLnZlLGwpJgYLp0i4y29gmmQVisTIHYXuRd7g3RBkXIS4JhK2OT2Y32HjZSr4u1EPDwxf82ehg/pR5XUZO347nHw9Mv8AzM9RB3FHHB6OT4/4ytiTFJji0bcl3sNMxOW9XvyUntuVGS9h368EJ+LE5Nc0UZu/bjYlyd7Noxd6vgblFrh2vBoZFNqW42/K2MDy2+N/uS5NvdP9GDTY+ZcfCIWTfd0YowUXc5fzK7o+GmvX0AyLJ6NMqOTuW9JowTvxXb9iflq00gM7yeskl9yoZE1tua67YunV/YcUn639wNqORFxyxflfuadRfqXFRj+Wmwmo3LJb8MwLJ2pN7FRyxfmxtNMgm9xd1ku79CKq9ylIxlrZbAOX5T5/8U4vkfGPT86/9tglF+7T/wDwn0BvY8b8aqupdJnStTmr/RGM/Drw/c7GDfGq9DYjska2B1ii78Ge9kZjNZE9zInexgi9zLZqIyIqzEpblt7WIjJdoU5rstsxylHhypmOSjJXFtvzuaGSWTb6X/IhTlJbN2Je7T9dwbins+1+iGgu5w2lJt34Rki/8NuvcHJNWo2xKT7d4pP77l0CUae9uwklX03aG5Kt/p97HGUa+mV37l0bTGvPISdNbW/uJOVNSafp6hU7uLQFSdR3Tf2CLTtUxScqqRhUpxyVcaXsKNlfSyo5ezmzFHLkVxyNNfYUcj3V3D+hBuwn3R2HZo6fKu5pbVvbNrHk7rTatF2li3IVhImqYAxPyKwXkg+bfirk+VrOiT//ADhr+R63pc+7SwfojxH4zS7H0iXpqV/Q9j0Cff07E/ZHO+Xov9uOrF00XB/UTBblRVPc04sqVmSC5Ma2ZadFiKUqjvyLuI3vmiW+2W7TNDJdvi2N0/zbE2vQW3uVDpVs/wBQUpcSdr1HaWzQm3/hiqoB98VxuxdzatySXpZKtRtRVh9L/NRFZO9eJJoHNU1TRjWz+lLtLtJFQ1K0NOP6iX1cbA47c2wKtLlAnCtpEJuW0nXsOMUuALUuEkqKte1kN1XkjJK9kBmtJbsbe3qjTcZOSaarybUHS5IE7c1vt6FOwvdvYE7Tomg4kZmmnFlpkzVoDyfSpNdR1uP/ACZXsegrZHn9LJQ+I9dDz9Mv5HoPBzx8unJ8EwTARphVlR4J8bDWxRUfRlIxotNpeoFd1Eyn6A68ujFKovZt+xdCJ917b/YjJGSX08+xnXfPZpQQV2bk0u2DHGTrvTVGZQjDdOvuDyp8SJc/W6KKcv8AM7QObUfpSolOKW1E9kpfYCu5czlv7Bfd+VberH2RS+q2xqTS2AShtcnuUoxfJj716kylJ/k/kBmdetIxS5/NSCKbVylXsU4pJOn+oPAhLxDgyXfJh73w9kF1umzKrbMU1T2LuzHJ0zI1s6fY9z4z+J8f/WmOTXKaPtGo3gz5B+KmNx1GCXm6Lj5e/wBBf60eAEDAr9IQDEAkJob2EES0JlMRQhMYUEIQwoBAMTAQDABCGAQAAFCAYAIGAeAAQwAQDEEAcgACGgAAEhiYQCGIAqgXA0OiokX3KoKAloEMYEgNgB3A8joEYekgKaJoAYhodATQDfsJbhR4Chg2AgB8CfAACAdAKwCgAQ0CVgwAYhgAxDCAaQgsBjEFgOwv1EDYACECAoBMK2AcvYSdMAsCrD9SSlbQAnQ/1JHVERSGtyb9BlDbJbGID0nwRLt6ivU+u6fInCLZ8i+Bml1Pfk+uaaqW2xb4j859S/vNvaSuJeNVXqY1w+1GXE7Rh85sx5LTp1REVSVrYzfSldmpGaUopqie2q4OB8cL4izdKxL4RzafHrllTm83bThT2V7XdHynrnVfxY6Rhll1cZPDHeWTT4cWWKXv22zpjhv5Ztfe4rajHki09j8tP8VPjN//AJZkvtgx/wD3pjl+J/xm+eu5v0w4v/vTp7NTqfqdJ8NFKB+U5fiX8YPnr2o/7mNf/CSvxB+MctqPXNdL/dS/4IexTrfq5RS9RNx4o/J0/jv4vg/7zrnUY/eVf8C8H4kfF2Jrs67qZV4nGE/6oXgp1x+rFGMk0Wsardn5r6f+MfxPppL+K/gdbDysmHsb/WLX9D3fw5+NPSNZKGHrOkzdOyPb5sX83F+tbr9mYvFlPheqV9ZkkuGrJ7n5SNbQ6nT6/S49VotRi1GnyK45MU1KL/VGxV7p0c2g23wkiamlsrK7fFoUlRFYpRnOVtFVJKnwWla3om0nu5P+hNLsRUkqVm1jnezMF7cEd03+VV9x4PLoRfuKb+pGPFPhSe5Un9QZNv0PHfis1/0M1/r2HsH7HjPxZTXwZrmn/hMZ+HXh++PO/hNJv4e078M+lQf0qz5p+Ee/wtpG/ufR4StI3l2yqcne7ZvJki1XuYe4qMtyuTKmWnsY4u3Y7V7lRaY+71IkvpfoKMrjtyWDJ9a3W6+45RXKdPkxwyRvtlHfjfYcozju49y8GhU0rTdfdIS49RRydq+qL/QJtuO19r8rwBUotqt/2Mbi1QJySvubfqJ5ZKXZKUJS5Svf9gLVN/XFV9x1H/C2l6PcmLjL8ySl6DnFySqr9mBD+h74pV9zMlGULiuDF3SX0zb/AFXAUnfb49wMklGX1VK/vsOnV1t7EwbS7UmgT/zL9AL7u1q2XGVmv82DqMvpfui77eJJozRmE3aslSsPBBeN70VLhmPHyXP8rG+x8vnetydv4j0+HpF/5j2GJ7KjwOrmv/SfkXppF/5j3OB/TGjli9HLPH/Gw3boPAm15YRf7G3E1VcFpWQnvTW4Sa8tL9SyDLT5WzJntvyYpT+U+78yfixrPKrWLY0aUs+JR+tOLB5Yy+reuNiPmKb+rHT8NobcUrbX6A0F2tX6+GxX9LpUvQtS2XZJOxSUnzJfsUY0oV9UqXoy12xl/dT7b5Ia7V9O79xOL5lFNP0ZBlyRljpyzbPx4Y8eXe49tP1MMXBR3hNk9sVP6Iy7vV7DZpsyyevarIvfb+Ym4Rb7lG/Pkn50bqDjRRm+pr/tKX2IlG1+eb9lwSnJypzSj/UyKv8AOwJjjdcUvdmWE47pJ/chVFttv7CbjbdX7Mg2Iyfjcu3RrKV7JJ/YyxdckRSbZXdvVsxuTXCLi35QFpVGrs8l8cL++6XJ8LO1/wCFnrLZ478RMiw6HSZJq0tRGv2ZjPw6cX3x1dM7wRZtRa7UcvpuX5umhJWtlydBflRmGU1V3cvRGWPuYk/DMnCs0yyJ2E1Lt7oyVeSfpnG4thDPHE6cZJeWzUiIUFPdSVr1Kg0run6pI+Tdc/E3rvStZqFk+D8vyIZZQx5pPJ2ySbSdpVutzgZfxw6h33Homji14lmmdZxZfCXKPvLlFVUdn/IalFf4o36nwN/jp1dL6OjdNX3nkf8AxMUvxv6zJOuk9MV/6sn/ADNe1knVH6ChJy4nFfoPtSt9yrzsfnh/jZ11bx6f01f99/8AExv8aviHutaXpq/9yT/+Ie1kdUfopNVVpr7EJqEqdpfY/PUPxr+IVK3o+myXldk1/wDEb+m/HLqCa/iuiaOaXnHmnF/zse1knVH3dpRldc+o5O+fHofJenfjh0nLUdf0zWaa/wDFDtypf0f8j2nQfjn4a63KMNB1fTrNLjFmfyp/tKjNwynwu49RCdpp8+hhzRcklBNSMva9mmn4JlJyg1STMrBG1Htkt17kJrLHuUe2SdOgxyc404pSXljhlWNv5ijfoRSjCMMkXPf0s2Uu2dxNeSbdOW3hItpziklFvxuEbMcqk6bqXoVDu7V3c+TRi3CbcopbXfk3MeTvimvIFNWQ9mU2JhHyj8bG/k9Ma/8A8iJ7D4Vk30rC3x2o8f8Ajg+3R9Pdc6iO56n4SyX0vFf+VbGL8PR/+b0iaa2GjFCaa4LVpN1sjTizRY+5LzTMce98JUy444/4t2WRFdza2Qk/WI94vZWJy9Y7+xpD54Qt0mv6kuUl42Fbl/yYVbb8/uKld2jwPxj+J/QvhqeTTY5PqPUI7PDp5fTB+kp8L7K2fIPiH8V/ibq0pR0+oh03TvjHpY1Kvebt/tRvHjyyZuUj9N5XHHHvnOMY+s5dq/mac+sdLwOsvUdCn6PUQ/5n5U6d0b4n+KsjyaXTdS6jfOWcpOH6yk6PQYfwb+K5w7p6bQYm/EtRFv8AlZr25PNTqr9H4eqdPzf9jrtFO/Ec8H/xNxdripf4X5Py1rvwp+LdFFzj0vHqEvOmywnL9tmcHB1X4h+G9Y8WLWdS6dqI84pTlD94vZr9B7cvinVry/YD/wB50VFRjzJ2fnr4b/Gnq2klDF1/TYuo4POTGljyr/4X+yPsvwz8WdG+J9I83SdXHJOKueCS7csPvH/itjGWFx8tSyvQbS4e4raZiUopbpr7CU+9/S7r0MKyzlNb0JSlJbIaVL6rQ3Jdj7FaZRMfo58+hkTfde7XoamP8zuL/c2MV8Nsg2FOPnb2HBLftVGJK3yZI0rphFMbWwhv8pB4/L/dfFudR378UG/5noE3SOFq4OPxc34lgT/mzux8Wc/l1y8QMV7hdMHvZphXHHDLW/h0Y07VHgPi/wDDTB8SdazdSfWdfpMuWMY/KxpOC7VX3NSS+Ur6G2l5S+7J/iMUdpZIJ/76PgXxF+DvXtFpsmfpXUl1JQXc8Nyx5WvZNtN/qj5ROeVSanPIpJ005O0ztjxTLxWerT9ozz4Xznwpe+SP/MyYcuKcX8qeOdbNwkpV+x+J3Ob5bf6n0L8EviSXR/ipaDPk7dH1KsTt7Ryr8j/qv1LlxamyZbfpd7ukzHKL90Y5NrbezJGqXcnfrZwbS1GG/khS7nStGbthzyvcI9v+WvsNG0wg07TFNyTtyopptev6iWz22AOUnbGlT3bFLJ2rZX9gTUvFsCdRkwYMOTNnkseLHFznKXCSVtnlf/SP8Iw463pWvaM3/wADhfjv199L+FF07DKtT1KXy2lysS3k/wBdl+rPzlZ2w4+qbrFy0/U8vxL+EV/+WsP6Y8j/APhMT/FH4Pivq6wn9sGV/wDwn5dPc/hd8Cy+MdbqMmpzTwdO0tLLOC+qcnxCN8bbtmrxYybtTqtfZMn4p/B/K6rL7LTZf/vT1mh1MNfosGs0k+/TZ4LJjk01cXunTPO9N/Dz4S6bCMY9GwZ5Lmeobyt/e9v5Hp8ShgxQw6XFDFhhFRhCKpRS4SXhHDLp+HSbZIya5VIUnZDU3vJ2S2+DlWmPLKk0fK/xWj9GCT/zH1HN5o+Z/iiu7SQfpIuPl7PRduXF8z8CYxFfpwIYWAmKhiYRLAYihAP7CYQhFCoBB59hsXgIAodCYVIDAIQwDwAgGFAKgAAgEMCgENAAgoYAIAoAgEMXDAAAKAAAYQhMqhUDRAMGAqsQ+QoDuMAqgsy9IYeoAwAAABNDXHIueQ+wADewAwEAIa4ASQcDvwIAYh0AAAAAWFAAQIYV7AgDwAD2AQUP7iAABBQAMKDyAAA2gEIdBXqAIpC8gA+A9QAAQb+GCYPdgO/FCb3DyPkD0nwPOK17vnwfV9NTgtz5H8GtLqSs+q6ST28xLfD859Sn9Z1ISpVe7M+HhWacU+7Z8m9juMHSuXoYfNrbh+WtmHa6fcRCTUeEg7291sdGQ6TpbCnHf1MXy5Obfd/M2Ip8pfzEh4fmX8beiYuj/GbyaXGseHXYVqO2KpKduMq+7V/qfP2fZf7SEK6l0OdU3hyx/aS/5nxtns4++McsvL6R+A/TNH1H4r1OTXafHqFptM544ZIqUVJyS7qezpX+5+jcThjSjDHGMfCUUkfn/wDs7SS+KOpp+dH/APHE/QDlF+p5+a/ubwnYZOzJtPHCS9HFNHA618HfDnWYSjruj6Nyf/tMcFjmvfujTO+6a+wJJ+GcpbPDWn5//EH8Js/RtLl6l8P5cms0ONOWXBPfLiXqq/Ml+69z5SftfsbXCPy/+MHw5j+HfjDKtJBQ0Wsj/E4YriNupRXsn/VHq4uS3tXPLHXeOX8F/F/UvhPqCz6DI56eTXztLN/3eVfbw/Ro/Ufw11vR/EXRtP1Pp0nLBmX5XzCS5jL3TPxyfWP7PvXp6Xr2q6Nlm/4fWY3lxpvZZIf843+w5cJZsxvw/QLr03EmvLZicvCsaT22dnk266ZHV/TG2JTl3bxSXpQuyXO6BRvdy/kBkU7XDoaa8bGN0uZuxJWBkcu3l/yMsJKXk1pdzWyqioNqr8mVbN+Dxn4sN/8AQ7qG3/sz2Nni/wAWZP8A6GdQ/wBwzn4b4Pvjz34Rf/RXSbn0bE3+h81/COVfC+kT9D6PCW3NG8vuqZNhfctUa6nujNjnsI52MqlXBSl9O6MEstVtY1kjXLT9GahpsRcpboauncWzHHuXKT+zLjON7qST9TcZTOMZr39THiTx5HF5Jb8WZpfR9UZJxIlLvafYpNeaCrttNPdEwnFOkmv0HcobpVQ+55dpS/ZFRj1GSGHHPLmlGGKEXOUvCSVt/sfk7qHxhq834gT+JsEpfMjqfm4ov/7GtlD9Y7fqfcfxy64+ifBWTR4sjWp6lL+HhT3UOZv9qX6n5lO/Fj22xlX7S6ZrNN1Tp2l12llKWm1GOOXHL2as3E4x/LJHx7+z58S/xHSdT0HUvuy6RvNgt845P6l+kv8AzH2HujJL6f1i0zjlOm6bl3BPu5Ul+4t/MW2/KaK7U9n2/aSMUkocRrfxwZFPJDjvlGS/zKivzctNcpxJclt34+fL4KglVR+XXswpy7qdxtffcSTp/TSfG5UnSVpS9mKNVajXsmNIal2tXsWntuYW73pv/gOEndN2Yqs8H9Rcn9LMMfzKi5NtMfB8vlOsyL/0pZV6aVL/AMTPe4v+zW5851ElP8U9UntWnj/U+hYHUFvZyx8PTzTw2u6vH3LU09jDd/oZscfpvtuzccGRRckmlv4BLtVSav0oxPJOCVXS5VFwyQnNJTbl/I3E04fxpq+u6Do6zfC/T4a/XPLGMsWXhQ3t/mXt5PlnWfxF+PuiweXqnw7ptLiunkngm4X/ALyk0fc3GEo7u/Xc1c2KGXDPDl7Z4ZpxlCaTjJejRuZSeYzrb8+5Pxr+JZKlpumR+2GX/wB8YJfjL8UNbR6ev/0f/wDCP8W/gBfDmd9U6TB/7IyzUZY7t6eb4X+6/Hpx6HzU9GOOOU3IxbY/R34UfiMvieWTp3V44cXVo3PG4Ltjnh5SXiS9PK39T6Tfqq97PxbpdTm0eqxanS5Z4s+KSnjyQdOMlw0fpv8ADX40wfFvSf7zsh1XTpLU4rpP/XFej/kzly4dPeN43fZ7Zt+WtvQO5V9KZi7JSS+vbwkyJYYJt/OcZc/ms4tMvclf001ym9zHLJFqu3cJ4Izimskr9kY1pISim5tyXqF7PDfGXTfjXVdWeb4Y6rh0ej+VGKwSkovvV9ztxfOx84+I+r/iZ0CPzOp9R6hjwXXzsUoTx/ult+tH3/HpJ487yJvMn/hk9kZNRpVqsGTDqdPiliyRcJwklUovlHTHPXmM2R+Wp/iH8WyX1fEPUH/78f8AkKHxv8W6jLHFj651LJkm+2MITtyb8JJGj8Z9Gfw/8U9S6YnePBlfy3fMHvH+TR9L/s99Dw5Z9R63nh3ZcElp9PJq+xtXKS96pX9z0ZdMx3pzm7dDofwn+JfU8cc2q61qenY5b/8AWdS+/wD7sU2v1Prvwn0zX9J6Hp9J1TXvqOqg5OepyXcrk2ufROjfWWLX53/3eBwyxpqn+ux5ss+p0mOmw7S5W4lOS5f7I15Tbtr6V6pjUpS5ySOda03IzTW26LTTNSCae8nJfsbEHXv9iJplbaXqeL/EyHzel6Ta61ON8+57JuzyH4kf/inTteNTjf8AMzl4dOH743On7aKCVKlydCDqK+xyel5G9LHyqR0IT+mvYzFyndn7rl7hKcopq9jCsj7lSszxzxk1DKql42NRixkxJuOzS9fI5RnKotKSXleDUUpYptu2lw1wZ8WRZE65XqjcSwpYntdSXhc/yPCfix8J6HrPwxrtdh02OHVNHjeaGWEUpSUd5Rl6qr54o965OvqtX7cmr1THHJ0rWwUIpywZIv3Ti0axuruJe8fjbndcDvaw48cCldOvQ9zi/R3wJ+HHw/g+Hun6nqPT8Wu12fDHNkyZ7kouSuox4pXR6ePwd8OJOMuh9Orx/cI3PhZyl8MdKnJq3pMXH+4joU5x3lv4PFlldusk08zqfw++E9QmsvQtGn4lCMov+TPN9W/Bz4d1Lk9Dm1ugk+O2fzI39pb/AMz6Xjn2vtl3XXLZl7Lj+ZfuJnl8Usj83/Ev4Sdf6VCWbp/y+q6db/3C7cqXvB8/o2fO8uOePJLHlg4ZIOpRkqcX7p8H7SnB/S1JNejPKfG/wN0f4u005aiH8P1KKrHq8cfrv0kv8S+/6HXHm/2ZuP4fn/4X+PPiD4clGOj1s8uljzptQ/mY39r3j+jR90+BPxN6T8UThpc7XT+qS2WDI7jkf+iXn7On9z87/FHw91H4a6tLQdTxdk1vCa3jkj4lF+n9DlJtNNOmt00dcsMcu7O7H7Uli7Jya7muaYvpyLa+73Pjv4S/iXPUZcHRPiPO5ZnUNLq5veT8Qm/X0f6M+xzW/fBpP7HlyxuN1XSXapYpSimr7vO48eOlTfdZKl3qnJ78hjwtX6+vcRTmlF/U23Hx4M2KcVsnf2MbdL6mmvNBjjCNdjpMg2W9hN7Ch+WnQpuroI+X/jjjcuj6TIuIaiDf7novhS/9mYW/8iOd+MCUvhLUNpNxlFr/ALyOj8MSS6dp0vMF/QxXef23ocXF2qNuDXaaenXobEe5O6NRxrIp032KkJp3ezfsTblzFouGy4NIVTT2b/cLkv8AkmVba5oVte5RObPHDinlzZI48UIuUpSdKKXLbPz9+Jn4q6jq083TfhzLPT9O3hk1MfpyZ/t5jH+bL/G346l1HV5fh/pWWtFglWqyQf8A201/gv8Ayr+b+x8kO/Hx/NYyvxF4cWTNmhiwwlkyzkowhFW5N8JL1Pvv4d/hDpdHhxa/4ojj1OtaUo6Nu8eL/e/zS9uF7mH8CvguGl0kPiLqOK9XnT/g4SX/AGeP/P8Ad+PRfc+vtU9qv2JycnxDHH8njjHDijijBQxxVRjFUkvZItOLXDv3IblQozl3cuzi2pyTe12vY5fxD0PpvxFo3pesaPFqcf8AhclUoe8Zcp/Y6rcm9tn6E20/riN6R+ZPxK/DnWfCcnrNG56ro8pUsrX14W+FOv5S4+x4bQa7V9N12LV6DPk0+pxO4ZMbqS//AG9D9o6nFh1GmyafU44ZMGWLhPHONqUXyn7H5X/E/wCE38J/EUsWBN9O1F5NNJ7tLzB+6/pR6OPPq7VizXh9c/C78R4fE0o9N6xLFp+rJfR2qoaivK9Jf6f2PpyW1JUfijFlnhywy4pyhkg1KM4unFrhp+p+mvwm+Nl8VdIeDWSX+19Iks3j5seFkS9+H7/cxyceu8al35e/cmRUu7aylVb8lKSqkrOTSYwl44LSSXixbN/lY12xdpX9yAqTMkElyY+69uPsUn3bOwjLadUxZG1VIUYpcbDu9mKPLdUkl8U6dt13YWv5nbVdp5nr+SvizQxTpvFJ/wA0d/FkuO7OX+TtlP2xbpchGW5Nq92P9TTmye9lRfkxxTZMtvLTKNiM2vNH5V/FrQQ6f+IXWMeFKOPJkWdJcfXFSf8ANs/ULlb3/kfnD8dIdv4g52tu7T4X/J/8jvw/cznOz5/Y4SlCcZQk4zi01Jcp+Gb/AFPpObQ9P6XrZ/Vp9fheXHKuHGTjKP6Uv3OdZ6fLk/Wn4e/EEfib4T0fUJSX8Ql8rUJeMkdn++z/AFPQuK5TPzt+BXxH/sv4ll0vUTrS9RqMbe0cy/K/1Vr9j9CTc1NdiSXmzx8mPTdO2N2y2ooXfvsrRLUpVbX2FTjtTMKt5Evb7sxN7tqUvsPt7nfaLa901+hFivmOt0hKcr2iw+lb1b9Ty34m/EP/AEe+DtbqYT7dXmX8Pp/Xvkqv9FbLJu6S3T4N+KnxA/iH4x1eaE+7S6b/AKtg9O2L3f6yt/seVz4cmnyvHmg4TSTcXyrSa/k0dv4D6E/iP4q0PT2m8Ll8zO/THHeV/fj9TY/FGKx/iF16MYqMVqKSXCXZHY9s1L0xy893mD9FfgBjji+BsmRL6suty2/XtUUj86Wfov8AAaTfwCltS1ub/wCExzfauHl9Lfa1boSe9KiGnKP0snhVKSb9TyOh5E1fdJfZGGM0r2d+5Uls+zdmPtlJfVsStRizS2Z81/EiP/UZN+qPouaXba8I+f8A4iVPpkzM8vX6XtyR8usQxGn6gAANgIPIeQAW4ihNFQkJjoTAQADCEJlAAkJjABCGwCAewhhSFyP7gghUA6ABACQAAhiAAACoAACAFQwKEAMAEOgYBAwAAEADCEIqhNBXdoKADL0FQqGw8gFCKACfuKtyxP8AqBADGvYBU7ANwYCY37C+wb3sAxDCgpAP7CaAAQ6CghrcPILgfkITQKgGkFKxD+wedwABgEIPuHjYADgEFDoBAA6CmuBLgKGECHYkAUU6AB16hCAGLhAdz4Tv/acN63PqWinatcnyf4byvH1HG/c+n6PI5dr9S3w+B9Rx/qu9p7k0laOvhglHd2zlaC3XFHXg4pIYx8nPypxjX2JUse6ky5/yMLjbKzCyxV3CZUNlvKhTx3FUKKUdpX+wV8T/ALSUV8/oEk7uOZfzgfFj7X/aRr/5PNf/AG9f/qz4qevi+2OOXl9R/s8Nr4w18UudDJ/+OB+hXSTtfyPzv/Z7n2fG+q350E1/48Z+iW73W5w5vubw8FGfoinNr0r2Ql9PKVMHT9Dm0hz3Pi/9o3DH+H6FqK+v5mbH+lRf9T7PKlfB8N/tFdQhk1vRtBFruxQyZ5L07mor+jN8X3RMvD44eo/DDM8H4gdCnHl6hRf2aaf9Tyz5PZ/hDonrfxC6UlG44ZSzy9lGL/4tHqz+2uc8v1DCaXEU39iu6/zR3Jg1HlWU5x/ys8DsnudcPYO+fAvm78UHen5/ZBVKk05OP6sbyp8fyMbaUb7G37siM8veqiopc7A0yPJN3VpDg6XdTIlkcruIlJ8NIxVbsJXFM8V+LU6+Dtd5uB6/FNNNcnjvxYf/AMjdcmv8BMnThn7489+FX/0Z0X+6fRcUtkfNfwpk38OadXxHY+h4pbLuN5fdTKNxUzPBpL0NWD9eDYj2yStCOVX2xmq/oL5bxvnb3LUdvodIbql33+puRnaU5reF+5lSlOFSp/oYXGcXcWmvdijqe2VTdL7WahpsQioNpyST8VZcm4/laa+xhXb+ZJtevBab7HFxde5WVW5rdfcibkt4qkKM4RdXJL0TOP8AGfX4/Dnwx1Hqct5Ycb+Sm+cj2iv3a/YeTw/Pv42dffW/jTNgxz7tN06P8NCuHLmb/fb9DwH3s9d+GPRZfEvxzosOovJihN6rUyflRdu/vKl+pt/jJ8Ov4f8AjTUSxQUNJrv+tYa4Tb+uP6Sv90eqWT9rn/Lg/BfXcnw38TaHqmO3DDOssV/ixvaS/b+h+vcObFm00M2GXfiyQU4yjxJNWn+x+J0fo78B/ib/AGl8MPpmqyd2p6a1CKfMsT/L+26/Yxy4/K434fTe5ZIp02vcUFNt2lH7eTJCPcm45Ipc0mROK77XJ521pSit4qUfvZLx48j+hu/TgeKNSdyv7SJzQdp97jflIKtRUY1NSXu0Qu+DuMk4/bcKTi/rclz6ih6Xt6UQVK5q4ujG1ki7aafrZfy4xi0pu/cxTn2pKackSxY2cE7q+TPJLtbZoYsik7jf6m3Nv5b+xPhLO745mbl+KeupbrTxv92e+0NPBG7v0PnUc/8A/FbqCf8A9giv5n0HT5aSS4OU8R7OSXs6cdmqi2vNG5jm1/hpGpg7pL89IzKKdp5Kfg64vLWxNY5fmi7+xheNRdQSSMOKWRd6nPvi+DIskYpKcV9/U0mtMmOb7WuxP9Rd29diX62TkaS7kKGTHv8A1oGng/xxSl+HWv33WbA3t/8AbEfmc/Tv41zU/wAOOprbaeJ8f60fHfwa0Wj6p8U6rp/UsKzaXUaHNCcK35juvRrlM9HFdYWsZTdeEN/4f6vrOgdX0/UenZXDPifD/LJeYyXlM6Xxz8L6n4V63PSZ+7Jpp3LT52qWSH/NcNHnbOssyjHeP1n8HfEmD4o6Li1+jpK+3Lhqnin5i/8Ag/KO6oytuSf3SPyp8B/Fer+E+tx1encsmmyVDU4LpZIf/fLlP/mfqXpXUdJ1fpmDqGgzLNpc0e6E1/Rrw1w0eXk4+m/w6zLbPPHKUbhLJF+G6McZZIOpN5G/XY2lFyp1swf1bUk168HPS7a0XNtxacH63sXHld7cmPuXf2rtp/yCTcJtZJ2vFP8AqFfnX8fNOsPx1HJGNfO0mOb92nKP/BH0T8Asco/AvfCfa56zLfvXajw39oWSl8V9Pfal/wBTS+/1yPc/gTP/AOQGPa61mf8ArE75X+nHOfc+jVKMvpuXl0+SnN7Wtn4ZMYyl9SUUjI4Ptvn7nBs1sriiYynu1GO3qx3KO6S/cbnDZuvt6ACff+aSjXhGXD2pbf1MDTcvpUa9WXjTu3JEVsp2tlueN/Eifb0jHfHz4f1PX99L1PF/iVP/ANSR7bv5+P8AqYy8OnD98Z+ltfwmOUeHFHSxvZHI6S+zR47tbHUwzUvNteDEbzndmcZZVUZJNeSsacJduWSciPl5LbjUV77m1hgssN5uUlxsbkc7VY5uNLJDug/UM2njBfMwy58N7ITuScW+x+r3Kx4HBPsyd0Xza4Nxgozk4p5U0/bhk6mS/hcsfq3hKlXsypRUXvlbj6JCaxyxTWJqUqezfsUfjCX5n9xN2hy/PK/ViPe4P158Jxv4T6LkjvJ6LC3F+foR1YXJcN/Y4/wS3L4L+H5KV/8AUMF/9xHZyNrdN/Y8F8u0OSU3+W5InFJ93a8ar3KTdJqUb/oH1157vPuFZH/d7qpL02F8ynvSXgUKkvq7V9kNw2p1JMrLzvx/8L6T4t6Fk0WoUMerhc9Nna3xz/8AvXw0flLW6TNodZn0urg8eowTePJB8xknTR+zsmOEGnktp8b7HwX+0F0GOl6xpOtaWFY9ZH5Wal/7SK2f6x/oduLLv01nKfL5KnT2vb0P0t+D/wAXP4i+H3g1c5T6noax5W3vkh/hn9/D917n5o8nrfwu63LoXxpoMzn26fUS/hs3p2zdW/s6Z15MeqM43Vfqddq+pKT33V8Cm3GdxTp+LCniUu5b/wBRxl3U4R39WzxuqlGLTcl2/qODg41Dn0EnGUHGcVZgbal9MKiBtRuM1VU+TJPlmtjlJwXcl3L0M0pckHhPxcv/AKKaqvb+qNz4Tf8A6r0sn/lX9DS/Fp38Kav7Lj7o2Pg2ff0rTQlyoqjLvjP6b2GCox7o00/Utv6vRE4ovs249aMkZLsW0pfyOkec0nVtiq3x/MLUlsmn6WCuvqt+hQbxW0bXueO/FX4mfwx8J582nl267Uv+H03+mTW8v0Vv70ewTfq0fnX8fusy1/xhj6fGbeHp+FRa8fMn9Uv5dq/RmuPHqrOV1HzJu22223y35Ox8G9FfxB8UdO6YrUM+VLI14gt5P9kzjn1r+zp035/xF1PqEkn/AAunWOL9JTf/ACiz05XU2xPL77iw48WKGPCowxQioxitkklSX7Gbti4q0n7mNv8AcUV3fmlR5HRfcov8toly32Tofb/q3G6X+NfsAu615onu8Rew016pjt7cIKx3flfseE/F/wCH49c+DtZLHii9Zo1/E4peaivqX6xs96263pmrLGpualbhPaSfFcMS6uzy/F6VI7fwd1/P8M/Eej6pp7axSrLD/wCyY3tKP7fzSNTr+gfS+udQ0DVfw2oniS9lJ1/KjQR7fMcX7T0mox6zTYtTgksmDNCOTHNeYtWn+xmSae0mfOfwH6x/tP4JjpM0u7L07K8Hv2P6o/1a/Q+jXKOy4PHlNXTrO6lSf1Njv32Jb28/qKM+0iri4J/Uy++L43Map77UUml4REVF5HwtimqW5EZd3GwTbS5QHgvieTXxt0zek8M/6o9Lig+3lI8x8Vxa+L+kTm6bx5El+qPUY9oK2cvl6MvsxPj/AJmSDswOW/JUG5Spclc9NpJraS2HK/VfdkxnkgqlC17FQSnfK9mzpGU7cOv0Pzj+PCr4+fvpML/8x+jpwpV3I/Of49f/AE8i3veiw/1mdeL7mcvD0uj6AviP8DNDDDDu12j+ZnwUt24yl3R/VX+tHxOz9K/g1J/+jvpziranl/8AOz4z+Knw/LoHxXnWLG4aPV3qMG2yTf1R/R/yaOmGX7rilnbbymHLPDlhlwzcMkJKUZLmLTtP9z9Y/BHXMXxL8NaHqar5s49uaP8AlyR2kv33/U/JXg+o/gN8RPQdey9G1E60+v8AqxW9o5or/itv0Q5cdzaY3u/QEskIv6minO19O6IeKDdzVstcUuDzOiPmzhvNpoaywlHdrcrsb3VMxPF2uyL2WnvXj1Pz3+O/Xv8AaPxPj6Xhnen6dGpVw8st5fsqX7n3H4l6rj6F0HW9Uzbx02JzS47pcRX6uj8p6LT6z4g6/iwJvJrdfnpy/wBUnbf6bv8AQ7cOPfqrGf4faPwB6B/C9G1XWs8ay6x/Kw2v/Zxe7/WX/lPmf4sxr8Ruu0qTzp/+CJ+l+l6fD0vpml0GlSWDTYo4oUvCVWfmv8Xv/wCYvWW/M4P/AMES8eXVnamU1Hjz9E/gHNL4FnFrjW5f6RPzsfoX8AJJ/Beoi3TWtn/5Ym+b7Uw8vpii3vdL3MfdHuScZP7F7Xt/MLt35PI6lKaX5VX3MGotq43Zsuo/mVmOWTmo7ejFWOTnnJNxlHY8P+IG3TJrk93r1zKqR4H45lfTcqqzE7V7PTd84+Y8iKFRp+nJiGwAQDEABYCKFzYvJQuQhCKquAaBpP3BgHgBANhSCELzuU0FbgKgGACYUOgAnwFKhgAgY/uIBAOgoIQLgfHImACGIAAAAAACoAHQgEDHQAKhgAAS2NiDLuoBpB5MvSXgEHkYCb2CwYmgosQUCW4AxoTDegGS2N+oqAADgPuAIdbiSsfgoQFUHggnwNcCfsADdhyHgaCBCsYmAAMAAGhcMbAQwBhADHYgpB5GwQCGCXJVASMKAIaQeAXDEANbiplVuOgNvora1+OnTs+ndOl3RjbVrzZ8w6W2tXBr1PovSsjko2vYXw+L9Qn79vZdKVwtnXSXZVnI6X9EEpRf6nWTi16L7mp2j4mflalJR5tfYieaK3cH90iVLlImTl4k7G2dMznFx3dGONOVuyF8x8LcuMJRe7r2J5XWnxr+0lH/AKv8PyXiedfygfED7p/aQV9P6C7/APa5V/4Ynwpns4vtjjl5fTP7P9f9OM6fD0OT/wA0D9FQkkvp3+5+avwP12l6f8ayza7U4dNhekyReTNkUI39O1v7H3HN8a/C+mb+f1zp1f6cvf8A+Wzjyy9XZvDw9H8xt00gfNUeF134r/COli/l67LqX4WDBJ3+ro8j1z8b12Sh0PpL7vGXVzVL/wB2PP7mJx5X4XqkfVfiDrWh6B0vL1DqeVYsGNcX9U34jFeWz8p/FnXM/wAR9f1fU9VHtlml9EE7WOC2jFfZf8Q+IviHqvxHrP4rrGrnqJr8seIY16RitkYuidD6n13ULB0jQ59Xk8/Lj9MfvLhfqz0cfHMO9Yyy6nNP0B+B3wpk6T0zN1nX4pQ1etio4YSVOGLm37ye/wBkvUx/AP4S4el5cWv+JHi1eqi1KGlhvixv1k/8T9uPufV/qj+VnPl5N/tjWOPzUx7nxFfqVUt7lSQnkatWgg9m+6/ued0XUa/NH9iVS/wsTyS4VX9hd868C00pt1tsiH3X6sGslXdr2ZKclytyKHmlH/BTMTyzybSiv1M3zE9vP2MOSCm7bbM2rNM+GXukzyX4qru+ENc23tA9RC0kqpHl/wAU3/8AJDX1/kM5OnF98eV/CyXZ8PabfwfRIZLSs+a/hpa6Dpmn/hPoendxXozpl91aynaOtjhKW8TPHurtk0vsYdL2uG7pmzFb/S4s3I81pQVPf6fdsq8V7OT96sJRjN0417hGeOMnDuin6t0aZVH6l9NbBJtL/CveiJJqW0rXh+GT3qLe8W1yr4AnLljidzi2n6GvHNqsmdPDmxQxJ04zi7aNibt2q9jVjq/+tvDPFmbS/P2/T+4VvrNKPEu5J8qJ8S/tEfEKzZen9BwSXbj/AOtZ69XtBP8AS3+qPtE9b8jS5M+btjp8UHPJKT/LFK2/2Pyb1PU6v4y+M8uXGpS1PUtUoYo/5U3UV+ka/Y68c3dsZPsX9nzoj0XQtV1bPgl8zXz7MU/THBvj7yv9jsfjd8P/AO2vg7Jq8ST1fTW9RFeZY+Jr9t//AHT2nSdDh6V03SaDSxljwYMUcUKf+VVf68mzPFjyKUc8Xki00+/dNPwZuX7trrtp+Kj1X4Z/ET+GfjDR6zJKtLlfyNSnx8uXn9HT/Q1PjvoMvhr4r1/Tf/Ywn34Jf5sct4/y2/Q4D9z0+Y5eH7ZSjSk3D7+pk+mS+lyXujwH4M/EkuvfBuHFnk8mr0FabKny4pfRL9Y7foz3bUZKk2vZOmeSzV06+RkhkTTTtF98uzd7+5jjSjJRk5V4a4HGprfj0ZFZFNtJ9rUl6Uicik3aitwjjirW/wCrBPt4kn7MCex993u1wyO+atSV/oZXJ0m47exjcl3q5UvBBUWlTUV2+xkyzSxN+KMUILZNuC9auysqShLfu2M5Tsvy+IRl3firrq841R9E0crdN7nzPFNL8Udfv/hS/mfSNIk5Ltdyk6o5fh7uSPQad9ijdLb/ABMzPK294xr17kYcePJGKjLGmvVujLCUofmhCvbc6x4qq3e6S9wtNNdzv1SLWTui0opfcbg5qnFR+xrSJW0WpRT9zHSnvBUvfYb0sb2Tb9bEsc4S/u4xX3IvZ4n8ZUl+HvVE5Nusb24/Oj5N+BPb/wCkCClw9Jn8/wC6fX/xfUZfhz1l7WoRb2/1o+P/AIFSS/ELBcW09LmX8kd8P7dYv3R9x+LvhnQfFHR8ug1kuxv6sObl4p+JL/ivKPy517pGr6F1XUdO6hBQ1GGVNr8sl4lF+Uz9frHB7djt/qeP/Ev4Fx/FXSv+rRjDqmnTenyPZS9YSfo/5MzxZ9Pa+Fym35hPffhR8dZPhXqP8Jrskn0bUyXzVz8mX/2Rf8V5X2PC6rT5tJqcun1WOeLPik4ZMc1TjJcpmP7WemyZTVcvD9ownjy48eXHmjPHJKUZx3TT4aZlaT4kmmfBfwY+Oo6LNj6B1nJelm60mab2xSf+Bv8Ayvx6P7n3ZpU06jXjyeTLG43VdZdplFKXDdenAsiWSFp7cOilOd9sXV8J7GK/qSumuV2rf9TDT4N/aDxvH8R9Lve9I1/42e5/AJt/ATS8azN/8J4z+0V/+PujvanpZ1T/ANZ678AZX8E5VdVrMn9InfL+3GJ9z6b3Vv5BSr3/AFMTfdKl9Xu2U4TdfSkvY4NMqUbtu36eBpRS/wANmC1w4T+6HUO5fTO370Bklja3ru/3S4xTVpNGJQcG1TfpuVGMk9/5sDLJPh7HjPxKv/Yf0tX8/F/5j1/dCKcYyUn7Hk/xG/u/h5ylV/Nx7P8A3kc8vDrw/fEdOyRekgpXdcm+otxbjdnG6ZnvTQ2T2O1p28lU2ml+hmO2c029Llk4pTyRTXg2Y48bn3/O/SO5p4dO47xhv5cmZl87HJx740/8vk3HC6+GacW5pwbU1z3RdNFrLFJXKfd5TVGLslOK7ck3L0k+DLGMq+uUPmLh+ppmqx5+/wCnsterRMl2zThHnykRKWSTb3VPfwZscpzj2zd/6gj8YZl25ckX4k1/MjwZtdHt12oXplmv/EzCfQcH6y+AZyfwV0Fq1Wixe/8AhR6Ku5JqCfueX/DyMZ/A3Q5d7Uv4TGufY9B2ZPCuPnfk8N813jL8iUJXGNr+hkhKbu1SX6mKCalVrt99xtTjPaL7PDbIKnjbk2n96ZjhOnUbfrRnWz+pwG2otu0mvCKm0wuUX21FP1PF/jHoI678PupwdSyaVR1UHf8Ale//AIXI9o6e8kpRfJzPiDDj1PQup6XJjio5NLlivL/Iy43VlTW34+BOS3jtJbp+/gUG+2N7OkPg9rk/YHwz1CXVPhzpmuUk5ajTY8j+7ir/AJ2dR1JOORc80eL/AAd1Hz/w56RcqlCOTH6/lySS/kezn9KTbr3Z4spqusOEYwa7ZNP1Y8luLrdmHvjF2qkvLMvbGcbcmm9lTMqmEqkuE377sqUlujS/hMyzOSctuDO5dsN9ttyVdPEfitKvhrVRa5ibnwVHu0Glf+hf0OX+KWTv6FmV7NHW+BE30vG1zGKoy9MmuJ7CEJVfc37Mqoxdyhf6mLG9uG5e6MsVJc0dHkUmmuXFegJrxb9yLfAvmdrqxs0ypcbpK/U/HnxdrZdS+Kur6yTt5tXkld+O5pfySP17lfbhyzk9owk/5H4tlJzk5S3lJ2/uzvw/NYzI+/f2c9P2fDnVdRW+XVqF+0YL/jJnwA/R39n+MY/AmRu/q1mR7fZI3y/amPl9McXVoN2uV+qEu3zYk1b9PdnldFdzXoFvl1QtvavYE1T9AC1zQRmnxvQnG+WJUvKX3AJTady4NfVQx6qK73JdrtVtubLW3j9yOypvu4YH5d/GHTy034h9VtJfN7M23nugmzxiPpH4/Ylj+PFJf49Hik/3kv8AgfNz2YfbHK+X13+zprp4viDqui7l259NHKk/MoS/5SZ98blX1R/U/M34FZXi/ETSpOvmafND/wAN/wDA/Szm4cpyRw5fubx8K3rbcFJPZi+Zf+GiYuPFnJpkik/YyKMK5d+xgcq+xUJK/QbNMnbezbS9yp0obOwVNchllePYD538V5ZS+Mekwf8Ahxzf80enhL6UubPIfGD7PjfpVyt/Km2v1R6rHkTxJcbcnL5em/ZizJpPdWZoT7PqS29DUhNN9qdm/hUflqzccsuzYjkhOFxk/syMvalbezJfbxL8vsCjjitl3WbYC7lxuv3Pz1+P0a+NsEq50WP/AM0z9EP+7S2ST9T8+f2hP/pho2mt9FHj/ekdOL7mcvD6J+Cj7/w70UUrfzcy5qvqF+LvwvLrnwnmzYYuWs0N6jEvMopfXH9Vv90Y/wAD82P/ANHmmi01NanOv/Ee7lJzdTgnFcrmzOV1ltZ4fjPuS8ozaTUZdLqcOo083jzYprJCa5Uk7TPRfiZ8N4/h/wCLdThx460ub+/0z/0Sf5f0dr9jzJ6pdzbl4frr4S6xj+I/hzRdTwpXnh/eRX+DItpR/R2dZzUNnFv7nwn8A/iOWk6pqOhZsvbh1f8Ae4LfGRLdfrH/AMp9wlKU8iTkvueXPHpunXHuzRm5X27Il2nvY3GSW6tmvqdVj0+my59XNY8OKLnNvhRSts5q+Rf2gviBrHoegYJVdarUJP8ASCf83+xzvwD6C8/UdZ13NC8elXyMFrnJJfU/0jt/7x87+I+qZ/iH4i1nUJRcsmqy3jhy1HiEV+lI/TnwV0WPw78LaDpvbWTHDuzSX+LJLeT/AH2/Q75/sw6WJ3u3aVyjfH2PzN+MK7fxE6r7vG//AAI/StST2/mfm38ZU/8A0hdR7lu4Yn/4EY4PuaznZ4mz7/8A2f7/AOiet9FrH/5UfAD75/Z9afwv1BXutZx/7iO3N9rOHl9U+Y4eE0/QduSuCSBR2tsiWTstnkdFSTa3pGDJUfqnPgFkeR2017mLOoyf1bkqyNPqGX5kGoRqK8ng/jOXdocir1PddRqGndOvRHz74sm3pMrfFGfl7fSz90fOgBAzVfpp4IABBQJoYUAhMYMIjwCY2KihiYAAgGFUAhoVDQCaJexkQpJBNJQDCgEAfcGAgAYQULyMQCBWNggB0KhiYCoAoAgB7bgACGA+AE0AAABQIfkCQACoBUNgB3EFbh59waMu4Q2hBZQ/CChch4CigoEvNj4CIaApoK2IICh1THWwVFeg62KSGqCFQNFeNyShP2AdiaIE6BjAKXgY1QUET9hgVSAkLG/QVBAwGDAEJjEwpgJLyMAeyBC8lJeoCSKslh5AYvsDGqAQ2IfkAsLCheQNrp0+zUw9Ge76Pk+qNvyfPcDrPD7ntulT7JwlF2n4D5PrpvJ9J6e1LFGVu6N6LXm2c3pksj08Go9yZ0YY5vdqjT4GXlkbaX02OLclw7MsYd8U72KUJR2dDTOyhKVb2iZ3yjJ48v7EKbj/AIHL3sqPj/8AaNt9H6I/TUZP/Kj4Qfe/7Rzcug9HbjVaqS/8DPglnq4vtcsvLrfDHw/rfiXq0endN+T/ABEoSmvmz7Y1FW96Z6brv4V/EPRekZuoZlpM8MK7smPTzc5qPmXCtLyV+B01H8QtL74My/8ACfpO3kg1tXuY5OS45ajWOO4/FwH0z8XvgOXQtTLq/S8P/qrPP+8hFbaeb/8Ahfj0e3ofMjtjlMpuMWafbPwf6Z8Hdc6dWbpWKfWtMv76Gom8imvGSMW6r1Xhn2HT48emwxxabFjw4VxDHFQiv0R+QOidU1fRep4OodPyvFqcMri/DXlNeU+Gj9SfBPxLo/izomPW6So5Y1DPg7vqxT9Pt5T8o83NhZd/DrhZ4d1ZH3bJ2V82XlImWJN7uvYb7Eq7rODfY3Jv/BaFKTriMfsyHOKjW7/UxQXdP6nRNrIzxjGL7nJyfoJTbtOCr72J41fj9C4JV+Wd/bYdw4S8R59Su5p/V9XtwOMP9Nfcbh/m7n9i6Z2l5Et1jX7mKck5XSVmZwXa7dGolFSqm/czk1Dr0ex5T8UZdvwdr7e/ZR6ruh3VDub9+Dxn4tZFH4R1i/zIxXfi++PM/hy+3oenXhxR9B0UnaXg+a/AmZLpWnitvpR9H6VPunFt/wAjfnKunJjrF3sGTZJY1frdGaWLHJd2aLb9ma7yY4pXNpvgrLPNCuyamvHB1ePTaSh21GMo15SsxZZ45raPfNeqMMFnzNfMcV6qOxsqEcHlblTwwPLl2/u7j6RRl+XGW8Wr814KnU1Sn2r0RKwxW/e/swiN40lLuT8oyY4yiri7rmL3MsI90Kg4Jr1fj7CcZuSTiv8AeQR83/HTrf8Asn4ReixNR1PU5/KpcrGqc3/RfqeH/s+9A/jviLU9Xyx/utBDtxutnlmq/lG/3OH+MnXv9tfGuphjm5aXQL+Fx1um1+d/rK/2PuP4W9Bfw/8ABWg0+RKGpzL+Iz2t+6e9foqX6He/tw1+WPNet7547Sp+rol3Jds6r3Kla3jab9rRLl3JJtX6pHBt8l/tA/Dq1HRtJ1zTQ/vdJL5Oelzjk/pf6S/8x8DP2X1Tp2LqvTdXoNUr0+pxyxTv0a5/4n5B6z03P0jq+s6fq1WfTZZYp+9Pn9VT/U9HFluaYyj1v4OfEX+wfjHBDLk7NHr602a3sm39Ev0l/U/T6ahNqTd+h+J907Tpryj9Xfhn8Rr4k+ENFq8su/V4l8jUevfFVf6qn+pnlx+TG/D1akm77H6XZKTVq069RuVSVJ162OVKV9qafozi2FLdXS/4g1Sa7rQpPdcr2obb7laTv0AINXV0/AsuOXKlGXuJyi3Xa4y9Wisdq67XfqQY8MpSk7Sjt4ZWeS+TJJPgUIyUqbYahTeKadN1uZy8LPL4FCdfiT1Fp8JP+Z9P6TNSyY6VNvwfK5fT+IvUUnv2r+p9M6K0+xOXb70c58Po8k/bXsIwm/zd7Gu6KdqT+5r6Z5ZNRvx+ZmbunFU2mvV8nV8+quc47xW3m9xOLjVv9/BUZZGtoxpevIVN2uxtewCcbf8Ad5HFr1KjNw2yST96ZPypSTUZV5VsbhlSXdK/sUeT/FmMH+HPXXFRb+Sna/3onxb8DpKP4iaTerwZl/4T7Z+KuKT/AA5+IJJJJaW3/wB6J8P/AAVpfiP05NWnDKv/AAM7YfZXO+X6Yllla7a7fJjcmn9LpP0Ms4Rq6aITlupQi1e23g4Oj5d+MPwLLrWnn1rpWJvqWGP97jit9RBeV/qS/dbeh+fz9qQ751VL0fB8L/Gn4Clo8ubr/SdPWnk+7WYoLaDf/tF7Pz6Pc9HFn/jXPKfL4+7aPv8A+DXx3/tfBDonV8jfUsMawZZP/t4Lw/8AUl+6PgJk02fLpdRiz6bJPFmxyU4Ti6cZLho654zKaZl0/Z2TFHZtbFfJw0morf2s8X+GHxpg+LukOGp7MfV9NFLUY+6lNeMkV6PyvD/Q9lGNbd8q9m2eSzV1XXe3wv8AtGYow6x0NxjXdpsu/wD76PT/ANnyv+hurtrbWyVNf6Ynm/7RsWupdCbt/wBxmV/+/E739nzf4T1+11rXz/uROt/txj/J9WnvxGP6kqTVruS9EKMVbtdvvWxKT/wU69Tg3FNzfO32B3GNyX2ZMY5btOvcyRht9crfowpd+SS2LjBy/NuvuT3NfkSofzJ3ukEOOOEJXTb9zxn4pTX/AEeqnvmx7r/ePZKTk3d7HifxQz18PODSSebHf27jGTrw/fGn0vJ26fHfFHo9FG6nGUarhvk8hoMjWlg62o73SHGUW+5r/gYx8vTy49tu5Gk23a/oN56VYn9S5bQabDilBRm5ZV4bZnhhw4lu534bo28tsY8c5tfVKMfvuymm67J91PfYtQn3WvlpV+Zy5/QSW6uca/0lQ1NSlXfLu8P0HGUe7+9c3/JCbh/hn+5SU4vi48/YqPx51RJdT1i8LPP/AMzNV7G71mo9Z6hF+NTlX/jZpn0I879VfhqpT/D7oUoRVrTJfzZ6XG5RTU8iv0rg8p+GGXt/D7oUnKl/D1/4pHq3lx5IVH6n7o8OXmu08G5qm4STfkI5u6NTd37CjC/qTS238FrFFx5V+ysgiVY3za8OhxjJ7uSSfDStiUn+R3JP14Jbyxbi8aUPFbhUZYyxTTjSi39W+6+xOumoaPU91OMsM9//AHWZux1UpbPhtHN+Jc8tB8OdU1EpL5WPS5W72r6GWD8hy59vAhR2hFN3SSH9+D3OD9Kfgq6/D7pylaUsman/AP3Ge+dyThFqSPLfhp0+Wj+AOi4pd8ZvTrK0vDm3L/iehhOUNmv5Hiy+6u08Myg4tJx29bKlCcX9E12+hCzKUe3sk78lRqHLVPbcyrJOTkqmmtuUzBkku2uUOUpJOPfcfRmtqZdtU1+hKSPn/wCK066NOny6o9F8AucelwcK/Klb8HkfxWy/+q6u25L+p678PckJdM7H+btX2JHqyn9J6+LlBbZG/WhNd/8AjTfqwhaVdu3r6lRxSW8otHR4yV9qUm2/ZFdsUk+5N+jHJpJx4fsTDZ7fsyDFqoTzYMsFS7oSX8mfi1Ktnytj9sWpy7d0nsfjf4g0ktB1/qWlkqeHU5IV7KTr+VHfh+WM3PP0b/Z/n3fAuWP+XWZF+6iz85n33+znqIy+HOradyqWPVqa9lKC/wDvWb5ftTHy+tQk64/cpx+m7RPcopN/UHcn+ZVZ5nQn2/4ZJ+oJofavYTTSVNV6AV3bbJfcV1yr9wjXlg5JrZJkEynS2hZKydzacfsZO5Lhb/yIlKHcpSSVcAfnf+0DJP4409Kq0ONP/vzPmZ9C/HjULN+IOaK2+VpsMK/Tu/8AiPnh7MPtjlfL3f4JRlL8Run1f048sn9uw/Tnda+o/Ov9n/SyzfGufUKNrT6Ob/7zUT9Dp77xOHLf3N4+GRdi/wAtEyVStJUFr0e4u6devraObS001uvuSux8bCUrWzV+40mt6VeqIq41srSKzNRhuzFs2tmLO0sT7miD5p8Z5oP466WvXDL+qPTwcflL6vB4L411MY/iD05X+XDK/a2etw6lfLT9Uc75ezp3hHSwz+pU9zq4+3tVv9jhaKffkO9ixwUU++Kf3N4uPJNLWRRtcEzakvpk79FsVOMquOG14Y0/p+qCT9zbk14rJJ1FtP8A1Hwb8fscofFOhc3u9GuP99n6Dik43Gr+58E/tDf/AEk6W/XSP/znTi+5nO9ntvwLhjn8AYu/larP590e+c44ZVCPcfPvwJip/Aa+nua1eVV+x9DlDtVqk/Rmc/uq4+Hgfxn+G/8AbPwrLW4Mcv43p95o7byx/wCNftv+h+cf1P2S4Rn3RyXKMlTj4fsflv8AEP4efw18VavRRT/hpP52nk/OOXC/R2v0OnDl/ixnPlwtBq82g1uDV6WThnwZI5Mcl4knaP1r8N9Z0vXugaPqWmj2wz41Jq/yy4lH9HaPyHaPr34B/EfyNXquhajJ9GZPPp09/qS+uK+6p/ozXLjubTG9321zUtsc33eh85/HPrkum/C2Pp0Jr+J6jLslXKxR3l+7pfufRoduR+Yv9j8v/ih15df+MNZmx5HLSad/w+Bt7dseX+rt/scuLHeTeV1HT/BfoH+2fjDHqcsO7TdPX8RP0c+IL99//dP0jUl4dng/wi6E+h/B2DJlh26vXP8Aicnqk19Ef0j/AFPa/Mk1W9L1JyZbyXGdmVuK2k+T82fjXFR/EPW9qpPDhf8A4D9HLflOR+cvxuVfiDqtu29Pgdc/4S8P3Jn4eDPu/wDZ8l/8nOrJbtayP/6tHwg+5f2esvy+h9Y9P4uHj/7Wdub7WMPL6vCU7fLRfb3eEPvtbbL7DXZ6njdUOEk+UkRKG1JJt+RZ8yVWnRE3mpJNdvqgslcfq3zYpqbXb4R4H4qb/gsr9qPe9ZzK1GX/AOE+e/FORPTZV7cGfl9H0k7x4YGAFfo4Xgd7AAUCbAYRL5AYgEJjEwhDAdFAD4AAJBBQeQGDDgAEMTAIUhFNCaCkg8MdCCFQxj5Ali4KoTAVgABAJleSWAAFAAANA0EIQ6FQDQh1sIABAICnwT5AaA7iQ+QXogfuHYMloGxBTsQUFEQ+FsVyKtgexRSqhMQ0BDsKLlskY2yBpDEmCYDJZViCkF2AJAMX2HwJ8MIaE2FhQANMFFA1uAgBhQBdiboe5LQRSlbGyEqGFMLJbGgKr9w48gK/UAvgE6+4WiQLBbErcpAHgEDJsC7ExWHkAi6nCub2PWdKzfRG5U/Q8jKXbKL5pne6fnUnFofD53qpvJ9Y+HsksujioxkkvJ3IJpbtnjvhXM8uLsc2q9z12OLhFNTlXujT89zY9OVjYhGaVpv7WZE2/wA3b+4sUlJb5N/RDTeNu7aZXE/qX5e1/qC7vKVgp9zqLSf2FKL57lfowPk39ott/DXSrXGta/8Aucj4EfoD+0TCX/RTpkm7S13/APzmfn+j08P2ueXl7v8ABBpfiPoFJbSw51/9zZ+me2NbI/Mf4LPt/Efplf5My/8Aucj9ORW9yOXP9zWHhi1mkxazR5dNqsEcunzRcJwkrUovlM/MH4l/BWf4R6t/d9+TpeobenyvevWEn6r+a3P1M5xS4f6HL+Iuk6Dr/SM/Tuo43k0+VcpfVCXiUX4aMcefRWrNvx5R3/gv4m1nwr1vHrtI3PG/oz4W6WWHp9/R+GR8YfDur+F+tZdBrV3JfVhzJVHLDxJf8V4Zwz2dso494/X/AEjq+k650vTdQ6dmWTT5laflPzFrw1w0b8IRabdn5l/DL40yfCnVezUuWTpOoklnxrfsf/2SPuvK8r9D9MafNp9Tp8efTZY5cOSKnCcXaknw0zxcnH012xy3FJK9+BvtfHPuK7f5Wx3vUlSMtHCNK1NJ+w4ZJ3Tl3+N0NOEL7e6S+wnlSX5HEIyfV/ha/UJQyzX50vsY4yi1tvfhjfZt3JL9QJljzpbTS+6NTNCTlWTLJr/KvJtynF7Jul4s18ufGn9TV+5jJvHaHmx4o1DHv9zwf4s5r+FdTtWx7bLqIdr+mK91sfOPxb1UX8P5oR8mb3senhx/dtxfgiaj0/T/AO6j6T0jJgTUs85RXsj5Z8GZK6dpr/yo+ofDc4ZJOMnDjmTOn+VdOWf05Xp8bxzhUE5Xw2ZcUYxVSaS9CFGDVfOTrhJUVJJJd7SXtybfPKUYNWuAxyljSi1F434YS1GOH5YNr1Gs08iSx44tPhydA7srw4n9UMkU/Z2iE3BtKUJr1XKMUdI+5vIop+kWZI7NRql6lFxlkbUnZxfjvr0Ph/4U6j1HvlHUY8fbhi1s8kto/wA3f6HcfdHeLf6nwz+0J8QfxGu0PQ8MqjgX8RnSd3OW0U/srf6msJ1XTNvZ82+FFoMnxNoJ9d1McOgjlWXUZJpy7kt6pJvd7fqfoiX4pfCEU66upedsOT/kfGfhL8M+s/E/R4dS0ebSYdPOcowWaUlJ06vZcWdyP4Jdeupa/p0f1n/yO2fTb3rE3H0j/wBLPwglT6hmfvHBMwv8W/hGPGrzyS//ADaR4Ffgj1i6l1bp6/8AcmzKvwN6m2r63oN/TDN1/Mz04fld5Pby/GD4R7aep1rf+nSy/wCZ8g/FfrfQ/iLruHqfQZahzniUNTHLheO5R/LJb77bfoeql+BfUI13dd0X6aaf/MeT8DtasM5Y+t6aeRRbjD+Hku51srvay43DG7lS7r47Z9L/AAK+IV0v4pfTM860vUkoK3ssq/K/13X6o+b5cc8WWePLFxyQk4yi1umnTQ8GTJgzY82GbhlxyU4SXKadpnXKdU0zLp+0pT+W3UbXJcmpQTiu18nD+C+uY/ib4Z0HU4135YduWK/w5FtJfvv+p2o3VNX9zx3t2dTUmn9TDJK4/Vs0KK+m+PaylG065oCf8Ph/qClF2lswSbS+liTj3JzVMirSt7L9idTO8EvpqkWqtcX43NbqTcNPN34Jl4J3r8/6nLH/ANIvUmlVr/ifS/hrWR+dGLinFrfyfJM2S/jzXO96PonwxrPl5sdJNWcvGn1M8d4V9KxSW3atnuvJklPHD80bf70YMLvGpRa7fR7GZZFxjSa9WdnzCc03cFLb3oHc92pfaymp8yaf2VDXfz237cBGJ4d04pr3Q1lml9Uq92jJkxZHTUlH25CPzFGpK3+wXbyv4m6nJP4A6/ice6L0kvqXHKPhf4NSa/EbpdctZV/4JH3r8SO9/A3XbfOjn/wPgH4P5Oz8RujO6uWRf/c5Hbj+ysZeY/T7k/l2p2/MW7B5Zqn2xr3RHcpr/FfOxUH32nbZwbVLJK00kvv5MOVvLCccyg8ck4yg94tPx7lpzhaUHJMcV3xf0RTXiwPzX+KfwWvhvqH8Z05Sn0fUS+jl/Jn/AJH7ej/TweE5P2F1Tp+h6noM+h1uKOfBnh2ZISVbe3v5TPzF8ffCWr+EetS0udSyaXJc9NnrbJH0f+peV+vk9XFn1dq55Y68OT0Lq2r6F1bT9R6dl+XqMMrV8SXmLXlPhn6k+Cvinp/xL0XHr9LJ48n5c2FPfDPzF+3lP0PyWei+BvinVfCfW4a3TJ5MEvo1GBvbLD0+65TLyYdX/Wcbp9E/tGzU9T0GSvbHmVv7xOx/Z4mn8LdVhTbWtX/6tHm/xz6npOtaD4b6j07IsmmzwyuElz/htNeGuGjuf2eZS/6P9XjFpP8AjIvj/wC1o53+23PufWpzaSuLrzSFLLGLTjil62KOScuZr0f00OuzmVr2ODZvLKauml53C3F3d+3qK03xt7ui45YxS8foAPLkklT7V9jIn9P9422vAo5Hlf0QivdDf0StupP04KjFlybPtTr0PDfiq4r4dV3fzYO/1Pb58vY0lwfPPxYyS/6PKX+H5+NJ/qc678M/dHP6ZlawQ8xkvXg9L0elJuORetNHium5r00PWj1PQcuK5/MbTX5XexieXs5cf2u/3Y4/UpTu/sjPjlNyUotdprYpppKMYt+rXJsYVNTUvpS/ytm3jrZWOGSP1br0b/ohJYYvthlnGPlLlmSE80GuzHGTf+Vb/uOfdCll08IyflFY2fbBpL5kmvF0ZI4nBpwXcr3smGOS3uKvykCcsLulK97bKj8i/EUe34h6ovTV5l/42c9WvJ0fid//ACm6vt/9dz//AKyRzk2e+eHnr9S/hPJZfw56EpRV/JklJ/8A9SR6VKOPI7b2e6PI/hHFz/DnoqrbsmrT/wDtkz2iSjtup+HSPFl91dp4Efp3irvy1VCUZKban996QlNwdTdJ+HuVFRkuW4+j2IKdNVeNfZlxm6q17mvkx44y+ndP/VwT2ptxvd+LGzUbD+Wtu+G/ls8J+NXVYdP+ANXhTXzdbOOmh7pu5fyT/c9pjUo3GcYwj+5+evxt+JP9sfEkOnYMinpemp43KL2llf5n+my/c6cc3kzl2j5x5N7oXTsnWOtaHp2FNz1WaOL7Jvd/orZon1/8A/hnJn1eo+IM+OXysCeDTNrmb/NL9Ft92z05ZdM25ybr7bi08dPjxYcScIYoqEFf+FKl/JDyKc/rj9FfmVCeLJf1uVeGmCfc0u+pcJ+p4nYQbnunT9HyZodsrU4W/V+TBkSbVS7ci22VF9zvfdoC54scVylF+rObllGn2brhWbuVRyQa+WrXocfWZVjvbglbwm3zj8VcsXpIx8ua/qes/DXKlp5LJ/lVHz38TdR8yeKNp/Wk6+57D4A1XZPGo/m7aJPh7Msd8dj6VGbT2i/0MkXJtL+9SfnwjXxZJZPzKP3NipJXGcmvSzo+fWRwUVu236shp93cthJvht36UU3X+K/aiIaaaa4+x+Z/xv6VLp3x7qc6i1i18I6mL9ZV2y/mv5n6YTa3VbHzn8c/h6fWfhVdQ08O/VdNby0lu8T/ADr9Npfozpx3WTOU7PzcfW/7OuvWLr3VNBJ//OdPHLFerhLf+UmfJGeh+AOtf7A+L+mdQlKsUMvZl/8A6cvpl/W/0PRnN42MS6r9bqFPuX7PgtSTvu2f2IUpKNuXdHle6K2nE8jqb3T7SFs9lYnFr/8AAOMab+l/qwEk737fsU4R9xv6o7vdGOGRK7T/AEAGlF3ba9Ccix5YNdvPF+pkcoP1v7HK+JeqYuh9B1/UtRJdmnwymk9rl/hX6ukB+YvxJ1q6h8d9azRl3RWd4ov1UEo/8DzQ8s55ss8mSXdknJyk/Vt23+5l0Omz67WYNLpYPJqM81jxwXmTdI9k7Ryr7n/Z26X8no3Uup5FT1WZYcbfmMFv/N/yPrrjW9HM+GOj4ug/D2g6Xp2mtNiUXJL80uZS/VtnSuXhu/c8uV3duknYUxJ9q/M0/cH3pXexKcpehhWRVPiaslwnG+2SkYpKK3pX7MO6D5tMbXS4PInU4t/ZmPWusblTX3BOF3HI+6/Jg6hkbjXcmyLJ3fF/ivKsv4kRUqqOGK/mz2mmlBY4q62PnPxHnlP8RNVKSpxjGJ67Sav+7jGW23Jzz8vpYY7wj0mkyVlUU/J6THp5zgpJUeJ0mpuSqvuey0GSbwxuVL1NY15ufGzu2ovLClPu28XsW+1q5bsaSru7yHOKdST/AFOjzHjyJS+mCXufCv7RDT+IOkNVf8LO6/3z7is3y5uMknDwfD/7Q8lLrPRZQjUf4XIv/GjpxfcznOz1f4DTy/8AQfKsfC1mTx7I+kQU3+ZpnzH8AtRHH8H6qLUm1rJf+WJ9Lk5SqUJbPwzOf3VcfDI4JK3NJ/Y+afjZ8P8A+1/hv/aOD6tX05ubrmWJ/mX6bP8ARn0eOK593e+4epjHJilhy4IZIzTjJSXKfJnG6u4t/D8acG30nqGbpXU9Lr9I+3UabJHLB+6fH2fH6nT+N+hZPhv4m1nTpJ/KjLvwS/zY5bx/5focGmezzHDw/SPxz8X6fF+Hces9OzduTqOJY9PFPeMpr6v1j9X7Hw74C6DL4j+KdDoGrwd3zMz9Mcd3++y/U5ObX6nN07T6DJmk9Lp5zyY8b4jKVX/T+p9s/AXon8F0bU9YywXztbL5eJvxii93+sr/AGOdnt41ufur6Yk4JQhca2SRlSkqcot+5mcIyfdspezMcskZS7Y3fr4PK67Jyk1Saifnb8cItfHmRvzpcP8ARn6JSf2R+e/x2SXxzfrpMX/E6cP3M5+Hzs+3/wBnl30rrS8rUY3/AOA+IH2v+zxL/qXW4K/+1xP/AMLO/L9rnh5fX1OSe6TRiyXe92ypQSl3LnyS8jmu1r9Txu8DlFY2sm3uYWp48bTyXHwEp7OMnaOfrMkceOXbd1sRrGbcPrGrrUNXujxXxLmvTyrydvW5byycvWzzXxHJPAktrZmeX1vTYaykeb8BW4wNPtkDGkOgMdFDewgEAMAFwJjBqwhIYcMAFyIYUACYMS9yhpDYCYCGAgGALfwOgESVQqAAsOBUA/AvI0J7gOhJFITVMIVCodgwJ8gNCaAaBiQ2AgfuOhNBAJjQ2BFADGEKgGMDtrnYJWNSXoDl7B1Y17lV7lIJNNBUNoPsKitkQK9gsyRSrbkhqmUEQuhocuOAIkw2BDe4EsllUNxogmKZk7SEqbKciia3Gtg7rYu7cBsKDlAAUHgGxcgOxLgdCYAJAnvQ2vQgSTG4+orofcVCf8hPgcmiWAV6C4GmkU1sAk/UTe4roTIKTExILrkopD7qMd2Jsgy91ivyYlKmLuBtmcie4lNVyS5BNqct4v0Z09NmSacdqOO5VKN+p0MdeN/QlePn75PefC2tnHVKMHzwfRdPmcY3qclv/TE+KdG1cseRO67X5PrfROoYNRpYScrdcJGsfD43rOPV6o7uOSlTik/djk8kXvPb0MWNPJvXZEv5V35K8AllcZL6qv2H8xyup/yGsV1stjIsaj4VhNvlX9oLufwhoXKTaWtjtX+iR+fz73/aL1Cx/D3SdK6U8mrlk28qMGn/ADkj4Ievi+1yz8vbfgxKvxI6T7/NX/3OR+olst6PyZ+G2shoPjvomfJLth/EqEn6KVx/4n6scHSTmzjz+WsPDI3Fp1SMSkls+SFhlGX5rMjwLlylZw7unZ5f46+FdN8WdHno8/bj1GO56fPW+Of/ACflH5g6v03VdI6lqNB1DE8WpwS7Zxf9V6p8pn7EWFp7W/1PC/il8Cr4o6atTooRj1jTxfyndfNj/wDY3/wfh/c7cPJ09r4Zzm/D81I+o/g98ef7G1EOi9Wyf+rc0qwZJPbBN+H/AKW/2Z8xzYp4Ms8WaEseSEnGUJKnFrlNEHqyxmU1XKXT9qRk1wkTJKV/Mpeh8g/Bz8QMepw4ug9d1CjqMaUdJqMn/tF/9jk/VePVbH19vG19S7jxZY3G6rrLsUkvpyL9xJyb/N3foTWN/lpP3HSStyx19zLQmpPd5KIvbeXHsU5Y5bUpL2Icop9sYdpBiyTfdUJuV/6aMGSDuskY36m3lmk/r7k17mvqMzljaUKj/mbMV0jmdRUUklu639j5l+KmT/1LkVtv3Pda/U/3j7mv3Pm34n5e/pckuXJIzO+Ue3jxsl3+Gt8JT7enafj8qPoPw5ql/FQUlbvaj5p8Lzrp+JN+Nj2nQsyWqgpypXydL97rcN8X/wAfUsLWRVBKM/fYyuGSScciTh6pmlpMWLJijbm3zu+TY+Z2TcGmoo6PlX+GZQ7YVcnFeLMfze3aPP8Aq2IlJuXdjk17SWwouffc3T9EuQmmbvvtuUWv9MrMycnfapV6tcGKCxR3cVD3rdkTm+7+7k3K+IlTyyavV49Dos+q1M2seCEsmSUtqilbPyV1TV6v4q+KM2o7XLVdQ1NQj6dzqK/RV+x9o/HTr0+nfDmPpuNuOo6lKppu2sUXb/d0v3PDfgV0WXUvjB66a/uenQ+am+PmS2j+27/RHfjnTjcnPLvdP0D0Lpun6L0nR9P06Shp8UcSb9lu/wBXb/U6DcXFd7przzZr5IwVKc7v9h44uL/u4WvVcHDbemZSg5f8yZScZtY5J+diuyDW/wCYxPTxg3LGmu570EbEnJpSUrT3FNKLT3RjUXFKnJR4fkyY13R+ht14A/Nn44dA/wBk/F8tbgilpepJ5lS2WRbTX9H+p86s/UP4v9AXXvg7VfKg5azSf9Zw0t7ivqj+sb/ZH5e2f2PVx5bxc8pqvrn4AfEf8J1XVdC1E6w6xfOwW+MsVul94/8AlPvsa5i0fjDputz9N6hptbpJdmo0+SOWD907P178P9X0/Wuj6LqWjkvlarEp9r/wvzH9HaOXLjq7axu+zpeW7i79Alu05R/UlNyX5la8Fp/S91aOTRRTVpp0TlacfqrbyGTJNbxSknyRKr/Ov91kqr7O+Cknx6HO6pmT0k7ctk1ubn95GLcE69DjdezueKa47YmM/DfHN5Pz5kyJ/HOto9x0jJ8nPCSltfJ87nkr401cvHc0e00eXtjGS4M5TWv+Pr4Tcyn8vsmgnjlgg1KTbS8G5GUk7jv+nB5/4U1c82kgrUq290eili2tye/odP5fJ5MenKynGWSUl4+5MpSV26kSlKKTjdr2bM6yJreE/wCRWGHuyS/xJfaJjcskZKoOUuG0jP8APjyoSf3QSzy/yMg878fqc/gjrd93/wAzyePY/Pv4SNr8Reh1Hu/vZbV/9rmfoT45ytfBnXO6Lr+Dyc/Y/Ov4XZVi/EDoMmv/AKwo/vFr/id+P7axl5j9U46itsd/ethPJf8AhqvclJXfYm/uXHDLu7oxhuqbbODZKULraL/UHFqpKbX2LljyKmvl7eoJZGmlUX6oG0ShFyU2m17bHI+LvhvSfE/RsvT9amoy+rFlSuWKfiS/4ryjstSjF3JvzvsYG5Sb7Z17Fl14PL8j/EfRNZ8PdXz9N6jDtz4nyvyzj4lF+Uzm/Y/T/wCInwVh+Lej1Dsx9U06b0+Zvn/RL/S/5Pc/Mus02bRarNptXilh1GGThkxyVOMlyj14Z9UccppMs+V4I4JZJPDGTnGDeyk1TaXvSPuH9nXIl0frMUk3/FQav/cPhbPtv9npr/ZnWklbWfG//Cycv2rh5fY3GL/NJb+ClLE477eH7kRku1fQ3Iag5SdY6829jyOpxhjkrint6j7MLVzkk/G9k7wdSi5PwmzG5ytqWGMY+qQPLMlUqWZ1XEUX3w7e2Mm5e5qKOHJHdTpf5ZUzJJY44nStJeeQaTnyY0m8jTa8Hzz8WdbLUdB+V9Kx/NhS/U9Zlz455Gu5e0UfPvxSm4dKhzUssf03Mb3Xq4cJL3cXp+WUccVfCPUdF1SeeKbVPweN0uVxxwfqlwdLTzV8tSsw+hcerHT6pixtY490Yr+ZsRVv6ZUzi9DyynpofNyOeNqk7qjrr5WJ/mi35pXX6nR8vKaulPFllLtcpNc0rLw5I432qM362OGr78fdjbkoc1sZIZXqP+xk4y8rt5DN38sn/aQpQcvs+CMTjCdZcahFO+7dkY8k8baUW15fubEXGaVSXO+1srPh+S/i+l8WdaUar+NzNf8AfZyNzqfFmRZfinrE4O4y1man6/Wzlo988PNfL9Mfg/Nx/DzpPe0o1kX3/vJHtPmY5RptdvueI/Bj5OT8POn2m5Rnli/T87/5nt/7uC+qCXtZ48/urvPCovHNU6fpuTPFGCtSj9rKx5cLXa4KKfqDTg+L9LV7GQ8StbRJmoqfc0k0avVerabpGkeo6jqcWlwL/Flmo/snu/0Pknxr+MPzMOTR/DEHb2lrc0aa/wByP/F/saxwuXhLdPSfir8e4fh/QT6d06al1nNGlW/8PF/4n7+i/U/Obbk25Ntt223bZkz5smozTy58ksmXI3KU5u3Jvy2ei+C/gzqfxVq1HSQ+Vo4yrLq8i+iHsv8AM/ZfyPVjjMI529Va3wb8Naz4p6zj0OjTjBfVnzV9OKHlv39F5Z+qejdP0vR+labp+ixvFg08FCEUrterfq3uzQ+Fvh3p3wz0qGg6djUUvqyZZbzyy/zSf/DhHZjl+nsm3L9Ko8/Jn1VvHHRyzOMN0lF+eSXTfMVH1YoqUU/pTh/QJdsWlL6ov0XBhoP5U5fUkpcKSfJhcWnUZNV5MslHJFwUVH0dkzwwxw/Pc168BYw6jU/Lg7ScvVSpnnOpaiscq3kzq9UlFR+lru9nyeW6jqe2Mm3uuEYyr0cOG+75j8dRlDNg7pXKWVPk9h8Gz7dXgTdJ+Wzw/wAcZll6lpUmvzcLwen6Jm+XLE06apoXxHsxm+qPt+l7e1cR28qzO5wf5bb9TjdL1P8AH6fFK3B9tOnsdfDh+W1c+5evJ0j5WU1dVVSc6TV+pXy6/NX3Qppp+HH1EpSe1VH3DK3GNXFtsnLKPZKMoKUZKmmrTXoxxTt7rYpRknu1RB+W/wAUPhDJ8LdclLBjf+ytU3PTT8R9cb9149qPF87H7D+JOjaLr/Ss/Tup4vmafLxX5oS8Si/DR+Yvjj4P6h8JdR+Tq4vJpMj/ALjVRX05F6P0l6o9PHnvtfLGU0+2/gr8Vrr3w9Hp2py/+sunwUJdz3yYuIy/Th/p6n0WMKbUnXufjbofVtZ0PqmDqHTczxanDK4vw15TXlPyj9NfAnx5034t0cVCX8P1KEby6SUt16uH+aP815McmGu8XG7eycFa+tBUv88K+5iWRfcJ1KD7XTfn0OTS1GTdNxa8EzxxTuSVeqYlKNVKI7g9mn+gCqCX0zaflHw78e/i7HqZYvhzQ5FKOKSy6uUXt3L8sP05f6HofxN/EnS9Dx5undCzQ1HVZJxllj9UNN+vmft48+h+e8s5Zck8mWbnObcpSk7bb5bZ24sPms5X4TsfbvwJ+CZKviTqMO1yTjosc14ezyf8F+r9Dg/hf+GmfrOTD1XrmGWLpafdiwy2lqfv6Q/qfoHFjljioQgowilFRiqSXoi8mf8AjDHH5ZHgywf5+30pj7cvb9M2/W9zGlNCbkpXTX6nBtanJutv2Bxdv/8AazE+5u2thNR/xNogyNU77WRNVs+X7E0uMeVv9RJzXE2wqZRfcnsjT12SMe5Xbo3+2cvqdUjz/WsyjklFNcckreE3dPivV59/x1rp3t3JfyPS4MnbBVueNzT+Z8V6+V3/AHlWelx5Eopoxn5fV4p+12NNqqmmufQ9z0LVPNgit2vc+YxzNSUos9f8Kazul8tyab96JLqseo4947e6WG13RyqvSylplNfnf7mvjcVJPlGxFtx7qOr5d2XyoY9+62v1Ph39oeal1vosF/h0uRv9Zn3Zr6V9HPlH5q/GbquLqnxxqI6bL8zDpMcdMpLhyVuX83X6HXin7mM72e9/s95oT+Heq4JNd8NWp17Sgl/VM+rRx1tB/ofnv8C+s4+nfE2fQajJGGLqGNRg5cfMi7iv1Tkj9ApJPiW3oTkmsjHwxZZZIzrhmXHkbbUopyfmx5XFw23f9CI99JwrY5tvmn47dAl1DoWLq2LHep0G2Rx84W9/2dP9WfArP2RqcE9Zpsmn1EITw5YuE4vzFqmj8n/F/Qs3w38R63pmZOsM7xyf+LG94v8Ab+jPRxZbmnLOfLU6N07L1fq2k6fpk/nanIsa9r5f6K3+h+r9DpdN07p2n0WnxqODT444obeEqPjv4B9B+dr9Z13NG4aZfIwJ+Zy/M/0VL9T7i3jlfdF36MxzZbumsJruw4/lv6cX7sbcYzqcoquGvI3hi7kl+wRSaayI4uiscVJOXffsfnr8dpf/AC5SfK0mP/iff8ixYYvJjyNUrbbpJerPzJ+JnV8PXPjTqGs001k06ccOOa4lGCq/3s68M/dtjk8PL2fZP7PeRKHXIWtnik1f+8v+B8b28nvPwb65pekfE+TBr8scOm1uP5XzJOoxmncbfhcr9TvyTeNc8e1fop5VVwjJv0oxdk5ZO6Dr2LjlWJXKX0vh+H9h53DLhfbNpy8rweN3/wCMU9k5SSbrc891nXxjje1N7I2s85Qn298sij5fk8n17WRnqOxPaPgza9PDx7rnanJ3zlbPN9em24qzr58y+pxW557qeRznG3ZmeX1/T4/vjSoT5KQmafTCYWAAJiKJYD8biAAFVhQ+B0BLQJDoaAVbCLW4mtwIYi3uhUAkP7hQUEJiRQqAEMKABBYeSWUDEA0AeA+w9hAAS3F5GBJXgVBTCEgZSQNWBIxVvQ2qAUthNgwSsIQ3wFBQE0HA6BACKEkDQHcaVbCirZMbL+wdlOOxEo7j38A00twhpRoTj6BuyuFsBHASdlVb3E4peQEpVwDb8kvbh2FtgUqFIfcl9yW7AabQ0rZKaRUZAEo+4lBeo92TTAO0KE7BMAaGtwe4Je4C8jaodLyKXHICsER5LIC0PYjgLV7lRkpUQ+NkJv0FfqAA+BdwN0gFdMru2Ib9iXKgHJ2w8WTfkXcEV3UwbMbdk99BNrcqF3kOSJcqewTbJJmPvIlkXBjcwlyZ1J0S8hgeSjG8hdMXkbUZ9zSfg3tNLdbs5OKa7jcx5KfJLHDK9VdvBkin9L3e+57r4P6rh7Fhyxi5Xs5eD5vjy8b7nW6fnnjkmnTMS6rhy8U5MdPuuh1E3Fd0oyXhJVRvKUcvt7I8b8MdWhqdNGDaTS3PT4skHCoSs6vhcnHcMtVl12qwdP0Go1mqyPFpsEHkyza2jFbtnz/qn4xfDOjxyWi/jNfl8LHj7I395V/RnvJ6eGq0+XT6mMc+DNFwyY5q1KL5T9jlr4O+GoNX0HpkV74EzWPT8uV38Pzb8dfF2s+L+rR1WrjDDhxR7MGCDtQjdvfy35Z5u69D9dP4S+G1+XoXSq//ANaH/IF8M9Bh+XofSbX/AOaY/wDkdZzSdpGOi1+RVLtacW007TT3R9e+G/xqzabS4tP1/p61bglH+IwZFCcveUXs39qPsOPonR47R6L0zb00sP8AkN9H6Xe3StAvtpof8jOXJjl5izCx5v4U/EfofxN1OOg0GPW49TKEpqOaCSpc7ps9n33G1dowabp+j001PT6PS4p1XdjxRi/3SN1fLi05drOV1fDbB832k/sjIm3vG19zMljf1R49SMmOMt7TIbfJPxl+ApdTw5fiDo+FPW443qsMFvmiv8aX+ZLn1X2PhS02eXGDM/tjl/yP2c4xUXZhWOClaik/sdcea4zTNw2/HMdFq9nHSam/FYZ/8j6P8MfiT8V9J08NLrOn5+p6eKqLzYMiyJenelv+v7n6Bl8vinftsJY4L6km5L/UMuWZeYTDXy878Fdfn8T9JnrcnTs3T5wyvE8We7dJPuVpbb/yO/8AJb2lKK9mZ1kc/Ke3oROKn9MsUm15ujjdfDe6xdkcd/Uv3MWZprel9mZ4qMXTgo+nlmPP3ydJO/clanlqZcU5JuOWVJcbHF6hqpYYyjKTp+LOnrtR/Cwcsk0zxHVuoLLllKO69jnf4evg47l3vhj1eeUpvft9jxH4gz7tHjV3JyPS5c7bUkqPGfHGdzWNXe5cJ+6PdZrGl8PZa0uNeh6XS6jtkpJ+bs8Z0XI1jir8HodLkXb7Gs+2TfHN4x9d+F9Tm1mli4dmyq73PRx+Z2r56ilH3Plvwl1CcM3yoz7VPhP1Po2kdxrM2p+G9zpLuPlep4ujNuSzY+36YSm/Yby5XHeHyvexwknwnfsi3JyXa8sEn4a3DzMPzJvbLklOPpwVKOGEHkbWKMU5Sd7JLls0Ou9a6V0DTxzdW1eLT45ScYylbc2ldKlyfHPxJ/E+PV9Fm6X8Pwy49Jl+nNqci7ZZI/5Yrwn5b3ZvHC5M3KR4v8QfiD/pL8VavXY5SelT+Vp1J8Y48P8AXd/qfZPwH0GPS/Bb1bS+Zq9ROUpX4j9KX8n+5+eO1+Ez6V+F/wCIeL4Z0c+mdW0+XLoXkeTHkxK5Ym+VT5W1+p3zx/bqOeN77r9DwyQbaS7l77Dxzcpf9nSXvZ5P4e+PPh/r2vx6PputyPUzTlHFkwyi2krfOx6v5j2cEmnzex5rLPLp58LaSeyaG/pabTTfklaiFU47++48OaH5YzV/5WBkX1K4yhL1Se/7E90bVtR9pCnGUpbVFeq2OV8R9Yw/D/R9R1LqfzJabT13PHHue7pbfdjyjrPKqlGWJKPn3R+P/i3p66T8T9V0EK7NPqckI1/lvb+TPr/VPxs6dHHJdN6Vqs+XxLNOOOP8rZ8V6rrs/Vep6vXarfUanLLLNxW1t3t7Hfixs8sZWfDU+x9m/s//ABRDFmz/AA5r8lQzN5tI5f5/8UP1W6+zPjSjJ8Rk/wBGZdPLUafPjzad5sebHJThOCacZLhpnTLHqmmZdP2jOCf5G16UzG3BS7ZRl3VymfDvh38Z+pafDDF1npL1koqnnwXCcvdxqr+1H23QazHrtHp9Ssc4LNijkUZLdKSTp++55csbj5dZds+OVRfbv6+SXJxTp/T6UjH3RU6pJ/1Flydu7j2ri0zO10w6rNiUJOUK23adHkes6u8c1wmubN/rWvi8vyoyuK5PKdRzvIp3wkccrt7/AE/F818exzT+KNXN8dz/AKnsdLncYJLdHh8Uv/X2eXrOX9T1emy7Lc3yTw93BN9X/XvvgzXVrFieWce7jt9T6PizZIU+/LNeeD4joNX8rNCadSi72PrPSdXg1Whx5PmQcmt0nuML2eP1vFq9Tt/P1El3YouvdlY8mVr6uxv7mGOROO0Xx6ChcXu8lN+EbeDTYeXJjmu5Y3F+jMkZ5pRdKPavQ1dRlx4dPOepy/Lwwi5SnKlGKXLb8I8b1L8Qvhbpyl8zqi1Ul/7PTJ5G/wBtv5lkt8J2bv4sa9aP8PetTkoqWXEsEX/qlJL/AJn5l6Jrn03reh1qX/zbPDLz4Ukz1f4jfHeT4ryY9PpMGTS9MxS7445y7p5Jcd0q2+yR4in6Hp48dTu5ZXv2fsjRznPEsvfCUZruh27pxe6e/sZX89y2k0v0Pg/4ffikujdPw9O67ps+owYV2YtRhdzjHxGUXyl6rc+m9F+PPh3resw6bQ65/wAVnl248OXHKEpOrrivDPPlhcXSZSvXxeVX3ZI0YI48GKUpPLJOb3qTbsIpRa70q8pMHHHGX0J7/wAjDSk4rfH8ya/1KxvLCk3CvFpcBGdb07fhbIlzvZ4p1LZlQpSipNpyfovB81/Fz4Jx9f0j6t0nDL/a2CP95jUa/iIL/wCJePXj0PpGHE8cX8ruXtKW5UYvutc/csyuN3CyWPxo1u00/wBT7Z/Z1l26brjSbqeLj7SNf8ZfgGWJZfiLpGJfLbvW4IL8r/8AsiXp6/v6mb+zsm8fXl6PC/8AzHozymWG3OTWT7NHK3ym39ickpPd4VJ+L5G3lW9qntboc4dyT7fq9e48roahOUL+X2P1cqCOmTpydtms7dwyOKp+SJufb9OWaXhIq6bsodvDV+hx+rapwXYm160Xn1fyMfzHKqW7Z5nWdQeoyylJunxuc8q78PFbdtnLrMUauSh9zwf4mamOXpkO2bneWP6Ho8uGeWCmsey5t8njPxDwTh0zDlyTS7sqUYL09yY+XrmOMczS5U8UbOnhzcO/qR53TZPogr2OjjzfUiWPXjOz3vw7r9/kt7ep7DTuEYxipwyN+JLg+U9I10tNqIyi7p8H03p2aOq0ePUKSfdylzEuLx+qw6bt2YY5KduXc34gqRc8NJym4Rr/AA925gUYtLulNJrnuoyQhif0qMb/ANXk28LBq+r6DSwb12q0mm7Va+ZmjD+Tds8T8U/it0jp+iz4uk51r9a4uOP5K/uovxJy816I6fxN+HvQev8AVXr+p59THO4RglinSpceDmr8JfhfhPqU36vUV/wOmPRPLnd/D8+Sk5ylObblJ22/LEfohfhH8LdjbhrrXj+Kf/IuH4UfCqr/AKvq5L1eqkd/exY9uvk3wP8AH/UvhLBk02DFh1ejnP5nycza7ZeXFri/Q9i/xtyuG/QcPf6/xD/5HrofhX8JRdPS55//AKRKjOvws+EV/wDk7I//AO/P/mYufHe9hrKPn2q/GjqOSLWDo2hg/DnknP8Alsef6n+KHxVrYOENfDR4340uJQa/V2/5n2SH4Z/CEFb6XB+0smR//Eb2m+CvhbSTXy+g6GvHfjc//M2OvCeIvTlfl+YM+p1nVNX36jNqNbqZeZylkm/6s9D0T8PvibrDjLT9Ly4cMv8A2up/uo/z3/kfpvTaHSaXGo6PBp9PFeMOOMK/ZGeEotPuk9+a5F5r8RJg+W/Cv4PdO0M4Z/iHU/7Qyrf+HxXDEvu+ZfyPp2nxabTYYafT4YYcEF2whjioxivZGSUMctschJpfS6deaOWWVy8tySMscePi3fh2S8dqpyqa4dbDcJVtvH1fghTybwn20uJGQQWTup8+xknXZUlcPvuiZTnJVfH7mJTyQb719L5SQGZY41tKk+NzHqIT7PqSpf4lyYFlj3djUmnum9jndV6hk00J45X2tUmGpjbdRzeravApv5F3/icvJ5Hqmr7nJt7LwbOt1FttTv3Z53qObtjJt/cxX0+Lj1HifiPMsvWcK9Ger6bkcUl7HiOoZPm9Yg/FnqNJkahGS8G852jpwzdyfYvg7Xwz6SOOSXdHk9ZjuVfLnH9GfHPhrX/w2rxy7m4tq1dI+s6HLjy4Y5MfY21yxjXg9VxdGW/y6UYZKb3E5Sum0l7GNSySjWRt/wC6ZIqNW2vsaeNSkvFDuXOzIbin4fsVdrYgJN14s1Op9PwdU0OXR67TYtRpsqqePIrT/wDw+5tLukq2BQljae7iB8H+Mfwd1emnk1Hwzl/iMXP8JmlWSPtGXEv1p/c+X6nT9Q6Nrox1GLU6HWYnce6Msc4v1T/5H7Jko3bZq63p+k12F4dfp9PqcL/wZsamv5nbHls7Vm47fAPh38Yeu9Pxww9Uw4ep4o7Kc/oy1/vLZ/qj2Gl/G3o8op6npfUMT8xhKE1+9o9F1L8LPhTWSc103+Gk+f4bNKH8raOPk/Bj4clK4anqME/HzYv+qG+O/B+5p6/8cOmKD/g+j6zNPw82SMF/Kz5/8Vfih1/r2KeCGTH07Ry2ePS2pSXpKb3f6UfUdP8Agz8MYpr52TqGZejz9q/kj0PSvw++F+lzU9N0nSzyLiee8r/8VoTLCeIatfmz4e+Fus/EORR6ToM2WDe+Zrtxx93N7H2r4I/CPQdJlj1vWs2LqOtj9SxV/c439nvJ/fb2Pp/ynCKWNRUVxGOyX2RHY1u1ZMuS1ZjIyR+SlSyKL9CnJreM6/4mtKCvivdjhjtbSTaObWmw2p05St+xLpPZt/c113J7SX6GTvbjuwaOWTKmotJp+xO9VKjHkySivy/sxYszlVvf3C6VkhFq12pr3IalH6ko16pmWTjJNSi2amXErbSnFexFhanI8ONzbbjXqeP6hqlP5jbo6vXtVLFg+Um6fls8P1TVPFiyNy4jaM2vXwce5t8+0+ZS6/rZriWV0ekjkThs0eJ0Gbu1OXJ/mm3/ADPQ4c/92lf2JyTu+hwTeLqRm4y+l/odfpGteDUQltyeaxZqlbdM3MGddyaaTMOtx3NPtfTNQtXp4TikvucD47+LNf8ADc9Ni0fRs/Up6iEpd2LucYU6p9sWcn4T6r8uaw5Hd8bnvdNmTj9Te/FM7YZfl8Xn4rhlp8K698Y/HXWcM9Ph6dq9Bp5qpR0ulyKTXo5tX+1HiI/DPXZ8dG6i/wD9Hn/yP1gkr7nNpf7xlctrjKb/AFO05deI81w2/KGP4S+I3JPH0TqSkt01gkmme76J1/8AErpuOOHJ0nW6/HFUlqtK5Sr/AHlT/ez7hkjJytSal62UnS+p2S8u/MJhr5ed+Cup9Y6r03Lm650h9L1EcnZHFLuXdGr7tzvqWaLpY4teo5Z1B/ksa1Xcrql7HO+W+4csnluL/kfNvxj+DtX8Q6fRa/pOnefqGB/KnBNJzxvdc+j/AJM+k/N7lvKP2ZLUt3Hj0Qxtxu4lm+1cn4P6Lh+HPhjQdOjvlxY7ytf4sj3k/wB3/I6rzOP5oXErH3y2cSskZ1vFJe/JLd9ydhUci7o5K/0o8n8cP4qa0kfhFabdS+e8/ba47a7v1PSzxrGlKPPoUs9xqmvcS6q634fEer/B/wCI/W4vH1PVQyYpc43qowh/3YpI4k/wn+Jsb+qGiS9s9/8AA/RT7Jw+qVsFGLVLdHT3bPDPRPl+d1+E3xI1f/UUvfM//vS4/hH8Ry2+b05ffNL/AO9Pv04/Jf1N1yXHUqMfy7LyT3sl9uPifTPgH446ZFR0PWsWngv8GPU5O39nGj6J8I4+tdP6VkwfEGpx6zW/MlKOWPiFKlwvN/uejya6LT7k5L2RxurZXjjLOsqjGuGuDGWdy8unHx93D+IOqrHGUMc/7x80eQy55ZJNt2X1PUy1OpnOT2ObPLTcbONfY4uOYxlnO02jka1/31G1kyqKpXZoZpd2Rtvc1i9np5+7aB2SmHkr2qoXAJlICQaGxMKQcAOwJkMGC4CBsS2GlYwBsXgGhLkBpCovZIhtAAlY7C6AGhDsVgJh3eoxMBILsaBBEtB5KYmUJ7/cVD8jQCTABpAIa4ENbgHkBNA16gIfIkPjgAr0Ja2G3QqCFuNMLFW4FciSGmJgA1RAAd3tbexSTj5Jj3LdFcu2w6K7UhyX0mOV+4KT4e6AVtKkJKbMlrxFilkdUtgEk/JMvuJt+oL3Cpp36he5kgr4sHBeXRBPb7goopNLwZYw7lapFSsHaNpxXBmlgkt7IdrkG0d7+wJr7j7b5VCePbZgZFKLW6Jai29iEnwi6aXAEPkmmVbeyQSUq4ATqvcxuzNBLexOk+AIgU37A3vshewCb22QRryXOq2SMNbgXIndjXuDbYRjaaD7l1b3YppLgCW0/BMlSGlYSj5CMT3ZMvYvzwKb2CVFkSfqX5Jn7hKiUkkY3MctuFZjkVzypS3MbmxykYpWWOGVNy2MTyUxSkjHN3wbkccsmxgyd09zexvycfFPtyKzoYslrkzlDjz32rpYpV5N/T5qrf8AU4+OfubWKfacrHad3quma+emyKUJOvJ9L+Het6fPiSc6l5R8Xwalpbs7XTNf8nJGcNmhjlp5vUemnJH3HHkjN33NL1Rnc21St/c8f0HreHVQhF5XGaVOLPUYczaThK/0NviZ8dwuqzbVcrv2Ff8Apde4JzbbqxfM7X9UAwz403F9sE396Jb+0fVURFqfov1Lipp1u/sxpAqatb/oKSi92zLc+ZSb9u0qMoNNWk/Rqi6TbHGLSvuSj7kyatfXftRkpN+P2FUt6iq9QIi9nctiVu9n/IyN292v2Mc6jL8yRFW0mufq90S8Vu1JfoYWu52pbFxhHduV/qRVLC0nUn+4OGWtlL9TDOar6OVzRjlqGotSm7ZOy6qpwzwbfH6mnm1DhfzcivxuLPrFixyk8n0rm2eO651z+JbhgVJeX5M5XT0cPDc6OvdVebL2RS7Ueey5VHjb1MWfLK7m9/U5uoz/AFPcw+rhxTGajJqs6n+V1R4z4nzSnkSuzuavUJezPKdZzd+ajrxTeScvbBs9JyKONW+Ds4NQu24t1Z5fRzax1F7m5pdQ3PtTfubzw3dpw8msZK9hodXkwZoTxtbb36H134a6tPXaTHkllgp1TVnw3T5XJ9vFeT1vwx1Z6PPBOdY5UnTMY3XY9Vwe5jueX2fHnk1/20GvsWu3J/gTfl2cnp+ZZcEZ418xcpo2o6ial2uLX86Oj4lx1WL4h+Hel9b02LH1TR4dVjwyc4Rk3UW1Texwcf4ffCze3RdE/wDejLb+Z6nB3tt45Jv/ACtFNNJzlG/VRfA3Ymnl/wDoD8MRl/8AR/Qyr/Q/+ZmXwP8AC0av4f0EZLwsW39T0cMkpbxjL7FxlCTaqp+g6r+TX8OT0z4d+H+naiGo0PTNHptRFNLJixVJXzudiDwW1D8z96F+SVSbb/1Ffw2CTcnOMX9x5TtGaEEove68KSIUoSlTi/8AelFf1MawRhvjk5S9EPPCUoxqknzZAOMllrvco/bYh6fDmUoZ4wyYXzDJC4/szPFvHG5Rcl6rYU8qbUvlyUPVugNV9P6fCW2m0sY+vyIf8jLHTaTuUY6DTyf+ZY4r/gZG47xiu6/5Ck+xpTi1f+KL4LtNIWPFB1LBjivaCRX049493a+K3SMq+ZvFt5Mb9WR2PHF9quPoRVz7qU4SVeUYp5M0Zr6e6HrQOOFp05JvlUT8xYkvlJteVJUApN4p2klF/qczrfUIabTSmnHu4W3LN3qGtx6XF87L9MPKXg+afEXV5a3Uy7HL5S4sxlddnp9Pw3ky38J1OulkySm2k2zR1mpcdNkndtI1Hlp7yNLq2dx0mRrb6Xscn1scNPn0JX1Kcny22eh0uW4q2eWhk/61fud3SZNj08k7Rj093a7eHKv8x634U6stNljjyNPFN+fB4THkdprk39NqJQlao4eK9PJxzPHVfd9JrYLFF4k5Srm+TbxfMyYnkuo+VZ4D4R+JV8pabUyilxGSXPsz22i1sJY3DtTit00dZdvhc3Dlx3VjLqsOPXdN1GkzYHl02oxyxZE5O3GSp7+NmeQX4Z/CWOUVLo+Vxa2f8Rke/wC57iGKbj/d9qvddzL+XclG02t77tjUtnhwuniMf4afCn5v9kJx9Pmz2/mZv/Rz8JY05LoeKaX+bJL/AJntvk9yprtfqmC0rukrry2Xqy/LPZ49fh/8JOPdHoGkS9JOT/4m3034P+G+n6zFqtF0TR4dThfdjywvui/VbnfcPl5HjlVvhVZcIxjs+2/1J1W/K6jEpxe1bDbW6W1eBySTapFwnFK4u5L2MqxfMjKDUk//AHQxuLlv3/uZIyyp90+2MfF1Qs0pyaXbXvECX9Mn+Z+louMrcUl2Xs6ZhljdKnlc/wDd/wCId8Jf4963tpblRmyY4yc4TlFxkqakrtPlM4Xw58KdH+Gsmry9KwZcH8VJPJHvcoqrqr4W7OumpTfdKUX4pXZSyzTce2Uo+zGzRzjjdKfc/KpcDioZE4QX27qRjm8sk38vI8bX+GNmrajncWnC+O7YjUm23mwUk4S4W6NXJmeFNSlFrndGLNN4oynK1hXMu7g8j8QddhP+50833R27yW6deLivJdF8RdXlkk8UK7E+ThY9XHHvJvJL0NDUZrtttyZqw1MY33Sbfojk+thxTGajvx6i2182VR9Dxn4ia15sWngpXHvtI6U9Wp7KtvJ5D4v1Lnnw47tLc3x98ozy4THG1OlyfRE6GPIq3OJpsipbm/jybJehvKOnHdx1tNnamq4PXfDPWp6PUxl3ScXtKF8o8Hiyb7nQ02plBpp7o5Xs3lhM5qvtWDqsc8I/KTcWuK4NnHmyzVxTXukeE+F/iJ6fsxZ1FwflbO/c+i6bVLNp1PF8tqt4wfcbl2+Rzcd4rrTWTayKU1fu2buDKv8ANG1w3/8AhFizY5TX93BP3VlZMGnyu1d35K4W78ryT71ffF+yYksjlGMEmmOMNPBLuja9LMzWCS3ht4SYZ3prNTv86243NjFm7vpm6r25Dtwwg2oQ/fcxtY5Ra9fIPLO8kXKvypeQlmpbxjKK8mPEsW8ZZJJeyMiWOPE24L08lQoZlklfYl6bFNQkqjSZDWD/AAyaXuR3xhLaMmvUCoy7XW33Rm7Y5Y9y3n9jBOCruSk/YIZEpXCEoy9mDTNByjLeF+vuPK414+18GL+Ile8b9kS/l81UXygml9ilJVN9xM5wVwU4ufn3MU5qL/OkvFGlrNZCMe6Pba3fuGpjay6hR+XJvLdLb2PFdd6k5ZZYlkclF03fJfxB8QLLGWPSSnG/zM8nkz3yzNr6Hp+Cz92TJqc7+pp/ucLqmoXyvY2NXqO1Sp3t5PN9V1X0tJkk3Xtv7Y4qn8zql3wem02Rxj2t7HktI/8Arbk/J6LFk2VnXlniOXpu8td7SaiWOSXg+i/BXXcVfIzzm58QPleLImk73OjotU8WSMoNprhrwcpdO3Lwzkx1X6Fxy2Uu5pMyxkr+qLr1PBfCnxLjyxhi1mT+8Wyvye4x5llgnCWzOku3wuXiy47qtpfLa+mSTDti3TlT9DX+RGaucndlxcVte/rRXNmU+11syJzdvjtf8iHV1S+4Kv8AG+2PrVhNH5pq/cV8pxoTajtDIv2JeWb2koP3CqS9ELsXn+RP1Sf08h3zjJWml5sgSi6pcCq9rp+5Xzb4aJm+920vugrDLNPE/wA6dOqMscuTuuvpZjywi/qivq8sxSzRhtltLjYp5ba1Em6nFuJjc4yk+xqP+86MPze2W8/o9URNYW77+73YXTO05b7foTOParTf6mB/Le8XTXiyY5En9TdfcLpni/LbsakpbXVepiWSC/xb+Nip5cfd2Ou9rZr0AzWsuNSgrceWjU1+ZYMUpznVK6bMebVx0itxfa/Y8D8S9blqc0sWOTWK96ZLdOvFw3O9vDB1rqmXWaiXy5v5aPI/FXUHg6dlin9UlV2bup1XbB1tFHififWfxE+xvYmE6q+llJx4dmp06a7avc7OPJUdmeb0mVRdWdTBltfmN5492uDL9unVjm9TaxZtkrOVCaZsYpqzjY9Uei6frpY8kWnVH034Y6r/ABOFW+6aVOLPjcMtNUztdJ6pk02SMoyaa9zMuq48/BOTF9vxZMd3Jdt+hmc1f0W0zyHw91zHroRhkajNbbvk9RHJKC+nta9jtLt8Xk4rhdVspTfj9y1jt3KUYmv8yclcpP8AQFPudSbr1ornpm+hO23L3XkbUG/yJL7mONSpRtj7JLZxp+tkRU8WOrihRlOEl2pUSk+5xciZxmtu6wp5OX9VWYoO8lOTkkVLA8lSlJ/uVjxrG/pC9ieRRl9UW14sqUYvePnlGSL7t5R3LuPbykwm2tHE48FzhOrUv0RSXfvv9zCnJSqgeWRZMeSPblrY0ppRk1FJrwmZdTi7V3d1+xpazNijgtNRkl5ZK3jPwwazVww45uoKUeUeC691fJqm4NpQT4Rl+IOsxk5YovZeUzyGt1iUW09zFr6fp+Dp/dWXPqYxbujnz1KbajuYISlllciM0ow2RJHrVPI+WzFdvyYXPuZkjwb09fBNRkQ9hJ7DpvwR6AXFCqx/l+4VLViaLbG4pxtcgQuBNBdbAAV5sOaG0SA+BWMQAnyC2EOn5AbdrwJpUNLbkAJoZkjGK5Ik0+AIaBcDdiVoIHsiS3G1ZPkBr+QUCZVoDG7GkWlZL2AKXkTXoFBwELhg2Da8i87FDooSQEDZLYWS0yhuvA/BKHTAlodhTb3HwBMqHFJ8lpJ8iS3Ant3HQSe+zDxyBNIdJiStl+AadhtoyYc6hzFO/VCmot/QqXo2Y5RaDp5Z8uZS2jFfsY+6Xb4ohIpyjVJNv1BoozaG5Xu0rCOOWR/SiZxknToA/M/pQL6eYmTHFRjba+yYSzbdqigiIza42HJ8E3KuKEoybqmFUt3wkVF9r+li7H5SB45JeaA2Y52opSkv2MNynxTJ7Yxjck2yYyTlUtl7BJA+6wTcefJc1B/kcmzH2tfmYFwypbdib9Ru3z9JNQW9uxSaaT7mAuHyW8qrZGNJt7sr5e/qgJc+7ZKgivUzR+XBfVB39yMk4f4YtP1sCWrdxoW17sqLlz4Gu3/Er+wBHG5J1VGKcXHyjI6v6b/UVb7gY1YkrZll219LlfujDVvcDKsacbTIlib9NiUvcrt3ruCaY+NgabRcsTu/AnB1QGKr2Jki3FJ+oJWEsa7i0KcWkbUsbb+ncxzTb3YTTUlExTRtuN+xinBWVi4tSS34MctzbljTRglBFlcMsa1JpcGGfcjanD0Necdzcry54tdtp2zPgz+LMc4VHd2acpOMrVo3rbhbcLt3sWXazbxZfU89h1dUpHQxahNKmjllg9HHyyuzDJvfg2sWZqS3OPjzJrk2MeazlcXol29T07qM8GSMo5O2SfJ77ofxT39sdRNOXqfI8Wbi2b2n1coS+mRJbHLm9Pjyzu/QOm10Mqi4Si01wjdWVNbRTPi3R/iLPpGu2dx9Gey6Z8V48iiszp+tm5lK+Ry+izw8d3tpQt2lX2FGK5c6a9zR02tx6mKeKdr2ZsRcW7TsryXGzy24ZadOWwTavdpmCM49yvvX6GSoyfLZWdHJOTqNEqD/AMU0vaxzajzuvuQpQvhkFJRX+NifZf15L/QX0d35mvYWRw22bCnL5d3HKv1HGaX5ZRa9jBN40m2mq3ObreqabRq8rkk/YlumscLl2jo5c9N1kivt4OT1TqeLT4XKU4yl6ep5rq/xJilKUdMqi/Pk8vquoSyybnNv9Tncvw9/D6K3vk6fWOr5tZkaf0QXhM5GXIlG47Gnl1anf9TTnqXvbdGX0seOYzUbGbUOSabo52p1CgmtqI1Wddm74OJr9fCP55rg1jjbVyymM7r1+qdPfY8/mmsuWTcqI1nUHk2xrb1NJzvlbns4+PT5nPzzK6jf0+VY81WdjTyg90luebwrdtm9pdUoumy54b8Hp+bpuq9PhyUtjfwZe2jgabUJ1TN/FmPLli+rjlMo+lfCHX1pGsWaVwfCb2PpGj1ks0VLFBSTV7NH590+ocap7nsfhn4pno2sGpbniflvguOXxXh9V6Tq/fg+urLOX5/oXkvsljf0OWTa+KOToeoaTU4E8M4Tm1v2vdG5DNCUajKTl7s2+TcbGzLHPLDubnj/ANKWwsWNRi2lJP1oxxlGcn3Zd/8ALf8AwFj1Eu7tjjk3/qImqqKyd28W1fNhJrG18yMmnwlRklFPE5Tfa/SzGsjn9MWmvH0hGzp8mLuTWXtfozK4yjFyb709/q8mg8Kf1S+XOvTajJiinspuMnxXBUsZ5txXdCNL03YSnOUalH6X7EQlCLXzMrn7rhF5JZEnunj8ECnDtUXJ0vYxS7Y04ScknbTRcacLk2q33ByUrjC79gMk5SilLHB37PZmNTam77oyfMRSjKMaUvHgxxz8VkjfDTkgaZnHG/qU5X7o5+s1eKOmyOU1BQ2k5bfsYOp9Vw6HHKc5xSTq0+T551zrk9bml2yl8tvZGcstPVweny5Lv4bXWet5NQpYYz/ub29zzOozJ33N7bEajNUXTOXqNS0qTOT6+HFMJqN3Jn9GcnrOqrS5blaowZNWknu2cXq+sWTG4J8m8cLaZ5TDG1xfmfXe52dDnTS3OBOPa/zUZNLqXjnUnsezLHcfN4uboy7vW48nBt48m3Jw9PqVJLdG/jzL12PLli+vhnMp2dnT6lwknF1JHvfhj4rWDEsOeCk3spnzHHmXhm5p9R28Pcx3xTl4ceWar9DaPVY9VgjOWfblK6ovPLG044p/Mk96R8i+HviP+HlHHqbnDi3yj6b0bqGi1OGM8eVd69HwdJdvi8/p8uG/w3sEXGF5JSj6qPgzJYmr+ZlfsZE8bd/xDp+JDU8Kml3rfy+CvLaxzyKMfpk7X6maeOoqXc1e9UTPJjx3U/slwTizY7+ptX+wRE5RjJd6tBHPgdqpp+dtjPlcJbVZglKONbqUZeXSaYWd1LNBNNKVFSzwhW8lF+aNb56yJdk0t/8ALyY5zU5xjmyRai7Xaq3BpuTyJTr5yUfVpmq8Wlhk78WaXend1/wMk/lyjfapyXNbGJwjKSUYuD9Xx+4WNiepxZMe7arh7GL5/clHGqX+ZrdhKPyn2NtxluuxWYE4Y828ZzfKUgskZoZ9S005SxxT5fH6GHXS78DyZJ45dm93v+pq9R10MKlHUSUYtWm3Wx88671nvySx6aqT/OnuZuWnfh4LyXt2d3rvxHLF3YcEMc4tU3Lejw2pzSnkbcuTBmzT3blt53NTJqvsznu19bi4ceOajYyZZLd8e/k0cmaTk+10vQxanVNrdfuzm6rXqC5RZja3cpj5dDUaqGCDc5Hlep6n+Iz97e3gx63WTzZOdjUyTdraz1cfH093z+f1HX+2eG/p8vHsb+LKcDHm7ZcbG/gzquUXPE4eb4drFkp/c2ceQ5OHKn5NmGX0ZwuL345bdvT6pwapnq/h/wCIsugyrtae/LPA481eTbxahpo56s8NZYY5zWT7v0/Wfx2FZIZsXdLdqL4OjilGCqeZzl424PiPTOr5tLlU8eRr13Pb9M+JcerhGOplHHJbJpUWZPm8vpMse+Ph7v5cKTklT32NjBGPY1CN+yODpdXN412zXyv8yf8AxNzBqL5yy/Qrx5YV1vojtOFJhOOKLuN9j8epqRzd1K2l609y+/JBXFxa90ac9MqeG6clvwktxrIo1HsafqYcmXJCKdRUnw0iseozRT7pbvlyQNM6yJ/ljt52Fkhtvkai/UxvPk7ac7X2MmJbVJrcJ4Y4TcHWOayLynEqcXSkmkiM/fgeyS+5g+e0+6StLlMLJvuzReSTfc3XsLvp0sc+3y7uzFk1MMdzxTuPLV8HnOt/FWPS2tLNSl5V8Dem8OPLO6kdvX6zDhi3OSxV/m2r9T5/1/rXzc0senl9F7tPk5nWOv6nqDbzS+lcJHDnmW9tNsxctvp8Hpejvk3s+ocU290aOfOaubUXfg5Gu6nixNp5E36ITG3w9OVmM7tvqGqTXJ5vX6lSm0jHrOpPJax2vdnPTbdt7np4+PXevDzc8vbFsYciWZPg7enzXFM862+Wza0ur7Woy4NZ4bTg5ei6r1GDLS3NvDm39jhYNQmjdxZq3vY81xfTxylj0ei1jxzUovdfyPpvwr8URyxhgztRlVWfGsWet1Lc6uh1koNNSpoxN4ufNwY8uOq/QkMnc1Jt77q2Z3kTjaVSR81+GfiZPtxavJ4+ltn0DTzwZ8aljls1u7Osu3w+Xhy4rrJnyS7o90Jbrfi7CGSbVuW1cJGJRUf+znUfVihm3/NF1zSK5aZu5t+P1FKTd/SrWwOUZLaS29RqFRb/ADfZhCfdsqSfsJq0n9V+bdkL5jbjHHde4RyPmnB8NWFKcItpxk+77Exl9VNOPqxaiWWSShI155MuON9z+1BZNs+SM5SuM1T8Wa+bHLtlGckbGPJ3RSnFKTRGRxr6oNTQWXTRhicYtKaftZLfY6c6Zh1uRQTl2tyXsaMNfB6hYkvqaumR1mNvd1E5Php/YuMZp2+DFmg4Yu/ZRa5Rp4sz+ZUpVB7O2CTbptryl9vJGWeKDU2+30bNHq2qhp8EZynH02e54brHxRihhnjxz7ZN7uUuCWunHw5cnh3vif4klFS0+DInezo8FqdW+5ttWzk6zrult3nTl7HC1nX4ytYoyfu9h05ZfD34Tj4Zrbp9W18cUZVM8fqtQ82WU2uR6rPl1Urk6Xoa7xyXuejjwmLy83Jc728F81p7Kjb02u7dpmi4NciUfY3ZK5Y5543ceh0+qjLiVs3seX0PIrui/pbRnhqs0OJs5ZcW/D14er190ewhk3NnHmcfJ5HH1fLFJSimbWHrUb+vG19mcrxZPVj6rjvy9vodfLDJNNr3R9E+GPivBOMMOtlT4Uj4fj61gX+JpfY39N1rT2v75JmOjLH4Tkx4eaa2/TGDU4pxU8TUov3NhZf8sUvufB+jfFs9N2qGpTgvHce46f8AHGlniisr7p+zLMvy+byeizx+3u97PK3JpxS25Q6kqdNx9TmaHqen1uFZIZ8d1wpKzdhqYQj/AHk6XuaeW42dl5eLY4ZFt/Qz4Xgy7Ltk37mdaaFO8bfuVjf5ayaS2W/oO0rav7GRYUpPtjTHKLi/qa9Ngm2BZGvDob7ZfUopP0HlTxv8to1NVq8enj3TpRfqRqTfhmlljF2+PRGLPNZP7zHKmvDZyNR1XRwuWPMnH3Z5Xr3xVhinDTT+r1bJbHfj4Ms72j1PUutY9Pjl86aUlt9zwHXOvy1Mmsf0Q+55/qHW8med5Mlr7nH1PUIO25x/cxbb4fS4fTY8fet3VaxSk33Wzm5JfMk3J7I1MvUMK4krNPL1LuVQTNTCu9yjqTzdkXRoZNR3SpHPlnyZHzSM2K1V7nSY6SXdbuKTZsxvY18UbSaRsQ2ZivbxxsY42uCt068ew4R+m1uWu1J29yO0TxGyVV7hJtvYmmGmSW0dkQ5UgttUTRA7DwNVW6srxtEKi9hF9kr4JoBIEW6qkr9ye11dANJDk74JUZPhB2vyAlyOVLgVUOrVtgJybCLoqMb4WwSivAQpO+ETRXK5FIA38B229ybpjbvyAbWH6Ak0U4urAXckKTsKX6iSfqAkD4KrxYu3cCGhpF0l4BP2AXAdwS53BMCat2OSG37kt+oQVsLegux0wEkXSe/JDHvWxQPnYlstU1xuJw9wMe7Y2mWopcsGBHAclqrE2lwwO9BTlUu219h13XtFfqY4vtaUpSr0QskoX9Hd+odNJkkmZcXyo/mjf6mOSumo0VKSkklBJgVP+8f93Gl9zHPHOD+pGR4JwSck0hOlvd/cJ/xEK3u79i8UXfco8exj799v2NnHnUI/md+iBVSypv65JL2iY5tSpxk3+hOaSm7jj7V+5kwyxpU3Pu8VVA1phap3KypSx0lGU39zO4Jb5FGba2Xfwa2WKg+F+m4Jdk0m9m69zPjhHt+qUF91uYIydNp0h41knK3BziuaBWVRSi5XG/Zk/Q2rsJyhOVRxqH2Ymlf1TSQE5ZJuot17omEVJ7ui8scSf0ZHJfajH+5FbUOn5JNO4V7zSMWbH8mVST/cMeWUXez+6DueRPZWvJWe6bi47xd/cxtb7maOLu/NKEfuycmJY9++MvswrHC7pGWmv8USsVJf9mn92TN9qacEgIb/AFCLpflsV34otxgo7St+iCilJ0o02S8cU33yr7Cabe1t+gNdq+rZhEqDfCsK9tw2fA0pu1Hf9AK75Ri4+PsY0rVvgupNW2OPYlUot/YDAo3JJbe7L7FCdWnXlbmXHic7l2vtXJM2lLZMGmKbbezIktvy7mVpt2thdr+7CaYFFPd3+hDxp+HRuJdsd47jjp5ySl27Pj3Cac+WNJswvEpPg6k8LjJrKmmQsavjYJ0yuZPBtSRgnpb8Hb+XFvwl7mLJjXkbYvFK4OTSvwauXSt/4T0WTAmtm7MUtPao1M65ZemleZnpJK6iyFhyxe1npXpItc7kPRJ/4jU5HG+i/DhRzZoco2Mevp/VF2dL+Bi9u2UmRLpOR/lgOrGs/p+THxWHD1CF8tfc3sWvxtr6kaculTrfYwS6dNMzZjWpjy4/DvY9ctqkbeLqDh+WTv7nmY6HKvyyd+zK/hNbBWpSpe5m4S/Le8vnF73p/X8+n7ezK17NnqdF8aZIKPfX6Hxd/wAbDici8eo6gv8A2jHRZ4rjnxYZ/di+94vjXDNJTUqXnmjdw/E+jybrNCL9JWfnv+O6hFfn/wDCUup9SqlN/ohrJ576Lj+JX6H/AOk+g7kssl2+sWUvinpcbazS+ziz87/x3VXu8jX/ALpL6h1OPGWTf2Lqs/ocP5ff9T8Y4E2sSjNeHVM5+b46qMovBFPw7Phc9f1LJznmhKXUGv8A5xkr7k6b+W8fScc/xtfVtb8U6jK5PulGLfFnH1XVcmaPdnzvsX+aXB89li1k93mm37yZhnpc8n/eSk/1snt7813mHR9uD2mo6xpk3efHX3NDUdf0i2+Zf+6jzkenWrb3Kj0136lnHj+W/wCr8Rv5viHHv8rHKXp4NPL17UzT7MUV/MuPS7/w7lrprXFG5MIzeLmycjNqtXqG1Kcq9FsYFppy/NZ6XF0yfb3OCa9Sno4rmJr3JPDn+iyy75V5daZp8OjYx6VS/NFUd5aTG3VOx/wKvyi+6T0DzmbSuD+h2jA8M0+Geoeij4Il0+T/AMDoTlZvoL8PO4suXE/LXozfw9RUWu+LRvS6a63pIw5OnR9WLnjfJPTcvH9rZ0/Ucb5mv1Ojp9dCVOMk0cD/AGcvUn+ByR/7NtGLjjXXHLlnmPoPRutS0uRSjK16WfQ+h/FOm1ShjnKGGXlvh/qfn7HDWYdoSaX3NrH1DqOOKSyV+gmOvFcuXix5fullfp/SarS5nePNCU/9JvvLjyWozTkvRH5h0PxR1jRy7sU91wdSH4jfEUUo/Nh2+nYt/wBS6eHP0V32r9Cd0ITalxW8luE5RxxXy5Tn7pUfn1fiT8RRf05Ixh6RibeP8UOtrGo9kb8uiaZ/R5/l99ipTjHJCK7eG5LkpxUatTry3E+BYPxR6ribUod8Hv22Z8/4r9UnjcI46i15Gk/RZ78x93yZFF0+PDapFr68LUoqmtmvB+e1+J3Vu2pw+Yv9bujd0f4s9VxSrNo8WTFx29zQ0l9FnPD7ngUKl2P/AL+9kZnCMO5ZOz3PiOX8VNXLuePRqLfC7tkcjV/iF1bUyacXGD/wxlsTVax9Fnb3r7dquvafTJrLmW3p5PKdc+KseaLhpIqEk/zryfJ9R8SavLJt42/uzRl1nWye0YpvzRnpyr2cfpOPC7vd7vVa6WaTllyOT9WzmZ9ZGPDs8lPWdQmtp19ka7jqsu055GhOP816d68R6LU9Ugk1OaX6nH1XVse6i3L2Rp/7OlLm79zNDpMu3ubjS9zcxxjN93LxGhqNfmy7QXajUjjySblK2zvR0NL8jfukEdHFt8pnSZyeHHL0ueXmuJLBKXKME8VOqPSPp9q1dfYxT0Vf/uL7rN9Fk4WKc8b+ls3sPUJx/NH9jYyaON0luJ9O24Fyxvkx4OTD7WXD1LE+X2/c6GHX4pJVNfucWehlxGJH8DlUqcWjFwxrtM+XHzNvU49VdVJUdjpPWs+gyqeKbR8/lp8sFs5KvcIS1C/Lkn+5j2p8Vq8tvbLF996J8X6bU1HX5ZQkuJcnrodS0OTBHLHVYpJ8H5ew63XYuMjf3NyHXeo4ltKP7F6a8mfpuPPvNx+k83U9Nj3UsDXiSRkw9R02eLazQT8pKj84R+Ker9ig8txXCfBX/SvqahUlBv1oarn+kx/L9Fz6vhwqoZIy233powx+INLOHbmzpSvzI/OsfibqCls0k34Mj+JNRKTc8bk35b3Gqs9Jx/NfofPGObDJ4m8i5+l7mjpZ5dPknLM4uHjulVHxPQ/FXyFJ5Mefu9ITpNe5mn8ZRlX/AFOTS8OVk1fwv6bXbb7lg6tpMudvHk7ZJU0nf9DayahZl2rVxjHmqa/mfAF8aahP+703y4rhJl5PjrqGSHZ3T7fCcuC6rN9JN9q+55uuYdDBN6iMu17xT8Hn+tfGKwyc9PJSTVqz47n+JNdmcm4tt+5zsvU9dPbZfoZ6cq64+l48e97vd9Z+I8/UWvn0oriuUcSetjHbj3PMPNrcnMpfsRLFqJ/mlLce3+a9UvTNY4u3n6gk7czQy9Txq2p37I046OT5dmRdPbqotmpjjCzkviMOo6lkybRT/VmjP5mR/U2dhaBxdOFP7GVaCSaU4OP3NzLGeHK+m5M/ucL5EpITwOPK3O/LQ0k047+5kj0/J2xuDp8bcl91P0VeaeCT8EvFKD8npJ6DxTT9zBLRV4THuM30VcfHmyQ5Vmxg1Xa33925uvRKXj9iJ6BrdRdDqxqz0/Jj4Xi1MX/iVGzjzrw00aC0d8WH8HkjvFv9DFmNdZ7k+HYxanejcx6xwapnm1i1Ed+6X6lwy6lbc/oZvHK1OS/Me10HxDqcEliUpPHV7vY9P034vnGMI5GqW3ufKY6nNB24WZY9Rypr+7f6Gei/DOWGGX3R9wxfFGOSqM5W+H22dHD1+M1/eTivuj4bpOt5sL3hkr2N2PxTOD/7OdDWThl6XC+H3LTdWhmjXd9Xj0N3Ta/5n05ZpvwlsfCofGeVKscJx90J/GepUk+3K/1oarlfR78V97epxYnbyxt+pj1PUtFhipz1eON/4Xyj4LqfjDW5E+yOVNryzzWv1uu1mXuyajN9nI1JaxfRWd9v0dl+JdHiVrUQye/JwupfFunj3fJt34s+KabqGr0+BQjckvLdkT1+uyu/mON+hLjXfD0mGPevonUfiPU6lSj8zth4S2PP6rqGOFvLlgvuzymT+KnvLLJ/qYo6PLk3fcx0fmvVjOntji7mo61p1xkcn7HMzdck2/lY/wBWYo9NycuOxcdBvxuakwhcOXLx2aWfXarP3KUtn4WxpvDJu2mehh0+aVrGqG9HvTqzczk8Od9Jll5rzy0zZlWlpbpndWidPtS2HHSTlw4/qPcWei089PTvimYngknwz0s9JJ8037GKWkXmLse4zfRVwY/Mx8No2MWvzQ22Z1Hor/w7GDJ0++Eh1y+T9NyYfaWLqlfng/0Zvafq+Dbuk190c9aCa/wuif4By8UZswrpjOaPSYOt4IyVZUj2fw38c6fR9sNRljOHr3bo+TPQ5FwkxrRZEvysnRjPFTPHLkmssX6T0Hxj0PVQqWsx4nzcpV+4tT8Y9K0eVyhqdPOL22yJ2fm1aXJdKLf6A9JNfmg1+hdT8vJ+i7+H6Lh+JPRIPtzZsa9isP4jfDk5u9VFRW22x+cXpJeC46GbRe35P0MviP0F1D8QOhLfTdQx9yfF0c7N+J3TNLPH8zPDUQk6axXKUT4d/Aze2wf7Pn6P9B+1qeisnh95034n9BzYsiy6nJHtVpShXcc7N+KHSZ6Gc455rJHaOJ43b/4HxZaOSdNS/YtdPlLgftJ6L8R9Uwfizpo4ZOcM/wA2P5U42mv+Blyfir0/NiU/laiGbhxS2/c+UPpWSttyV0+SdNbj9rX6O78PcR/FXWRyZO/R48kHajcqdGXH+KGOWGSz9JubTpwzUk/Hg8J/s2XiNlLp03t2NDeLX6PJ1tb8fdZ1E2seSOLFe0Fbr9TX/wCmnW/lyhLUKcZKqkrr7Gvj6XGvqlX6A+mRv6W/vQ6sfw6T0mbQy9U6hmb+Zqsrv/UacllyP6pyb93Z3odNST7l/IqPT8bfBfck8Nfo8r5edWnnd0ZoaVyPQ/wUY8QM2LQuabUFS5J7jU9Fp56Ojb8Mv+DS3aZ6CemhBLtlFt8peCI6SeSVRT/YnuV0/RxwXpV4ixfwaatKj0b0Mo/md7+EH8Ora3r3iOun6OPMvQurMUtC/B6h6aEpJd1e7MeXS9sqik16oe5Uvoo8tLRzj4bJell/lZ6uGncmlZeXSY4/TBNy82X3WL6CPHvTSXhh/Dy9Geuj07v2cIpv1YS6T2uqi37Ox7rP6B5D5cl6ovHLNBpwnJP2Z6d9O7X9eNtL2Kx9NjN7RS92X3Sehvw4uHq/U8LvHqcsfszazfEvW80FGevz0uKlR0v9lY/M4/sQukVKobr7E65+C+jyvmuZH4h6xHJGa6hqlKPFZGep0X4o/E+lwLFj1akkqucbZzo9HuXb2/yHk6Gk6Ur+yHuT8JfQ77V6XTfjL8R48ajmx6bK15cGmzBrPxW6vqlJzhHE/Cx7I4MOg+Z3GPrQ5dFxp1Gn+hOqfhJ9Pku9Iz/HPxJllLs6nqYRbtRjLg50uv8AV55HPLrdRkk/80mzpronNKqMq6Q4wvtr7jrn4dMfRdN24GTqvUpfmz5f3NVz1GSVvJNt+rPULp+Ot5JP2RGTpsVuk9+GOufh0vpb+Xm3jzy5lJ/qVHS5JcpnosekUXvX6oyfwU2rj219ye41PST5eehoq5M0dIl4TO1HTRr6mm0VDFu3GCaXqTrrc9PI5ENPH/KZoYV6HR+RJ26jsCjGPlMnU6zika8MbSqjLGOy2/UzR7JS+ptIUpJP6JOvcjcxS9ktwju9wpN22HD2DWjcWrCDp78FNyatpUTCKb3ZAedtgnFpK/IfTF7WwlNtflCiMU16A24vkV36lRkkqa/kAu/7jUo1e1kzSu4k2q4ArvfhbB8xiT9Uwc62WwGWGWvIss+7ejC91djj9rCM2PFLLFuEHKlbSVmJzrZJF49Tlwp/Kk42quOxj7rdtFO5K2/QTbRTtii0nurIoVUNRT3bSE3vwKqCGu30YqqWyHt6h3P9AptVvsJzbVeBN93Iq9whpXxwVUa3uxJ0E5X4ATp8WJR9SoySBu/AClS/KxU65GlXkl+zATVFRa9BqNvdpfcIRt0gJ3fgJL1KnGUJNbponnncIPpXAluNtegLbewE6TKTsmTsW4FO65BEqLf2GtgKcV67ifFUF+iId3uBXbXgml6MutuRJvxuB2ss+78ySfsiYptWgnJum7Kjik1aTSK6J751SexWPucvy9z+xcHGC4VmXBqI43fzckZf6IhLVYZJzUcix4/eaZeXT6em46rHOXpGLRjzzwTuSyZXL/WuTXgpN3Eqat7qy4XCX0NTT8xRi7W/zRZuOeXHHbUK3zFGtkyTa+qTbIs2UsmRJK32k33eompTpW2zPixqO0039mF8JljaSbpL7jco9qgp/T52MuTBHbtVfeSZi1EtorthGvMfISd2KUknaSaKU2otW0n6MzYpY543GeWMF6KN2a8kk3T7kFJTmpWmV+bebBSqP5V9xRg8kqVX7sKyRmlax41JerRcskMkPrdSXiMUkYP+zfa5OvYuM4LnHa+4ZTKSUV22TEzzxtw7oqMY+nduY8Ubmu6agr5rgKhwa3e33KULa7fqKzpKT/vVNLh+oo5JSj2xjH9FuBU+6D7XGmQ4928pfubFSxdjlGn7vknUZ1mmm4JL0iE2wxj3bL+ZWTE8Vd3a2/R2VOMox7nhlGD4ckYvHda+wU5JKu1SstYk4qUpxbbrtvcqGRSr5jaS9ELux790ZSf3CMv8F3K45MS9pTSZjyYsmBbZItP/ACSswycXso0OEpY5bbP7A1U03JUZ4Rlij3TxQkn/AJmY3k3bkrsP9Sj9IGVzWeUYrHiwpeU2RmxRil/eQf2YlKCyJu3HzRkz/LnJuMZqHju5B4azhvsy+ztklkTX9TJFQx04/W/Tgc+6b2huwbY8jg9k5e1l/K7Um5Kn6PcxThKMl3rcyKMK3bApSwtv6JfrIyxWyWnxzvza7jHGeOE1UVNe5eHVZoSrDknD0UXQTV+GLUQy3c4NfeNGGMVf1bL7G5klrNSvqeXLFetujHGE6p1H7gnjux3DdpfyMbzPvT7INJUl2mwsPZUm4uL8WEcklP8Au4pP2jZFabj8ybfy19ki8WGHe1kXabupy5MsV8y0+OEjFixNST74y9mwrHkxY/8A2clfsiIaacmtm/ubSg+9pRj3PyOWKadymn7WETPC413YcdeiZOXRKcFKscfa9zewxxuH04rmv8Xdx+hl78UrWaM20tqdFYtcnFoY9rrG5SXlMfyMcd+1uXozo/T3KOP6Y+bZmWnwQk3KUpe8UNJctOXj0Cyu51BfYa6XGDc8c47ex1cEISlTja9zY+m04xjXsNM3Pu4+DQRcW8kIS9LB6DGpXBRX2Om7tq1+pTxLt44Gk6nG/wBm5JT5VGwun4/lyhLDGUv81nTxwXypJtL9CVFST3pjR1uRHpenWzxycl6Clo3BNYsaUfdbnZeGMWrbt+hSa7S6OtwoaFc5MUZR9mYtVosN/wB3gcPu7O+sPzZNY6r3ZObE4UnGHd7OyaWZzbz60kFBXCP7CloYNr5crZ3Xjk01UVRgyaZKVzTi3/lZNNzOOdDRZe1N9navVhm0qSTeFRi/8SZ0FpZSdpxaSv6nRgmmtmkFl20JYoxvttr0Ym/p7XGk+djozcIpdquX2IzvLlgk47L0VEa20I6SEouSywj/AKXyP5UKacVa9PJtrS4lBN5Jqfp2lY01vFJpeWqKOVPCvCZa0uWUV9Mq+2x03CWojJ1BPm7M+mwT+T/epdl7yc6/kNFsjjLSJL6p1L0aMuPS4JJvK3Xjto6Oq0uKbTwVL15r+ZC0aivqcYv72NJuWNPDpVKTWOCa9XC6KloIcqpP/KotG9ixZu1vDH6fLvky4sGoUe6Sl2vyVm2OVk6U5JTnglCDXPqR/sfHKqm/tXB38aTg4uCcnw2+AhFwbv8AkGOpwodLhjTuEZoF0rDPnHR38cKjLa2/UJOopSTX6BNvPZ+hY1HuxS7n6UY8fTIyVTjS+x6nCoXcpKuOBLHiUpd0JS9GnRdJ1a+HmMfRMayd0aftIyvpUkmoYsUn9j0fbFN1FfZjwxtT7qjXF+RpOqfh5RdOvJWTH2/ZGeHRNNLIlNOUfbY9FPGpKqX3omEFHeuP3GltljhajoOmU6x4pRXu7ZGb4fxY4xlinNvz3RpI9I4xUk1bf9DHkblacnXuEn/Hnl0jth9Tg/tyYpaDsltCP3aPQzwxSVeTF2Sv2Mukscb/AGekl3uG/o7COkik1jlb9KO7LDFOM4QcV63Ziz6eXe5dri17FWZRxcWCSku7H3L3RleGDi1JKHojqJyVXmlBPZtIxT08cmdLBlWR+HJdtkXs5uPHlwyvTTabJelyd1zjGV78nW7JQyv5nyLX+bdfyMeaE8kPox41/uKgsaebp8/kvItJlUavuvajV+Q/l/VBR9LXJvwwyhG86y+y8MrC8bm33diS2Ul3BY0cHT1kg5/Li1dX3JGvPTSjK+36b28nZWPDlXbjwZZZfZ7fsa6001P6vo+4JJ8tJ43J2oQVekR5NBicFk+enN8xp2jdyX3KO00lWyM2HRd7TUUm+FJ0Esjjvp0FFSlK0P8AgMCT+mTXhpHdniq044k14SsnHic12yjdcb8FZ1j+HIh0rBJ7PJ2Vz2rkWTpEHScXfueglpouUIwjVre5AtNGMt25JDuzrFxf9lYlBf3cIr/eNPP0hzl9GNJeEmesjKMecWJvw3EUlUVFwiv03Kzqfh5zSdCfypTnjk0uWq2JzdLwRtVJb+UeoisMofXCTftKlRGTHh70vltKuL8hJr8PJy6LB/klZcOkRhzONfY9L/DRS7qasI44VXZb9WxurrH4jgT6JinG/mQTrbcw4ui9srSU9vB6l44QcXKGN/qRkxdytJL7A1j508zHpvbNrInD9DIumyntip/fY76xRq5pt/ciUUku0jUkcWHSst1KNr78BPR/LuLhGXudaWKTpu0vDoiGGEov5k5Rr2sNSRxlpIydpNP0ozYtI5VCMZ9z8UdiEdPDGmsq7/NRZr54Jy+jM5+7VEWaaU9NlhCV4toveVbmL5cJRbyZJqS4VWdCMcso9sI2zXenk5/3n035C6aMNLPJL6Vf3M708oqpziq9+DeTjp5Xil8zbnt/5lY9TqFB9mLDKK3beNMJpoRisd0seT3ki8UnKTSw4f8AucGb52ZSpUv/AHQWOCfdPIm/RIbXTW/goTyfTLufpCJMtNCG0oz25N15IpNQXauU63KxxeSNd2NJeWDTlrTwb+lbXwbK0SjjU3CLT9XubUcUMU39SnL0Rkbi/wAke2Xu7CWRznpe9X8hV9nuD0UFj7u3t9qOnLvj+bLfsmZYweSH1q17srNxjkY9FjbX07fzL/gse9Rla4o60scVBdqin7IayT7exRil7IJZHH/2ZkyStKl7mT/ZVLtyY4N+vodiOOK/N+7LeOP5nYZ7OF/srGn9ME39zIumwSueNr7HXUUuIp+hlaeVJKPaBwf9nY5zSfcvQy/7OUFUZS289tnccIKC7V9S2Zjim5ONunz7l0nlyZdPi4LtfcnzcaIfS8Sk3JKX2Oz8lRvvfbXG3JjdQ3grfqFchaWEYzjHBFvw2uDHHDS7ZXCL9DqzuUnu0yJwSVUrXJG45U9JFyfy5Sl+hleLJixKLwx33UnHc38eFpdyl2q6tGLUObyJRnKa4TZF/hoJJQacX3WKGnU203XudCE54v8ACu7zcUyIylBuUY/dhWll08McmoZe/wDSjJjx44xqemeSXtKjYnOOWV/Lf7mJd0Z3Byj72F0xLBjkpVgmm/y0+DC8UVLdPbwzdjOCfM5MzYoTyOXytLGbrnminhzJ4u/iKS9jLHS4oQuWR93p2m7k0WpjNfNwOP8ApQsWKMsjU4tNPyyHa9414Qx1XanW+8eTJh6fLVSfbjjsrpbG3LNPG+3HtBPikxKnJydtsrNjRyaGWGfZLEk/R8j/AIJylUl2r0Ruwj9ac728s2Z40948MHhy5aGMY/3UpOfpQ8fT8irvgt/MjrYYKLUV3JejRlnGWWW7b+40xctOZj6fFXUIza5sn/Z7nkaeOMf9060UsdKSVPyxdjvuUlRdJ1OY+m48U2uxOXv4EtH4cox+0TqZK9FdBDePG/2ITJyY6LBbeRTmyo9Px/U442kdqeDG8Dyy1OKElssVPuf8qNWlTS4KTLbnLSLhvYzY9FihuoYm/fc2uz1qgxuNtSjfgkW1oPTpb9sH7UT8m7uCOmoLvf0LZcPyYoxXc7aXsFmTSjhhC9n9iY44dz7cf7m92RT9xOK8bBdtSOlnl4Ua93Riy6PsbtJ+yOlLG5raqSMdR7PpcrBMnJjimpUl+5nji712yfa/ZG867UlKr5tGPJjtbb0uaoNbaUsMMUk19T8qSFig++4ynH/dM3bJPlUUuxL6JzUm964IrXyw7Xac362PHhlNXbivuZFDLHJ3RTaXlk5HktfMWz9gpLTxhO2oyS9WTkhKc5OCjGPPansjP8qsW+J78OxfKjj/AO0T7vSwIeGGOEW1cvKoJ4VP8kFdeAnJt/TGkZ4wm4/mjFP12A05Ye2dPuT9zYhOo7NqinFRtS+qXhoy4sMZQUnLf7BLWF92TzLf1MsNPX5oqvcqKTkt0q8Geb2aRWbWCscdlhjdmZwi+19kUuaHjgu1qTd8j7atb0GLWNqKlbVfYvtjJNxpIc8jUV2pX7krL2txmknyVVJdy7d5UKcGq2dhDLf+D9UxuXbKk275IjHkjT/NuKGH5n55KMXyypwSSnGyk241GO9eoN9mLLpseFd0W5b0rRE03zwis0ZPIop+BKD/ACza9nYWX8td4lN+CPlRjakt78M2Oy4tp016mKS225DW2NY+xPtjF368i+W4puXb+5kjdX23RjyfW97v1IrXcYOTUnX2G8eOMk43Je6LlijW0t/caaUN+1v3ConKGzUYmGX1PZUZ3DvjaaXshQg93tt7hWFQTe7ouoRTSd7ehcu3zFthNpRX92l72Ua7psqMFVuSXsyu3Hu3J342MsJWqWPG/dgYMi2VV+g0qxu6Vb7mRyjGLVRv1IkrjbYGOLd7Db7vASarZbgm5NJkB2SfijG1RlUkpbtkStyYBjVvlJe4Om9tx9qr6mxqC8XsAliuN2NY5UXCcYv8jkvuDcv8riijCnT9SmrTkkkiu2Md33NfYmU09kkQTKV8Kh9rrdoE0t6sTacrql7ALjkLT8CW7MrglHe7fsBiaQJV5G1XKCXb4sCW2UkuWheNioNcsAdPiLJpp7l8u1SG0nezcvUCe299/wBCWkvDLTyRVJtRFJt87hGPyXcUt0Km/AnS8AEt1sOPdyg764SHUq4tADk+3lig4p7qwcnf/Mlx2sC5ST4SMXkrhcDWzAVe4K3xRl7e6OybolQtWtiie3zZVtLZJkSjvuxwlKD+l0QD7nzsTtfFlvLJv6m2C3VqJRMY78FSSS2bsmOScW1Fv9Al3LeSf6kR38+WUpduRRVf5USp+O1yXi2XLDidf3try6Mc8co8O4+pW5pChK3KthZZudVBRr0HBOvqexk7VD8s0/sgrDwuDJhgsl92WMK9RZXOTt/0MaUV+YHwqa7Xs7Mve1BVCF+tGKfYl9Dd+5CfDA3MmuzzwrFLsUVxUUjAsblX1xt+48uWMoJKCTrlExUOx33dwSTXhTh2Sa/N9mL53j5cTHd8J2UkudgqZ23vGkOCp+5WVp8XVERXoFjNKGSae8aS9THjVppJuvQHCNbSuT8GTGp4rtSSfjiwjXlHf2C26NzKoQjGTh+ZWtzBcWm1S9iEpRwydOnTMi7ccX3QlfjcJSyOCrI69CMU33/Wu9e7KIf1eNjL8jJjSmotr1rYy5V8uGyivSmTHVZ5w+VLLLs9L2Gk3b4N6ipLuxQlXqjDkyfMydyio+0S8mGCh3fMTlfBjxdql9abXsCaZZTllUYuc2vd2JQjCSeSLknwroH2S2ipITqGRXFtejAzywxUHP5TUfH1cGPFkhFOsXc/Wxd8HJuUW0+EnwTKM4rugpKINfkfLnXf20i8Ucii38pST8tGCNvmwlKSdJuvQLpszwzlc3CMUvCNedX2xbS9zJcexOLuXuTCEpO64CQp4+yfb3KX2LVqNybdcLwYpdzkzPHHNL6lKvsCsXzJOVxpfY3IaXLLH82U8bi/DyJMxxd45Q7opfYhLH8t920wl/hklihFPu7bfDUuDFLHBK/mJvwkjFXvubCUFiqXPqF8FijOFShFfdoWp73Lun2p/wCnYXbf5ZNomcYx4lbB8ssMlY+2OWa/0rgh4cmTdJ0Y8dtvt5NiMEo3knJP0CXsxY28c94qVeGZsTyZpuOKEYtvhbIxwnJN9ispYs0o9yi69QUskMkZyjkbk/Z2XpkotuVr9DJgyywy7V3R9UXqcmOUKhCcb5cndhN3w18tSncGx4oXL6tvuZcUH2q69ipQd3LlE0b+FtKMdufRFRjFpSVt87ji7xNRdIMLbdNbepXMYqnkacKf8jbinGGzRhyJQX0y7W1yLHkkl/eRTrhryVm9/BuThJbqn7GZtQh3KmYoZIZ32NODLeKXCla4CX+SjUt3LtbfCZminGNubl7Ua/bLE25Qt+GjIpfNx2m4+tiJVKHe7Vp/ceO4xkpO37ktxgvpScvWxRmoO8j5AqTls3Y5RqX5u61z4Jllcv8As2t+AU8kXTitwdyxptNNfqyON29zLFTUX3cMxvslF1yvUEpLJ2ttxjK/Uwzj3zbjtfguP1bqtiZNxlUl9XoRuF2JNdzd+wY8E8smsa7mvUMnYq7G23z7CjunboLupzY1HbJFKfoibTjSjK/WzNHDjnX1yUvRRswZ8bhNxtqvVUNNS77MTk013SafoVLuyO/mJ7eUOMVT75R/UMfYp/RljFV5Iu2F403W1/c2oShja7uxVvfbbMSkoSk/pk75ZDk5PucNkFvduyy4MkblOd+agkjF3YqSSvfyTjy3HsUYpPzQ3241s7lfFFY1o8meKncIKMfRGaSTxpp036GKC7n3/wAqLkpOnBhKrBcU++l5syO5Rv19BSlFJWv5CdS+mM/2Kz57hOMXTyNGZ3JWlbMF/Ll/ervi/JlhLG4uUXUfQJRO1f0x9i4TuO8e1mOVZFvG/sSoygn2xbVeoT4XKsmWo8+TLH6YbdzfmzBhffv3qMlymXlc3KoT/YF/C8smu3ak/JElBr6W79g+ZOlcVKPljcUl3Sl23wipOwSlFfXJV77DlFJb0/sJ3NO49zZMW4v/ALOyCaVt77cWJ219auPojNl7ezuexjU5ScfpqPsgsu2KS35r2ZlhKEo/LcIuS3cpSDL2pt1fmjXuN/TaZGvIf1R7JSfauIpWa04YlCoKXd63sZ5SfhbEx7e5KUb9d+Q3GpNyXivsPG55FSySi/d0jbWVQzOeLHGK8KS7l/MjUZnPdvHb9I0RrdYm5Y7ilDI/WzF83PGS+XBJ+0QyYZyXde/sRCeeEWoSl2+QrbhLI2pSjLv87cGR/MjGUsih9frHj7GDDnba70m/d8my86licf4bFa/xb2Vm7Rl7Y4oKDx35cU7/AFJxRjJL5krZEFG/qXPgztR7fpVMF7MPYoTtN7m5i/LTukvQ11Fp242Z7UVG2k5K6DOV2EowUZXJvz7GWEk4tLf03InGShaqiIPsfdKNOuUGfLJlVtuK+lerCL713Sv9xymu1926Y8dwjL5T/u36oqfDH2qMvpew5VPH3OqTpsbyp7OCTb4XAZI1UaivWwKlKXy6U5OPpexhilGfc068lpqMaUW0ie5uarbzTCwPtq27TLx5pxwyjBtR8oTlH6u5beKfBDlBpxx/S3zuE1sUlVtNvwTsrXn1oeKVOpJX6mTv+p3G0RfDBktxjTpeERFzjajab2ZtZXjeL6Y9sk+buzD2dyvuS/ULK1ZYFdu0ZVPGoRi+y0/8m7CnK3fHqT2dy+mNy9Q2U8Sabcuzyl2vcw7tOKjfuy5Tl/mk2vUcZ/54KT9yKwwxxp92SnWyQYsaal3Tp+F6mxLCvl984wSfCjLdGrFJcNhZdpxd3zO1yit/8RWaMcc7i4ZPVrgyx+ZlnGMYw7n5ewZcKgryNd9/4XYNsL1DyR7Vhx17R3KwKKUnkitvDH3z4xpK/Qc4dq+uTcvQCtPCOecnF48Vf5r3MyxQUtlbvdp7GtjTUvRGxicMc09pP/K+AzVZscfm7STj4CONLht34M8bmkowSb4ryLD9MpdzqS2aKzsRl2RpL7ik3OLjGTiyo1KVxe6fA8uRxauNpeEETDa1lkmZe2CX+nxZjeW4qSUbT4Y4ZHL6lC7/AJBLsfLcpWoqvVGWUnCKqNp+GGVPan2t8k1kSSnuvVBN7Upzj/gUgcW4qTbXtRjlGXbdSafuVGFQuTlH7solqUm7tr3CWJNOk37oeRK1LvcUyJNwSl3tJ+UFicaqO+4pwt35MkYY201LfnkTgpTk7e3n1Iu2BxkvDMc4KSb4ZtzblXhpVt5NeUW+NgsrDGLV2zI1GP1OUZX4Du7U1tuuQWaaSSUaSrjkkaY1hWSb7HCNK95URLDOTXy5JL/VJI2cWDDOPdkzwi3/AIWmDx41dwU01tTexdG2k+5RcUo9z8oeLHKL+tyfsi5QjKWyUV9ypxhFNRuTrmw1s45YQbXypSl7yMco9zcnFx32RUPoi3OL7vFlQc801HhP14CMuOUViSdtv0CDnj3cdntZsTxLFFQjKMpV/hdijGTfbN1IaY6hp1GVK7+64La+UlUW4vgnSpw71K69TJ3wn9LvbhWVm+V/KkoqSn2v3BZFGLSatfzJjuuHfuY4JSmu6Xb7NBP+sqi5Jd9dr9PAlBQnUefcpLtUlKOy43JhBTblk7UvG4TYSSl9Xnz4CKt/T3JLyLldsE/3LwxcFJJpr0bAhx+XdRu99xX3RtbS9CpKfcnV2L6q/KohUpvuqTVfYzY88sX/AGfbF+JUrIjODaT5fsTKNTX02gl1fJTyZZTubuya7nTjuy+5qW9KI8mZpxfapJcUFYUlum/yjyxc0pRltVcUiss3NufbUn4oxPuX6+AsTkbUF6WNxUoXH8xliv7tptK1uYoq2+x16kXaG1W6SYpOUbXdt7MyJRUvrVvyYZP6pJL6b2QaiMiXba3foYorHKaTbhH1W9GworZ/m80Yprul+VbhZWPPGs3bjySnD1aon8s+e7byZJwSdSVv2ZPZG00qa5TCwdk2m1x9wWOXLdL3LnNtKoxivbyTBTXKYXbPgnihKssZteaaRbi8zq4147pGrNNy33Mne4pKGzoM2MkMVSqUo/ct4kknHJHfwjFjX0Xu5ehkduP+VhLTxxuStKyqvL9LTXlGGDk79I8y9DK8fysndiyxn5dFSpnGan9Sr7A3Ndq3tvyTklf55P8ARcGSNKPcp91bkQTajKKlJBmjGUO5V+xjtydyit/UuEJ1UJJLzQDxSk4fTVr1VCzKHam2nN+gszUUsfcpezHhi9l2tBP5LDljXa4ty9y83claSSRM578W14RFqcex90fIXXyyY527kqTDI08nbHaHHd27mBxnSptxXqTJT74qSt8pJg0eVd1pzdXtfkjlbMy/3cmvmKn6Mx5UlOTUe1J7Kw1GPutUmTX1XF00Nu3bjt7E0rpWg0mTdvuVvyKEJTdwXBeSbiuES5fMqkoqvABOKhy33fcwWu73MkuK8+ofK3vgisclKSv+gpY8kY90ouvVozW1HtTftRjyynXbKcml4sqsdd1bpMc8VK+6L/UI0uNyoPEsn95B16JkDxJSjJPGpOtrdGF2ubNvUT08sdYcMoT9e6zWeOXZ3XsEid652YqfbafA06VMTTppcBQlb3BtrZoy4cdq32tL1dEOH1egCgk39VopqEW0279iZqq3bJVJ7gZXLH21Hvv+RjcpN8ujJHtb2smUWr+pfuUS5fTTTI2+xSjLlblOM8kt1v8AsQS3eydh2yCoxvemhxuUq5Ajgfc3S7mZJRk3dL+hireqAcqr81kclvbkUntsqAUUn5B/YEqZddyVXYERTbKlaew1F7/VTFunbbAFxu2S0i6h27yd+xKk1sgHG/egcbZTa/zb/YmLbVWAPd1aBNXUm2vYXa1v3IXc5NWENuO9Lb3Ib8ItqhqMX5dgY3sFWUk29lYJvjgBxSXLbKaajfC+5F9vDVk9zb33AyUmtotsSait/wCgN3xsCcUvqTZQNxaMVltqT+hMrsb8UBC2XI3b5kOUe1eTHW5B6HM4QioxTT9xL5UquUkzDk3d3ZN7lbkbOfHCKShJyHpszgmu2Dr/ADIxXFre7Ikl3VF2DW5qsufM8rpJL7EtQjiVp9/JKTUqZlm2lTaarwDx4Y55FOCioJe6JUIJbydmXHjTg5p214CbUnukgbOCi294tLiyfmK32xVsFKEU9zC39VoEjM8UnyqY46STe7Sv1Zjc5S5kwgnJPfgHcp3F9rdpF2+zaFe5ikqM+PNknFY7VArGqik0/qNjJizTwrJOcXH7mDJj7JU9/sVclFqK+kJfynsuN3siWnKqVUF0h1KS22oiskcDeNtuiO2MfVlwi+13zQq+nncoj87S4+5eTTvFKk1L7CkrXcZMLi19cnYSksGWUfyCy6TJjjFyi1ZTnO6U3+5njKSlGDlf3YTdauOE7pQbkhThJy+tu/cy5J5MWR9kn9whDJkTk1d+Qu/lEME2r7bHnzScPlpvtXgmeSUPpTf6E02u5g8+URk/8Q5pPgt4nKKkh9iUFTRF2iPdWxtaeSxJuSTv1MWOb7XF8MWSUVFLcqXunJkc53GKX2LlkyOSSk1F7bsnF8tt90mmNwc+OAdjjjd7TiTKKcvrZF/LlsZFeaf07AOMYSmlG3+gssW5NFdjxuk6kQ1KVtyvcBqHat5L7WZILDJNfV3VsRHHjTXzJV9ip/KjNfLdoJe7HtHjZmVdkoXKUmyJPv4Q490ItNbMKrBHlKVGxDTZcik1kSivVmCEoqD7U+4rEu6VuW/oIzdskIRjJ98nfqQ33Z1Fbpepkj8yUksatmT+Gmvrmt/YM715NLtlbSZjzTdxS9TJk7u3tX3IwxuXdPgJPyzKKcHvYoP5cKUbS8DbrZfezDF9mW7e4Zk22XG4/Wk0+PYcIpY39N+hM3O9lcA7lJJNtFQYIY5ut4yKyyePLFuTaRPYoLaTbf8AIu+6NVYGTujOpZHs/CDMsaj/AHbafnezBkuMbjHZGWEYzxqSe4Z1rurFKFbrdeopZE2u6OxM8DlT72jF9aydsnaXkEkrL82KnUUl7sJRlJ9ylZim4uW8aS8j2i6jJ9oXS4LJKT+pr2HllGDarwLC4yk+2TsnNjuW/PqD57pjNyi0kl7igmmu6t/Ik5Y49rX0vyNOLiknTI1oTS7qqzFTtpqkV2pO1IeeTfa0vHgLChk7W2rteUzHncsku5ttvy9wckklwEXynwF/kuy4RuqJWGCTblbKaq6MabcqZFTFVZli+7Zp16IuOOHbbbteAUqX02vcpaIuKtfL39R9qaXgjHNpu3VmVxTi2t2EqoRS3u0GWbU0orYxxnS7GjK4xVbuysqyTjGktyY5L2cF90ZO26tJ0JRjbvb7BOzJFRl9Te3uYcvb3L/L6Ia3k4p2hR+htyX0hJ2UvojJY0+1mfDNzhSTTRiWW4P6bMcHFyauUWwWbXljBy5d+dgxKDTUZU3yV2vElLuUr8MhvfuUEgMlQjHtUyYKU7+mNL1HNfT9NWRPJKoxpUvISMv95GSprt9CO6XzLdVfqNuDhbbRH0V9NAjLl/vMkYp/STkuOSozX2ZGNteLfoGOOOcvqTUvcGtFmbTuk39xRiku5/sXkx2qi9xwgoY/qaTC77NecJOL8X5McYNKpOzNKTcasUMTyJ+xGpWBRW/c2vQiUFLmjNKNPwwjC020nQ01tg+VJR/u5u/QFGfy6cq33RktuSpV9jLJ40moJ9z9Qu2oo9rTW7MyU36JMJbU2ZMbV3t+oLWL5bT7lwZ4/Vva43Em5ya7aTMk8TxtOUWkNM2phJP7lySvflcExq/paRajVu2wzRF9qrubfoVLI0ncd/Qhdqfc+RSXf+aVFT/rJFRlj/LuY3KV9sVUfNExcoulKy3JQTvkHg5uCkkla9R9yn/hb+4Q7q7mk4mSMZStxaSCNe1jnv3UZJJT4arkc2o43FLlmN4+2mpML5P+7jvy2R2qUm+RN92yasyY5067a9yL4GFxjLeP7iyKVtppBkTcrTFB2mpoH8satO3yNNuTcUqZki4O0luRT7nQXaJQaW5KtPzZc3LdytyJjFyj3NceoVimk3ut/UTgrbui5RqVoL2aa5CoxwbfcmmwlOSnvFfoNqktqJcapt2FTNZJO+1uK5aMUmm+Df02ryafBlhBrtyKmmrNP1Is2MMEk2S7crbtmSXGy2CKUnxQGSEbgrFPG3JM2Mk38iEGt1vZCcpb19JWd/JpydK6SMrUO6lJSfqQko8gk1bSX6BknTl9NxZbjlT8SolqTdpPYyKc3FRadBKG20k8a9wWJ1cZOHsR3fWrckXknJy+mmkE7k5zjLtmrl4aMiy9mze/ujG5xySXdBpjnCT3TV+gNflllHux7yMcJdkPqTlXA1kk401TRDm5bJtfdFJCdTTa29gTTXamnL0GpOMt4/SxyjLuuNL3IpfKUYXlik/YmDTXbH6fuZFJJ1K2/Uly+vi0ETNRSq/q9SVVPusrLGLyqo+PUlqT2aDUYZLua23JjHtknXG5mjFJru49jNDFhldylX2Gl3pqzcZK0m5EOTkkto+5kyQUZ0pWn5E4pNNSv9AsLvnC4rtp+XExXJx2cUkZ5KWRUm6XBiWJ075QXbHbbTbt+5tQf93s9/QwxUfJkgvqVJ0Chza/MmmZsM01UmnJ+WTK4JOV0ZIRU+UqDFZUpr8ji7E4qUv73tW3JEbxT+mTr0HPulbcaKypRU32xm6XlMvNGaafLXlGvijifMux+w5qmlCb+9g13XHO05/NUnZXdCVfSmvuE3NY1aX3IgoqPl+qB2NTljk0oxaE5qWT6I7+llwyQUW+0xtwX1KMkwRfbLI7twJXzYS/Mpg8rUVVuie3vfcoyUvYGvyWVyTV3CRUpPsS719y5YZpRnL6rCcY/Lbjz6A3EpVjcptS9CHJ9tONL1Q498FUopoeWaT+qOwCcJY94z/cnaVXvL2GpRnXft6Ip4oxXcrXsAoqb3aTXuY5xjGVyfP+UyPJKUXFK0TBx44fuFjG4Jq1x7lYVDuXfG0vcaSV2Y6W6Uq9iKWXtUu7HSi/F7mHJGt7W/guSbj3In8y9WGoxRjvvwWu2KeytlS7VBdt9y5MbX0dzlT9AojhcqaaVmT6k+1u19zErr1MuOV3VbewChKLv6UOSUkmv5FYnGbak6v0Q2oJ1Fu/cJajH3Q2q0Zt5W62oiMZR2Wy9QjKUrimtglVDZPujyTiV5aipIeHvV97aXuWpTf5FXuCoyTe8a/dGGNdrdU0y382E+5pO+TJKXdjt4075B4Y5Slkjt27DU5KKUY7+aZEIwlLxFfczQjGLfj3BdQ/lxnjcpR3MMZSV1J9qMryduPtxtb8tmHtk/yv70Eil3y3i1b3HlTSVtpkuKtJJpJcgmsj+ubfbx7hSWSa2T39WKM5OfdJJv1Q4NRfctvZjypyjcUvuFY8snJruaivUntv1kjJaeN91beGJJ9qcP2AhxcZVsl6C7E3J+UZJKMt/JikpVtw/IWMc91ZSjFRtySfpQowdO3YszrZkVDpPbcJyajXavWxxiqsJRflqiqjHNp2nRGRuUnL1MiSe1JE0oNpqwrHCF7ppFOG13uZYdlPdp+yMc05Pl/qBhcZ3W5ak+JSbXoViydmRNq6DK+/JKVKNu6XggH2KSaQ8sFGPc27fsLtj27/AJvBM4tUmyhQe3Kr7Ctye1MyRyKCS7Yy+5jalKTcVX2IKlDIlwkvuTUG/q2+wNSVuSZO1FGW4NVCLterMbjcvq2JWydMTt8gW/o4lYqlLemysfY4u4ty8UDlKO269iCHBreiW9zJfdzuRSvcAjV/U2NOKva0JpVtY4xt8pAT52MsbbqSsSSi3un7ky3k6dgVkpS+hcckdzcre7KUHu62JVN+gD7nHhUJycuWDkvJNWwBbMbbXgSW5mjSruapgYW22O5VwXknGqjFbeRRyKq7bYGNxa5HEtp3uKVpcIIG/FIlOn6BsDq9kFHe0+aDff0F2+o+Ahdq8CS9x92+1F1Ht+rkBJuPFEuTfgbaVVdiabAItLhGRZdvyJkRVeRvZ+oD7e+22lRNRrZOxOTb4RkjVLdFHTe2zRnjgTwqa5M+u06WT+73XqYYp44tSYWZbm418l3wJLy+DLkmm7SJS7k72I0O76aDtvyNQ7WvI+yp78eSiYtwtJumUoKXLaCbjf07kqbSqgHLFFtKJHy33VYdzv6TLgh3zuQPCI43bRMWoNoyZpVJmJJttghxSbdjjPslskysMU5VIWRRjN1ugF3uU7MqpJGD7cFxT4XILGfui3UY1RTcci3VGvBzTdLkqM2nT2CaKbUXSexHdzRmUN7asxzpS2WwWE2+3fgiMt9jI/qVcE/LUeWBmjibj3dysx25ye+6J3p1dERk0+aBpsfXNNxiTeSGzk0vSzJhnLGvzbMxyk5S34CKxyx8zTfuRkSd9uyFN1wU8ilFKtwfyqLl8tKLb9iI2m7RUZuC4GsndtVAVJRqrRDUGnb38CyY2t2ZIPCotP8AMBhjBytovHPtTXkIzqX0mWcYpWuQWsUlHtv/ABGG3F2mZpLuXuPDBSdSB4PC1VyTexjk13eiNhN43UVszFOG9vawRLSvZiqHlmVQh2Xe5jhBTn7A2y4pxjvQp/W16MpwjDliSV/TwEWkoRp+TLFY3G4p2a8pLu2MuOcnSaCWM8E1FtOqFhlPI3c3S9yJzqNJEadNzb8IM67M+WVXdkxm4w24Fndqo8lqNY6mtwnwSk+VuirUnwjHJOK2VoyYqS9wVUJSg7u0Z6ivzeTA2r2DIn3q3ZWdbZHHd9pMcjjPlX6FqSiqRrzTU7rcJO7Ym3JcqiWmo/SYZLe90ZdOmp78Bdai/rcbUqonFJttSf6izTafsHalFdoTSZqMZPe0Up7bRtUOMHPZoXaoTSjLYi9ixqpdy2Mk8jk7rgmXOxOObx8qwnlkk3JVRiljcfuXKTk047ClF19TBOzHGTWzQSn9Nj2UkV3Rt9y2DTBSl9xNPzwZHFbtBGCdpsLtjq2OMKd8GSEYJ/U9ictXUXaBsp1W24Y5JKqIg9xzjvsFX2RlLdiaa/Kw2rfkyJrtsIiLbkvLMu9O0YlFydp0ZccqVS3DNPA3K+7Ypw3ai9iHSna2Rkd9lxaKlRhm8eSpR/UyzXzJcbGO25LYy96jHwIl/LHixvvlFOvIZI7OluXjatviRSn6hN1OJwljSl+ZDWNSbuWwm1baqzHFyb3KaCiozfoZJSgo1FfUzHGT7t1YW745Iugp+JpfoUo45y8UJx23RijXfTtBdNyMVh+qL3MUJO7lVepM0+382w4t9vGwZ0qSUN1Ld7mBNTvuZljuvqIlGN2vIWdkPmk9hznUa9S5Uo8ET7Wk63C7S4xUPzXIw+dti5NNhGKl5I1ExTrkKp3e5lWnlTkmYd1KmFl2Um27ZkhtVEtb7sqMuxbgVKUpU9kZmpyj9U7X3MEJRltLgqTUbUHsVmw5Rj3JefUyQksbdO/uYcdqW5mlBNWEv4Y4tOdtWZu6NpbUYoSpOInHcgrLFSlcVsvKJVf4vA4ycPcaffapADy3Fxi6RkxqWzfC8GHJjUfqL+c5pKBT/h5pruVKkQnKbV7FKO/1IHUUEgxqMpb1ZUm4vx2mvLdOUQhbW7ZF0zQSlbfBjcu2T5CEu10U43ZRKanSuinFxp2Yvyz24M3cpNJkWk5O+LZilFryZXcWY4p3vwCJS57hOPkp7NoUk+3YNJk7SV8GKap72VT7ty5brdWF8MTcZJJLcmUS12x5Ib+siskGnCnyLhlwSir8hP6nZWVd62TVotRqO265oeNJR4TZic5RntwEEpNunFmfDG4+hMMsf8SCM3b22CXapqTTUZVQ8PdVJkwndpUO3F7LYJ/C2o0+9/URCov2Yu5qbb3H3tuu0ppcpdv5KZincnbi0x1b4plLK6UWqIngQ+l2pV7MnJl+qpJ0ZYwjy92TmSasE1sOcPlqrZDd1Tdk27W2xmfa4qnTC+GKbUdm6YpLtdp/qGSMfWyZO407CyE3JSvlmSLjKDbdSMMFT3ew5/S7SC2FJd0vKDJN9qUXX2E5N7PYI4/RhSeyV8hFvf3HLt4QoNJ78egGSMV2OV8e5gcrb8ItpuV+AlKMY122ykKCX3RfdwokYmt4luKTtckGaFShUnYSTTXiJiSlHdbopv5i2srK0nDJ3JWi5ZHkX07GDHKUn2tl/Lq6YSz8rirTUkr9SZJN1FphCkne5EWou+AMrnkUO2Stew6jKK5TLx5Eqb/VFynGUbSoM7YO1wacX3L0Mk8kXulTZgSak2vUxtzlLdoNa22YRTTb5B5JY96W5Mc3bFwYlcm7Ca/LJ3txu92Ye6cG097Lim4tIxJSxtpq17hYpynKGxSSnjuW7QY03BuyJZFHgh/wlFN2+S1jcn+bb0MLkuUbGNRcG7KUm1ia8+xja75OSVCi7ybtFSi6tMHhhqSyb/lCcIxnd88D3tsxSe/1EandeVfRUefJOKLad7IlO00mXClHcKmSqV3sT9N0+C59rafgl1FhWN+i4Ki62Jnz6GSKUoUAoLlpjaSe6bJhGUX6mSU/q4CLjW1KzDltStKmZlOl9KMbcpy8BIyqacPqe9EYrd9knS8DeNdqaFFON1GgG3aXfv7jc5ONQSolpydT2Q4pL6cbsDFGDm3dWZHCXYkmmwuUE+5EQV206QEKdS3S9AxJ23F0kZXCHy9t2RDzGWwVlg/mRaswODxzW9+g13OTatL2HUObuQPCsj7q7Y2/I8jUMX38E3PngMkVNJBGOnON9toLtdq+kak4yaitiGmppyDQSUZPn7i71w00vBeRqSuqMbd1YIUk3b4bIpPnlF5FbW4mu1L1IqJxpExSf5mVknstuCW1LhUVTkotrcwu035Kd2ytq35CsTbjXqPube7uxtXboj8stwG7T4C7lcrEpteSm3IBOV3XBHdT9QbVbvgTSsKGrew4910iXtxwVje5A1u0pN/Yc1FNdifuS9pFd7SVUUY6TfoNV5KUe622TKW1egDUlDiyXJSe4krMkEuGrAVKPG45NNLZCk3vHaiXFpWENqls/wBCOHuOVoFwRTc9qS2FTW6JvfdFuTqnwEQ5NvlhWxUV5BNeQIouEb80ib32KhFy8gJpLzZLVlTXa6bTDatuQFsV27WqI5Y0mAb2W3GqdkdrT9waae6AO2+FsNVH3L7vpMbdMoUpJvZUCtAqvcqaXKZBFFR9w2Jk9wMnZJruSdESTHHLJfTboblTvkqFGbjtSCZMpdz4GnsQTdeBtbW2CocuKQHa+fNPkmWVyf1Mx+aRk+Xtv5K6dibRKe+/AnGmZHCokGxCMJrnxsZpRisTXk0sVx3ZmWZW7KxYxKShJ2jMuycG/wChq5HbbQ4Np8hrW2WCUbsuOSKtUPI4OFrk1p8JrcJ5E6bbQQnWyr7CjBspQ7eQ0uT7ml5FPE6saabT2Kc21wGWKCV7lZUk1TCCVuxPd1YVfd2wtGO7alQNO68F1GkBLy7g5XTEo8sOVSIDubdIJxlywUWnY5Tt7lBiqnYppcornhbEOLsgppvh7FKDqvIktr9Ajla25KJlCVkU0zN3bp0VPtcU1VkNscYSyLYEmnRlx5YqNVTMc35sqKU9/qIdPdEx3HFtMLpcYyfBUbezHibUtkGR1LYIwzTUqsywxOLTZCj3S3Zl3aq+BBnWSPlGKdZOP2MeSNRTHginu2E1J3XGCUdxfkuhzlTqimvo34A15yeSSRtYsajBPyasV9boy/McVTQLPwWT/tLReOdukuSK7rBVFr1AzzWxOGSvbkff3IiDSnxuGWfaMrXI8mTvatUkYW22r4Ml2kgmmSE48MvL21aMCjXJllG48hmyI+pRXoEJtyHHiga7WnQGVyS5DuUl7kSSmvQxy7oBNMk7r2CEmo/1HjyJw+rkTaWy8hf4XanFoUY9i5tEKLjumNNu74CaU8rZN3K2Q0ovzRkbTC60FNLyJpyWzG4KrQKSjGvQJ/xj7pRW5am5qmJK+QdJqmFVkikkxJqSolycnQpJRfIIpr7EtNJsXcG9BWJtscU7plJU9ypMLtDqLRnjKPb7mJq1sOLpUEvdSatiSV/ch+qM0UnHcJexNPbtL27fcwy2ezKjNtlNHKTWzWw4ptbMc49yJi3HhBFwUqdrYnuadMvHP/8AcPI41uENR7laZjk3G/JWPbi6G2l4AldsqptMdyi9h/TV+SUu58gNXe/kubaaFC0+AyZFGgick35G/lyja5CT+ZHZWYXFwYWd2RUtm9jK6cdma0slxouClXILFuNLkccTceTE073Zl+a1HYBKD8uzFPZ+qKeWXBKt7hYiSd7CZklXBNO9+CLslklVJtCapWnuwkvFk14CxS35LnXbsiEi4oJU4YxfK3KyLfbgmUWnaexcZdyryC/kow7uGXFSTpmOMZRldmROwlO0pDbjF20Q07sIyT/MVNE5J8BBUudhTpPkIyRFZKUk0zF2PHK1ujJdO0LvvwVJtaydy4InzRbcUttmY6vdggcNtjJHtjHchfciUr2IeVuLlvFC7mtmVGVRI55KpOLuzM3Dt5pkRaunwLJGuCAcn43HJ0rZEZUqa3BpyVA0Sak9yu6kR29orvngL5EqZDdbGTsVbGOdphYnInViS7mipO1Q4NJbkVLTVFwlWzByt+w+IlQ+6qKVNrgwu2ZIrYFjJJKuCIPlGTvVbox1va5DMDSW6ZkxPu2kY0r5CLa43C2Mskk9mOM+17kv8pj/ADSpBNM6yXuKb7qXklQaDJL6VSCaCbxvbcHLuT2Ji7W+6Lgk/YAxt8NbMM0EqcQcqdWOMe5NN0U/lGNJrcHJeUTL+7lyS5rJsRdbKat7A78go1VFtL1Csaob9F5G4p8MlLcKmUXez2FfbyVO7ZFWBcciaoxu3ITi1wEXL0C6ZIK5FyW6JhsNTXd7FSql3LjgrG2pU+CHKpeo5zugmlZFFzXbsXGKv6mY4q/Im2n5ImmebjD8u7MSyKezVIqNNXJikkk6Kkhp935SXkafa2RByg/Ye0nb5C6X9MqXcDjGJhk1ew+73QNLnKLaVbihKnVuiIyptsyRgpu+Avg+7ttoFk7tmLJGtkyF7WEkZZWo7cGFO3TWxccjaoU068ghpRVvwT4bT2ITf5S442/IVi7qnt5Mvzko0xZMajv5E4qS3W3qQ7VkUlKDcTD2tpsbjKC+ngFKlwDx4Y4wqW7Kf1KkLljey2dhWNxp1YSW9Ni7nZMncg0uSaryVipumC3jViqt7DLI/PaC23MS234MiarcBRSt+plS+ngwS5KhKTdWDROU4yozY8lfm5Im0t3yTGX1XQTyuf1O/HoYknGdxZnUl22YZJJu2Uh5JOW3qViilCpbMnuVJji3J8BVTUUrXJE9n4Fkk3wYopydPkhIzYmmqfJORJS2KWPtdtlPsq+Qnyma7kqexEp9ip8g8lpdpEorZ8hdfk+97tLkXzb5Qu7caau2tgukzl3TpcEvZje7WxE168hTb29RSYR2REmDRXdmOmihS3+5GoKbIlJqWxStO7Jn5KHbae4mnIMa7nT2Kra7AlRpcBJtK0hqdJiT34Csd+oipV3WJKyBOwSfoZIxoTe/gBKF8vcIqnu9gk/JKe4FSklwTab3BoahuAfTRFtPYckCi2rQC3LXuyYpsJKmEVOu3nci65LjXpuJ7ugJYNsuMLY3BK9wpR2juT2tlyqhd7arwURv6Dim9kNyITd8kRUoOO9kttFSltuTu/ADbVKluCbY9q4BOnsgH2yJnyV8x77EP3KKg1Y50RFA0BIh+R1twRCXIS5BiXO4Ai5cCjV7jkBHgTTopFcgTEq1XAnyLdhXW87GR91KyZRaK7tqaK2FHiy5SXy0r3ReHhNox5qcvpCGl9OxPy1adhBPwVvEAWG1wY5KpUZ1nSMMn3SsJNoVmfHjSj3MxtUynk2pMLVN1umR390qaojuGlvaQNLyQa4Q4ycY00Lv/wAzKTi+QjFe72FW9mWKTe3BkUY1wgu2u5NMlys2JQ9qIeOtwbY7+kUZNbl5I0JLYKcpKS3MbTv1Kca5ZVVuEEZUqaLlVWY17jc3VAJD7dyUzJHdAD/KhOPoVJIMe7psDE1TG+DLKOxHLoG0Q2ZlaVbFQxfT3JXRjbp00giVJxdotz7uSXuLtoKb9UOEn3U+BJ70NpNgZJvu4Qlsttid4rctfUELuLb+nd7GKcRKT4B5Z4VfoypwUjFulaBZGlwE0yxSihTSZjtsau+QmjTa2K7W3aBO/HBlhSBbpKTdJmeMO1epjT+rYqWTcrNOaTYSk+wIrazHvdEZODp78GWb+nYhY7qnsWttq2BUwk09ypzUtgUVRjlyDyHFqq4LStApJqioLkFpRa/Lew+2oumKa32RDk1QNKUvDJ37tjKu2SvyRdSBs6biCW2/I+76b2Icm2CH3VFES39i5VRNKwQk2lb3F+Z7hJkr1DS9gvgl87japWEEmyd0JN2VIKal6jW5jQ+5rgGly48Di7jRhty5MuP6VuwlhOLrncqFqXsU2t9uQikyps23XBSkvUmk3yOqbCJjKpmTIk42jDJbjTdUDTJi3VNiyJpoIbEyk2D5NO+CpY2la2McZdpnjkUo82C7jHGbSpsdfM8kzW/Aoy7XsBcbxvfgqTWR8GNzT9w4WwNDJj7d0gjkrjkty7luY2vQHnyd9woc0OO3KCUU90wDJJJbKxQe1+SGvuJNr7Bddjnz6k9zG916Cj7kUrf6FRV8kydvwK2gq5fyKg/0MSe+5avlBKyOXqRT7rqhW7MkXdBPAjN1vuS3T2LlxZjT+p3wUi1kCv2ImkuAjPYho5UhbV7mObbdDS82F0yRX3LaSMcbXJS3S3KyUrfA0240xTTTVB3UgoSp0uAaoSfc+RzZAQ5HKVS4McedzJXcrATa5QKXqS1Qc+wNMi7X9xTVccGNJpl91rcGkdw12hJKrMX2CqcqYN2Y73CTqt9gujk96Et0TF29zJtQNEi0yFvyWo72EZkopIxya+xjlJryKLtoGmW/cptURVDiu77BDvYO5XTFJ0qMaavcGmy6caMLkoS2KiyWk2CMsZ9yKW3Jhgu3gqUwmvwqVU6MUZPu5G5XyKtwsW03uJTfAOVR3JTT3Aqe8b2McVUvBTd7Ih7boLGZNCn7cGK79i07S3CGtluTKVOkU7owtW7CxS3VkNtMfdRPcnyFVzYKRF+g5RdAX3egS34IxxKunyUWk35KcU+Se/fbgU5JhFy24BSVbkplKF7oiBpvdMhNqVWU5OKonfwFZVKuRdtmOTbW6KxsJoSin9yfltNPwW4vyOa+n3KbEUpKtrJcmtkTF1dbDt37kNHb5ZN+iFJtfoJb8lXS4yr7lTyWY2qYdy4YTSk63opN1fBDkq5Esl7IhosjcnSLjtHfkEqRHcnZRcsiWxGzQpJdwpSSW3JF0UvSylSW5h7h91vYLpcqrclQt+wN7IUJUwLk+2NGJMqUu52LgB3fke7VLghMakwq0lS4JdqWz2DkqeyS8hDruW7FxswirJkmnuwLpJNvcmbtfcfdaEt3wigT+guE12cGNtLbdiSdOiDIpLe6CFOW2xiaHCVedwaXkb7tzHJOvYqUlfqQ5N2kCBfTGyYyt7jUtqE15QUZEkxwaa9wa7qsTXbQDad+xElvbKcqFJqvuAmttjFK/Jl7vBEvcisT3HQPZjb2CpboirZaV/qJrt4KFaS3IbsqW64FFWRUq2zJbqhJJcjTsoiUaHjjurCUtyq8oCskUlszA1fA5yYRV7AKgtF1S3IXJALkG3ZTi3HYhpoAfAot0UnY0AlaRSTb3EpbbFQk3sBjezE2XONMitwHGVWG7HVcApUwG/y0TFpWKUm2FlBPcXa6sb3C354IJT9SouuAdUEOQi6TW/JOy5HOW9ITWxQNqtiGW6/USQEJMyOv2HBWEkr2AxNbjXABdogdIlsYrAPcPAuRtMBKynshB9wBMpOnZK2YNWB28lN7CcWoq1yZoqL4qjJKKUb8F0u2qpOMSe7e2XkXnwQlYaZMc+2XsZskE42jUiqkbDytRprYrNn4YZxolOjL3d3gxS5I1FJqT3MjgqWxgtrcpZJMGhW5kxupU+BKMpexM01QQ51exO6Q4K2rLyUgMTbTD5kr5Ewpt7EVfe3s3sX/AId/0MSi9jK/yUypWOV2ZscLhZgv6vYzwntt4EKJQ8GKSo2W1zRr5GKkQ0XCG9slbmRNJBSlGr8kR5otyttIh82BdtbULdSE7KS2sC1LbdCpNpk22q8lQdIIy3UfQ15R+pspza5Kg1J8AnZjV9yKdelFdlMUlSptAYkrZkjUXuRF1Ip21sgok02Ult6Epbjugik1VA0rIpt7FUwC/A4q2TW5kjajsAONIney+Uiorf2CFFVyNPdUOfmicb3YRl43F5CXBEZeGGWzCqIbV8ExnsKVvcJplTtUnREnJOrFD3G3ToGtBzaXsOD7uROqIj9LugulyjUtmZYSqNepjUhy42KhSmDfdEj1sadPciqg2kxplJLttGOS3CeVSaXJi7t9imrJ7d9wsZE1JbiTpE8ccFJ2ES7J7jI4+CO3cKCluhceCbAfDHewrTQlyBUVsDV8DVLcTewErYu34RFbFd2wDugu/YSdoAMsHsPvTZj/AFBXe/BU0ySp/clOpclRWxMuaCRk7qVGJ7vYdPwV49weCW4JV7Et0zNHjcJSW63Jl5VlPYhvzyCJar7lKXqS5b1Qr/cjTI3XA4c2yLtoabKyy5PBhc2EpkJ93JFkUp29+BrdWY5RaYRk0iro5c8Esu2xNEIxN+WNStFSjaIa2DSrLhVexhX5tzJB0ErJsLgmTZKe+4TTJ3bMx91SLSTiY5J3sCLUrQ62McbMsa4AjtZkrYTS5DuT2QClKvcIyCa2CN7gDk2+Q5RMuSkrQAthSd+CZNp8iQNLjZdmOL33G3v7AW15RN1yVF2jHkBDvcL3Mf2KW/3sKp24mNe+xkk6oi3YCexDt7eDIla9xNJcgiO30Gn4ZToxvZhV8IqM/Hgi21Q4oIrJut+SI7SL5Ja4AyJ2Hd2kwdc7FT4oImUlJCca4JKewVcGyk97Ji1Q1u+Qi3TRjlxsXxyQ3v7BISTT4Mi9wRLdPYHkSV8Eu0txp2RN3wFhOV7lp3szE/FotbcBat7oVtE215G6YQ3O0yUxbETlYXQbtgo7bCW7L87hSSZXdewrqyLt7BGRcktq6BvYlW2Bl4SIbspOhR3AcU/U2MckjB3JcjUvTgqWbVlp7ocWq2BSTCVedghSaoqCZhTXcZlJUQrJs+eSMkvREOVt7kXfJSQ1b+wlzuFtA7Cqk0KNWRdhe2wNLuzFki6KTVl39NMHhgS8DhtKi7om/qthpcnS5Mbe6Lf1bcmOezoiQSlb2EltuJK2U9tgqK3DgLGuAJ5GD2snuTAryPbwK+A5BoefYXkpfYTYGSF+eAkld2EG/wBBTSXARLtMHK+Qu+SW0wq4yQWY6KTaYNFT7i+I7Cbvchy9wG7oUdqCD5KdJAJglsJvgV7AKfOw09xN+or3CqezE3fInK/sIIIK5cFTiJOuBSlvTYVNUxSkMmUd1uQDaaIk/Bk7TG47lVCbQNt8luNkSSsKdpIIsljTpgKS3BBu2NICHs7Kt0KXIIApeS4pLcXbtZMrAqT7jHW5adLYUvUClKo0RJ2OtiZJ+Ap1sJktsaIjIkiJc7Mfgl35AOWX2ULGtyptrZqkUY29w2YPgW5AS2ewmNpgkBUV6jklQvFBugMbXoOLorbcXAFdvkTfgcZCbVFAl+wPfglsE2QOLFJi8jaAS3ZdUrIVlv8ALuEQwaEuR2ADciQaALKSslGRbRAVUJuibHyB2sTafsZ5ZF21TNaGxkbtVRWrEZH6ExKd8CT9AokvJKe9FS35DhAVZD5BysFtTAc4kRVO2Z47oxSVcAZVP6ab3Ibv3IaKirQNEpVsOTvzYSjQu1thE0XDncUluqLjG2vAVSV7inJVTL7aZE43YZYHuy4NrcpY3Qu1rkNGpsuk0Q1Q1KghOFbktoy2pLchxXgBR/YfIlaE5AVdMrlepiRlgCpS3GospVZSiNIwSVMyYn28jnFOViqgq8krMUntuVGNvcqWNdoTwwxVy2My2iRHbgqwtTKrJq+Bz5HBe4DgW5KjHLbZB4CK/wASG99kyUMB8LktT2MTVscf2Bpfc2XHgiMW0XwgzTbFIUnZK53YFoyehHgLpbhFtbibpiUrYUBcXezFK0xN17CT9QmlxdhMi/QT3C6O/wBx21RC2+w3uDTKpbCslJrcLr3CBvxYcsTBUvdhVS3XARe1ITe1Ix9wNMr4IYWJ+wNHfqTwFOilwFJ7DBiT3+wQ265Ju2txt2hcrYKt1V+pCavcHwJejCLXOxSTFWwR59Ah3XJSdkPcqBRk7kkTab2E+CN09gkjL+pKb8kr6i6oBMuDa5I+3InsBme6McmJTaGpJ1YTSe1lF7On4McnuFK99wv14Fe447kUNII7FUQ7sIyN3ExNblLgmWzBDiHnclMG/cKonngSY1S2ATQIdoEBS45JkvKH9gT9QFe/uJsb3+4krYVUUNuhLZWD3CKT9h+eCOEJyfkJpmbHCqMLkqF37lNMskmFUqMamHeDRtWQ47bD7/YG7IqU9xuRLW/JHLdhWaMyZOyVxvsMGhd+w4sm74HQRTnsY+6vUJfyICyMvcLuMfA0m9waPu9BpdzCr8Dj9IDcNnXJPc0i++kYrt2gRa4HfAovYm3yDTJYJt/qY3JtcBCQNMstvJi7mEnfJKXANMsW3Rki0mTFiltIqMt2Y2+Rd7Bu0Q0uE9gk+TF7oGwaVJ0vuTa3IbHGXgLpbW/sLgItsb39mEBL5HdEt+wDTQpJULzYnIKqFFt/Yw+R923kGgJPfYlu9gXsFZJO0EWk1aJbEmE0zvgnjgmxxaBopPjYqEqW3kppVTMbSTB5XbW4020Y22xJtA0yNOyoy3JXrYd3qVNLk1RKe25EpN8C7n5BIy2vPIOV/YxN2yk2Q0qN+gp+wXyS3sU0anRPeQ7rYh+5F0zJqyZMSHaqimhGVedgcrMb52HF7e5F0yRaf6ESKRLCJT32LWxO1+wwom/Bjkty23ZLfqAb+Qi6ZSQnyBV7AuBLdFUAraBSbBojh7AUxeCXKhqQFRoFzRLdFKVADQnw9twsTlQE8IqTtITd7iT8gJu0kXGvPgit7HdAE+bJX5gUr5Ka7gpxpsTQnsUnt6BGP7Ca/cpv0Ib3CkmJsa5LlH6LYBGVoHzZiWz9Ryk/0BpU/YxNb0NO2OTQVLTSIp+TK3ZDYAnSGmSmDATdsa2Ja3GiC7bIlyVt4J5KCIm/AW0FbkU9x1XJIbsoFGwcWhp0O9uQiU65Bu3sJiois2JJPdoeokmlRhToLsqaSXFWyaKi6+xA5pIhclS38iXADjJJik7J5HQEjS9RpWOvQCZOuBcjoVAC5MloxtDSsB1YmvUpqhOqAgFuAIAaFVofkGgEvcboXANgNexV7ERMjWwGN8mSCIod9oHaiqQJ26E3S4JK0qRA2UlSAliulsU+SJbAC+p2OS29wgXOPkBQ2CXsJLcqXHAEMS2exS3CSAuLi79QZje3A+57BF9uxcUl5JraxPYDN3Ktye6KZKqiWrCaZHvwY2vViTafJT3ClL8pjvcqSIaCw1yUqshFJgXKjG0vBbaJq2EKKsdNGSCSdBOgJjbfuWpPeyYrcuXASkn+4SaFwiHIbVlboJTTRjUiW/I2mjbpiv0ewueB1VBQ15HHgQ4q+ALW/gbWwKP7hJNoIlPcpLYhWnuWA1X7jewlXkmV+AjJGVcje75Md2Ne7BpfqK6EyZO2DTIpCq1ZCKBoK0zJ3GPwJXWzB5ZHJsSZMftZSq90EDdD4E2LkBuQRd8iS2oEwM3d9JKd8mNS33GE0piDu29QXuFDI87DldiXO4IurBfuCY/6gOhX4BSsUght3sFIxKTsyRboGg9w4BsGwpslf1GmhxCGheRvYT3KBveykyapAiC29g8E2UnZUNNDTTRLSrYEENbWGzDZC7t/cgVBQXuN7UVVx4FOO1+QT32FJhGO6Li9iL3BPYistktIjuGpbFNG3TZjbvkJBEihKgbpA9yJO+AHe5UWvJi3LXO4USexUXaJkyYtphGwmqJlsJPYG7ZU0S3ZV0T3Du0FDewrJfuxSbogyp7VYnsYlOjInYAQ9y2Jr1ALoLFwAFXfJT9iFwClQBL3JXNDdPclsor0E9uRXe7HJeSAjsy+61sY06XuDewNHLcjgGwb29wpqr9Rq0JK0OW2wFik6VmPu3Bu/INCTbAQAO9wENgBUdmR7FxYA0xcPktq0TJerAqLLq0YU62KT9eCpoP7ji6RLdqhcEFt+wnTXBKe5Vpg0hgmVSpksKpP2KT23MdsL2CaXMixp7EBYtMUnfBFsa9wAEwfsJIAcRpAnQWA5bEp7g2LkC+RqkSh+AL79yXKyVuhA0p+wk6CPuD9wHfoyr25MaQ0BkSsl80JSpBe4FJbjToi64BPkIpvd0LxuJMCgaGlsS9hqRFE7RCfqOTBIBVZSQJUOgBt1tyY7ouRDfoAeRt0tiLsQDbt8itt8bBVDCjdCvcLsS5AyxlS4KcrVmK/Ue7CLW6IfDY1t5HLnYDFQ4jYmFW7ZD2djUqRLYQN2LcTW4eAp7jbohu/YEBSG64JQNqwLS8jk6JvZEzlfDCFOVtDi6RAJhVsxvll3bJkqAUXRTk5Lclc7hYCrcdWhDWyCpcSWjK+KFJKgISsUlsUDewEUDVclIJUBNbBxyO0S3ZFDvkcfckqLAbjtYnGiu7YmW5QmF7bC5Y3sQS92FAxx3YADopokBNCRbWxL53AXI0g9gitwKaE6Mu3buYX7FQAt9hFRsih0hWVPkitwhsQ2rQuAEyo7ciq2N7cADZA7AKSQ/BUUS+QiWNe4qKAJUTQ/I3sAopWVKSRNksCrsV7guBUEdqW5BbSrklfmK2pe/JkW6EkNBGNqiHuZZLchoKUVXJl7VJWY6LvbYFOSpEpopvbdGPyEh+Ryqikth9qYViSK7d9hqNGWKTCWsTi65JfJnlF0Y2gSiLpbh3JkiaBpVWJrcFwD2CpoKSKb2Dlb8gSlY3GiorctBGGhxVKy5ol8BR3L1FJ3wJKhMIalTMncYS1uwKk+CJFEt7hSofgK9BpANJUDGtg3cgiUkXCPkTRUNijLCPuE42KMmgbvcMoqvAmU65Ib3IojT5H+uxL52Gl7bhR5Ab2CggYUHsHPkA8lcijyZFs9yoSWxNb8GZceCWRnaL38iXI3SY6DRx2H4YnxRLk0EUT59UJu6Ggo52rYUtuCq9CJc7AOnz5BN+SkuC1H1CbYm2J+pka3IaCwouh3uT+gKwLTaVhKV7Col/YBx9i0tl4RjRSdgqnxsTbH5scKCBR/mUhpbg6QRN77jiTL2Lg6RQS43ManT8sue5hrcixkUty4S8GCL3Mi3BYy2JMhuhp0VNG2TYO2TW+5DSu6wTJrfkpcgXdbJk36gLyA0K6YIH6gD43JsHLcm99gumRcEy+44uvJM/YCW3YJWuQf2EgLSKrYmL8IqTtATOgjTBi8UgLXuBHclwhqV8AWuCZfcuIp00EYk/1HvSolrfYpPb3CpZcZEsIAU92O0gYm15CBuhJ0F37Cd3sFU2S34JsTdAX3ClZNhfqDR3YeAAKLBWwW3I7r7BBSoXkPewe7AqK2E0HsIoQrGyWRVWAk6QNgNi8ku/0BAX9irolDbvwEV37EtiQ+ABe4XuDEBTF4Jb8A2BQJ0T3BYFvkUmK/Am0wHYEsAqmxeReAXG4DYrvYT9gSApCY62JkBL24CLAF/ICm9heQE+ALtolsSG0AJ7Dv1J4CwLTBPYi/QFLcDIJhYN7chCX8iiPuWgoJKZL3CGmN78EeRp7fcCn9yb8oGQlb9gqm2NPYVB4Aq9twvbYhAA3IXIrV7lAS0JFcvYhgVfqJsQqALBPclrkFsBkW429qIQWBSk7K5MZSewDlRLC74ACW2NPYBMAYh+ASAVAh8IE15Io4FzuDQuCoasTQ1bAipEOXIPgqBOht+pIN2FKQh8sPJAcjQDtFE8BYciCqkjG+TIntwQwBPYTKS2E1YGMaXqOqLSRBFUBkdNE7FRPgllS3JIp7AwoKATEudx+RpAUpehNblJCSplDd1sY2Zr2McgBcAthIpAJslIbe5XIRLWxKdcGRxryRVEUt2x2AUAyWhiaAS2BgGwAgYblAJbBQkty1ugIoC/BLCEge7GgrYKVbCoY0gJodUimvQAOrVoEioe49irtUa7edxXQJCmkggtMhx39ikNK2FYtyor1La34Go7A2jxuhJWy2hR25AdUhN78ik2RuDTNGmi0vQwJ0ZoSS8FSxkbuJhbLbvdGKWzJUh2gYlVA5BSTBt2K9x2gpFpJoi9zJGVUwUqSfAr3Knu/BCTCH3ENtmTt8oK3AxrcbTortK7aW4NsVepUeAaG9kFJsKomT9AXuAwi6DwS1uBlT9y4xswrYywfoWJVOKfknZIty24IYQnLfcFJkN7sE6IumRP1CVEdw07CaG/gtRqhR52Ke6BUT5BMJMV7AMVhYAHktSJ4C9gaX30yrv7mGykwmlNgpKhXYtkDR78i2CLK2oBW0wt0Fgt3twwBya8EtWZJJVySt37gEG7Mqdsw3XHJUZu90EZGtiHymU/5ETKQr3B7Ep0ynJMi6K3RLGxAA064JspIKd2X3JojcRUZO6txXZKewb36ENG2gjKifIm6Bpl7k+CXyQnuW3aCJ4ZcHZjsqD3CsqVikl6jTsTKiYjoju3Zfc6IF9xoVb7i4YDclwxd24NXwhJMCo7jb3CiklyBia33E1vsZJegu3ffcCYMt8DS9BNUgMcuReAfIb+uwUJsabb5Ft4CPO4FrdUS6rge3JMiibLjsTRSIKUhN3yS+RWwH6gmTZS4AX6lRBbhwBV0DaJteORPfllTSrtAmibolvcKryS+Rp7BzsQR9g55LcfUTQE8FCKAXI/AXTCwFXkPI72BgJivgUmxJgWRQ7EwFY7CtxBVDr0JTKXsEPwHkGg8gUluwlyJeljb9yoUnuHgbqvclkVNCf8AMq6ZL2dAC9xhQnwBS9h0JFJrwETQgbBbhQgfoBLYDk0BLYrAy3sRIVsHuAkhrgdUwoAQuC62EkAo8lUCBgS+RV5KYATsCB7v2Q1yA/CKZPDHdgJ7oFsN0kJbgPwT/QfkTasBNBte4XwNUBLTKitwGBSWwmtwTGmBjSaYpGRuyGAg8gDfADukSO7D7AT4Cn6jYgBCaVj9RAIEAIimJsaEALYr3JrcdWVA9wrYATrYBeOAQ2yQqtmFISGgEyX6lshgNPYV0CYm99gGtwa2JsqyCQaopBQGNr3Giq2FwFJuhNje/BNAMYk/UPJQxWOg5AEPYhggCQrHQpIgLQ01WxFFLgoUnYhg6ALBPcnyUqApxHtRPdtsS2A2xLkkuJANtbImT9S7tEsolFCHWxAik/QVbgtih0KhpisAZO5Vi3AB9uwhoCHyFA7bGiADcaG+AIKToSVhYBuwYlfgGAh3tQqBugCtylwTuxpBFeBDSB0lsFdiifPBT5HFlC7bDt29TIvQmSfgG2NGRV2/Yhrca2W4FdyaG1exjRksoiWxDMrREkvBCIDl34KUfUTCpRaRMU+TKuNgUuCWrGFOgidqE1+xTToErCiK9AapDSoUrAxsa5DllRW4U1sgew6aCVUGSsaTojyXFthTGntuJMHXgqBtehMnY2SQQ6Gh0NIiit9hNXvRX9Sn7F0iKGn28BQJeoFOTYhLZjv2BpNWPhUCZWwEVbKSKl7ErkDJFKthyVIlNLyEmvUrKXyJofI2RUeR7gV4ClQPkaQ+1BEpDSLpVsKimy7fcUolXVhaZEEeBSXtsF22KTdATZUdiRKwrK62JezC3SE92DRph3eKFwLyBk7tiZb8DJCEA+GFUhpS3CmVH0L4QRha3KW6QSoXAVk4Mb5HYihrd7FN7EJiu91uQUyZDSBr0ASL8E1SHYCFdDS9RvkBobuieCluET5G5BImwMiaf3HFKvcxJjugaXt4Hb8GO/JkTTKaOn5GvQFLwg/qEJqheoTe2xLfAItOiJyJ7nwK7ZF0PIyXf6jTAGl6CewOTqib3CqXqCe+4mxWgaXa2G3RjsbsbRRLYXsC5ChFRrliDxSCG2gvYkX6jYruoJeqBPbkXADEALbcBqJSSJ3Q1zYFvclrYTn68kt8FEt7lJkhRFU3ZP8AQOQaApIHsJXQmEJvcVgwVcBQN8Cqxv8AcAQML2BbgJFLYTVC4YFtg2RY0A7HexPPI4gUmIRLe4Q73GT9wsKsl7BbYXQAmV4JXI0ED9BK2x2vUSYDRMmNuiXuFJk8MqgaQAikRwOwK8jexKYwGCYr2ZNvwEXdBZFjjyFUJr0Dewb9wFwFi45D3Ad7jsnkKAdlLgnxuHIFXzYthXuSwCXO1hYmFgUnSC2JbjoA7ik0yGFAZG9iGFh43AVisKBgMaaIsaYFPgNhWDaoITdIQ7FQUCHQnygBDQgQD8jEFgJjsTe4lyBX2EHgAE+Q7kl7ia2EyBt+Qe7JGgoQ2LyBUKhh/UTIBcmSPoY2NMCpckOqARVFBQ6EyACgBMCk0k7JlxsMltIojllIX2KRBSWxLQ72FfqUTQiq2JrYgQFCqgooTRdJoTj6BEhXuNrYEAqCwCgCxMYm/QAWwNhsADvYBD+wAKrHWwUADSsRSdclCaBqgACfIAw8EBYrHyJACJ8lMQAtgY0F+oAFWGwN1wAcAnYrGtwDnkT5KdEgdnbyNcCsSbRVZYDe5EWVv4KzUy2IZkkY3sRYENciTtjsKruHRCZSdBBKkRyVKSItegIpfoXGqMZa4BTa9CWnY7fI3TKJZO5TERQ7E2H2C7+4BV8oOBiYFfcl8BZLf7A0KLiiVVe5S4AdivcQ9rCHzyDE3Y9gJD0sHyS34CqXAN7iStDr9wBO3dBYMQBQPgJewrALVjIHbAyeCW/QX3F5CLb2BUJ+yFvQF7Dsm+B2gBtjUiQ9wMiaEnuSCCMsaE5GMZTR2JsAfBAr3G90IE9gpeSorfcQBFPkT4CxWAN7hxYgvegq0/UV7iBsIbYr9BeQQ2rJF1yWt1aMSC6DNipJLch/yC7AKEJ23Qw9AElViXI5MlbhWQCVaK8hAFeQGvQoKCgC2ANbgLyFsgGSxsXkB3YMPsLyAIqPIr8AtgL7txqRj8huE0tysiW/AcggqbF5LpEvZgFhYAQFgkCBooPAqG9g29QFXqC9CgYCu3uJDoGA0AWDewCYvuNBRAkH8hhRQvAIKv7AQN+4m34APBRN7+41LcXDDkAbsf3DyMBJ0O7FQUgBktsrkTXIE+QXABQVVg9xAEHkdkjQDEx7CAXA0w9goA5KXHoStyk6YC8hKvI1QuQD7DQKrF9gBiZVWhIBDfArC7YAANgAP7iGgavfwAUFDug2YEUFbFAAuECdjQP2ANkLyDF6APkBp7BYC8gF0AA+BDasdARY7oaXINegQrGvUVD9gpDaBrYAJa9BMp8bcAkAkhiXI/AClwgobYNAIPI0ACfAtxgwJYxiAPAuWA1wAgGFbAIGAMAF5Gg8kA1QWAuAFQJDGAq3H4BhyUJktUV/IGQSkD5H5C9gJfAIAAEH6iY7AVCKACRoQ0FAnuHIBCGINwpvdENFMSAFsEnuDJfsAWVfsRuhpgWKtuQsChbgtxsSILjuOXJKH4KIfIin6ksAsWwIGQLkVbjGkAqHSoYFCSBDYtiCiZMd7EtlCHYhMgpMGxWIB8jQkH2CnaQhAENsQWCAa3BoEJgJsBrkbAkPIUCAoTQDStAddLywvyDEiquJe3qY17clpbblSk9jGZJLcntIRLYc8jkvYmnVho0Um6EkG4SiRD5LaIBAm/UpSf3FXoDCn3MpMjyOvVhF36EvgBAO6JTfIPYVgU36C87iY0FFbgDABxr7hL1JvwDf7BDvcLJGmQVYN+Sb24E2VTdgueQsLIhxKvwSn4GvuALfkPsCe42ioRLZdESQVLe40IpL1CGuEgodAAvHoFuhtCkiBr+YCRXoAMGFeoUAADBAH3GgCyi0hOthWNVQRLQkNi43IpgAFAxD5AISB0MTIodVsKr+40goA4AH/IEAJg2C3F9witxXuC3Bqgp8gJFMqE9xFENbgVwAvsCYU/sOyRhDToLsQAA/uHkdgSA2JAIAbE2iBjRNodgMGSrKooPABYAHJJQmAlVj2DwS2BQXuJbFVYCYFUIA2aEP3EAhDav7ipkBe475JYcgUmAkwKGAroYALzsUIgSB8huD5ACbKS9RNAFjTRL4GA2xD8CoAEPhgl6gKgrYp7P7ByBADYUUIEh0BAC9wYJgAwsRQUDHQJUFJDWwDdBCdByFA1vsAC87jr1EAn7ANgwEFgHkBrgd7B4EgHyJbAAALYaQ2gJCwF5AP6Amh1sJqgDl7DuvIgfIDHZIAVYAvcTYDQMV7AnuAPYPI3wSuQGMlhdANhyHgQB5AOB0BI0AVuA6tCaKRMuQFwK9wFuDRsQIaQCoYX6iAB0AJgP3JsHsIB2AvAXsRSuhoTFugLGTHjcpFQmHqNg6AlgxtBVkCVCbVhSEwEwH4EFJsaFQJP8AUIdA1TGlaG0FQkBQNWrAklsqvUVbgJhuN8iYUmwSQ6bFVcgHPBNb+5aVDqwIrfcdIrwKgiVyFlCAdWC2BcjKEKyqJASEyqCQEUFlpEtbkCLiItAT5FItoVFGOheSnyCdkC5FVF0Jr0KIqwoutwoghgkVW4UAgfuUT5AQqKoYEJDoqhUFL7CKoKCEOth8cg36ASIbJApFLgkuP2A6lAkNLYai2VQtmZFwY2vUZWaprcrt2Qr9jJjW1+AlYXF+gmjO2m+DHJbsErHWzE0UxPcjSUDRaWwNP7g2hLcfavI37CYEpU6KrYFaG90FJE1uWkvUK22CIaFXqXW4eQqKFexbBICEmyqRa/kTQNpoTMhDXoBKTsr7oEtx8gS1+w0ikhpeoNsdeR1sXTJaGhNDQ62HFbANLYTLrYKVBEWJtMppCoBJWy1GhIvhCCBNFMTAkKtDGkAUAVXJS4AX2JZTEAgQMGQMQm9x+3goLHZLQ/0IBsHxyJoNwHtY0KJaWxQmn4BL1GmPxbCJYbDq6CqYEgUluX2+vINsaVioy0DiDbDwwZcluS0FJIdBXoMBUMPAWELyDGmICeQXBXsKgopjoAsB1Qhi/QIa4GLgPACfuHA7FW4CaFW+xQBU8IEuB0C5ID9R2MEi6QJB4Ka29iWEIA8hQUtxblCrcAXA/sJItbIBVt4Cilux0EYwrfguqJT3ooloOCqE0RUPwDKf8ia3IBcgUkq9woqo3H5HQVuQNegNbAubGVEPngdDYn4Af2EDdDtJe4ESBDk7EFOh0wW5QRNAUvcTQEtbi+xbXqSwJYeB16g1QUcoXgGIA8gAbgDHH1ChpWAqtlPgVFIImtxgxAAAPwAmKgf8xWFCW42v2BFMImlsLa+CkLhgJ87B9x8Ce4UvJSQJD2QQL0GybVhYA1vsLYqrYUAn7CaK2SJbATQwbQgorYEuCkgaCFWwhggJf3DgZSWwEOx+Btbg0FSxbDBACHQ/A0giWHI36IFSATVAN0FACaJfrY6FTAli3KYUFKh+AC6AXuJ7lMSsACwGghOybov2JrfkKQJWG1jASJZTJfuA0y09iEyrAYCT8DTVBAyGW+CaCkJ0OSJIGgWwDRQmNKh7AAXsFoaQmkBL52DcTYAD3YIPI0QJokpvcSAAoaXoNgSFJMXkoAE+AYgFyLdjsQVSGSn6ArKKZDL8EhDoK23ATYUpPckrySyBpl3SJjZVMIVtsVb+xVbCYENFLbkORPkorYVWJv0CwFQ7QhpMBMX2KaE0QAgS33GwEPyJLYaQBL2CtrCgARSW246B0URW4mqK8gwIaAbQqIDyUtgS8jKOqnRaZjaKiwtVLkm0U15F9wh3SLjOjFVlpFNKcvYmUgkQwkgbtjrYh8lpkaUgk/YUeSpbIqJT34ClyLyUqe4Eur9hMbW5L2IGqDYkdBTSsdCjyN2udwhUDGwvYoS2Y3uLx7iRA3QD2oNgIqw2sf2AKKKS3FEq/BUN8ESKuyaIFW5UErEi0A+SWWqtCasqMbFEvt2J4ZFIpPYW3qJ7cAXyTyOLHQEUNbF7UJoIKQmw8biZVJggVD2IJlsFWU0FAQ+Qr7g1uMgbToSKQqoBAhgigSKEAD4G2rJ7gTbCaVyFbk2Purgorgte5isO4GmZCfpwSp1wOU7DOkNENbmRsxvdhqApCDyRTFWw09hBBQcjr0FZQbifIwAKQuABhRboLdggIG+RXuNiT33ArwIoEiomhfcrgV2QD4E0NA3uAV7jXPG4luDKG/PoJ1+ortCaZA7BvYQMKYCQ1ugBc+xXNCobKh/cZCe5e7IhMmRTJl6oqxKvkbfFiX3K2okUrF7gNXQBQUNKxpclQqCkOhNkBVCbHewmrATIvcbRIU+7YH6iGArKe+5PKBMClfkpMS9RgFisKbFVBFMXv4G+Pcm/UB+CZcA2J+4UrYg5Cgosa9xNDSCGirEC9AKEAPgIV7g2hPgTC6FjvYSHWwAJj8gA4j8UT5DzuA+BA0AAMXhlIBeWFFJWNql7hGOvYKG+RsBJAMT2AkKTHXkHsFSNBQLZgFjW4h+ADhg1ZPBSAEiqC9hXQQmqFXqUxWFKuBiTG/UAW40TZQCbFVjqyvuERQ1Y2he4UchQeRoIitwotolgSDW47oHugqdxFeBN7gA1wIpMIGiWim7E2BLQkWS+QpMmrKa2H2gRQcF1ZLQBY0SO16gV/QW4chQCasGigStA2hIbRVchVgQh2DVc0JPcBsXgYfqBNBwA0gEJcjewkRToGPcColLcGikKW4EsLTBK+R9pFPlCaHsvuCVlRjdhWxbVMT8kVAxUVW2wAJjHQCirotxSEhtlRjf8yaMkuSfJFNIpCWwXtuUJsT4GxPcIh8gVQ2iCUIqhMKEO6QvsDYQD8CE+dgpsQbiXIQwSApbWUHsJLcXLACgtEtiQFe4N7bCQ2BNWNIqqC/QCW9gT2BhwB1Q8lUKgo8gAAVFlbVsY/O5cSpTqxSRk27dyWEYmgiW0SuSNbNUgk9hrdCr2KheKBbDdCsgG9ib23BioKK35GA62AB2ShgN8AEUU0kgiUHDBfyE0wAQIbAd0S9+BLcfkKaGiWykEHkTbHuLyUNWWt1wJKvcG7CKZEmDdC2AGxAtxvgKK2FQ19ytgFEprYlhe/sELdP0H3be4r2EnfBFOxBWwJAFbCGtmNAIAYJgS0OhsNgEIaAATKViSLjsCk0TRkfgVFTaO0a58jXuJr0IoE0PwJuwJYnwPyhgSnRalsRW7Gl6gU2JLcBvjYBAHkNwGnTMiSpGOxhFS9iC/sS90USyU2y36koimF2U6JoAGnbBIK9ABv1EOg8oC4De3CI/UpMrKZWKi3uhMioYJbje4NBRwC3EUUIRT4FVMgQMqRHkBtIECABph4sEgAarkHISBFQP2E2VRLIExW2DQBTBbgrHQDWw2L9AZUD4Bci8Bf7BQJ/cFvwN2QSSymEq8gR5GC3YPkKGIa9+BpERSCgTK5RYExWDdAAbsll+CWwIYuSkrG40BA6GNKwJG0NLcqtuAJoVUV5CtwEtxND3TH9wIFJUW0S0AvsNPYVUUgEFAxXbAaHRO/BdAKgqyqKS25CbTQ62Ft5H9gF/UGNk2A0vUGvQQXYCsJbsZNgOIchFi3Cq/4ioFsDdsIHQIENoKlispontYAmwbExhSdjFQ7oAG+NxWJ7/cIpUCJQ90BX2H/MlOirCEJlCq9wJSK4AdfsFS9/JJTRL9wGTyyl9iW6fADa2I8jbEA0g/oCB8ANITFbGmADQ+Q4dAFC2K54F5ATJaLb9CG7BEMXkqQiKY7v7EplrYqGkMSFuBfgl/cd0TyBMkJUUyeApsOVuKwVvkArcfgQJBA3sTVFMkinuOxNguChopR2Eth34CJa3KAT9gEwbpEsABP3HSoS5HdBU1uNLYI8jbAKCWw0S2ENbiewWTdgDdiY6DtIpIJWiqomW4QWK7GOqChDqw8eA8FQmTW5TYlyFDQmhg3SAlsTHzyFECQwXINhDoONgW4NFC5KST5BIa53AUo1uQZZ7IxeQKUdhU0O2NvzQEsVD3sPO4CChobA60eRVYeR+CqTBcAvQuttgI+w4torwKuKCbXF2vANbsEvQVvxwEKX3IRTJCqWw3uQ9nf9QtgEtidx1YURUsaXqDRUV4oARTryFUibKnkmCBj2IqlslQX6iS/mJoqK/VEvkQJ7kNBoQ2HgKQwVgAIa8AhBFLYE0ibCwulXvQhDVBA+diWVSFyFJPcYqHF0wKivQpkqQ7sMkxSWw20J7oKkKCxoKa2HV8CAITQL0AV+gDa9xfoOwASCrLpC4YNlXuCKbEuQGkUthf/tuJBFLcfgTe3JN0UVz9xUKxuVgJ7CqwQ09yKHH1JLe4lz7lC7ReS2tibIFVspIURtr9SoGiUirtCAQ19xCIq21XJL52EGwAgaGnQPcAQedxfqDAqw4Jityyib9SlwKgsgLSGhKgCGxVYc8DVplB27EspshsCovdjdEfYAp8+o/0EmU2wiGFFOIIikhpWJjjtZQ+BNDr13F5CHQmFPyOqAkVbFpIT344IIodU0FD+4UJbl064J8lJsqBLenuKSMnJMlsEYnwIt16kkaJcDsSe7H4AXgTVvYoKf6AY65HRVUCYUkqGLyPkIkfuOhP2AV+oxLcdJcACY/0Jpr3BJgV5B7hyFWAqsapDrYTALRRjRaaAGr8ADkhXaAGAnsSgKfsTwMXkBpWElsP+g2tgMTQ6K7QoCbotMmv2GtgLsa9yRJgU0hCY+bAxvljQ3EEgBgg4FsA2SNoKYQrHdi8+wXQU73GSnuU2AIpkp2VQRKKS2BBYGOtwosQVHkBurFwFCQPgVsXgB3uFtsKABLktUSiogMqthW/QLd8BAh8cB5B0ERywpDdWLwAKkS+RshhSYUDJ88BT8lfzEuBgOkJjB+wQ4sKV8i8hQFLbyJyJbolA0pv0EFsl8gJjSBoFsFCXsWSkuRpgMENIfCCJq2FFJWTJUAmiUr3L3EwElQUhxQPYBSRN1wwf8heQo82UhJbgANegJFVaBr0AVAkDbolgNy8BZI0gE+ARdCYE7A+AY/AEoYhkDW4bCvYK8lCY0JDTIAKrcaVlNbFRDfoJoq0gAih0VsJgSh1Y6E1uQJpCY2twCkuBNFUIokGVQNEEBRTCyocUU90EdxtAStgckMiSsAk7BVQKqQ/AB4CthoL9AEkDQPkpATFMbVj3ADp7pg+XsNjS8sCUVEG9giygb2HEbarclPcIrwL7Du0CYCkvYj9C5OyKsLCfADbD3IpCLcdhUUEV6jewKtimghVaE0PjyS2CE1XkEG7BckVUbQN7j2oRUSKimJEUk9x2gBr3AVgCsaQAg2GJ2wESW0KkAkyhVsNMABIrb03BexU2kK2G/3EiA8CH59hpb+xQq2H4Bpjj7gRQ3sW17Etb+wNp4AYWFHgTGIiEUluA09wB0Km2WOgm016g6GDXJQueBO0FgQSDVjaoSCh7CTYNsVhVoZC3KVBDv1JfJT3J+xQWxNoGKrZFOw5JopSrwBS/KJh3bbibCATvwN+wASNIdDAVWBdegqKJv2AbQqIGh+BIKtgN7hWw0khN2yhPcEhpg75QCqmUSFkA2IOQ2ACQY2FC5KJspBD3vcTRVisoVjtifIgLT4GQikwikglshWTd8gAkPYTYUeQaAGwGhqiBp7gZExS3Iuh2gmhX6C8gwClVgwvcRA73HfHkS43C/QAkSx2JgJbv3G/UEqABbuiktg8FJAJoT5Lp+AlEG2MN0VQgGJuiUx/cAv3CwXqD2APsCB7irf3AYWgYq4AfIeNgoK2AlscWv1BoTAtV54KSvYiPBfdsA5JLcirdlLfgf2KjG9gVNDkiV6kU7vYE6QrDlgVTY+EJMb9QFIRUuCWAn5JSGNLYAoBoGBDYUDQetAG3gaJQcBTLTITGEWmhN7irzYAO3+ghrYAIaBr0Kqwa2AxgVRIUbiKEwEi4oluiosBlJWiedw7qCKaoTYm2CAT3EypIh7cgAmtwdi3YU2T2lCASKSsK9B0Aq3KQuACEwdDaE1sBLChioKBpAhtUghEuN/YqqEwoiqGlvYR4HVAUqCiUMIb2JYN0G4CbrgSG1tuSgRf9SG16jIlyA27QkvQRaQUVQ/G41EUghMQCS3ChifA3sJgCVj8iQwK8Etj4JYRNjKr1BquAqBsVAwChgBAhrcKCtyh7eGD3W4IfPuESHPgrxuL0ASGO6EA6IKZAFIQcDAK2JfPBQmgEh+NhfoMBUKqKSBgJBuIpewCb4EVQqsCRrgdDa2AViux0KgDyUtuCUiqAe5SQhd3oEdalZLqinyT43KqfA/AUOKXkKli3syOO+wu2iGyXA48C4+44tplQ3sJjve2HIGN8lRsaVsFsAcDVbsW97IaW4Ev2Ki6uxrbkTZA3T8iVW74DexJFAFFX6Cb8gHKJadjTD+oEiGwRFLhByFNjpAHA/sJoEvBUNIqgTDkITQu30L2r3EBDVchXoVW3qSwpWNS9RBRFN1QkNMa+wQJeCkqBFJbFTafYKMiX/7gcaCbQ1ZNeDIlt9yGgqfBPDMhFbhYKu/QVblp7e5LdgSxr9gryOqIHHgZN7lLfyVBVeStn6iaFdADQhrcPIC2qyGW2mqJaCxMuBIbERTGkCKquAhJPgKLukDKm2NokyNEtexFlSFWUkFBSDyP7gEJclLgPcRQ6tjSJHZA2LcpVY9iomtifJk4E429gqKHTdDpg7QCaoBK3sOiBKhthXNk+QH9wCkMCa3HVDACXyFDa9hAFD4GhrcBCY6HVqwICgY09gFwgsVg0BdiZPAX+wDGwSFJAMHwJIqgIXJX2AVgBQq32B7MAEPwNICKsH7FvZVQqAm2hclNEvgKOEIb4GkBPI0qKSD9Ah0vIxJ0CdoopAxFVQRDe1ENWzI0hOIVjoOCmT5IosYqKoBBRSQ2BIqGwCDagE2UtwEKn5KQmwEV9iW6By9gGnQ7IcvQcd0DQe4ihNWAr3BeqDhifsBSKRCZkVVuULexPYf6CYE17jV2OtwogBN34KqvsQ1SAT9yWPkEgoSG/QdBXqEJIexVe4nyAAkNIKAEqBitj53AAsG7CtrAlia2HyH3AxuwKfOweNgqaGhie3kB7euwbJEi8gXe/A0yVsFsByl6Esa9w5YE8IPI3sS+QKBISHdANA2kMTQQgb3DgQU+QEOXGwRLQDT9Q55AExumgoUgE3TJbBrcbCmhk2OwHQ09iWwTCKaBbCKAiSbYqoth5AlcEuPLLFQVCX7lUBSargFNfyJa3HYuQiWS2W1sQ0FJ2xpeo0hgLwDGACoT5HTsYEoGiuEICGqChyBAFbDSGFgFUT+hasH7gQ9wQ69ArcCeRpeoxchBsxP2KEkFKxJ0OhcAPljpBEbQQkgZS4CgFRK5KFsAUS/JdkgSNK+QKiAmtxxQ3yJWAMVWX2ioCKH2ldoUBA+BvYTYA3sCW5LGvcDqrgP6DaQcMoKsdWJbvky9qoJax16A7oyOInEG2IapFNCaTQXYVP7CaBMdbAJMPO3ANUCpgNbFbWRVPkryED/kJukPngl+QJHYq2DbcNC/FlrdEX6FLcIYP25K2q2w7U7CIaJq+DI1sKgu0cC5ZVb7g1QCT/cfkK9AfNgH3ExD33AE9wsRSVoglt82IqmthN0UMe1bijT/AORVAYy0h8e40tuQCK4LSJtFp7Bkq4G0KT9CXbAd02kS79ylGkTLYBeCXY7AKSBqgfIW2FCi/wBBNUXbSEle4C7SoopKl4CTCbKiXY2/cYEK1wD5K3RMvcCXywBsTIooS5ApIKcVZadPcnh7DRWapu0Tww4G/wBABpfoJoOCWAEleCWRQ/cAv1BAMSAAG/cm9x2/IqApMpbkoNyixciT9RuvAQOxeNxodKwJqtwbd+w3YfcBNP8AUVDvyG5FQyo8hQgKuibHQv0KHfgAewrAaH42JBOwHvQwTDmghCexkpUS4hUUCKYMCQKSBrcgXkfIIpR2KFFDY/AVsEQwq0V23wFARQJblMEt+QoSRaXPBNe4JhKGgK80KgIaJZckhNe4VNbAMPJAtwZQmgJGkA0wHRS2RG41uioH7CfsME9gqGrFRdqhEE0DbQxPcKEyifuNhA2CCvUOAEwQMV7hTb35HySuSrAT3HW+4DplRPbuNKh0xogVBsU0DWxRje4qoyJCa3IbQtikwaBcANewNBdD5KDgL2ChgL7CaGJu1sBLRN19hsXkgfgpIS9yraAYlyHkadcooEvImtyr9BXYRLQuC2iGvAUJ7j5J+4yAYuUMPACQxAwE1uLtKE2wJfAh8sdBUpD3GAEsBvkQCEuShN+gACAdgUhCBoAYhpCYC3KFwFgJjQVbCgGDBclKNhGOhNFyVMKCsaQxv3D+oC3BB4ABlKiRcgW2gv8AclDQQ623JbpMGwCpa/cey5FJ+hN2BkVBdIgdeoDbvgSQ6/YVgN7Cdg96BANIdbAtkFhCkTFjbsEkFN0S3fBTRHDCE3vwNAxBVJFJED3Aq2KrBcD2QQqBgwAnyPwCQWBNMHwNv2EwpJDSsOAQQ6oGFe4mBSewd2xImvAFcioEJsBib2BWDAORxEqGtgGCe4kVTsClwSxtUgsITZLexdCa3CooHX6jfAgJbYJAO/Qg66GkJr0KjsjSCtyrr7i87ikEXFpsGR7g2xs0JckPkHLceyDRJFJtMlh/UBvdiQJDogPAIV+gFDi/IPcVfuCTCE0TVsyJfuFBdsaRcUNrwwVAUvsXRCZSlQZElsY2jLdkOPuCMb2CmymgoNbFeonG+BhwELt2Br3Dy/UOeAo7QopIbVhEOxNehTQlYVNUZIbIlRK8UEDXhC8cg9heQBv9x9/pwD9hdrXgKqwTuxIaj44CHzshNWXVIW9BGN7MlvwW3yY3/ILBdv3LSJS2BWFq2rEotFRdJLyPlBnZDcR37isCe12N8i7mJy29wH9iWxWw87hpIn9wYIimkWiUty0rKlCVjew1tsEq5CJYrob4Ie7IG9wryPwC9ygpIlrcp+gMgmrJZW4J/sVUgVzwgcSBDp2OtgXuUJIHsgv0FfqAJlLckNwG9uAsW4uALctvuInllJsB7CdAkOqfAQnwJKxsEFPxyFAvYqgiHHcTWxkaIrfYG0MEU1QiKpAHFULcotbhX7AmEmES+QFe/INhQF3yCZS34ANktxpe4gQQ29xqiJcgn6AZW/CIbGnRLdg0GtwolrcdvwFD9OR+4l6jv2Ad7ARYrCLb9CeXuTuFhVtUFUTyC2Adg2Jh6AIPuFhsBQWKrDYCrIofIq3AfgQMGmAm/A2g7RuiCGuBhyNIBIY0BRLTFRQiKgpBX6ggK8FRrySikVKbVgl6DCwgdUSwYPYCW6Ym/A5cE+dgp3YDXG4n9yAsLFYwBFLdbEJ0UA29iX7BYkwHQnVLwEmJ8AMaewg8UA4v2HbIXllJlFBshWLYB2Gwm+SXL0IG2IQeNwKe4gbpibAfACsLsB+CWNtCsKSW5dAuA9wgoK2KE0BNIlr9i2vQh7PcBMkYchSGgAKpcC5Ae/AQWJj90JgIKsdAAuEC3GxL2AqJTaJBBD8iHsDoCHwIpiQUmhJFWS6AaFdh9hrf7AFtBYvJSVgIFwOqACJbkl1YUAgTH/QKAd2T60MYCXA1sAvPsA7FVlbBQRKQ6DyDAmVir1K4DkKl+g0gBBA1VirYpokKF9xoPAqCG3uD9QGwJQ+eR0DWwE0JsolrcA8BRSoEq4ARL3KZKAEvYW9lMSAEDRa3QUBC9hO2WkHaBCQ0hy2FaAfBVk+4UBT3KiiUtikEEvYh8lv2JoBJbEyLZLW4VFIEXSFSQHZdIkpr1JKyVsL9QaCgp9wrslrcrgGi2+4eAEuQp7UCQwQQ37CaBP8AcP0AVC4ZQmFCC6BDpBDi7GKqEAP+QkDJX8wq09+C00YbdjT3CaZf1E9hRY5V4CCxbC8iC6DQDBLcBUUlXoKxrcBqmORL23F3OwmjS8gyXIlvcLpX9RkXTpcFXa4AcvsKr8j+4qALG22+dxVTDgB8FR5IGtvQFV5BisTbCEzG+S2TWzDSkGwlwFXREVFqy62JSHv+pUJumKxO6E/NhQ5V/wASfOwbeQ4Cn5Few1wKqZBLGvBSSCgbCTKSBcFJlQWKVFXt5E+AiaFRTCgqUh8cjE3uAmFBwFgKW6JMjaomt6IoiNk8bA3sAf0HyIool7ewqKe4uACthVsWSwFYMpImiAQxML4ALod7E+Sq9Sgoa4CwjuA48lqrEHkIqlXsRLcdrkK8hGNp2JIuRNb7BolsVwyfJa3QC+xLG2KyAYmN8CAaGgRRQg4HQcBEvYX6bjFtYU7sBWO/2ApLcTQXYUEHBLvhjYn7hS5EPkTVAMPuLwF2RT2sPIgQDAVgEPyNkjQDViaKXsD4KFSuxDoK2ALBJircpAJifBTYqYBQV6gIBvcErVErnYtSpAJrYllt2KtgJQqKEQNLYadCukIoq2NepC2e5SdBDdeCWxvgO0CfQKG9mJsKZDQwIFQPyU+CfLsKFXqDfAvuDWwFJ2hcCSDcBOwrf2GuONhtfoAVQmCYIARVUhJA+QgsGq8iW3gHxuAXsKrHQ0gpONISRbXIq8hEtCaKokKEIKGBIwfA+AKChcPYLsIryAkynQE8Etbl3boTSAh7iaKdVsSFSOgGFHA1wAfoEGwAS2AwfArYAMBWF2A/JSI8hYFPihNitggGxVsOxMBNA0hpA0AuRoVlJAIFwFFLgIXuxMr2FQEvgl3RkoTQVCGgbF/QBpDJ3Hf6gHLKUSVZS4BVVsS3sPyCQQVasVFtKiXbAhvYEOgAACt9hpAKiWjIzHwCBcByw2Xka4Cih0P7CsIpRFIae3AnXgCKCiiW639QALQruwAGrBLkq9hWAqGkAXtuA6oW4Jj/AEAKFJhYmBD5GlsNjtIBeA5GxNgNclWkjHbopWBVoTfoJIoBKxNFA22EY/IeC0l5Qm0FdhkA2CTKyT34KoPsNbBUNAkU9xLZgKgS3LpeBPYCfIP1AKAa4G0JUNhEukieSg8hS5+5a4JbHGgUSJb9i2iWCJb2FfA2mxdpFJ8jXI0hqNlD+wc+AoLCKSVBsvAbMT+wQmr4DcdewV9gqaKQgsBvclpl9wmCIlsSU/LEyKF7D4Aq2US2NcA9gtBCbGJsV2FX5CtibHYRSQeNxegV6gLexPYtIXggl8h6Ia9xpFCTYW7+4Sdol7ANu2JgrHWxBjHTsGt9gChoaQ0OLRQUC35AGENiXIL0G9nuBXIn9xJMGRC2Df1DtH7FUnxuFXyEuaCvYBNXwJqmPcHwFJL0Y2HCQgBpWTwPwIgOAsGCAP1GtwSLS2KVKXgKZX2GnsE2lKl7g6B2IAqhNDW73G0FRFFNMfHNDfsBjoE/DKaflB2kAvVjFxyDe2wDC6QqrkVlQOwWwir/AECk2KwfsIEDD2GJ7EUIQxp0ENIqr5ZFjsouthPcadgEQIppP2EwqSvBNFqgEkUlsFBv+gQmkvcT3L8Ev2BE8Eu2NifsRoBWwIYCvcYmFgHIWC3e4AMZLGgHx9x1fkEttw8lQ69RPcLJAYr3GCAe3ArSFYVuBW1EuvAeAAE/UGLyGxA7FYMaEAhpE+SlyrKE75FuU34SFYBQkNbA+QKQmxNg0AC5AAAAb3AAYh0BAvuS+diydgpcoaBKwYByOhJjsBMEhpFJA2l/YT3+5QmghK/I6H5BgSMNvIcAPahDQ0tiifvwTLgtktWQR5CkPtCgoS9Qa/QaV+RtePIGMCmqYq2AaKVMlD3CGmhMErY3SAhoVDbsP6BUtIBsVgL7jW4kNbIAbsmrKHQEg+drGyWFC3Gg8C/oA39gFdlJbBCHS8BQVuAC4KobjtYRNgNoGFSluMAtAJP2GAJhB5Y1yIEA2yWU1sLgCGt/QEigCpoaG0H6gKgqiuEKwGhuiV7jCCxN7he4eQAVFUL+gAPYNhugiZck/wBR8v2E/cNQqHW5Kew09wLugEvsWq8hCvYngp0JhCJZRLCwkNibBgG42wQgGroT3Kv9xUA0qBv0BifICsTW5SW4NAS0HKHVglQAJ7sbJYB5GSl6jTAqLVlfqQn5Cn4AtsURUUlsAPchlksDqIaZK9y1S5KlFjf8gXqJqmEH9B9uwbjdgCSJkNvkNwJSsRfj2JfIULgL2EHkA/cBvgkAGuReRrgKa9w8CbAIqvQSQIukgIqg5KoGrCIbFyU17k8EWGlsUkLgpclAKi2hNcBErnce1AJr0AKE47DsLAihVfgti4fAXZV+wDDtAK3Jr0MqQmgbY3wKjJVJglyDbHW5SXqVQeAbCXsOmKK4K+wQUL1C96G+QJqgsciWAmvLE1Y2JP1ChfzAd0xvdgKq+xLiXzwLcCQ4G0hVsRTv0Ff7BsNRKFY79hVQXsQPu8D8EDXsEUiq2ITZbf0lQmvUAoTTCplzQnwXRBBQUTyN+9lUP0oiir9heQFXqCW4DXqiBoputvJKY6soF78DCgfO4QfYlclVsKgCgd+GDGt/QCRpeQaKS2QCrcG/2GJrYCZEtUXuSyLCtiHQmFMQXQkBQCbGrooGS+RtAyAAQwGMlehV+hUNbIHIT9BMB3+wgEiB0H9BfyGtmBX9CnwICodepDKbIfAWDwKtx/qJsgTQD5CgpeQ8BQACD7DF9uQChrZiQ0ANj5ENUigol2UtwrbcIlDAaASQDr2odATQD2DYCathyiklQvDIEKxsSX8wp8jSYLcpPbYqB8WSymydgFyAxPkgBiEUNsmx17i+xFCGCAATSGILoqB2ILsaIo8ibAOQCLGg4AClsAkDZUAAF+xAgoLAB8g+QVIGygABMBt+hL9RNhXFEBzyNLYEOttgE9lsHgdCkgJe4vuU/QlsKaGnQkNoA7vQG0xUg5ATYN+Aa3FVAIQ69B0FKg9ikhNBC8D8hTLS2ugJomjJLjgnkCaJaMjW5LAlb7lIQ6AaKSJRa2CHQmMW9ASxNFoTAhqhDaCgpUOtx8ABPkaEwQFK/UQ0L7BAAw2oCWH3HYnyAcgkL+gwDyDKaJfsAhiTYOwp2AktykAVsFDWy3EES+SZF0TV8hUlJbAlRXACofA0woIkfCGkEgJZNbFA0BHCGuQYBQ+BeSqCghIB16gwGLyKxoBktje/IgAAsOQJYV6lUAVNbBSGKgGkqAKDgIaKRK25KT2ATZDKa5EwOpQwSHSXkqCLobBfqNcBCbGhJFJAKvIq9C9qEVEPnbgXH3KaJZFgChA9yKGSyhchS9B3+gJCYDQ48bCHwUWtiiIux7eojJg/JN/sF+oCYht29iQpjT9xeA+wFp7lMiLRTYQMlob3EAeLCx1sJ14AV2OvQmrHwFDKX2J5GkEULwUgoIlsQ2kJBTslvfktESXoA48UyqIj5LTAnZfcL39gZKQD/qJ8juuCbCgPACQUb+CknsSnRcZbBD7dhMfd6Ck0whe5L5ooWxFiasPPJSYmFSNE+BoAaBAwQDVlJ7CVeu40VDsHLbwIK9tgE3uS2U0iWiLBYR9xFL3Al+4IdKwSKF42GimBBKVMyJpckJWN+5UVt+gnQkhPYB3v6B/IB1aAlIdcjSABML9xMALbE3ZNuw58A0dIVDukL7kEsRT28CCpYkxsS2CnyNr02BcCvYoOQY/AECChiABgMoVgwEAD+4CXJAwHwK/3KirByJTYgKTEAWAnsL7j8AFAUNqkCWwCpgluMFyELyA6EkFFbg0HkLCBAANBTtJiv1EH2AaH5F4Ggh1QrC06DmgE2H6gKwGCEBA+QXIKkPyUC2B8jXA6AXLE0VQNXQRDEVQqCl9gG0HgBVYMdA0NBCrcqhAKhDe4EUkNITW41sAPkQw4AAtWIAHYegUDABMLABoafoib3KTKCrXAeQYeAgb/AGFYCogXkYmvUpMKRQrE7f3CGLdgvcYEvbkmi37kvnYKKG+NmLcaAVX5HQ68g9wif1BvYdW9gaCkuNhgrH4Al7sK3oGtx8AFUDfoF+pIQ09+CtiEyrAUuDGXImgo8AgfAwGn7lWQUghx3KteRJ7KyWwHasl87DvZBVgTQ0MVsAZNgw9AooAQBANArGkAnwIpiQB4Exir1CgSQ/sMIT2BsGh1QEAU/FE8hTW5Qlx7ByED34Y0nQJFJUBLXsJ8lNioInyH9B1vYNBSsYIKS9wBcci5KSDYCaB8DrYl8ASwS9R+QAdWgBMPQBp2Sx8cA9wJBBXoIBhuJFcAFbCHYfYAS9xMbEwEPkT4HYAJhJiQFLdDEgAUtwHQqA60VY2gWzQ29iskFIXcw8AP9RpktNFRVgNMBpeg0rKiEnYnF+S2mgapENsVUH2Kadk0GiFVF1sJ8AK9xMdB/IKSB+CvQTQCTK54JS9irATALD7EQhpMErGlRQ2vQSXoVQJMISXuD4KSrkTaAlWO6ocd0FIBdzsS3Y5e4mAXQeQKtBU2NbAkUECY6AV7e4Q2iZbC7mxSYUdxLY/INEUkxptMSVsfBQrGTdsoKKALQm/UIEA1uJ0FJ0uQjzsSuSlYFNiu3sAIBrkl7lXS2IvciAKti5KigpNWIrkVNFUC+w6fsPt33IhfYFsVwAAFgJlQMVcjQ7uyCfAvcq9rJ5e5VNDoVbjT3IhopxSFYL1KF9g5G0KvIBTB1YW0S3bAvxsIUX6DfuAXQckvka2+4A68iqxsVgCDywQAFeoU9uAXIyKjn7jGhP2KJYtil7i+5FLcf3GlSAArYRSaE/YqF4BD5FRFKtxhuCAAQ27Be4AJDfAgBioaG0AkNbAhoqEJ7lUHAE0PxwOxNeQExhVircB0J8jsLAT5AaEwB7hQedgTVAK/QLHVhQUvI6QfYFYQNAPwJACB+KHwJ8ATYcDoTRFA0JjSAHyCT5KrcEVDjsNvYEgdBAuORN0we3BK3YD5YhjS9gE/sJFVe9iaCl7C9yvBLf7APcT5D7g1fABXIBXoOvUAUdg2HTCvQCGTuZGS0DaaYxsRFMVWNDoqJ4E2VL0RMURQHA2vUQDsPuAXvQAFsCWwKbJtBzyJAUUlZHr6lIIb25J8DuwAlD2DygYAxr2DjkFwABQ63C64KF27g+Pcq/ApP2AkQ/5BW3JAqYAybCmJ+wxPcArYOA34CgE37BYmN7sBFUIqkAqoL8DEt2AN+oexVbC8gNITYXaFQQ62E0MPIEgANBSKXuT5LSYQuAteR1QJbgHLB1QEsA2EwAKKGhD8hDE91sFeo6AmgoYAAqGAAtkO6JaF5AodCX8xp7e4A7ExOQLcA4EPjyJv9gBNjRNhuBUn6EPgYPgCRiEwpoojwUqAB0ANhCE1uPkVb+4DQPkAASKSEh8AIVDYgJsFQUIKHzY0CKQB43EhgggXuK02NsQHYr1Ctxh9isJq2HI68i/UKdWUuSYsZUZE9hUSnvuU23uASENoEvQIlqiJbmRktEVDE+R1bE9g0GIB0RRwwbvwIpepUJBTH9h3sBFeRpDGvANhCKoKCGtxtAMqEyKt8GSthfoBNUhUymS9rIpA0OwAl8iHuFWFA0NLYOOQhiZSE9+Qia8jS2GD42Cprkll+RcvgKkRTEyCXyMVDoql7hVjfsNKyBVs6E9yw7bKjHRS4G16BQA2hbBJCSCm9hNWNqwoCa2GOvUKAWwJ7ia3GiBrcYLYG/YqDlBXqNMG9gIfItxtEu2RRdjTVC4AopLgTW/ADV1QC35Gt9kOrCvQBqJXbYrYJv8AQMm0Sx1fkdUBD4IfPBbdira2FC24W41vyAueAHSXAAkygJ+5N8Dkr4BILCXI+UNodbBE8FUKthgJolosT3AhiZXaOtgqF9h1sNIfsDaKHX7jquOQoG0h4G1t6iIBBIdegPYqlQxW6H6BCd+AXkaGlYE7DTKrwSAq3GuBodASPwH3B+oAyR2C9gEMaXr+wMCarmgrYprwHjgG02HkdDoCXuCRS9AQE0NIdAluEJLcbiUICXyC5KaFwwFIRXkX/EBVuFDS2AKhoaH9x1sAJeWNfYEP+gRN+4WDQgDkfG4k6E3YVTaC7IGtgHfoHCEnuDdgHcJsWwANbBYmAFR9Sr22JtUO9wGwodBXIRD2JLkvQmwo+wMPcHuAUMEVwBFDSKFv4CJZN+CmqJCkHA6F9yKLBpjDwAhV6DaDhWAew2ITAaYciWyHewAHAtxrgAuhpi2GtvAQ27Qf1E1uHjyUDYrsbYmQJv0Cx0JoBeo19hpDCpoKST2KSFJBE2J7spoGkFQF7Da3E+AFe5RKK5AB1sMT5CEJstKkSwpIrx7iS3G/ACDu2BkvcB3YrAKAEV3E0OgKQ79BJDT9OQgZMinvsTXsFTTsFwVVgwEg4BiAY2IYQuEC3BggDwMaEAbB4Fwx2AMm7+429yQoDwDAIAfAnsKwGkFbkp7jQVXkT3D7iYCoTdFLkmVAHgNwACvAWheASCGD2GhMBXvuMKCtgp7CbATCCxA9hWFD5AXgaoB1uNLbcSHQQAFBYA1YC8DXIHZqgQCfBWA2QywaS+4VMeWV/UXn9At0A/JUeSE+Sk9iouQnxsS3YrBo29mRuxvcVkUqEx8iYUvBXgVWUgUkqY2rHYVsETX6jCtw4AaDzwLur2GmAPYd+oMn7AVZSZFgr8lRk7vAt6JH3A0QmFu/YLAgdBavYTbI0aVjr1Ev5jbCGhNDQWgBcBQ+AKhNOkFIYAJoSW5YtqCk0Q1uZOCWv2II4YVsUw87BdoGuBuv1DyAbjW/2BDSXgBJBsV4EkETfqFFdt8gkDaVsHkpxJ/UBMQ/A0gqWgqhyVE3uFO6BMAogYwSrkf2KiGLkuSZHaQKtg8lUDWwVNDWzF+pUUUNoXBXuGwRJX2E3tQ/HIB5E6AEAqQDE9gJaHGgT3DyRVeQGlQP2KyVblKIJbDAVb7ibG9xVzwAbBdDSG0BFsB1wLgBCplDTpBU16jGACoT4B7NDXDAhvcEvXYdbhWwUcMllUvAmr5AVNvYfaC9h00gBquCa3HvY6tAKw+w6qgqgFY78ITQv0AG3Ybg/sNgCVuvAKlYd3gFdeQBL0G0L05G2gg/qJegwa3AdBV+RcD8AVS8kv8AkH6gBKRV0IGA7BPcnyGwFN/sTyNvYVgDFYMfIUWKxpBQQJWOgSGAeBeQFb/UB0RJ+CqE/UKn7gkD2YJ0AcCtjDYBB+43vwHgArgTBsX6gAANAFMpLcEPhWgH3VyLuvwHkTX7BDZNeWOw5W4UmAhAVyNCXuF7AF+oWKw+4A3YhiYBwhMQ/BFABVjSKEiXbLfAmQJILGgoAEvUdA9uAE0AedxAHkaChgG46EOyoVK9xgTfqQD4DygXIBVOgYvHIBDTJb9Rg0AmyW7GxUFIXgbYluAFJC8F1SAT4GIaCGQ0VW3sJgS/5h55CqdD8hQ+dya3KSFQCBD4thQCoY+A5CEOPuOhrkABsZMmAPzQmPx7CkgJDaxPkAqhchVioIPuNALyBdomxeSk1QBXqDBMdARW4VtsUxMBMV2Nbg0BL8CRVB5AlLcYKhthUsa4B0waoBMn9SmhACBsK2G9yCUy/Akg5KaCAfAIIKEy/sDQRAF1QUFY5ImjI0QwFW40h0CCmkJ/cNwSCE2JcjYBTQuWNBQR2l+Ww5QAaYT5BgACZMnv9gAik3ukVYAFDYnyACIcfIm+QAKGDW4AIG1VD8ABUPzQL1ACCW/rod/1AAJYcMACqfBLewAEA/cAKHQLyACAqifDAABvcVbABFO6BPcAAa4DygAIaBsAKGtw8IAAH5I8gBCBMoAKUkt/sMAAmWzFzQAQNbit2wAKpcD/AOYAEUJgBUTyTLkAIpBdMAIpS24IYAFhopAADV7+xUeUAFShvcXLACBCfAAAq2BPwAAX4F5AChrixXuAAJ+oov8AkAAVwJgAAw8AADBOwAC6DhAAZSw8P2AAqrdC5oAAFwP1AAJX/EPYAICPAwAolLca32AAExLgACwv+ZQAAVQvUAAPALmgAAaB8IAAHsxJXYAQDW4NVuAASvJaWwAVaTQmABBwUuQAgOWAAUFbWOtrAAEt7E+QABeQXNAAU/JF1YABXNDXIAEHoAAEOrE9kAAga9w8oAChk2AAJukIAChAwABPYLAAD3AAAErHwAAFtcFLdbgABLZE8sACKSBugABeBJAAUmEQAgbEAFgTdUJgBAeQAAojyUwAREiqgAKaHQAEFCewAAkLlgAU/KQ/IAIGIAKhky4AABKxPwAEUWUgAFPglt0gACO5ug5sAAAAAGtxxAAGWlQAVC5smWyACCfJTQAALcQAAPwAAANBxbAAGuWNeQAAaCtgABNVRLYABHka5AAp8Ce4AEHsIACihrZAARVUCAChNAwABUrE3QAQAnxfqAAIGABQuB+AABciAAFWwMAAEtiluwAFDGlsABFRAAAI7oHsAFRDfJC3e4ARQCACKpDAComSF4AAoT2QwAI//9k=;" vertex="1" parent="1">
                    <mxGeometry x="540" y="90" width="280.23" height="187" as="geometry"/>
                </mxCell>
                <mxCell id="5" value="&lt;font style=&quot;font-size: 18px;&quot;&gt;Show Random Word&lt;/font&gt;" style="rounded=1;whiteSpace=wrap;html=1;" vertex="1" parent="1">
                    <mxGeometry x="30" y="80" width="170" height="60" as="geometry"/>
                </mxCell>
            </root>
        </mxGraphModel>
    </diagram>
</mxfile>